<svg xmlns="http://www.w3.org/2000/svg" width="300" height="303.04" viewBox="0 0 300 303.04">
	<style type="text/css">
		.st2{fill:#1d1d1b;fill-rule:evenodd;}
		.st1{fill:#ec5a2e;}
		.st4{fill:#ec5a2e;fill-rule:evenodd;}
		.st3{stroke:#1d1d1b;fill:none;stroke-width:1.64;}
		.st6{fill:#f29100;fill-rule:evenodd;}
		.st5{fill:#c6c6c5;fill-rule:evenodd;}
		.st8{stroke:#1d1d1b;fill:none;stroke-width:1.22;stroke-linecap:round;stroke-linejoin:round;}
		.st10{fill:#7a8981;fill-rule:evenodd;stroke-linecap:round;stroke-linejoin:round;}
		.st7{fill:#1d1d1b;}
		.st11{stroke:#7a8981;fill:none;stroke-width:0.62;stroke-linecap:round;stroke-linejoin:round;}
		.st9{fill:#1d1d1b;fill-rule:evenodd;stroke-linecap:round;stroke-linejoin:round;}
		.st0{fill:#000000;}
	</style>
	<path class="st0" d="M30.38,228.58L31.06,228.58L31.06,231.74L35.08,231.74L35.08,228.58L35.77,228.58L35.77,235.52L35.08,235.52L35.08,232.35L31.06,232.35L31.06,235.52L30.38,235.52Z"/>
	<path class="st0" d="M39.84,235.07C40.8,235.07 41.36,234.09 41.36,233.22L41.36,232.99L41.07,232.99C40.3,232.99 38.72,233.02 38.72,234.13C38.72,234.59 39.1,235.07 39.84,235.07M41.06,232.46L41.36,232.46L41.36,232.32C41.36,231.36 40.83,231.04 40.13,231.04C39.63,231.04 39.13,231.21 38.72,231.51L38.42,231C38.81,230.66 39.51,230.43 40.17,230.43C41.37,230.43 42.03,231.1 42.03,232.34L42.03,235.52L41.39,235.52L41.39,234.94C41.39,234.69 41.42,234.52 41.42,234.52L41.4,234.52C41.14,235.12 40.52,235.64 39.72,235.64C38.88,235.64 38.04,235.14 38.04,234.19C38.04,232.56 40.11,232.46 41.06,232.46"/>
	<path class="st0" d="M44.57,230.55L45.22,230.55L45.22,234.93L47.35,234.93L47.35,230.55L48.01,230.55L48.01,234.93L50.13,234.93L50.13,230.55L50.78,230.55L50.78,235.52L44.57,235.52Z"/>
	<path class="st0" d="M53.37,230.55L54.02,230.55L54.02,233.81C54.02,234.12 54,234.53 53.99,234.55L54.01,234.55C54.03,234.51 54.33,234.09 54.52,233.81L56.96,230.55L57.6,230.55L57.6,235.52L56.94,235.52L56.94,232.25C56.94,231.96 56.97,231.57 56.97,231.53L56.95,231.53C56.94,231.58 56.64,231.97 56.45,232.25L54.01,235.52L53.37,235.52Z"/>
	<path class="st0" d="M87.63,230.43C88.28,230.43 89,230.66 89.44,231.15L89.1,231.65C88.75,231.29 88.2,231.04 87.65,231.04C86.56,231.04 85.71,231.86 85.71,233.04C85.71,234.21 86.56,235.03 87.67,235.03C88.24,235.03 88.86,234.78 89.26,234.34L89.56,234.85C89.13,235.33 88.39,235.64 87.63,235.64C86.16,235.64 85.02,234.58 85.02,233.04C85.02,231.51 86.17,230.43 87.63,230.43"/>
	<path class="st0" d="M91.7,230.55L95.85,230.55L95.85,235.52L95.18,235.52L95.18,231.15L92.37,231.15L92.37,235.52L91.7,235.52Z"/>
	<path class="st0" d="M101.96,232.53C101.92,231.49 101.28,230.99 100.54,230.99C99.72,230.99 98.99,231.53 98.84,232.53ZM100.56,230.43C101.94,230.43 102.64,231.49 102.64,232.72C102.64,232.83 102.63,232.95 102.62,233.06L98.81,233.06C98.84,234.32 99.71,235.03 100.73,235.03C101.27,235.03 101.84,234.8 102.24,234.43L102.55,234.95C102.08,235.37 101.36,235.64 100.71,235.64C99.23,235.64 98.11,234.57 98.11,233.04C98.11,231.41 99.22,230.43 100.56,230.43"/>
	<path class="st0" d="M104.89,230.55L105.56,230.55L105.56,234.93L108.31,234.93L108.31,230.55L108.99,230.55L108.99,234.93L109.68,234.93L109.68,236.7L109.05,236.7L109.05,235.52L104.89,235.52Z"/>
	<path class="st0" d="M111.77,230.55L112.42,230.55L112.42,233.81C112.42,234.12 112.4,234.53 112.39,234.55L112.41,234.55C112.43,234.51 112.72,234.09 112.92,233.81L115.36,230.55L116,230.55L116,235.52L115.34,235.52L115.34,232.25C115.34,231.96 115.37,231.57 115.37,231.53L115.35,231.53C115.34,231.58 115.03,231.97 114.85,232.25L112.41,235.52L111.77,235.52Z"/>
	<path class="st0" d="M119.95,235.07C120.91,235.07 121.47,234.09 121.47,233.22L121.47,232.99L121.19,232.99C120.42,232.99 118.84,233.02 118.84,234.13C118.84,234.59 119.21,235.07 119.95,235.07M121.18,232.46L121.47,232.46L121.47,232.32C121.47,231.36 120.95,231.04 120.25,231.04C119.75,231.04 119.24,231.21 118.84,231.51L118.53,231C118.93,230.66 119.63,230.43 120.29,230.43C121.48,230.43 122.14,231.1 122.14,232.34L122.14,235.52L121.5,235.52L121.5,234.94C121.5,234.69 121.53,234.52 121.53,234.52L121.51,234.52C121.26,235.12 120.63,235.64 119.83,235.64C118.99,235.64 118.16,235.14 118.16,234.19C118.16,232.56 120.23,232.46 121.18,232.46"/>
	<path class="st0" d="M124.08,234.96C124.91,234.83 125.27,233.89 125.27,232.05L125.27,230.55L128.31,230.55L128.31,235.52L127.64,235.52L127.64,231.14L125.92,231.14L125.92,232.05C125.92,234.4 125.35,235.46 124.08,235.56Z"/>
	<path class="st0" d="M130.91,230.55L131.56,230.55L131.56,233.81C131.56,234.12 131.54,234.53 131.53,234.55L131.55,234.55C131.57,234.51 131.86,234.09 132.06,233.81L134.5,230.55L135.14,230.55L135.14,235.52L134.48,235.52L134.48,232.25C134.48,231.96 134.51,231.57 134.51,231.53L134.49,231.53C134.48,231.58 134.17,231.97 133.99,232.25L131.55,235.52L130.91,235.52Z"/>
	<path class="st0" d="M140,230.43C140.65,230.43 141.37,230.66 141.82,231.15L141.47,231.65C141.13,231.29 140.57,231.04 140.02,231.04C138.94,231.04 138.09,231.86 138.09,233.04C138.09,234.21 138.94,235.03 140.04,235.03C140.61,235.03 141.24,234.78 141.63,234.34L141.94,234.85C141.5,235.33 140.76,235.64 140,235.64C138.53,235.64 137.4,234.58 137.4,233.04C137.4,231.51 138.54,230.43 140,230.43"/>
	<path class="st0" d="M145.3,231.15L143.5,231.15L143.5,230.55L147.79,230.55L147.79,231.15L145.98,231.15L145.98,235.52L145.3,235.52Z"/>
	<path class="st0" d="M154.12 230.55L154.79 230.55L154.79 235.52L154.12 235.52ZM151.47,234.99C152.27,234.99 152.59,234.58 152.59,233.99C152.59,233.39 152.26,232.98 151.48,232.98L150.48,232.98L150.48,234.99ZM149.81,230.55L150.48,230.55L150.48,232.45L151.55,232.45C152.44,232.45 153.28,232.82 153.28,234C153.28,234.9 152.72,235.52 151.53,235.52L149.81,235.52Z"/>
	<path class="st0" d="M184.78,235.04C185.66,235.04 186.39,234.31 186.39,233.04C186.39,231.83 185.73,231.05 184.81,231.05C183.98,231.05 183.2,231.64 183.2,233.05C183.2,234.05 183.76,235.04 184.78,235.04M182.55,230.55L183.19,230.55L183.19,231.08C183.19,231.29 183.16,231.46 183.16,231.46L183.18,231.46C183.48,230.82 184.13,230.43 184.91,230.43C186.25,230.43 187.07,231.5 187.07,233.03C187.07,234.61 186.14,235.64 184.85,235.64C184.15,235.64 183.53,235.27 183.21,234.65L183.19,234.65C183.19,234.65 183.22,234.83 183.22,235.08L183.22,237.49L182.55,237.49Z"/>
	<path class="st0" d="M190.71,235.07C191.67,235.07 192.23,234.09 192.23,233.22L192.23,232.99L191.95,232.99C191.18,232.99 189.6,233.02 189.6,234.13C189.6,234.59 189.97,235.07 190.71,235.07M191.94,232.46L192.23,232.46L192.23,232.32C192.23,231.36 191.71,231.04 191.01,231.04C190.51,231.04 190,231.21 189.6,231.51L189.29,231C189.69,230.66 190.39,230.43 191.05,230.43C192.24,230.43 192.9,231.1 192.9,232.34L192.9,235.52L192.26,235.52L192.26,234.94C192.26,234.69 192.29,234.52 192.29,234.52L192.27,234.52C192.02,235.12 191.39,235.64 190.6,235.64C189.76,235.64 188.92,235.14 188.92,234.19C188.92,232.56 190.99,232.46 191.94,232.46"/>
	<path class="st0" d="M195.3,234.45C195.49,234.66 195.96,235.06 196.63,235.06C197.23,235.06 197.82,234.76 197.82,234.1C197.82,233.53 197.41,233.22 196.62,233.22L196.02,233.22L196.02,232.69L196.54,232.69C197.21,232.69 197.65,232.42 197.65,231.85C197.65,231.28 197.23,231.01 196.62,231.01C196.14,231.01 195.74,231.18 195.41,231.45L195.11,230.98C195.46,230.69 196,230.43 196.72,230.43C197.64,230.43 198.34,230.88 198.34,231.77C198.34,232.39 198,232.73 197.58,232.9L197.58,232.92C198.12,233.06 198.52,233.46 198.52,234.12C198.52,235.12 197.63,235.64 196.67,235.64C195.89,235.64 195.31,235.27 194.94,234.92Z"/>
	<path class="st0" d="M203,235.04C203.88,235.04 204.61,234.31 204.61,233.04C204.61,231.83 203.96,231.05 203.03,231.05C202.2,231.05 201.42,231.64 201.42,233.05C201.42,234.05 201.98,235.04 203,235.04M200.77,230.55L201.41,230.55L201.41,231.08C201.41,231.29 201.38,231.46 201.38,231.46L201.4,231.46C201.71,230.82 202.36,230.43 203.13,230.43C204.47,230.43 205.29,231.5 205.29,233.03C205.29,234.61 204.36,235.64 203.07,235.64C202.37,235.64 201.76,235.27 201.43,234.65L201.41,234.65C201.41,234.65 201.44,234.83 201.44,235.08L201.44,237.49L200.77,237.49Z"/>
	<path class="st0" d="M208.94,235.07C209.89,235.07 210.46,234.09 210.46,233.22L210.46,232.99L210.17,232.99C209.4,232.99 207.82,233.02 207.82,234.13C207.82,234.59 208.2,235.07 208.94,235.07M210.16,232.46L210.46,232.46L210.46,232.32C210.46,231.36 209.93,231.04 209.23,231.04C208.73,231.04 208.22,231.21 207.82,231.51L207.51,231C207.91,230.66 208.61,230.43 209.27,230.43C210.47,230.43 211.13,231.1 211.13,232.34L211.13,235.52L210.49,235.52L210.49,234.94C210.49,234.69 210.51,234.52 210.51,234.52L210.5,234.52C210.24,235.12 209.62,235.64 208.82,235.64C207.98,235.64 207.14,235.14 207.14,234.19C207.14,232.56 209.21,232.46 210.16,232.46"/>
	<path class="st0" d="M215.77,235.04C216.65,235.04 217.36,234.4 217.36,233.32C217.36,232.22 216.65,231.58 215.81,231.58C214.84,231.58 214.18,232.33 214.18,233.3C214.18,234.4 214.9,235.04 215.77,235.04M215.49,229.19L217.33,228.33L217.58,228.89L215.66,229.77C214.54,230.31 214.14,231.02 214.07,232.06L214.09,232.06C214.54,231.26 215.21,231.02 215.95,231.02C217.16,231.02 218.05,231.87 218.05,233.31C218.05,234.68 217.12,235.64 215.79,235.64C214.16,235.64 213.45,234.38 213.45,232.7C213.45,231.03 213.85,229.94 215.49,229.19"/>
	<path class="st0" d="M221.71,235.07C222.66,235.07 223.23,234.09 223.23,233.22L223.23,232.99L222.94,232.99C222.17,232.99 220.59,233.02 220.59,234.13C220.59,234.59 220.97,235.07 221.71,235.07M222.93,232.46L223.23,232.46L223.23,232.32C223.23,231.36 222.7,231.04 222,231.04C221.5,231.04 221,231.21 220.59,231.51L220.28,231C220.68,230.66 221.38,230.43 222.04,230.43C223.24,230.43 223.9,231.1 223.9,232.34L223.9,235.52L223.26,235.52L223.26,234.94C223.26,234.69 223.29,234.52 223.29,234.52L223.27,234.52C223.01,235.12 222.39,235.64 221.59,235.64C220.75,235.64 219.91,235.14 219.91,234.19C219.91,232.56 221.98,232.46 222.93,232.46"/>
	<path class="st0" d="M227.58,231.15L225.78,231.15L225.78,230.55L230.07,230.55L230.07,231.15L228.25,231.15L228.25,235.52L227.58,235.52Z"/>
	<path class="st0" d="M236.4 230.55L237.07 230.55L237.07 235.52L236.4 235.52ZM233.75,234.99C234.55,234.99 234.87,234.58 234.87,233.99C234.87,233.39 234.53,232.98 233.75,232.98L232.76,232.98L232.76,234.99ZM232.09,230.55L232.76,230.55L232.76,232.45L233.83,232.45C234.71,232.45 235.56,232.82 235.56,234C235.56,234.9 235,235.52 233.8,235.52L232.09,235.52Z"/>
	<path class="st0" d="M241.47,235C242.29,235 242.66,234.65 242.66,234.12C242.66,233.53 242.23,233.22 241.46,233.22L240.33,233.22L240.33,235ZM241.39,232.71C242.06,232.71 242.41,232.39 242.41,231.86C242.41,231.32 242.05,231.07 241.35,231.07L240.33,231.07L240.33,232.71ZM239.66,230.55L241.46,230.55C242.47,230.55 243.1,231 243.1,231.82C243.1,232.33 242.83,232.73 242.35,232.91L242.35,232.93C242.99,233.06 243.36,233.54 243.36,234.13C243.36,234.99 242.67,235.52 241.56,235.52L239.66,235.52Z"/>
	<path class="st0" d="M246.98,235.07C247.94,235.07 248.5,234.09 248.5,233.22L248.5,232.99L248.21,232.99C247.44,232.99 245.86,233.02 245.86,234.13C245.86,234.59 246.24,235.07 246.98,235.07M248.2,232.46L248.5,232.46L248.5,232.32C248.5,231.36 247.98,231.04 247.28,231.04C246.77,231.04 246.27,231.21 245.86,231.51L245.56,231C245.95,230.66 246.65,230.43 247.32,230.43C248.51,230.43 249.17,231.1 249.17,232.34L249.17,235.52L248.53,235.52L248.53,234.94C248.53,234.69 248.56,234.52 248.56,234.52L248.54,234.52C248.28,235.12 247.66,235.64 246.86,235.64C246.02,235.64 245.18,235.14 245.18,234.19C245.18,232.56 247.26,232.46 248.2,232.46"/>
	<path class="st0" d="M255.88,235.03C256.89,235.03 257.7,234.18 257.7,233.01C257.7,231.89 256.89,231.04 255.88,231.04C254.86,231.04 254.04,231.89 254.04,233.01C254.04,234.18 254.86,235.03 255.88,235.03M251.71,230.55L252.38,230.55L252.38,232.74L253.37,232.74C253.5,231.41 254.57,230.43 255.87,230.43C257.27,230.43 258.41,231.54 258.41,233.01C258.41,234.51 257.27,235.64 255.88,235.64C254.58,235.64 253.52,234.66 253.38,233.33L252.38,233.33L252.38,235.52L251.71,235.52Z"/>
	<path class="st0" d="M261.68,231.15L259.87,231.15L259.87,230.55L264.16,230.55L264.16,231.15L262.35,231.15L262.35,235.52L261.68,235.52Z"/>
	<path class="st0" d="M27.13,244.13L27.78,244.13L27.78,247.39C27.78,247.7 27.76,248.11 27.75,248.13L27.77,248.13C27.79,248.09 28.09,247.67 28.29,247.39L30.73,244.13L31.37,244.13L31.37,249.1L30.71,249.1L30.71,245.83C30.71,245.54 30.74,245.15 30.74,245.11L30.72,245.11C30.71,245.16 30.4,245.55 30.21,245.83L27.77,249.1L27.13,249.1Z"/>
	<path class="st0" d="M38.17,244.13L42.33,244.13L42.33,249.1L41.65,249.1L41.65,244.73L38.84,244.73L38.84,249.1L38.17,249.1Z"/>
	<path class="st0" d="M47.15,248.62C48.03,248.62 48.76,247.89 48.76,246.62C48.76,245.41 48.1,244.63 47.18,244.63C46.35,244.63 45.57,245.22 45.57,246.63C45.57,247.63 46.13,248.62 47.15,248.62M44.92,244.13L45.56,244.13L45.56,244.66C45.56,244.87 45.53,245.04 45.53,245.04L45.55,245.04C45.85,244.4 46.5,244.01 47.28,244.01C48.62,244.01 49.44,245.08 49.44,246.61C49.44,248.19 48.51,249.22 47.22,249.22C46.52,249.22 45.9,248.85 45.58,248.23L45.56,248.23C45.56,248.23 45.59,248.41 45.59,248.66L45.59,251.07L44.92,251.07Z"/>
	<path class="st0" d="M55.24,246.11C55.2,245.07 54.56,244.57 53.82,244.57C52.99,244.57 52.27,245.11 52.12,246.11ZM53.84,244.01C55.22,244.01 55.92,245.07 55.92,246.3C55.92,246.41 55.91,246.53 55.9,246.64L52.09,246.64C52.12,247.9 52.98,248.61 54.01,248.61C54.55,248.61 55.12,248.38 55.52,248.01L55.83,248.53C55.36,248.95 54.64,249.22 53.99,249.22C52.51,249.22 51.38,248.15 51.38,246.62C51.38,244.99 52.5,244.01 53.84,244.01"/>
	<path class="st0" d="M61.36,248.53L61.36,244.71L59.62,244.71L59.62,245C59.62,245.74 59.55,247.41 58.81,248.53ZM58.09,248.53C58.93,247.43 58.96,245.61 58.96,244.94L58.96,244.13L62.03,244.13L62.03,248.53L62.73,248.53L62.73,250.28L62.09,250.28L62.09,249.1L58.12,249.1L58.12,250.28L57.48,250.28L57.48,248.53Z"/>
	<path class="st0" d="M67.03,248.61C68.09,248.61 68.96,247.76 68.96,246.59C68.96,245.47 68.09,244.62 67.03,244.62C65.96,244.62 65.1,245.47 65.1,246.59C65.1,247.76 65.96,248.61 67.03,248.61M67.03,244.01C68.48,244.01 69.65,245.12 69.65,246.59C69.65,248.09 68.48,249.22 67.03,249.22C65.58,249.22 64.41,248.09 64.41,246.59C64.41,245.12 65.58,244.01 67.03,244.01"/>
	<path class="st0" d="M74.17,244.01C74.82,244.01 75.54,244.24 75.99,244.73L75.64,245.23C75.29,244.87 74.74,244.62 74.19,244.62C73.1,244.62 72.25,245.44 72.25,246.62C72.25,247.79 73.1,248.61 74.21,248.61C74.78,248.61 75.4,248.36 75.8,247.92L76.1,248.43C75.67,248.91 74.93,249.22 74.17,249.22C72.7,249.22 71.56,248.16 71.56,246.62C71.56,245.09 72.71,244.01 74.17,244.01"/>
	<path class="st0" d="M79.47,244.73L77.67,244.73L77.67,244.13L81.96,244.13L81.96,244.73L80.14,244.73L80.14,249.1L79.47,249.1Z"/>
	<path class="st0" d="M85.29,248.65C86.25,248.65 86.81,247.67 86.81,246.8L86.81,246.57L86.53,246.57C85.76,246.57 84.18,246.6 84.18,247.71C84.18,248.17 84.55,248.65 85.29,248.65M86.52,246.04L86.81,246.04L86.81,245.9C86.81,244.94 86.29,244.62 85.59,244.62C85.08,244.62 84.58,244.79 84.18,245.09L83.87,244.58C84.27,244.24 84.97,244.01 85.63,244.01C86.82,244.01 87.48,244.68 87.48,245.92L87.48,249.1L86.84,249.1L86.84,248.52C86.84,248.27 86.87,248.1 86.87,248.1L86.85,248.1C86.59,248.7 85.97,249.22 85.17,249.22C84.33,249.22 83.49,248.72 83.49,247.77C83.49,246.14 85.57,246.04 86.52,246.04"/>
	<path class="st0" d="M91.83,248.58C92.65,248.58 93.02,248.23 93.02,247.7C93.02,247.11 92.59,246.8 91.82,246.8L90.69,246.8L90.69,248.58ZM91.75,246.29C92.42,246.29 92.77,245.97 92.77,245.44C92.77,244.9 92.41,244.65 91.71,244.65L90.69,244.65L90.69,246.29ZM90.02,244.13L91.82,244.13C92.83,244.13 93.46,244.58 93.46,245.4C93.46,245.91 93.19,246.31 92.71,246.49L92.71,246.51C93.35,246.64 93.72,247.12 93.72,247.71C93.72,248.57 93.03,249.1 91.92,249.1L90.02,249.1Z"/>
	<path class="st0" d="M95.38,248.54C96.2,248.41 96.56,247.47 96.56,245.63L96.56,244.13L99.6,244.13L99.6,249.1L98.93,249.1L98.93,244.72L97.21,244.72L97.21,245.63C97.21,247.98 96.65,249.04 95.38,249.14Z"/>
	<path class="st0" d="M104.81,246.67L104.81,244.65L103.86,244.65C103.12,244.65 102.66,244.93 102.66,245.64C102.66,246.31 103.17,246.67 103.81,246.67ZM102.89,247.39C102.99,247.23 103.12,247.09 103.12,247.09L103.12,247.07C102.54,246.96 101.97,246.45 101.97,245.64C101.97,244.65 102.7,244.13 103.73,244.13L105.48,244.13L105.48,249.1L104.81,249.1L104.81,247.19L103.78,247.19L102.48,249.1L101.7,249.1Z"/>
	<path class="st0" d="M112.24,248.61C113.25,248.61 114.07,247.76 114.07,246.59C114.07,245.47 113.25,244.62 112.24,244.62C111.23,244.62 110.41,245.47 110.41,246.59C110.41,247.76 111.23,248.61 112.24,248.61M108.08,244.13L108.75,244.13L108.75,246.32L109.73,246.32C109.86,244.99 110.93,244.01 112.23,244.01C113.63,244.01 114.77,245.12 114.77,246.59C114.77,248.09 113.63,249.22 112.24,249.22C110.94,249.22 109.88,248.24 109.74,246.91L108.75,246.91L108.75,249.1L108.08,249.1Z"/>
	<path class="st0" d="M118.04,244.73L116.24,244.73L116.24,244.13L120.53,244.13L120.53,244.73L118.71,244.73L118.71,249.1L118.04,249.1Z"/>
	<path class="st0" d="M128.57,248.58C129.39,248.58 129.76,248.23 129.76,247.7C129.76,247.11 129.33,246.8 128.56,246.8L127.43,246.8L127.43,248.58ZM128.49,246.29C129.16,246.29 129.5,245.97 129.5,245.44C129.5,244.9 129.15,244.65 128.45,244.65L127.43,244.65L127.43,246.29ZM126.76,244.13L128.56,244.13C129.56,244.13 130.2,244.58 130.2,245.4C130.2,245.91 129.93,246.31 129.45,246.49L129.45,246.51C130.09,246.64 130.45,247.12 130.45,247.71C130.45,248.57 129.77,249.1 128.66,249.1L126.76,249.1Z"/>
	<path class="st0" d="M134.08,248.65C135.04,248.65 135.6,247.67 135.6,246.8L135.6,246.57L135.31,246.57C134.54,246.57 132.96,246.6 132.96,247.71C132.96,248.17 133.34,248.65 134.08,248.65M135.3,246.04L135.6,246.04L135.6,245.9C135.6,244.94 135.07,244.62 134.37,244.62C133.87,244.62 133.37,244.79 132.96,245.09L132.66,244.58C133.05,244.24 133.75,244.01 134.41,244.01C135.61,244.01 136.27,244.68 136.27,245.92L136.27,249.1L135.63,249.1L135.63,248.52C135.63,248.27 135.66,248.1 135.66,248.1L135.64,248.1C135.38,248.7 134.76,249.22 133.96,249.22C133.12,249.22 132.28,248.72 132.28,247.77C132.28,246.14 134.35,246.04 135.3,246.04"/>
	<path class="st0" d="M139.03,244.13L139.74,244.13L141.23,247.19C141.37,247.5 141.53,247.89 141.53,247.89L141.55,247.89C141.55,247.89 141.71,247.51 141.86,247.19L143.36,244.13L144.06,244.13L144.48,249.1L143.81,249.1L143.57,245.89C143.56,245.62 143.57,245.03 143.57,245.03L143.55,245.03C143.55,245.03 143.44,245.35 143.23,245.75L141.85,248.53L141.24,248.53L139.87,245.77C139.68,245.39 139.54,245.03 139.54,245.03L139.52,245.03C139.52,245.03 139.54,245.62 139.52,245.89L139.27,249.1L138.62,249.1Z"/>
	<path class="st0" d="M151.09,244.13L155.25,244.13L155.25,249.1L154.58,249.1L154.58,244.73L151.76,244.73L151.76,249.1L151.09,249.1Z"/>
	<path class="st0" d="M160.12,248.61C161.18,248.61 162.05,247.76 162.05,246.59C162.05,245.47 161.18,244.62 160.12,244.62C159.05,244.62 158.19,245.47 158.19,246.59C158.19,247.76 159.05,248.61 160.12,248.61M160.12,244.01C161.57,244.01 162.74,245.12 162.74,246.59C162.74,248.09 161.57,249.22 160.12,249.22C158.67,249.22 157.5,248.09 157.5,246.59C157.5,245.12 158.67,244.01 160.12,244.01"/>
	<path class="st0" d="M168.04,248.53L168.04,244.71L166.3,244.71L166.3,245C166.3,245.74 166.23,247.41 165.49,248.53ZM164.77,248.53C165.61,247.43 165.64,245.61 165.64,244.94L165.64,244.13L168.71,244.13L168.71,248.53L169.41,248.53L169.41,250.28L168.77,250.28L168.77,249.1L164.8,249.1L164.8,250.28L164.16,250.28L164.16,248.53Z"/>
	<path class="st0" d="M173.72,248.62C174.6,248.62 175.33,247.89 175.33,246.62C175.33,245.41 174.68,244.63 173.75,244.63C172.92,244.63 172.14,245.22 172.14,246.63C172.14,247.63 172.7,248.62 173.72,248.62M171.49,244.13L172.13,244.13L172.13,244.66C172.13,244.87 172.1,245.04 172.1,245.04L172.12,245.04C172.42,244.4 173.08,244.01 173.85,244.01C175.19,244.01 176.01,245.08 176.01,246.61C176.01,248.19 175.08,249.22 173.79,249.22C173.09,249.22 172.47,248.85 172.15,248.23L172.13,248.23C172.13,248.23 172.16,248.41 172.16,248.66L172.16,251.07L171.49,251.07Z"/>
	<path class="st0" d="M180.57,248.61C181.64,248.61 182.51,247.76 182.51,246.59C182.51,245.47 181.64,244.62 180.57,244.62C179.51,244.62 178.65,245.47 178.65,246.59C178.65,247.76 179.51,248.61 180.57,248.61M180.57,244.01C182.02,244.01 183.2,245.12 183.2,246.59C183.2,248.09 182.02,249.22 180.57,249.22C179.12,249.22 177.96,248.09 177.96,246.59C177.96,245.12 179.12,244.01 180.57,244.01"/>
	<path class="st0" d="M187.55,248.62C188.42,248.62 189.14,247.98 189.14,246.9C189.14,245.8 188.42,245.16 187.59,245.16C186.62,245.16 185.96,245.91 185.96,246.88C185.96,247.98 186.68,248.62 187.55,248.62M187.27,242.77L189.11,241.91L189.35,242.47L187.44,243.35C186.31,243.89 185.92,244.6 185.85,245.64L185.87,245.64C186.31,244.84 186.98,244.6 187.72,244.6C188.94,244.6 189.83,245.45 189.83,246.89C189.83,248.26 188.9,249.22 187.57,249.22C185.94,249.22 185.23,247.96 185.23,246.28C185.23,244.61 185.62,243.52 187.27,242.77"/>
	<path class="st0" d="M192.12,244.13L192.79,244.13L192.79,246.26L195.69,246.26L195.69,244.13L196.36,244.13L196.36,249.1L195.69,249.1L195.69,246.85L192.79,246.85L192.79,249.1L192.12,249.1Z"/>
	<path class="st0" d="M203.27 244.13L203.94 244.13L203.94 249.1L203.27 249.1ZM200.61,248.57C201.41,248.57 201.74,248.16 201.74,247.57C201.74,246.97 201.4,246.56 200.62,246.56L199.62,246.56L199.62,248.57ZM198.95,244.13L199.62,244.13L199.62,246.03L200.69,246.03C201.58,246.03 202.43,246.4 202.43,247.58C202.43,248.48 201.86,249.1 200.67,249.1L198.95,249.1Z"/>
	<path class="st0" d="M210.04,246.11C210,245.07 209.37,244.57 208.63,244.57C207.8,244.57 207.08,245.11 206.92,246.11ZM208.65,244.01C210.02,244.01 210.72,245.07 210.72,246.3C210.72,246.41 210.71,246.53 210.7,246.64L206.89,246.64C206.92,247.9 207.79,248.61 208.82,248.61C209.36,248.61 209.92,248.38 210.33,248.01L210.64,248.53C210.17,248.95 209.45,249.22 208.8,249.22C207.32,249.22 206.19,248.15 206.19,246.62C206.19,244.99 207.31,244.01 208.65,244.01"/>
	<path class="st0" d="M216.86,245.71L216.86,244.13L217.52,244.13L217.52,245.64C217.52,246.17 217.67,246.68 218.64,246.68C219.2,246.68 219.66,246.44 219.88,246.27L219.88,244.13L220.55,244.13L220.55,249.1L219.88,249.1L219.88,247.21C219.88,247.06 219.9,246.9 219.9,246.9L219.88,246.9C219.54,247.1 218.97,247.28 218.52,247.28C217.37,247.28 216.86,246.68 216.86,245.71"/>
	<path class="st0" d="M226.65,246.11C226.61,245.07 225.98,244.57 225.24,244.57C224.41,244.57 223.69,245.11 223.53,246.11ZM225.26,244.01C226.63,244.01 227.33,245.07 227.33,246.3C227.33,246.41 227.32,246.53 227.31,246.64L223.5,246.64C223.53,247.9 224.4,248.61 225.43,248.61C225.97,248.61 226.53,248.38 226.94,248.01L227.24,248.53C226.78,248.95 226.06,249.22 225.41,249.22C223.93,249.22 222.8,248.15 222.8,246.62C222.8,244.99 223.92,244.01 225.26,244.01"/>
	<path class="st0" d="M231.82,248.62C232.7,248.62 233.43,247.89 233.43,246.62C233.43,245.41 232.78,244.63 231.85,244.63C231.02,244.63 230.24,245.22 230.24,246.63C230.24,247.63 230.8,248.62 231.82,248.62M229.59,244.13L230.23,244.13L230.23,244.66C230.23,244.87 230.2,245.04 230.2,245.04L230.22,245.04C230.52,244.4 231.18,244.01 231.95,244.01C233.29,244.01 234.11,245.08 234.11,246.61C234.11,248.19 233.18,249.22 231.89,249.22C231.19,249.22 230.57,248.85 230.25,248.23L230.23,248.23C230.23,248.23 230.26,248.41 230.26,248.66L230.26,251.07L229.59,251.07Z"/>
	<path class="st0" d="M237.5,244.73L235.69,244.73L235.69,244.13L239.99,244.13L239.99,244.73L238.17,244.73L238.17,249.1L237.5,249.1Z"/>
	<path class="st0" d="M245.31,246.11C245.27,245.07 244.64,244.57 243.9,244.57C243.07,244.57 242.35,245.11 242.19,246.11ZM243.92,244.01C245.29,244.01 245.99,245.07 245.99,246.3C245.99,246.41 245.98,246.53 245.97,246.64L242.16,246.64C242.19,247.9 243.06,248.61 244.08,248.61C244.63,248.61 245.19,248.38 245.59,248.01L245.9,248.53C245.44,248.95 244.72,249.22 244.06,249.22C242.58,249.22 241.46,248.15 241.46,246.62C241.46,244.99 242.57,244.01 243.92,244.01"/>
	<path class="st0" d="M249.28,246.56L249.28,246.54L247.76,244.13L248.49,244.13L249.83,246.27L250.63,246.27L250.63,244.13L251.29,244.13L251.29,246.27L252.09,246.27L253.43,244.13L254.17,244.13L252.65,246.54L252.65,246.56L254.33,249.1L253.54,249.1L252.09,246.86L251.29,246.86L251.29,249.1L250.63,249.1L250.63,246.86L249.84,246.86L248.38,249.1L247.6,249.1Z"/>
	<path class="st0" d="M256.31,244.13L256.96,244.13L256.96,247.39C256.96,247.7 256.95,248.11 256.94,248.13L256.96,248.13C256.97,248.09 257.27,247.67 257.47,247.39L259.91,244.13L260.55,244.13L260.55,249.1L259.89,249.1L259.89,245.83C259.89,245.54 259.92,245.15 259.92,245.11L259.9,245.11C259.89,245.16 259.58,245.55 259.39,245.83L256.96,249.1L256.31,249.1Z"/>
	<path class="st0" d="M26.37,262.19C27.43,262.19 28.3,261.34 28.3,260.17C28.3,259.05 27.43,258.2 26.37,258.2C25.3,258.2 24.44,259.05 24.44,260.17C24.44,261.34 25.3,262.19 26.37,262.19M26.37,257.59C27.82,257.59 28.99,258.7 28.99,260.17C28.99,261.67 27.82,262.8 26.37,262.8C24.92,262.8 23.75,261.67 23.75,260.17C23.75,258.7 24.92,257.59 26.37,257.59"/>
	<path class="st0" d="M33.34,262.21C34.22,262.21 34.93,261.56 34.93,260.48C34.93,259.38 34.22,258.74 33.38,258.74C32.41,258.74 31.75,259.49 31.75,260.46C31.75,261.56 32.47,262.21 33.34,262.21M33.06,256.35L34.9,255.49L35.15,256.06L33.23,256.93C32.11,257.47 31.71,258.18 31.64,259.22L31.66,259.22C32.11,258.42 32.78,258.18 33.52,258.18C34.73,258.18 35.62,259.03 35.62,260.47C35.62,261.84 34.69,262.8 33.36,262.8C31.73,262.8 31.02,261.54 31.02,259.87C31.02,258.19 31.41,257.1 33.06,256.35"/>
	<path class="st0" d="M40.19,262.19C41.26,262.19 42.13,261.34 42.13,260.17C42.13,259.05 41.26,258.2 40.19,258.2C39.13,258.2 38.27,259.05 38.27,260.17C38.27,261.34 39.13,262.19 40.19,262.19M40.19,257.59C41.64,257.59 42.82,258.7 42.82,260.17C42.82,261.67 41.64,262.8 40.19,262.8C38.74,262.8 37.58,261.67 37.58,260.17C37.58,258.7 38.74,257.59 40.19,257.59"/>
	<path class="st0" d="M47.3,262.2C48.17,262.2 48.9,261.47 48.9,260.2C48.9,258.99 48.25,258.21 47.32,258.21C46.5,258.21 45.72,258.8 45.72,260.21C45.72,261.21 46.28,262.2 47.3,262.2M45.06,257.71L45.71,257.71L45.71,258.24C45.71,258.45 45.68,258.62 45.68,258.62L45.7,258.62C46,257.98 46.65,257.59 47.42,257.59C48.77,257.59 49.59,258.66 49.59,260.19C49.59,261.77 48.66,262.8 47.36,262.8C46.66,262.8 46.05,262.43 45.73,261.81L45.71,261.81C45.71,261.81 45.73,261.99 45.73,262.24L45.73,264.65L45.06,264.65Z"/>
	<path class="st0" d="M51.96,264.15C52.39,264.15 52.71,263.79 52.9,263.34L53.2,262.63L51.14,257.71L51.88,257.71L53.33,261.34C53.43,261.58 53.52,261.86 53.52,261.86L53.54,261.86C53.54,261.86 53.61,261.58 53.7,261.34L55.14,257.71L55.86,257.71L53.41,263.71C53.15,264.35 52.65,264.75 51.99,264.75C51.47,264.75 51.11,264.46 51.11,264.46L51.36,263.92C51.36,263.92 51.64,264.15 51.96,264.15"/>
	<path class="st0" d="M60.74,262.11L60.74,258.29L59,258.29L59,258.58C59,259.32 58.93,260.99 58.19,262.11ZM57.47,262.11C58.31,261.01 58.34,259.19 58.34,258.52L58.34,257.71L61.41,257.71L61.41,262.11L62.11,262.11L62.11,263.86L61.47,263.86L61.47,262.68L57.5,262.68L57.5,263.86L56.86,263.86L56.86,262.11Z"/>
	<path class="st0" d="M66.41,262.19C67.47,262.19 68.34,261.34 68.34,260.17C68.34,259.05 67.47,258.2 66.41,258.2C65.34,258.2 64.48,259.05 64.48,260.17C64.48,261.34 65.34,262.19 66.41,262.19M66.41,257.59C67.86,257.59 69.03,258.7 69.03,260.17C69.03,261.67 67.86,262.8 66.41,262.8C64.96,262.8 63.79,261.67 63.79,260.17C63.79,258.7 64.96,257.59 66.41,257.59"/>
	<path class="st0" d="M73.08,262.16C73.9,262.16 74.28,261.81 74.28,261.28C74.28,260.69 73.84,260.38 73.07,260.38L71.95,260.38L71.95,262.16ZM73.01,259.87C73.68,259.87 74.02,259.55 74.02,259.02C74.02,258.48 73.67,258.23 72.97,258.23L71.95,258.23L71.95,259.87ZM71.28,257.71L73.07,257.71C74.08,257.71 74.71,258.16 74.71,258.98C74.71,259.49 74.45,259.89 73.96,260.07L73.96,260.09C74.61,260.22 74.97,260.7 74.97,261.29C74.97,262.15 74.29,262.68 73.17,262.68L71.28,262.68Z"/>
	<path class="st0" d="M78.6,262.23C79.55,262.23 80.12,261.25 80.12,260.38L80.12,260.15L79.83,260.15C79.06,260.15 77.48,260.18 77.48,261.29C77.48,261.75 77.86,262.23 78.6,262.23M79.82,259.62L80.12,259.62L80.12,259.48C80.12,258.52 79.59,258.2 78.89,258.2C78.39,258.2 77.88,258.37 77.48,258.67L77.17,258.16C77.57,257.82 78.27,257.59 78.93,257.59C80.13,257.59 80.79,258.26 80.79,259.5L80.79,262.68L80.15,262.68L80.15,262.1C80.15,261.85 80.17,261.68 80.17,261.68L80.16,261.68C79.9,262.28 79.28,262.8 78.48,262.8C77.64,262.8 76.8,262.3 76.8,261.35C76.8,259.72 78.87,259.62 79.82,259.62"/>
	<path class="st0" d="M83.33,257.71L84,257.71L84,259.84L86.9,259.84L86.9,257.71L87.57,257.71L87.57,262.68L86.9,262.68L86.9,260.43L84,260.43L84,262.68L83.33,262.68Z"/>
	<path class="st0" d="M90.16,257.71L90.81,257.71L90.81,260.97C90.81,261.28 90.79,261.69 90.78,261.71L90.8,261.71C90.82,261.67 91.12,261.25 91.32,260.97L93.76,257.71L94.4,257.71L94.4,262.68L93.73,262.68L93.73,259.41C93.73,259.12 93.77,258.73 93.77,258.69L93.75,258.69C93.73,258.74 93.43,259.13 93.24,259.41L90.8,262.68L90.16,262.68Z"/>
	<path class="st0" d="M99.59,260.25L99.59,258.23L98.64,258.23C97.9,258.23 97.45,258.51 97.45,259.22C97.45,259.89 97.95,260.25 98.6,260.25ZM97.68,260.97C97.78,260.81 97.9,260.67 97.9,260.67L97.9,260.65C97.32,260.54 96.76,260.03 96.76,259.22C96.76,258.23 97.49,257.71 98.52,257.71L100.26,257.71L100.26,262.68L99.59,262.68L99.59,260.77L98.57,260.77L97.26,262.68L96.48,262.68Z"/>
	<path class="st0" d="M103.06,261.87L103.83,261.87L103.08,263.64L102.5,263.64Z"/>
	<path class="st0" d="M122.43,257.71L126.58,257.71L126.58,262.68L125.91,262.68L125.91,258.31L123.1,258.31L123.1,262.68L122.43,262.68Z"/>
	<path class="st0" d="M131.41,262.2C132.28,262.2 133.01,261.47 133.01,260.2C133.01,258.99 132.36,258.21 131.43,258.21C130.61,258.21 129.83,258.8 129.83,260.21C129.83,261.21 130.39,262.2 131.41,262.2M129.17,257.71L129.82,257.71L129.82,258.24C129.82,258.45 129.79,258.62 129.79,258.62L129.81,258.62C130.11,257.98 130.76,257.59 131.53,257.59C132.88,257.59 133.7,258.66 133.7,260.19C133.7,261.77 132.77,262.8 131.47,262.8C130.77,262.8 130.16,262.43 129.84,261.81L129.82,261.81C129.82,261.81 129.84,261.99 129.84,262.24L129.84,264.65L129.17,264.65Z"/>
	<path class="st0" d="M139.49,259.69C139.45,258.65 138.82,258.15 138.08,258.15C137.25,258.15 136.53,258.69 136.37,259.69ZM138.1,257.59C139.47,257.59 140.18,258.65 140.18,259.88C140.18,259.99 140.17,260.11 140.16,260.22L136.35,260.22C136.37,261.48 137.24,262.19 138.27,262.19C138.81,262.19 139.38,261.96 139.78,261.59L140.09,262.11C139.62,262.53 138.9,262.8 138.25,262.8C136.77,262.8 135.64,261.73 135.64,260.2C135.64,258.57 136.76,257.59 138.1,257.59"/>
	<path class="st0" d="M145.62,262.11L145.62,258.29L143.88,258.29L143.88,258.58C143.88,259.32 143.81,260.99 143.07,262.11ZM142.35,262.11C143.19,261.01 143.22,259.19 143.22,258.52L143.22,257.71L146.29,257.71L146.29,262.11L146.99,262.11L146.99,263.86L146.35,263.86L146.35,262.68L142.38,262.68L142.38,263.86L141.74,263.86L141.74,262.11Z"/>
	<path class="st0" d="M149.07,257.71L149.74,257.71L149.74,259.84L152.64,259.84L152.64,257.71L153.31,257.71L153.31,262.68L152.64,262.68L152.64,260.43L149.74,260.43L149.74,262.68L149.07,262.68Z"/>
	<path class="st0" d="M157.26,262.23C158.22,262.23 158.78,261.25 158.78,260.38L158.78,260.15L158.5,260.15C157.73,260.15 156.15,260.18 156.15,261.29C156.15,261.75 156.52,262.23 157.26,262.23M158.49,259.62L158.78,259.62L158.78,259.48C158.78,258.52 158.26,258.2 157.56,258.2C157.06,258.2 156.55,258.37 156.15,258.67L155.84,258.16C156.24,257.82 156.94,257.59 157.6,257.59C158.79,257.59 159.45,258.26 159.45,259.5L159.45,262.68L158.81,262.68L158.81,262.1C158.81,261.85 158.84,261.68 158.84,261.68L158.82,261.68C158.57,262.28 157.95,262.8 157.15,262.8C156.31,262.8 155.47,262.3 155.47,261.35C155.47,259.72 157.54,259.62 158.49,259.62"/>
	<path class="st0" d="M161.85,261.61C162.04,261.82 162.51,262.22 163.18,262.22C163.78,262.22 164.37,261.92 164.37,261.26C164.37,260.69 163.96,260.38 163.17,260.38L162.57,260.38L162.57,259.85L163.09,259.85C163.76,259.85 164.2,259.58 164.2,259.01C164.2,258.44 163.78,258.17 163.17,258.17C162.69,258.17 162.29,258.34 161.95,258.61L161.66,258.14C162,257.85 162.55,257.59 163.27,257.59C164.19,257.59 164.89,258.04 164.89,258.93C164.89,259.55 164.55,259.89 164.13,260.06L164.13,260.08C164.67,260.22 165.06,260.62 165.06,261.28C165.06,262.28 164.18,262.8 163.22,262.8C162.44,262.8 161.86,262.43 161.49,262.08Z"/>
	<path class="st0" d="M167.32,257.71L167.99,257.71L167.99,259.84L170.89,259.84L170.89,257.71L171.56,257.71L171.56,262.68L170.89,262.68L170.89,260.43L167.99,260.43L167.99,262.68L167.32,262.68Z"/>
	<path class="st0" d="M175.52,262.23C176.47,262.23 177.04,261.25 177.04,260.38L177.04,260.15L176.75,260.15C175.98,260.15 174.4,260.18 174.4,261.29C174.4,261.75 174.77,262.23 175.52,262.23M176.74,259.62L177.04,259.62L177.04,259.48C177.04,258.52 176.51,258.2 175.81,258.2C175.31,258.2 174.8,258.37 174.4,258.67L174.09,258.16C174.49,257.82 175.19,257.59 175.85,257.59C177.05,257.59 177.71,258.26 177.71,259.5L177.71,262.68L177.07,262.68L177.07,262.1C177.07,261.85 177.09,261.68 177.09,261.68L177.08,261.68C176.82,262.28 176.2,262.8 175.4,262.8C174.56,262.8 173.72,262.3 173.72,261.35C173.72,259.72 175.79,259.62 176.74,259.62"/>
	<path class="st0" d="M179.91,259.29L179.91,257.71L180.57,257.71L180.57,259.22C180.57,259.75 180.73,260.26 181.7,260.26C182.25,260.26 182.71,260.02 182.93,259.85L182.93,257.71L183.6,257.71L183.6,262.68L182.93,262.68L182.93,260.79C182.93,260.64 182.95,260.48 182.95,260.48L182.93,260.48C182.6,260.68 182.02,260.86 181.58,260.86C180.42,260.86 179.91,260.26 179.91,259.29"/>
	<path class="st0" d="M189.71,259.69C189.67,258.65 189.03,258.15 188.29,258.15C187.47,258.15 186.74,258.69 186.59,259.69ZM188.31,257.59C189.69,257.59 190.39,258.65 190.39,259.88C190.39,259.99 190.38,260.11 190.37,260.22L186.56,260.22C186.59,261.48 187.46,262.19 188.48,262.19C189.02,262.19 189.59,261.96 189.99,261.59L190.3,262.11C189.83,262.53 189.11,262.8 188.46,262.8C186.98,262.8 185.86,261.73 185.86,260.2C185.86,258.57 186.97,257.59 188.31,257.59"/>
	<path class="st0" d="M192.64,257.71L193.31,257.71L193.31,259.84L196.21,259.84L196.21,257.71L196.89,257.71L196.89,262.68L196.21,262.68L196.21,260.43L193.31,260.43L193.31,262.68L192.64,262.68Z"/>
	<path class="st0" d="M199.48,257.71L200.15,257.71L200.15,259.84L203.05,259.84L203.05,257.71L203.72,257.71L203.72,262.68L203.05,262.68L203.05,260.43L200.15,260.43L200.15,262.68L199.48,262.68Z"/>
	<path class="st0" d="M208.59,262.19C209.66,262.19 210.53,261.34 210.53,260.17C210.53,259.05 209.66,258.2 208.59,258.2C207.53,258.2 206.67,259.05 206.67,260.17C206.67,261.34 207.53,262.19 208.59,262.19M208.59,257.59C210.04,257.59 211.22,258.7 211.22,260.17C211.22,261.67 210.04,262.8 208.59,262.8C207.14,262.8 205.98,261.67 205.98,260.17C205.98,258.7 207.14,257.59 208.59,257.59"/>
	<path class="st0" d="M213.46,257.71L216.42,257.71L216.42,258.29L214.13,258.29L214.13,262.68L213.46,262.68Z"/>
	<path class="st0" d="M220.49,262.19C221.56,262.19 222.43,261.34 222.43,260.17C222.43,259.05 221.56,258.2 220.49,258.2C219.43,258.2 218.57,259.05 218.57,260.17C218.57,261.34 219.43,262.19 220.49,262.19M220.49,257.59C221.94,257.59 223.12,258.7 223.12,260.17C223.12,261.67 221.94,262.8 220.49,262.8C219.04,262.8 217.88,261.67 217.88,260.17C217.88,258.7 219.04,257.59 220.49,257.59"/>
	<path class="st0" d="M244.54,262.11L244.54,258.29L242.81,258.29L242.81,258.58C242.81,259.32 242.74,260.99 242,262.11ZM241.27,262.11C242.11,261.01 242.14,259.19 242.14,258.52L242.14,257.71L245.21,257.71L245.21,262.11L245.91,262.11L245.91,263.86L245.27,263.86L245.27,262.68L241.3,262.68L241.3,263.86L240.66,263.86L240.66,262.11Z"/>
	<path class="st0" d="M247.39,262.12C248.22,261.99 248.57,261.05 248.57,259.21L248.57,257.71L251.61,257.71L251.61,262.68L250.94,262.68L250.94,258.3L249.23,258.3L249.23,259.21C249.23,261.56 248.66,262.62 247.39,262.72Z"/>
	<path class="st0" d="M256.82,260.25L256.82,258.23L255.87,258.23C255.13,258.23 254.68,258.51 254.68,259.22C254.68,259.89 255.18,260.25 255.82,260.25ZM254.9,260.97C255,260.81 255.13,260.67 255.13,260.67L255.13,260.65C254.55,260.54 253.99,260.03 253.99,259.22C253.99,258.23 254.72,257.71 255.74,257.71L257.49,257.71L257.49,262.68L256.82,262.68L256.82,260.77L255.79,260.77L254.49,262.68L253.71,262.68Z"/>
	<path class="st0" d="M21.04,271.29L21.69,271.29L21.69,274.55C21.69,274.86 21.67,275.27 21.66,275.29L21.68,275.29C21.7,275.25 22,274.83 22.19,274.55L24.63,271.29L25.27,271.29L25.27,276.26L24.61,276.26L24.61,272.99C24.61,272.7 24.64,272.31 24.64,272.27L24.62,272.27C24.61,272.32 24.31,272.71 24.12,272.99L21.68,276.26L21.04,276.26Z"/>
	<path class="st0" d="M30.13,271.17C30.78,271.17 31.51,271.4 31.95,271.89L31.6,272.39C31.26,272.03 30.71,271.78 30.15,271.78C29.07,271.78 28.22,272.6 28.22,273.78C28.22,274.95 29.07,275.77 30.17,275.77C30.75,275.77 31.37,275.52 31.76,275.08L32.07,275.59C31.63,276.07 30.89,276.38 30.13,276.38C28.66,276.38 27.53,275.32 27.53,273.78C27.53,272.25 28.67,271.17 30.13,271.17"/>
	<path class="st0" d="M34.2,271.29L38.36,271.29L38.36,276.26L37.69,276.26L37.69,271.89L34.87,271.89L34.87,276.26L34.2,276.26Z"/>
	<path class="st0" d="M43.23,275.77C44.29,275.77 45.16,274.92 45.16,273.75C45.16,272.63 44.29,271.78 43.23,271.78C42.16,271.78 41.3,272.63 41.3,273.75C41.3,274.92 42.16,275.77 43.23,275.77M43.23,271.17C44.68,271.17 45.85,272.28 45.85,273.75C45.85,275.25 44.68,276.38 43.23,276.38C41.78,276.38 40.61,275.25 40.61,273.75C40.61,272.28 41.78,271.17 43.23,271.17"/>
	<path class="st0" d="M47.37,275.7C48.2,275.57 48.55,274.63 48.55,272.79L48.55,271.29L51.59,271.29L51.59,276.26L50.92,276.26L50.92,271.88L49.21,271.88L49.21,272.79C49.21,275.14 48.64,276.2 47.37,276.3Z"/>
	<path class="st0" d="M55.86,275.73C56.66,275.73 56.99,275.32 56.99,274.73C56.99,274.13 56.65,273.72 55.87,273.72L54.86,273.72L54.86,275.73ZM54.19,271.29L54.86,271.29L54.86,273.19L55.94,273.19C56.83,273.19 57.68,273.56 57.68,274.74C57.68,275.64 57.12,276.26 55.92,276.26L54.19,276.26Z"/>
	<path class="st0" d="M59.65,275.19C59.85,275.4 60.32,275.8 60.99,275.8C61.59,275.8 62.18,275.5 62.18,274.84C62.18,274.27 61.77,273.96 60.98,273.96L60.38,273.96L60.38,273.43L60.9,273.43C61.57,273.43 62,273.16 62,272.59C62,272.02 61.59,271.75 60.98,271.75C60.49,271.75 60.1,271.92 59.76,272.19L59.47,271.72C59.81,271.43 60.36,271.17 61.08,271.17C61.99,271.17 62.7,271.62 62.7,272.51C62.7,273.13 62.36,273.47 61.93,273.64L61.93,273.66C62.48,273.8 62.87,274.2 62.87,274.86C62.87,275.86 61.98,276.38 61.03,276.38C60.25,276.38 59.66,276.01 59.3,275.66Z"/>
	<path class="st0" d="M67.41,275.77C68.47,275.77 69.34,274.92 69.34,273.75C69.34,272.63 68.47,271.78 67.41,271.78C66.34,271.78 65.48,272.63 65.48,273.75C65.48,274.92 66.34,275.77 67.41,275.77M67.41,271.17C68.86,271.17 70.03,272.28 70.03,273.75C70.03,275.25 68.86,276.38 67.41,276.38C65.96,276.38 64.79,275.25 64.79,273.75C64.79,272.28 65.96,271.17 67.41,271.17"/>
	<path class="st0" d="M74.08,275.74C74.9,275.74 75.28,275.39 75.28,274.86C75.28,274.27 74.84,273.96 74.07,273.96L72.95,273.96L72.95,275.74ZM74.01,273.45C74.68,273.45 75.02,273.13 75.02,272.6C75.02,272.06 74.67,271.81 73.97,271.81L72.95,271.81L72.95,273.45ZM72.28,271.29L74.07,271.29C75.08,271.29 75.71,271.74 75.71,272.56C75.71,273.07 75.45,273.47 74.96,273.65L74.96,273.67C75.61,273.8 75.97,274.28 75.97,274.87C75.97,275.73 75.29,276.26 74.17,276.26L72.28,276.26Z"/>
	<path class="st0" d="M79.6,275.81C80.55,275.81 81.12,274.83 81.12,273.96L81.12,273.73L80.83,273.73C80.06,273.73 78.48,273.76 78.48,274.87C78.48,275.33 78.86,275.81 79.6,275.81M80.82,273.2L81.12,273.2L81.12,273.06C81.12,272.1 80.59,271.78 79.89,271.78C79.39,271.78 78.88,271.95 78.48,272.25L78.17,271.74C78.57,271.4 79.27,271.17 79.93,271.17C81.13,271.17 81.79,271.84 81.79,273.08L81.79,276.26L81.15,276.26L81.15,275.68C81.15,275.43 81.17,275.26 81.17,275.26L81.16,275.26C80.9,275.86 80.28,276.38 79.48,276.38C78.64,276.38 77.8,275.88 77.8,274.93C77.8,273.3 79.87,273.2 80.82,273.2"/>
	<path class="st0" d="M84.33,271.29L85,271.29L85,273.42L87.9,273.42L87.9,271.29L88.57,271.29L88.57,276.26L87.9,276.26L87.9,274.01L85,274.01L85,276.26L84.33,276.26Z"/>
	<path class="st0" d="M91.16,271.29L91.81,271.29L91.81,274.55C91.81,274.86 91.79,275.27 91.78,275.29L91.8,275.29C91.82,275.25 92.12,274.83 92.32,274.55L94.76,271.29L95.4,271.29L95.4,276.26L94.73,276.26L94.73,272.99C94.73,272.7 94.77,272.31 94.77,272.27L94.75,272.27C94.73,272.32 94.43,272.71 94.24,272.99L91.8,276.26L91.16,276.26Z"/>
	<path class="st0" d="M100.59,273.83L100.59,271.81L99.64,271.81C98.9,271.81 98.45,272.09 98.45,272.8C98.45,273.48 98.95,273.83 99.6,273.83ZM98.68,274.55C98.78,274.39 98.9,274.26 98.9,274.26L98.9,274.24C98.32,274.12 97.76,273.61 97.76,272.8C97.76,271.81 98.49,271.29 99.52,271.29L101.26,271.29L101.26,276.26L100.59,276.26L100.59,274.35L99.57,274.35L98.26,276.26L97.48,276.26Z"/>
	<path class="st0" d="M109.13,275.74C109.94,275.74 110.32,275.39 110.32,274.86C110.32,274.27 109.89,273.96 109.12,273.96L107.99,273.96L107.99,275.74ZM109.05,273.45C109.72,273.45 110.06,273.13 110.06,272.6C110.06,272.06 109.71,271.81 109.01,271.81L107.99,271.81L107.99,273.45ZM107.32,271.29L109.12,271.29C110.12,271.29 110.75,271.74 110.75,272.56C110.75,273.07 110.49,273.47 110,273.65L110,273.67C110.65,273.8 111.01,274.28 111.01,274.87C111.01,275.73 110.33,276.26 109.21,276.26L107.32,276.26Z"/>
	<path class="st0" d="M118.54,275.74C119.36,275.74 119.73,275.39 119.73,274.86C119.73,274.27 119.3,273.96 118.53,273.96L117.4,273.96L117.4,275.74ZM118.46,273.45C119.13,273.45 119.47,273.13 119.47,272.6C119.47,272.06 119.12,271.81 118.42,271.81L117.4,271.81L117.4,273.45ZM116.73,271.29L118.53,271.29C119.53,271.29 120.17,271.74 120.17,272.56C120.17,273.07 119.9,273.47 119.42,273.65L119.42,273.67C120.06,273.8 120.42,274.28 120.42,274.87C120.42,275.73 119.74,276.26 118.63,276.26L116.73,276.26Z"/>
	<path class="st0" d="M124.05,275.81C125.01,275.81 125.57,274.83 125.57,273.96L125.57,273.73L125.28,273.73C124.51,273.73 122.93,273.76 122.93,274.87C122.93,275.33 123.31,275.81 124.05,275.81M125.27,273.2L125.57,273.2L125.57,273.06C125.57,272.1 125.05,271.78 124.34,271.78C123.84,271.78 123.34,271.95 122.93,272.25L122.63,271.74C123.02,271.4 123.72,271.17 124.38,271.17C125.58,271.17 126.24,271.84 126.24,273.08L126.24,276.26L125.6,276.26L125.6,275.68C125.6,275.43 125.63,275.26 125.63,275.26L125.61,275.26C125.35,275.86 124.73,276.38 123.93,276.38C123.09,276.38 122.25,275.88 122.25,274.93C122.25,273.3 124.32,273.2 125.27,273.2"/>
	<path class="st0" d="M128.78,271.29L129.43,271.29L129.43,275.67L131.56,275.67L131.56,271.29L132.22,271.29L132.22,275.67L134.34,275.67L134.34,271.29L134.99,271.29L134.99,276.26L128.78,276.26Z"/>
	<path class="st0" d="M141.1,273.27C141.06,272.23 140.42,271.73 139.68,271.73C138.85,271.73 138.13,272.27 137.98,273.27ZM139.7,271.17C141.08,271.17 141.78,272.23 141.78,273.46C141.78,273.57 141.77,273.69 141.76,273.8L137.95,273.8C137.98,275.06 138.84,275.77 139.87,275.77C140.41,275.77 140.98,275.54 141.38,275.17L141.69,275.69C141.22,276.11 140.5,276.38 139.85,276.38C138.37,276.38 137.24,275.31 137.24,273.78C137.24,272.15 138.36,271.17 139.7,271.17"/>
	<path class="st0" d="M144.25,271.29L144.96,271.29L146.45,274.35C146.59,274.66 146.75,275.05 146.75,275.05L146.77,275.05C146.77,275.05 146.93,274.67 147.08,274.35L148.58,271.29L149.28,271.29L149.7,276.26L149.03,276.26L148.79,273.05C148.78,272.78 148.79,272.19 148.79,272.19L148.77,272.19C148.77,272.19 148.66,272.51 148.45,272.91L147.07,275.69L146.46,275.69L145.09,272.93C144.9,272.55 144.76,272.19 144.76,272.19L144.74,272.19C144.74,272.19 144.76,272.78 144.74,273.05L144.49,276.26L143.84,276.26Z"/>
	<path class="st0" d="M155.55,271.29L156.23,271.29L156.23,275.67L158.97,275.67L158.97,271.29L159.65,271.29L159.65,275.67L160.34,275.67L160.34,277.44L159.71,277.44L159.71,276.26L155.55,276.26Z"/>
	<path class="st0" d="M165.88,273.27C165.84,272.23 165.21,271.73 164.47,271.73C163.64,271.73 162.92,272.27 162.76,273.27ZM164.49,271.17C165.86,271.17 166.57,272.23 166.57,273.46C166.57,273.57 166.56,273.69 166.55,273.8L162.74,273.8C162.76,275.06 163.63,275.77 164.66,275.77C165.2,275.77 165.77,275.54 166.17,275.17L166.48,275.69C166.01,276.11 165.29,276.38 164.64,276.38C163.16,276.38 162.03,275.31 162.03,273.78C162.03,272.15 163.15,271.17 164.49,271.17"/>
	<path class="st0" d="M169.92,273.67L168.32,271.29L169.11,271.29L170.17,272.96C170.25,273.09 170.34,273.25 170.34,273.25L170.36,273.25C170.36,273.25 170.45,273.09 170.53,272.96L171.59,271.29L172.37,271.29L170.77,273.67L172.52,276.26L171.73,276.26L170.53,274.39C170.44,274.26 170.36,274.12 170.36,274.12L170.34,274.12C170.34,274.12 170.26,274.25 170.17,274.39L168.96,276.26L168.18,276.26Z"/>
	<path class="st0" d="M177.85,273.27C177.81,272.23 177.17,271.73 176.43,271.73C175.6,271.73 174.88,272.27 174.73,273.27ZM176.45,271.17C177.83,271.17 178.53,272.23 178.53,273.46C178.53,273.57 178.52,273.69 178.51,273.8L174.7,273.8C174.73,275.06 175.59,275.77 176.62,275.77C177.16,275.77 177.73,275.54 178.13,275.17L178.44,275.69C177.97,276.11 177.25,276.38 176.6,276.38C175.12,276.38 173.99,275.31 173.99,273.78C173.99,272.15 175.11,271.17 176.45,271.17"/>
	<path class="st0" d="M180.71 275.44L181.52 275.44L181.52 276.26L180.71 276.26Z"/>
	<path class="st1" d="M33.66,17.5C33.66,23.3 28.96,28 23.16,28C17.36,28 12.66,23.3 12.66,17.5C12.66,11.7 17.36,7 23.16,7C28.96,7 33.66,11.7 33.66,17.5"/>
	<path class="st2" d="M89.49,210.96C89.39,210.93 89.3,210.93 89.2,210.9C90.2,210.46 90.7,211.22 91.33,210.71L91.26,210.6L91.44,210.6L91.6,210.43L92.52,210.77C91.9,211.06 92.02,210.64 91.44,210.6L91.33,210.71L91.47,210.92C91.13,210.99 90.74,211.05 90.31,211.05L93.31,211.38L99.88,200.71L75.25,203.17L78.53,209.74Z"/>
	<path class="st3" d="M89.49,210.96C89.39,210.93 89.3,210.93 89.2,210.9C90.2,210.46 90.7,211.22 91.33,210.71L91.26,210.6L91.44,210.6L91.6,210.43L92.52,210.77C91.9,211.06 92.02,210.64 91.44,210.6L91.33,210.71L91.47,210.92C91.13,210.99 90.74,211.05 90.31,211.05L93.31,211.38L99.88,200.71L75.25,203.17L78.53,209.74L89.49,210.96Z"/>
	<path class="st4" d="M131.7,133.45C133.67,132.87 134.88,134.15 136.96,134.83C136.7,131.19 133.02,128.08 139.79,127.28C143.69,126.82 147.75,128.07 148.78,132.02C149.68,135.42 147.09,138.6 145.49,141.5C143.13,145.74 142.76,148.31 138.22,146.88C134.34,145.66 132.74,143.15 128.37,142.95C124.97,142.8 118.11,143.97 117.9,147.72C117.74,150.89 121.63,154.78 121.26,159.12C120.91,163.27 120.65,165.78 121.28,170.05C121.49,171.48 120.43,172.55 121.37,174.22C121.74,174.03 122.14,173.75 122.57,173.54C124.61,176.56 120.5,181.48 119.82,184.74C119.07,188.34 118.05,192.9 117.86,196.55C113.64,197.93 108.73,196.13 104.19,196.59C98.97,197.13 93.68,197.9 88.48,196.05C78.61,192.54 71.03,187.79 72.35,177.72C74.23,163.31 76.59,153.45 78.09,139.14C78.9,131.43 84.26,116.44 89.55,110.3C92.42,106.98 95.87,103.88 100.39,105.31C103.73,106.37 106.47,110.07 109.02,112.44C114.92,117.92 129.82,122.53 131.73,131.11C131.43,132.01 131.36,131.07 130.75,131.08"/>
	<path class="st5" d="M207.27,145.82L192.94,185.87L124.58,172.39L122.91,191.86L208.16,214.66L253.75,53.67L240.93,51.77L218.29,115.03"/>
	<path class="st6" d="M221.5,134.94L184.19,132.07L196.3,102.16L153.27,128.69L152.89,132.35L220.1,138.87"/>
	<path class="st7" d="M211.91,25.43L210.51,25.17C209.93,25.06 209.38,25 208.85,25L207.43,24.97L207.49,22.12L208.91,22.15C209.59,22.16 210.3,22.24 211.03,22.37L212.43,22.63ZM203.58,27.44L201.64,25.35L202.69,24.38C203.26,23.86 203.88,23.42 204.56,23.07L205.84,22.43L207.12,24.97L205.85,25.62C205.41,25.84 205,26.13 204.62,26.47ZM216.75,27.6L215.48,26.96C214.92,26.68 214.37,26.43 213.84,26.2L212.53,25.66L213.62,23.03L214.94,23.58C215.53,23.82 216.14,24.1 216.75,24.41L218.03,25.05ZM221.17,30.7L220.06,29.81C219.6,29.45 219.12,29.09 218.62,28.76L217.43,27.98L219.01,25.6L220.19,26.39C220.76,26.76 221.31,27.16 221.83,27.58L222.94,28.46ZM202.23,32.01L199.42,31.59L199.63,30.19C199.64,30.09 199.78,29.2 200.25,28.04L200.78,26.72L203.42,27.77L202.89,29.1C202.55,29.95 202.45,30.61 202.45,30.61ZM224.49,34.8L223.67,33.64C223.34,33.16 222.98,32.69 222.6,32.25L221.67,31.17L223.83,29.31L224.76,30.39C225.2,30.91 225.62,31.45 226.01,32L226.82,33.17ZM226.47,39.7L226.03,38.35C225.84,37.79 225.63,37.24 225.39,36.7L224.82,35.4L227.43,34.25L228,35.55C228.27,36.17 228.52,36.81 228.73,37.45L229.18,38.8ZM227.15,45L227.05,43.58C227.01,42.98 226.94,42.38 226.85,41.81L226.63,40.4L229.45,39.97L229.67,41.38C229.77,42.03 229.84,42.7 229.89,43.38L229.99,44.8ZM229.42,50.8L226.6,50.34L226.83,48.94C226.92,48.38 226.99,47.78 227.04,47.17L227.15,45.75L229.99,45.96L229.88,47.39C229.83,48.08 229.75,48.75 229.64,49.39Z"/>
	<path class="st8" d="M124.36,70.32L126.66,72.33L130.68,71.33L177.04,48.19M168.69,40.73L120.51,66.88L124.16,69.97L177.41,41.32M165.61,62.16L169.7,40.73"/>
	<path class="st8" d="M172.87,50.84L168.91,47.18M173.77,43.22L171.49,58.31L166.78,57.85M179.91,43.45L180.62,44.46L181.06,43.6L179.91,43.45Z"/>
	<path class="st9" d="M177.79,53.23C177.79,53.23 179.46,50.38 182.89,46.53C184.8,44.39 186.26,43.24 187.19,42.63C194.39,34.2 202.46,40.37 201.72,47.2C202.69,50.79 203.14,61.54 200.44,58.93C195.33,53.99 178.08,53.23 177.79,53.23M189.9,44.21C189.9,44.21 188.33,43.86 186.71,45C185.08,46.13 184.03,47.68 183.07,48.81C182.11,49.95 182.03,51.17 181.88,51.35C181.73,51.52 184.5,51.26 184.58,51.52C184.67,51.78 185.84,49.39 187.29,48.09C188.74,46.77 189.76,45.81 190.34,45.5C190.92,45.17 189.9,44.21 189.9,44.21"/>
	<path class="st8" d="M177.79,53.23C177.79,53.23 179.46,50.38 182.89,46.53C184.8,44.39 186.26,43.24 187.19,42.63C194.39,34.2 202.46,40.37 201.72,47.2C202.69,50.79 203.14,61.54 200.44,58.93C195.33,53.99 178.08,53.23 177.79,53.23ZM189.9,44.21C189.9,44.21 188.33,43.86 186.71,45C185.08,46.13 184.03,47.68 183.07,48.81C182.11,49.95 182.03,51.17 181.88,51.35C181.73,51.52 184.5,51.26 184.58,51.52C184.67,51.78 185.84,49.39 187.29,48.09C188.74,46.77 189.76,45.81 190.34,45.5C190.92,45.17 189.9,44.21 189.9,44.21Z"/>
	<path class="st8" d="M182.2,53.24C182.2,53.24 180.22,53.14 179.17,53.27C178.13,53.39 177.75,53.41 178.13,54.03C178.5,54.64 178.57,55.65 181.44,57.25C184.32,58.86 187.87,59.52 188.19,59.61"/>
	<path class="st8" d="M110.42,78.89L112.41,75.08L126.11,72.03"/>
	<path class="st9" d="M159.16,62.58L175.45,58.46L175.76,59.69L159.16,64.26Z"/>
	<path class="st8" d="M159.16,62.58L175.45,58.46L175.76,59.69L159.16,64.26L159.16,62.58Z"/>
	<path class="st8" d="M138.29,69.44L178.35,59.38"/>
	<path class="st8" d="M207.53,50.41L207.99,52.85M204.64,53.61L210.74,52.55L207.58,50.43"/>
	<path class="st8" d="M124.89,78.28L218.86,57.55L240.93,52.72"/>
	<path class="st8" d="M159.89,76.04L191.08,68.19L190.67,71.61L160.09,78.26L161.1,74.84"/>
	<path class="st9" d="M153.27,128.69L196.3,102.16L196.87,103.59L186.27,131.79L184.19,132.07L196.16,102.45L196.16,102.02Z"/>
	<path class="st8" d="M153.27,128.69L196.3,102.16L196.87,103.59L186.27,131.79L184.19,132.07L196.16,102.45L196.16,102.02L153.27,128.69Z"/>
	<path class="st8" d="M168.22,125.97L184.48,114.35L179.9,126.26L168.22,125.97Z"/>
	<path class="st8" d="M169.08,126.04L184.19,115.86L184.69,114L167.71,126.12L169.08,126.04Z"/>
	<path class="st9" d="M153.75,130.13L221.16,134.58L220.66,140.53L152.45,134.36L152.89,132.35L220.8,138.88L221.09,134.73Z"/>
	<path class="st8" d="M153.75,130.13L221.16,134.58L220.66,140.53L152.45,134.36L152.89,132.35L220.8,138.88L221.09,134.73L153.75,130.13Z"/>
	<path class="st8" d="M209.89,139.26L192.94,185.87L128.02,173.92M234.87,72.27L212.28,133.53"/>
	<path class="st8" d="M166.21,172.25L165.02,174.88L187.22,178.22L187.93,175.83L166.21,172.25Z"/>
	<path class="st9" d="M243.21,83.18L202.78,213.84C204.22,213.06 205.94,212.24 207.34,211.38L244.54,85.91C244.1,84.99 243.67,84.08 243.21,83.18"/>
	<path class="st9" d="M105.21,90.83C105.21,90.83 105.01,93.11 105.08,93.81C105.14,94.5 105.56,94.16 106.39,94.5C107.22,94.84 106.39,93.18 106.73,92.21C107.08,91.25 109.57,88.2 109.78,87.78C109.98,87.37 112.96,87.85 113.51,87.78C114.07,87.71 113.85,88.47 113.99,89.03C114.13,89.58 116.69,89.37 117.8,89.17C118.9,88.96 117.25,87.51 116.55,86.88C115.86,86.26 108.32,86.46 108.32,86.46ZM96.33,102.32C96.33,102.32 99.14,99.32 99.44,98.63C99.76,97.95 100.38,90.2 100.38,90.2L107.19,81.69L111.19,80.38L117.87,80L118.49,79.5L123.61,79.88L126.05,81C126.05,81 132.35,85.19 132.35,85.63C132.35,86.07 135.29,93.26 135.29,94.07C135.29,94.88 135.04,97.01 134.6,97.2C134.16,97.38 128.67,100.19 128.67,100.57C128.67,100.94 127.48,105.19 127.48,105.19C127.48,105.19 125.79,105.38 125.3,104.95C124.8,104.51 125.23,104.26 125.79,103.88C126.36,103.51 127.61,102.2 127.67,101.01C127.73,99.82 128.61,96.38 128.42,95.82C128.23,95.25 126.23,90.69 125.79,90.63C125.36,90.57 123.11,91.57 123.3,92.2C123.48,92.82 126.6,95.32 126.42,95.89C126.23,96.44 120.68,100.13 120.37,100.89C120.05,101.64 124.61,106.38 125.23,106.7C125.85,107.01 126.92,107.13 126.92,107.13L127.86,105.94C127.86,105.94 128.48,105.32 128.73,105.7C128.98,106.07 125.48,110.82 124.86,111.01C124.23,111.2 123.43,109.98 123.12,110.36C122.81,110.73 118.38,114.46 118.38,114.46C118.38,114.46 117.15,114.26 117.11,113.93C117.09,113.6 121.91,109.1 122.5,108.74C123.11,108.37 123.71,107.61 123.8,107.1C123.9,106.61 118.77,101.7 118.77,101.7C118.77,101.7 118.7,99.83 118.56,99.13C118.42,98.44 118.56,97.89 117.45,97.82C116.34,97.75 114.68,98.72 113.44,100.46C112.19,102.19 111.85,102.87 111.85,103.85L111.85,105.44L110.74,105.17C110.74,105.17 110.61,104.82 110.61,103.98C110.61,103.15 110.19,102.6 108.67,102.74C107.14,102.87 104.66,102.95 104.18,102.39C103.69,101.84 104.18,100.52 103.07,99.83C101.96,99.13 102.93,97.82 100.85,99.76C98.78,101.7 98.29,102.87 97.53,102.87C96.78,102.87 96.33,102.32 96.33,102.32M116.77,99.21C116.77,99.21 114.41,101.29 114.35,101.63C114.28,101.98 114.28,102.12 114.75,102.6C115.24,103.08 115.79,102.87 116,102.25C116.21,101.63 116.77,100.73 116.77,100.73L117.25,99.97ZM124.01,108.59C123.87,109.35 124.92,109.18 124.92,109.18L125.37,108.43Z"/>
	<path class="st9" d="M136.75,124.8L139.01,124.5L143.04,125.19L145.88,126.08L149.31,127.54L150,127.45L150.59,125.58L150.88,123.23L150.4,120.78L146.17,118.03L141.66,117.83L140.48,118.32L139.6,119.99L138.82,121.47L137.05,121.85ZM115.46,173.49L119.82,172.98L120.97,152.36ZM86.91,109.84L91.93,104.54L102.93,103.36L110.26,109.87L113.1,111.32L115.24,112.92L115.93,114.58L118.28,115.75L127.83,123.51L130.73,124.07L131.77,125.45L132.26,131.11L133.95,132L133.95,128.44L135.64,125.85L135.64,121.4L137.67,119.95L133.54,112.75L134.36,112.02L138.55,118.73L140.01,116.71L145.66,116.47L151.64,120.11L152.36,124.07L150.42,127.71L151.8,128.44L148.56,143.16L142.95,149.7L133.64,149.13L122.92,145.89L123.03,171.97L126.28,171.43L124.39,180.37L124.02,194.65L124.02,194.91C123.2,194.37 122.38,193.81 121.56,193.25L122.04,191.12L121.23,191.12L120.46,192.47C119.82,192 119.2,191.54 118.58,191.07L123.66,173.95L104.98,177.93L104.87,177.9C104.47,177.4 104.05,176.89 103.65,176.39L106.61,175.95L111.66,147.93L112.48,147.85C112.48,147.85 110.04,172.84 109.4,174.1C108.77,175.37 112.35,174.32 112.35,174.32L120.15,144.14L113.38,142.69L94.78,161.84L94.44,161.89C94.18,161.38 93.92,160.86 93.67,160.34L111.3,141.16L107.6,139.35L108.38,137.87L135.76,147.71L142.04,147.96L147.26,142.16L149.79,133.85L149.55,129.6L139.67,126.09L137.4,126.67L135.92,128.14L135.44,130.83L136.66,132.95L137.47,134.82L135.35,137.51L135.11,136.7C135.11,136.7 135.92,134.66 135.35,134.34C134.78,134.01 133.72,133.19 132.99,133.35C132.25,133.52 131.93,134.34 131.76,134.74C131.6,135.15 131.11,135.97 131.11,135.97L129.56,126.92L111.21,113.13L94.24,112.64L94.73,111.58L106.56,111.01L106.97,109.54L101.83,104.81L92.94,106.52L88.78,110.19L89.84,110.6L89.92,112.48L86.45,112.74C86.59,111.77 86.73,110.81 86.91,109.84"/>
	<path class="st9" d="M96.64,165.92L102.52,159.56L102.63,160.52L97.24,167.97Z"/>
	<path class="st8" d="M96.64,165.92L102.52,159.56L102.63,160.52L97.24,167.97L96.64,165.92Z"/>
	<path class="st9" d="M159.49,200.62L159.61,202.91L163.92,203.26L164.88,204.95L165.36,202.31ZM123.98,190.66L207.91,211.64C205.71,212.18 203.48,212.65 201.22,213.02L165.36,202.07L165.14,208.14C164.17,208.08 163.19,208.02 162.24,207.94L161.64,205.79L159.84,205.55L159.75,207.69C159.18,207.62 158.59,207.55 158.01,207.47L157.68,200.14L155.53,199.19L156.28,207.22C155.41,207.08 154.56,206.93 153.71,206.77L152.65,198.58L147.85,198.11L149.69,205.91C148.67,205.66 147.64,205.39 146.63,205.11L145.57,197.74L143.78,197.26L144.52,204.49C143.56,204.19 142.63,203.88 141.69,203.55L141.37,196.9L122.91,191.86Z"/>
	<path class="st9" d="M193.64,37.99L197.62,29.52L203.51,31.36C203.51,31.36 201.72,37.72 199.71,41.72M224.78,49.87L233.33,48.44L234.28,54.14L230.48,60.79L222.89,60.79L222.89,53.19Z"/>
	<path class="st8" d="M224.78,49.87L233.33,48.44L234.28,54.14L230.48,60.79L222.89,60.79L222.89,53.19L224.78,49.87Z"/>
	<path class="st10" d="M112.57,194.14C107.91,196.88 85.34,201.42 84.82,188.87C84.59,183.34 88.48,153.65 89.56,146.55C90.74,138.83 93.25,133.23 88.78,126.83C84.56,120.79 75.26,118.09 70.52,122.69C65.58,127.48 62.73,139.97 60.24,146.39C57.81,152.64 55.04,158.94 53.51,165.45C51.4,174.44 45.43,186.69 51.02,194.16C58.39,203.99 67.01,205.13 78.95,203.99C85.66,203.35 89.5,203.89 95.97,205.45C101.19,206.71 118.98,203.2 123.24,199.07C123.24,199.07 135.95,191.34 129.8,185.93C123.66,180.52 114.94,192.75 112.57,194.14"/>
	<path class="st3" d="M112.57,194.14C107.91,196.88 85.34,201.42 84.82,188.87C84.59,183.34 88.48,153.65 89.56,146.55C90.74,138.83 93.25,133.23 88.78,126.83C84.56,120.79 75.26,118.09 70.52,122.69C65.58,127.48 62.73,139.97 60.24,146.39C57.81,152.64 55.04,158.94 53.51,165.45C51.4,174.44 45.43,186.69 51.02,194.16C58.39,203.99 67.01,205.13 78.95,203.99C85.66,203.35 89.5,203.89 95.97,205.45C101.19,206.71 118.98,203.2 123.24,199.07C123.24,199.07 135.95,191.34 129.8,185.93C123.66,180.52 114.94,192.75 112.57,194.14Z"/>
	<path class="st2" d="M126.48,191.65C125.77,191.7 125.1,191.76 124.45,191.83C123.77,193.58 123.11,195.89 122.52,198.93C122.22,200.48 121.94,202.22 121.68,204.16C121.49,205.68 121.31,207.33 121.15,209.11C122.26,208.92 123.39,209 124.49,209.03C125.08,208.84 125.64,208.56 126.14,208.13C126.46,207.82 127.44,207.71 128.3,208.21C129.84,206.21 133.11,206.46 135.46,206.52C136.33,206.5 136.95,207.2 137.33,207.7C138.14,207.39 138.98,207.1 139.83,206.85C142.02,200.9 145.04,191.32 145.23,183.32C145.37,177.49 142.45,170.13 124.58,172.39L112.57,194.14C112.22,194.38 114.8,192.75 124.45,191.83C128.48,181.47 133.14,191.14 126.48,191.65"/>
	<path class="st3" d="M126.48,191.65C125.77,191.7 125.1,191.76 124.45,191.83C123.77,193.58 123.11,195.89 122.52,198.93C122.22,200.48 121.94,202.22 121.68,204.16C121.49,205.68 121.31,207.33 121.15,209.11C122.26,208.92 123.39,209 124.49,209.03C125.08,208.84 125.64,208.56 126.14,208.13C126.46,207.82 127.44,207.71 128.3,208.21C129.84,206.21 133.11,206.46 135.46,206.52C136.33,206.5 136.95,207.2 137.33,207.7C138.14,207.39 138.98,207.1 139.83,206.85C142.02,200.9 145.04,191.32 145.23,183.32C145.37,177.49 142.45,170.13 124.58,172.39L112.57,194.14C112.22,194.38 114.8,192.75 124.45,191.83C128.48,181.47 133.14,191.14 126.48,191.65Z"/>
	<path class="st1" d="M258.25,301.18L2.29,301.18L32.81,154.8L4.47,1.86L264.81,1.86L290.98,154.49ZM273.63,0.77L273.5,0L2.22,0L30.91,154.78L0,303.04L266.85,303.04L299.99,154.54Z"/>
	<path class="st11" d="M130.68,100.67L188.14,78.53L226.78,67.97L191.23,84.32L157.55,99.84L135.02,111.23L135.64,112.88L159.2,101.91L192.48,86.39L224.93,71.28L194.75,91.36L161.26,108.95L146.17,113.29L142.45,113.5L160.65,107.29L193.71,90.73L224.51,71.7"/>
	<path class="st11" d="M225.76,71.28L215.83,96.12"/>
	<path class="st11" d="M196.87,103.59L207.56,101.27L220.38,100.67M147.42,114.33L188.41,105.5"/>
	<path class="st11" d="M207.78,97.15L222.25,94.46L218.93,103.15"/>
	<path class="st11" d="M210.46,95.5L207.78,104.18"/>
	<path class="st11" d="M215.83,86.39L207.15,91.98"/>
	<path class="st11" d="M209.84,88.25L212.11,94.46"/>
	<path class="st11" d="M206.33,90.73L210.46,95.7"/>
	<path class="st11" d="M154.02,91.77L155.79,90.94L158.78,99.18L157.09,100.07L154.02,91.77Z"/>
	<path class="st11" d="M187.94,78.74L190.13,84.6L191.56,83.83L189.23,78.2L187.94,78.74Z"/>
	<path class="st11" d="M158.44,102.19L159.76,101.55L161.43,106.52L160.02,107.34L158.44,102.19Z"/>
	<path class="st11" d="M191.26,87.04L192.65,91.17L194.45,90.11L192.92,86.11L191.26,87.04Z"/>
</svg>