<svg xmlns="http://www.w3.org/2000/svg" width="300" height="303.04" viewBox="0 0 300 303.04">
	<style type="text/css">
		.st2{stroke:#e84e1b;fill:none;stroke-width:1.23;stroke-linecap:round;stroke-linejoin:round;}
		.st1{stroke:#1d1d1b;fill:none;stroke-width:0.37;stroke-linecap:round;stroke-linejoin:round;}
		.st3{fill:#ec5a2e;stroke-linecap:round;stroke-linejoin:round;}
		.st0{fill:#000000;}
	</style>
	<path class="st0" d="M31.31,234.51C32.15,234.51 32.67,233.99 32.67,233.16C32.67,232.33 32.11,231.78 31.3,231.78L29.53,231.78L29.53,234.51ZM31.22,231.19C31.92,231.19 32.39,230.7 32.39,229.98C32.39,229.27 31.94,228.79 31.2,228.79L29.53,228.79L29.53,231.19ZM28.85,228.18L31.22,228.18C32.31,228.18 33.1,228.84 33.1,229.93C33.1,230.65 32.75,231.17 32.22,231.44L32.22,231.46C32.93,231.66 33.38,232.35 33.38,233.18C33.38,234.41 32.46,235.12 31.3,235.12L28.85,235.12Z"/>
	<path class="st0" d="M42.06,230.04C42.71,230.04 43.44,230.26 43.88,230.75L43.53,231.25C43.19,230.89 42.64,230.64 42.08,230.64C41,230.64 40.15,231.46 40.15,232.64C40.15,233.81 41,234.63 42.1,234.63C42.68,234.63 43.3,234.38 43.69,233.95L44,234.45C43.56,234.93 42.82,235.24 42.06,235.24C40.59,235.24 39.46,234.18 39.46,232.64C39.46,231.11 40.6,230.04 42.06,230.04"/>
	<path class="st0" d="M48.3,234.63C49.36,234.63 50.23,233.78 50.23,232.61C50.23,231.49 49.36,230.64 48.3,230.64C47.23,230.64 46.37,231.49 46.37,232.61C46.37,233.78 47.23,234.63 48.3,234.63M48.3,230.04C49.75,230.04 50.92,231.14 50.92,232.61C50.92,234.11 49.75,235.24 48.3,235.24C46.85,235.24 45.68,234.11 45.68,232.61C45.68,231.14 46.85,230.04 48.3,230.04"/>
	<path class="st0" d="M55.45,234.63C56.51,234.63 57.38,233.78 57.38,232.61C57.38,231.49 56.51,230.64 55.45,230.64C54.38,230.64 53.52,231.49 53.52,232.61C53.52,233.78 54.38,234.63 55.45,234.63M55.45,230.04C56.9,230.04 58.07,231.14 58.07,232.61C58.07,234.11 56.9,235.24 55.45,235.24C54,235.24 52.83,234.11 52.83,232.61C52.83,231.14 54,230.04 55.45,230.04"/>
	<path class="st0" d="M61.34,230.75L59.54,230.75L59.54,230.15L63.83,230.15L63.83,230.75L62.01,230.75L62.01,235.12L61.34,235.12Z"/>
	<path class="st0" d="M67.65,234.6C68.47,234.6 68.85,234.25 68.85,233.72C68.85,233.14 68.41,232.82 67.64,232.82L66.52,232.82L66.52,234.6ZM67.57,232.31C68.25,232.31 68.59,231.99 68.59,231.46C68.59,230.92 68.24,230.67 67.54,230.67L66.52,230.67L66.52,232.31ZM65.85,230.15L67.64,230.15C68.65,230.15 69.28,230.6 69.28,231.42C69.28,231.93 69.02,232.34 68.53,232.51L68.53,232.53C69.17,232.66 69.54,233.15 69.54,233.73C69.54,234.59 68.86,235.12 67.74,235.12L65.85,235.12Z"/>
	<path class="st0" d="M75.32,232.13C75.28,231.09 74.64,230.59 73.9,230.59C73.08,230.59 72.35,231.13 72.2,232.13ZM73.92,230.04C75.3,230.04 76,231.09 76,232.33C76,232.44 75.99,232.55 75.98,232.66L72.17,232.66C72.2,233.93 73.07,234.63 74.09,234.63C74.63,234.63 75.2,234.4 75.6,234.03L75.91,234.55C75.44,234.97 74.72,235.24 74.07,235.24C72.59,235.24 71.47,234.17 71.47,232.64C71.47,231.01 72.58,230.04 73.92,230.04"/>
	<path class="st0" d="M79.42,230.75L77.61,230.75L77.61,230.15L81.91,230.15L81.91,230.75L80.09,230.75L80.09,235.12L79.42,235.12Z"/>
	<path class="st0" d="M85.98,230.04C86.63,230.04 87.36,230.26 87.8,230.75L87.45,231.25C87.11,230.89 86.56,230.64 86,230.64C84.92,230.64 84.07,231.46 84.07,232.64C84.07,233.81 84.92,234.63 86.02,234.63C86.6,234.63 87.22,234.38 87.61,233.95L87.92,234.45C87.48,234.93 86.74,235.24 85.98,235.24C84.51,235.24 83.38,234.18 83.38,232.64C83.38,231.11 84.52,230.04 85.98,230.04"/>
	<path class="st0" d="M91.29,230.75L89.48,230.75L89.48,230.15L93.77,230.15L93.77,230.75L91.96,230.75L91.96,235.12L91.29,235.12Z"/>
	<path class="st0" d="M97.6,234.6C98.42,234.6 98.79,234.25 98.79,233.72C98.79,233.14 98.36,232.82 97.59,232.82L96.46,232.82L96.46,234.6ZM97.52,232.31C98.19,232.31 98.54,231.99 98.54,231.46C98.54,230.92 98.18,230.67 97.48,230.67L96.46,230.67L96.46,232.31ZM95.79,230.15L97.59,230.15C98.6,230.15 99.23,230.6 99.23,231.42C99.23,231.93 98.96,232.34 98.48,232.51L98.48,232.53C99.12,232.66 99.48,233.15 99.48,233.73C99.48,234.59 98.8,235.12 97.69,235.12L95.79,235.12Z"/>
	<path class="st0" d="M101.75,230.15L102.4,230.15L102.4,233.41C102.4,233.72 102.38,234.13 102.37,234.15L102.39,234.15C102.41,234.11 102.7,233.69 102.9,233.41L105.34,230.15L105.98,230.15L105.98,235.12L105.32,235.12L105.32,231.85C105.32,231.57 105.35,231.17 105.35,231.13L105.33,231.13C105.32,231.18 105.02,231.58 104.83,231.85L102.39,235.12L101.75,235.12Z"/>
	<path class="st0" d="M108.57,230.15L109.22,230.15L109.22,233.41C109.22,233.72 109.2,234.13 109.19,234.15L109.21,234.15C109.23,234.11 109.53,233.69 109.73,233.41L112.17,230.15L112.81,230.15L112.81,235.12L112.14,235.12L112.14,231.85C112.14,231.57 112.18,231.17 112.18,231.13L112.16,231.13C112.14,231.18 111.84,231.58 111.65,231.85L109.21,235.12L108.57,235.12Z"/>
	<path class="st0" d="M121.74,230.04C122.39,230.04 123.11,230.26 123.55,230.75L123.21,231.25C122.86,230.89 122.31,230.64 121.76,230.64C120.67,230.64 119.82,231.46 119.82,232.64C119.82,233.81 120.67,234.63 121.77,234.63C122.35,234.63 122.97,234.38 123.36,233.95L123.67,234.45C123.24,234.93 122.5,235.24 121.74,235.24C120.26,235.24 119.13,234.18 119.13,232.64C119.13,231.11 120.27,230.04 121.74,230.04"/>
	<path class="st0" d="M131.68,234.6C132.5,234.6 132.87,234.25 132.87,233.72C132.87,233.14 132.44,232.82 131.67,232.82L130.54,232.82L130.54,234.6ZM131.6,232.31C132.27,232.31 132.62,231.99 132.62,231.46C132.62,230.92 132.26,230.67 131.56,230.67L130.54,230.67L130.54,232.31ZM129.87,230.15L131.67,230.15C132.68,230.15 133.31,230.6 133.31,231.42C133.31,231.93 133.04,232.34 132.56,232.51L132.56,232.53C133.2,232.66 133.57,233.15 133.57,233.73C133.57,234.59 132.88,235.12 131.77,235.12L129.87,235.12Z"/>
	<path class="st0" d="M140.14 230.15L140.82 230.15L140.82 235.12L140.14 235.12ZM137.49,234.59C138.29,234.59 138.61,234.18 138.61,233.59C138.61,232.99 138.28,232.58 137.5,232.58L136.5,232.58L136.5,234.59ZM135.83,230.15L136.5,230.15L136.5,232.05L137.57,232.05C138.46,232.05 139.3,232.43 139.3,233.6C139.3,234.5 138.74,235.12 137.55,235.12L135.83,235.12Z"/>
	<path class="st0" d="M145.51,234.65C146.39,234.65 147.1,234 147.1,232.92C147.1,231.82 146.39,231.18 145.55,231.18C144.58,231.18 143.92,231.93 143.92,232.9C143.92,234 144.64,234.65 145.51,234.65M145.23,228.79L147.07,227.93L147.31,228.5L145.4,229.37C144.27,229.91 143.88,230.62 143.81,231.67L143.83,231.67C144.27,230.87 144.95,230.62 145.69,230.62C146.9,230.62 147.79,231.47 147.79,232.91C147.79,234.28 146.86,235.24 145.53,235.24C143.9,235.24 143.19,233.98 143.19,232.31C143.19,230.63 143.58,229.54 145.23,228.79"/>
	<path class="st0" d="M152.31,234.64C153.19,234.64 153.92,233.91 153.92,232.64C153.92,231.43 153.27,230.65 152.34,230.65C151.51,230.65 150.73,231.24 150.73,232.65C150.73,233.65 151.29,234.64 152.31,234.64M150.08,230.15L150.72,230.15L150.72,230.68C150.72,230.89 150.69,231.06 150.69,231.06L150.71,231.06C151.02,230.42 151.67,230.04 152.44,230.04C153.78,230.04 154.6,231.1 154.6,232.63C154.6,234.21 153.67,235.24 152.38,235.24C151.68,235.24 151.07,234.87 150.74,234.25L150.72,234.25C150.72,234.25 150.75,234.43 150.75,234.69L150.75,237.09L150.08,237.09Z"/>
	<path class="st0" d="M158.25,234.68C159.21,234.68 159.77,233.69 159.77,232.82L159.77,232.59L159.48,232.59C158.71,232.59 157.13,232.62 157.13,233.73C157.13,234.19 157.51,234.68 158.25,234.68M159.47,232.06L159.77,232.06L159.77,231.92C159.77,230.96 159.24,230.64 158.54,230.64C158.04,230.64 157.54,230.82 157.13,231.11L156.83,230.6C157.22,230.26 157.92,230.04 158.58,230.04C159.78,230.04 160.44,230.7 160.44,231.94L160.44,235.12L159.8,235.12L159.8,234.54C159.8,234.29 159.83,234.12 159.83,234.12L159.81,234.12C159.55,234.73 158.93,235.24 158.13,235.24C157.29,235.24 156.45,234.74 156.45,233.79C156.45,232.16 158.52,232.06 159.47,232.06"/>
	<path class="st0" d="M162.98,230.15L163.65,230.15L163.65,232.28L166.55,232.28L166.55,230.15L167.22,230.15L167.22,235.12L166.55,235.12L166.55,232.87L163.65,232.87L163.65,235.12L162.98,235.12Z"/>
	<path class="st0" d="M169.81,230.15L170.48,230.15L170.48,232.28L173.39,232.28L173.39,230.15L174.06,230.15L174.06,235.12L173.39,235.12L173.39,232.87L170.48,232.87L170.48,235.12L169.81,235.12Z"/>
	<path class="st0" d="M178.93,234.63C179.99,234.63 180.86,233.78 180.86,232.61C180.86,231.49 179.99,230.64 178.93,230.64C177.86,230.64 177,231.49 177,232.61C177,233.78 177.86,234.63 178.93,234.63M178.93,230.04C180.38,230.04 181.55,231.14 181.55,232.61C181.55,234.11 180.38,235.24 178.93,235.24C177.48,235.24 176.31,234.11 176.31,232.61C176.31,231.14 177.48,230.04 178.93,230.04"/>
	<path class="st0" d="M184.61,228.34L184.61,228.17L185.19,228.17L185.19,228.32C185.19,228.76 185.54,229 185.91,229C186.28,229 186.64,228.76 186.64,228.31L186.64,228.17L187.21,228.17L187.21,228.34C187.21,229.08 186.58,229.5 185.91,229.5C185.24,229.5 184.61,229.08 184.61,228.34M183.8,230.15L184.45,230.15L184.45,233.41C184.45,233.72 184.43,234.13 184.42,234.15L184.44,234.15C184.46,234.11 184.76,233.69 184.95,233.41L187.39,230.15L188.03,230.15L188.03,235.12L187.37,235.12L187.37,231.85C187.37,231.57 187.4,231.17 187.4,231.13L187.38,231.13C187.37,231.18 187.07,231.58 186.88,231.85L184.44,235.12L183.8,235.12Z"/>
	<path class="st0" d="M195.93,230.75L194.12,230.75L194.12,230.15L198.41,230.15L198.41,230.75L196.6,230.75L196.6,235.12L195.93,235.12Z"/>
	<path class="st0" d="M203.74,232.13C203.7,231.09 203.07,230.59 202.33,230.59C201.5,230.59 200.78,231.13 200.62,232.13ZM202.34,230.04C203.72,230.04 204.42,231.09 204.42,232.33C204.42,232.44 204.41,232.55 204.4,232.66L200.59,232.66C200.62,233.93 201.49,234.63 202.51,234.63C203.06,234.63 203.62,234.4 204.02,234.03L204.33,234.55C203.87,234.97 203.14,235.24 202.49,235.24C201.01,235.24 199.89,234.17 199.89,232.64C199.89,231.01 201,230.04 202.34,230.04"/>
	<path class="st0" d="M207.77,232.53L206.17,230.15L206.96,230.15L208.02,231.82C208.1,231.95 208.19,232.11 208.19,232.11L208.21,232.11C208.21,232.11 208.3,231.95 208.38,231.82L209.45,230.15L210.23,230.15L208.63,232.53L210.37,235.12L209.58,235.12L208.38,233.25C208.29,233.13 208.21,232.98 208.21,232.98L208.19,232.98C208.19,232.98 208.11,233.12 208.02,233.25L206.81,235.12L206.03,235.12Z"/>
	<path class="st0" d="M212.35,230.15L213.02,230.15L213.02,232.28L215.92,232.28L215.92,230.15L216.6,230.15L216.6,235.12L215.92,235.12L215.92,232.87L213.02,232.87L213.02,235.12L212.35,235.12Z"/>
	<path class="st0" d="M221.47,234.63C222.53,234.63 223.4,233.78 223.4,232.61C223.4,231.49 222.53,230.64 221.47,230.64C220.4,230.64 219.54,231.49 219.54,232.61C219.54,233.78 220.4,234.63 221.47,234.63M221.47,230.04C222.92,230.04 224.09,231.14 224.09,232.61C224.09,234.11 222.92,235.24 221.47,235.24C220.01,235.24 218.85,234.11 218.85,232.61C218.85,231.14 220.01,230.04 221.47,230.04"/>
	<path class="st0" d="M225.6,234.56C226.43,234.43 226.79,233.49 226.79,231.66L226.79,230.15L229.83,230.15L229.83,235.12L229.16,235.12L229.16,230.74L227.44,230.74L227.44,231.66C227.44,234 226.88,235.06 225.6,235.16Z"/>
	<path class="st0" d="M234.71,234.63C235.78,234.63 236.65,233.78 236.65,232.61C236.65,231.49 235.78,230.64 234.71,230.64C233.64,230.64 232.78,231.49 232.78,232.61C232.78,233.78 233.64,234.63 234.71,234.63M234.71,230.04C236.16,230.04 237.34,231.14 237.34,232.61C237.34,234.11 236.16,235.24 234.71,235.24C233.26,235.24 232.09,234.11 232.09,232.61C232.09,231.14 233.26,230.04 234.71,230.04"/>
	<path class="st0" d="M239.58,230.15L242.54,230.15L242.54,230.74L240.25,230.74L240.25,235.12L239.58,235.12Z"/>
	<path class="st0" d="M244.56,230.15L245.21,230.15L245.21,233.41C245.21,233.72 245.19,234.13 245.18,234.15L245.2,234.15C245.22,234.11 245.51,233.69 245.71,233.41L248.15,230.15L248.79,230.15L248.79,235.12L248.13,235.12L248.13,231.85C248.13,231.57 248.16,231.17 248.16,231.13L248.14,231.13C248.13,231.18 247.83,231.58 247.64,231.85L245.2,235.12L244.56,235.12Z"/>
	<path class="st0" d="M254.9,232.13C254.86,231.09 254.23,230.59 253.49,230.59C252.66,230.59 251.94,231.13 251.78,232.13ZM253.5,230.04C254.88,230.04 255.58,231.09 255.58,232.33C255.58,232.44 255.57,232.55 255.56,232.66L251.75,232.66C251.78,233.93 252.65,234.63 253.67,234.63C254.22,234.63 254.78,234.4 255.18,234.03L255.49,234.55C255.03,234.97 254.3,235.24 253.65,235.24C252.17,235.24 251.05,234.17 251.05,232.64C251.05,231.01 252.16,230.04 253.5,230.04"/>
	<path class="st0" d="M258.64,228.34L258.64,228.17L259.22,228.17L259.22,228.32C259.22,228.76 259.57,229 259.94,229C260.31,229 260.67,228.76 260.67,228.31L260.67,228.17L261.25,228.17L261.25,228.34C261.25,229.08 260.62,229.5 259.94,229.5C259.27,229.5 258.64,229.08 258.64,228.34M257.83,230.15L258.48,230.15L258.48,233.41C258.48,233.72 258.46,234.13 258.45,234.15L258.47,234.15C258.49,234.11 258.79,233.69 258.99,233.41L261.43,230.15L262.07,230.15L262.07,235.12L261.41,235.12L261.41,231.85C261.41,231.57 261.44,231.17 261.44,231.13L261.42,231.13C261.41,231.18 261.1,231.58 260.91,231.85L258.47,235.12L257.83,235.12Z"/>
	<path class="st0" d="M27.84,248.22C28.72,248.22 29.45,247.49 29.45,246.22C29.45,245.01 28.8,244.23 27.87,244.23C27.04,244.23 26.26,244.82 26.26,246.23C26.26,247.23 26.82,248.22 27.84,248.22M25.61,243.74L26.25,243.74L26.25,244.26C26.25,244.47 26.22,244.64 26.22,244.64L26.24,244.64C26.55,244 27.2,243.62 27.97,243.62C29.31,243.62 30.13,244.68 30.13,246.21C30.13,247.79 29.2,248.82 27.91,248.82C27.21,248.82 26.6,248.45 26.27,247.83L26.25,247.83C26.25,247.83 26.28,248.01 26.28,248.27L26.28,250.67L25.61,250.67Z"/>
	<path class="st0" d="M36.73 243.74L37.4 243.74L37.4 248.7L36.73 248.7ZM34.07,248.17C34.87,248.17 35.2,247.76 35.2,247.17C35.2,246.57 34.86,246.16 34.08,246.16L33.08,246.16L33.08,248.17ZM32.41,243.74L33.08,243.74L33.08,245.63L34.15,245.63C35.04,245.63 35.89,246.01 35.89,247.18C35.89,248.08 35.33,248.7 34.13,248.7L32.41,248.7Z"/>
	<path class="st0" d="M42.09,248.23C42.97,248.23 43.68,247.58 43.68,246.5C43.68,245.4 42.97,244.76 42.13,244.76C41.16,244.76 40.5,245.51 40.5,246.48C40.5,247.58 41.22,248.23 42.09,248.23M41.82,242.37L43.65,241.51L43.9,242.08L41.98,242.95C40.86,243.49 40.46,244.2 40.39,245.25L40.41,245.25C40.86,244.45 41.53,244.2 42.27,244.2C43.48,244.2 44.37,245.05 44.37,246.49C44.37,247.86 43.44,248.82 42.11,248.82C40.48,248.82 39.77,247.56 39.77,245.89C39.77,244.21 40.17,243.12 41.82,242.37"/>
	<path class="st0" d="M48.94,248.21C50.01,248.21 50.88,247.36 50.88,246.19C50.88,245.07 50.01,244.22 48.94,244.22C47.88,244.22 47.02,245.07 47.02,246.19C47.02,247.36 47.88,248.21 48.94,248.21M48.94,243.62C50.4,243.62 51.57,244.72 51.57,246.19C51.57,247.69 50.4,248.82 48.94,248.82C47.49,248.82 46.33,247.69 46.33,246.19C46.33,244.72 47.49,243.62 48.94,243.62"/>
	<path class="st0" d="M53.81,243.73L57.97,243.73L57.97,248.7L57.3,248.7L57.3,244.33L54.49,244.33L54.49,248.7L53.81,248.7Z"/>
	<path class="st0" d="M64.08,245.71C64.04,244.67 63.4,244.17 62.66,244.17C61.83,244.17 61.11,244.71 60.96,245.71ZM62.68,243.62C64.06,243.62 64.76,244.67 64.76,245.91C64.76,246.02 64.75,246.13 64.74,246.24L60.93,246.24C60.96,247.51 61.82,248.21 62.85,248.21C63.39,248.21 63.96,247.98 64.36,247.61L64.67,248.13C64.2,248.55 63.48,248.82 62.83,248.82C61.35,248.82 60.22,247.75 60.22,246.22C60.22,244.59 61.34,243.62 62.68,243.62"/>
	<path class="st0" d="M69.24,248.22C70.12,248.22 70.85,247.49 70.85,246.22C70.85,245.01 70.2,244.23 69.27,244.23C68.44,244.23 67.66,244.82 67.66,246.23C67.66,247.23 68.22,248.22 69.24,248.22M67.01,243.74L67.65,243.74L67.65,244.26C67.65,244.47 67.62,244.64 67.62,244.64L67.64,244.64C67.95,244 68.6,243.62 69.37,243.62C70.71,243.62 71.53,244.68 71.53,246.21C71.53,247.79 70.6,248.82 69.31,248.82C68.61,248.82 68,248.45 67.67,247.83L67.65,247.83C67.65,247.83 67.68,248.01 67.68,248.27L67.68,250.67L67.01,250.67Z"/>
	<path class="st0" d="M77.33,245.71C77.29,244.67 76.66,244.17 75.92,244.17C75.09,244.17 74.37,244.71 74.21,245.71ZM75.94,243.62C77.31,243.62 78.01,244.67 78.01,245.91C78.01,246.02 78,246.13 77.99,246.24L74.18,246.24C74.21,247.51 75.08,248.21 76.11,248.21C76.65,248.21 77.21,247.98 77.62,247.61L77.92,248.13C77.46,248.55 76.74,248.82 76.09,248.82C74.61,248.82 73.48,247.75 73.48,246.22C73.48,244.59 74.6,243.62 75.94,243.62"/>
	<path class="st0" d="M82.5,248.22C83.37,248.22 84.1,247.49 84.1,246.22C84.1,245.01 83.45,244.23 82.53,244.23C81.7,244.23 80.92,244.82 80.92,246.23C80.92,247.23 81.48,248.22 82.5,248.22M80.27,243.74L80.91,243.74L80.91,244.26C80.91,244.47 80.88,244.64 80.88,244.64L80.9,244.64C81.2,244 81.85,243.62 82.62,243.62C83.97,243.62 84.79,244.68 84.79,246.21C84.79,247.79 83.86,248.82 82.56,248.82C81.86,248.82 81.25,248.45 80.93,247.83L80.91,247.83C80.91,247.83 80.94,248.01 80.94,248.27L80.94,250.67L80.27,250.67Z"/>
	<path class="st0" d="M88.43,248.26C89.39,248.26 89.95,247.27 89.95,246.4L89.95,246.17L89.67,246.17C88.9,246.17 87.32,246.2 87.32,247.31C87.32,247.77 87.69,248.26 88.43,248.26M89.66,245.64L89.95,245.64L89.95,245.5C89.95,244.54 89.43,244.22 88.73,244.22C88.22,244.22 87.72,244.4 87.32,244.69L87.01,244.18C87.41,243.84 88.11,243.62 88.77,243.62C89.96,243.62 90.62,244.28 90.62,245.52L90.62,248.7L89.98,248.7L89.98,248.12C89.98,247.87 90.01,247.7 90.01,247.7L89.99,247.7C89.73,248.31 89.11,248.82 88.31,248.82C87.47,248.82 86.63,248.33 86.63,247.37C86.63,245.74 88.71,245.64 89.66,245.64"/>
	<path class="st0" d="M95.27,248.23C96.15,248.23 96.86,247.58 96.86,246.5C96.86,245.4 96.15,244.76 95.31,244.76C94.34,244.76 93.68,245.51 93.68,246.48C93.68,247.58 94.4,248.23 95.27,248.23M94.99,242.37L96.83,241.51L97.07,242.08L95.16,242.95C94.03,243.49 93.64,244.2 93.57,245.25L93.59,245.25C94.03,244.45 94.71,244.2 95.45,244.2C96.66,244.2 97.55,245.05 97.55,246.49C97.55,247.86 96.62,248.82 95.29,248.82C93.66,248.82 92.95,247.56 92.95,245.89C92.95,244.21 93.34,243.12 94.99,242.37"/>
	<path class="st0" d="M102.12,248.21C103.19,248.21 104.06,247.36 104.06,246.19C104.06,245.07 103.19,244.22 102.12,244.22C101.05,244.22 100.2,245.07 100.2,246.19C100.2,247.36 101.05,248.21 102.12,248.21M102.12,243.62C103.57,243.62 104.75,244.72 104.75,246.19C104.75,247.69 103.57,248.82 102.12,248.82C100.67,248.82 99.5,247.69 99.5,246.19C99.5,244.72 100.67,243.62 102.12,243.62"/>
	<path class="st0" d="M108.02,244.33L106.21,244.33L106.21,243.73L110.5,243.73L110.5,244.33L108.69,244.33L108.69,248.7L108.02,248.7Z"/>
	<path class="st0" d="M112.52,243.73L113.19,243.73L113.19,245.84L113.98,245.84L115.47,243.73L116.26,243.73L114.54,246.09L114.54,246.11L116.46,248.7L115.64,248.7L113.99,246.43L113.19,246.43L113.19,248.7L112.52,248.7Z"/>
	<path class="st0" d="M118.4,243.73L119.05,243.73L119.05,246.99C119.05,247.3 119.03,247.71 119.02,247.73L119.04,247.73C119.06,247.69 119.35,247.27 119.55,246.99L121.99,243.73L122.63,243.73L122.63,248.7L121.97,248.7L121.97,245.43C121.97,245.15 122,244.75 122,244.71L121.98,244.71C121.97,244.76 121.67,245.16 121.48,245.43L119.04,248.7L118.4,248.7Z"/>
	<path class="st0" d="M125.42,247.89L126.19,247.89L125.44,249.66L124.86,249.66Z"/>
	<path class="st0" d="M156.97,243.73L157.68,243.73L159.17,246.8C159.31,247.1 159.47,247.5 159.47,247.5L159.49,247.5C159.49,247.5 159.65,247.11 159.8,246.8L161.3,243.73L162,243.73L162.42,248.7L161.75,248.7L161.51,245.49C161.5,245.22 161.51,244.63 161.51,244.63L161.49,244.63C161.49,244.63 161.38,244.95 161.17,245.35L159.79,248.13L159.18,248.13L157.81,245.37C157.62,244.99 157.48,244.63 157.48,244.63L157.46,244.63C157.46,244.63 157.48,245.22 157.46,245.49L157.21,248.7L156.56,248.7Z"/>
	<path class="st0" d="M169.13 243.74L169.8 243.74L169.8 248.7L169.13 248.7ZM166.47,248.17C167.27,248.17 167.6,247.76 167.6,247.17C167.6,246.57 167.27,246.16 166.49,246.16L165.49,246.16L165.49,248.17ZM164.82,243.74L165.49,243.74L165.49,245.63L166.55,245.63C167.44,245.63 168.29,246.01 168.29,247.18C168.29,248.08 167.73,248.7 166.53,248.7L164.82,248.7Z"/>
	<path class="st0" d="M200.34,243.73L204.5,243.73L204.5,248.7L203.83,248.7L203.83,244.33L201.02,244.33L201.02,248.7L200.34,248.7Z"/>
	<path class="st0" d="M209.37,248.21C210.44,248.21 211.31,247.36 211.31,246.19C211.31,245.07 210.44,244.22 209.37,244.22C208.3,244.22 207.44,245.07 207.44,246.19C207.44,247.36 208.3,248.21 209.37,248.21M209.37,243.62C210.82,243.62 212,244.72 212,246.19C212,247.69 210.82,248.82 209.37,248.82C207.92,248.82 206.75,247.69 206.75,246.19C206.75,244.72 207.92,243.62 209.37,243.62"/>
	<path class="st0" d="M217.29,248.13L217.29,244.31L215.55,244.31L215.55,244.6C215.55,245.34 215.48,247.01 214.74,248.13ZM214.02,248.13C214.86,247.03 214.89,245.22 214.89,244.54L214.89,243.73L217.96,243.73L217.96,248.13L218.66,248.13L218.66,249.89L218.02,249.89L218.02,248.7L214.05,248.7L214.05,249.89L213.41,249.89L213.41,248.13Z"/>
	<path class="st0" d="M222.79,248.23C223.67,248.23 224.38,247.58 224.38,246.5C224.38,245.4 223.67,244.76 222.83,244.76C221.86,244.76 221.2,245.51 221.2,246.48C221.2,247.58 221.92,248.23 222.79,248.23M222.52,242.37L224.35,241.51L224.6,242.08L222.68,242.95C221.56,243.49 221.16,244.2 221.09,245.25L221.11,245.25C221.56,244.45 222.23,244.2 222.97,244.2C224.19,244.2 225.07,245.05 225.07,246.49C225.07,247.86 224.15,248.82 222.81,248.82C221.18,248.82 220.47,247.56 220.47,245.89C220.47,244.21 220.87,243.12 222.52,242.37"/>
	<path class="st0" d="M227.37,243.73L228.02,243.73L228.02,246.99C228.02,247.3 228,247.71 227.99,247.73L228.01,247.73C228.03,247.69 228.32,247.27 228.52,246.99L230.96,243.73L231.6,243.73L231.6,248.7L230.94,248.7L230.94,245.43C230.94,245.15 230.97,244.75 230.97,244.71L230.95,244.71C230.94,244.76 230.63,245.16 230.45,245.43L228.01,248.7L227.37,248.7Z"/>
	<path class="st0" d="M236.42,248.22C237.3,248.22 238.03,247.49 238.03,246.22C238.03,245.01 237.38,244.23 236.45,244.23C235.62,244.23 234.84,244.82 234.84,246.23C234.84,247.23 235.4,248.22 236.42,248.22M234.19,243.74L234.83,243.74L234.83,244.26C234.83,244.47 234.8,244.64 234.8,244.64L234.82,244.64C235.13,244 235.78,243.62 236.55,243.62C237.89,243.62 238.71,244.68 238.71,246.21C238.71,247.79 237.78,248.82 236.49,248.82C235.79,248.82 235.18,248.45 234.85,247.83L234.83,247.83C234.83,247.83 234.86,248.01 234.86,248.27L234.86,250.67L234.19,250.67Z"/>
	<path class="st0" d="M242.36,248.26C243.32,248.26 243.88,247.27 243.88,246.4L243.88,246.17L243.59,246.17C242.82,246.17 241.24,246.2 241.24,247.31C241.24,247.77 241.62,248.26 242.36,248.26M243.58,245.64L243.88,245.64L243.88,245.5C243.88,244.54 243.36,244.22 242.65,244.22C242.15,244.22 241.65,244.4 241.24,244.69L240.94,244.18C241.33,243.84 242.03,243.62 242.69,243.62C243.89,243.62 244.55,244.28 244.55,245.52L244.55,248.7L243.91,248.7L243.91,248.12C243.91,247.87 243.94,247.7 243.94,247.7L243.92,247.7C243.66,248.31 243.04,248.82 242.24,248.82C241.4,248.82 240.56,248.33 240.56,247.37C240.56,245.74 242.63,245.64 243.58,245.64"/>
	<path class="st0" d="M250.6,245.71C250.56,244.67 249.93,244.17 249.19,244.17C248.36,244.17 247.64,244.71 247.48,245.71ZM249.21,243.62C250.58,243.62 251.29,244.67 251.29,245.91C251.29,246.02 251.28,246.13 251.27,246.24L247.46,246.24C247.48,247.51 248.35,248.21 249.38,248.21C249.92,248.21 250.49,247.98 250.89,247.61L251.2,248.13C250.73,248.55 250.01,248.82 249.36,248.82C247.88,248.82 246.75,247.75 246.75,246.22C246.75,244.59 247.87,243.62 249.21,243.62"/>
	<path class="st0" d="M253.76,243.73L254.47,243.73L255.96,246.8C256.1,247.1 256.26,247.5 256.26,247.5L256.28,247.5C256.28,247.5 256.44,247.11 256.59,246.8L258.09,243.73L258.79,243.73L259.21,248.7L258.54,248.7L258.3,245.49C258.29,245.22 258.3,244.63 258.3,244.63L258.28,244.63C258.28,244.63 258.17,244.95 257.96,245.35L256.58,248.13L255.97,248.13L254.6,245.37C254.41,244.99 254.27,244.63 254.27,244.63L254.25,244.63C254.25,244.63 254.27,245.22 254.25,245.49L254,248.7L253.35,248.7Z"/>
	<path class="st0" d="M22.56,257.31L23.21,257.31L23.21,260.57C23.21,260.88 23.19,261.29 23.18,261.31L23.2,261.31C23.22,261.27 23.52,260.85 23.72,260.57L26.15,257.31L26.8,257.31L26.8,262.28L26.13,262.28L26.13,259.01C26.13,258.73 26.16,258.33 26.16,258.29L26.14,258.29C26.13,258.34 25.83,258.74 25.64,259.01L23.2,262.28L22.56,262.28Z"/>
	<path class="st0" d="M39.57,257.31L43.72,257.31L43.72,262.28L43.05,262.28L43.05,257.91L40.24,257.91L40.24,262.28L39.57,262.28Z"/>
	<path class="st0" d="M48.54,261.8C49.42,261.8 50.15,261.07 50.15,259.8C50.15,258.59 49.5,257.81 48.57,257.81C47.74,257.81 46.96,258.4 46.96,259.81C46.96,260.81 47.53,261.8 48.54,261.8M46.31,257.32L46.95,257.32L46.95,257.84C46.95,258.05 46.92,258.22 46.92,258.22L46.94,258.22C47.25,257.58 47.9,257.2 48.67,257.2C50.01,257.2 50.83,258.26 50.83,259.79C50.83,261.37 49.91,262.4 48.61,262.4C47.91,262.4 47.3,262.03 46.97,261.41L46.95,261.41C46.95,261.41 46.98,261.59 46.98,261.85L46.98,264.26L46.31,264.26Z"/>
	<path class="st0" d="M56.63,259.29C56.59,258.25 55.96,257.75 55.22,257.75C54.39,257.75 53.67,258.29 53.51,259.29ZM55.24,257.2C56.61,257.2 57.31,258.25 57.31,259.49C57.31,259.6 57.3,259.71 57.29,259.82L53.48,259.82C53.51,261.09 54.38,261.79 55.41,261.79C55.95,261.79 56.51,261.56 56.92,261.19L57.22,261.71C56.76,262.13 56.04,262.4 55.39,262.4C53.91,262.4 52.78,261.33 52.78,259.8C52.78,258.17 53.9,257.2 55.24,257.2"/>
	<path class="st0" d="M62.76,261.71L62.76,257.89L61.02,257.89L61.02,258.18C61.02,258.92 60.95,260.59 60.21,261.71ZM59.49,261.71C60.33,260.61 60.36,258.8 60.36,258.12L60.36,257.31L63.43,257.31L63.43,261.71L64.13,261.71L64.13,263.47L63.49,263.47L63.49,262.28L59.52,262.28L59.52,263.47L58.88,263.47L58.88,261.71Z"/>
	<path class="st0" d="M68.42,261.79C69.49,261.79 70.36,260.94 70.36,259.77C70.36,258.65 69.49,257.8 68.42,257.8C67.36,257.8 66.5,258.65 66.5,259.77C66.5,260.94 67.36,261.79 68.42,261.79M68.42,257.2C69.88,257.2 71.05,258.3 71.05,259.77C71.05,261.27 69.88,262.4 68.42,262.4C66.97,262.4 65.81,261.27 65.81,259.77C65.81,258.3 66.97,257.2 68.42,257.2"/>
	<path class="st0" d="M75.56,257.2C76.22,257.2 76.94,257.42 77.38,257.91L77.04,258.41C76.69,258.05 76.14,257.8 75.58,257.8C74.5,257.8 73.65,258.62 73.65,259.8C73.65,260.97 74.5,261.79 75.6,261.79C76.18,261.79 76.8,261.54 77.19,261.11L77.5,261.61C77.07,262.09 76.32,262.4 75.56,262.4C74.09,262.4 72.96,261.34 72.96,259.8C72.96,258.27 74.1,257.2 75.56,257.2"/>
	<path class="st0" d="M80.87,257.91L79.06,257.91L79.06,257.31L83.36,257.31L83.36,257.91L81.54,257.91L81.54,262.28L80.87,262.28Z"/>
	<path class="st0" d="M86.69,261.84C87.64,261.84 88.21,260.85 88.21,259.98L88.21,259.75L87.92,259.75C87.15,259.75 85.57,259.78 85.57,260.89C85.57,261.35 85.95,261.84 86.69,261.84M87.91,259.22L88.21,259.22L88.21,259.08C88.21,258.12 87.68,257.8 86.98,257.8C86.48,257.8 85.97,257.98 85.57,258.27L85.26,257.76C85.66,257.42 86.36,257.2 87.02,257.2C88.22,257.2 88.88,257.86 88.88,259.1L88.88,262.28L88.24,262.28L88.24,261.7C88.24,261.45 88.26,261.28 88.26,261.28L88.25,261.28C87.99,261.89 87.37,262.4 86.57,262.4C85.73,262.4 84.89,261.91 84.89,260.95C84.89,259.32 86.96,259.22 87.91,259.22"/>
	<path class="st0" d="M93.22,261.76C94.04,261.76 94.42,261.41 94.42,260.88C94.42,260.3 93.98,259.98 93.21,259.98L92.09,259.98L92.09,261.76ZM93.14,259.47C93.82,259.47 94.16,259.15 94.16,258.62C94.16,258.08 93.81,257.83 93.11,257.83L92.09,257.83L92.09,259.47ZM91.42,257.32L93.21,257.32C94.22,257.32 94.85,257.76 94.85,258.58C94.85,259.09 94.59,259.5 94.1,259.67L94.1,259.69C94.75,259.82 95.11,260.31 95.11,260.89C95.11,261.75 94.43,262.28 93.31,262.28L91.42,262.28Z"/>
	<path class="st0" d="M96.77,261.72C97.6,261.59 97.96,260.65 97.96,258.82L97.96,257.31L101,257.31L101,262.28L100.33,262.28L100.33,257.9L98.61,257.9L98.61,258.82C98.61,261.16 98.04,262.22 96.77,262.32Z"/>
	<path class="st0" d="M106.2,259.85L106.2,257.83L105.25,257.83C104.51,257.83 104.06,258.11 104.06,258.83C104.06,259.5 104.56,259.85 105.2,259.85ZM104.29,260.57C104.39,260.41 104.51,260.28 104.51,260.28L104.51,260.26C103.93,260.14 103.37,259.63 103.37,258.83C103.37,257.83 104.1,257.31 105.13,257.31L106.87,257.31L106.87,262.28L106.2,262.28L106.2,260.37L105.17,260.37L103.87,262.28L103.09,262.28Z"/>
	<path class="st0" d="M112.99,259.29C112.95,258.25 112.31,257.75 111.57,257.75C110.74,257.75 110.02,258.29 109.87,259.29ZM111.59,257.2C112.97,257.2 113.67,258.25 113.67,259.49C113.67,259.6 113.66,259.71 113.65,259.82L109.84,259.82C109.87,261.09 110.73,261.79 111.76,261.79C112.3,261.79 112.87,261.56 113.27,261.19L113.58,261.71C113.11,262.13 112.39,262.4 111.74,262.4C110.26,262.4 109.13,261.33 109.13,259.8C109.13,258.17 110.25,257.2 111.59,257.2"/>
	<path class="st0" d="M116.14,257.31L116.85,257.31L118.34,260.38C118.48,260.68 118.65,261.08 118.65,261.08L118.67,261.08C118.67,261.08 118.82,260.69 118.97,260.38L120.47,257.31L121.17,257.31L121.59,262.28L120.93,262.28L120.68,259.07C120.67,258.8 120.68,258.21 120.68,258.21L120.66,258.21C120.66,258.21 120.55,258.53 120.34,258.93L118.96,261.71L118.35,261.71L116.98,258.95C116.79,258.57 116.65,258.21 116.65,258.21L116.63,258.21C116.63,258.21 116.65,258.8 116.63,259.07L116.39,262.28L115.73,262.28Z"/>
	<path class="st0" d="M134.17,257.31L134.84,257.31L134.84,259.44L137.74,259.44L137.74,257.31L138.42,257.31L138.42,262.28L137.74,262.28L137.74,260.03L134.84,260.03L134.84,262.28L134.17,262.28Z"/>
	<path class="st0" d="M144.52,259.29C144.48,258.25 143.85,257.75 143.11,257.75C142.28,257.75 141.56,258.29 141.4,259.29ZM143.13,257.2C144.5,257.2 145.2,258.25 145.2,259.49C145.2,259.6 145.19,259.71 145.18,259.82L141.37,259.82C141.4,261.09 142.27,261.79 143.29,261.79C143.84,261.79 144.4,261.56 144.81,261.19L145.11,261.71C144.65,262.13 143.93,262.4 143.28,262.4C141.79,262.4 140.67,261.33 140.67,259.8C140.67,258.17 141.78,257.2 143.13,257.2"/>
	<path class="st0" d="M149.72,257.2C150.38,257.2 151.1,257.42 151.54,257.91L151.19,258.41C150.85,258.05 150.3,257.8 149.75,257.8C148.66,257.8 147.81,258.62 147.81,259.8C147.81,260.97 148.66,261.79 149.76,261.79C150.34,261.79 150.96,261.54 151.35,261.11L151.66,261.61C151.22,262.09 150.48,262.4 149.72,262.4C148.25,262.4 147.12,261.34 147.12,259.8C147.12,258.27 148.26,257.2 149.72,257.2"/>
	<path class="st0" d="M153.79,257.31L154.46,257.31L154.46,259.42L155.25,259.42L156.75,257.31L157.53,257.31L155.81,259.67L155.81,259.69L157.73,262.28L156.91,262.28L155.26,260.01L154.46,260.01L154.46,262.28L153.79,262.28Z"/>
	<path class="st0" d="M161.74,261.79C162.81,261.79 163.68,260.94 163.68,259.77C163.68,258.65 162.81,257.8 161.74,257.8C160.68,257.8 159.82,258.65 159.82,259.77C159.82,260.94 160.68,261.79 161.74,261.79M161.74,257.2C163.19,257.2 164.37,258.3 164.37,259.77C164.37,261.27 163.19,262.4 161.74,262.4C160.29,262.4 159.13,261.27 159.13,259.77C159.13,258.3 160.29,257.2 161.74,257.2"/>
	<path class="st0" d="M165.88,261.72C166.71,261.59 167.07,260.65 167.07,258.82L167.07,257.31L170.11,257.31L170.11,262.28L169.44,262.28L169.44,257.9L167.72,257.9L167.72,258.82C167.72,261.16 167.16,262.22 165.88,262.32Z"/>
	<path class="st0" d="M174.37,261.75C175.17,261.75 175.5,261.34 175.5,260.75C175.5,260.15 175.16,259.74 174.38,259.74L173.38,259.74L173.38,261.75ZM172.71,257.31L173.38,257.31L173.38,259.21L174.45,259.21C175.34,259.21 176.19,259.59 176.19,260.76C176.19,261.66 175.63,262.28 174.43,262.28L172.71,262.28Z"/>
	<path class="st0" d="M178.32,257.31L178.99,257.31L178.99,259.42L179.78,259.42L181.27,257.31L182.06,257.31L180.33,259.67L180.33,259.69L182.26,262.28L181.44,262.28L179.79,260.01L178.99,260.01L178.99,262.28L178.32,262.28Z"/>
	<path class="st0" d="M186.27,261.79C187.33,261.79 188.2,260.94 188.2,259.77C188.2,258.65 187.33,257.8 186.27,257.8C185.2,257.8 184.34,258.65 184.34,259.77C184.34,260.94 185.2,261.79 186.27,261.79M186.27,257.2C187.72,257.2 188.89,258.3 188.89,259.77C188.89,261.27 187.72,262.4 186.27,262.4C184.82,262.4 183.65,261.27 183.65,259.77C183.65,258.3 184.82,257.2 186.27,257.2"/>
	<path class="st0" d="M203.12,261.76C203.94,261.76 204.32,261.41 204.32,260.88C204.32,260.3 203.88,259.98 203.11,259.98L201.99,259.98L201.99,261.76ZM203.05,259.47C203.72,259.47 204.06,259.15 204.06,258.62C204.06,258.08 203.71,257.83 203.01,257.83L201.99,257.83L201.99,259.47ZM201.32,257.32L203.11,257.32C204.12,257.32 204.75,257.76 204.75,258.58C204.75,259.09 204.49,259.5 204,259.67L204,259.69C204.65,259.82 205.01,260.31 205.01,260.89C205.01,261.75 204.33,262.28 203.21,262.28L201.32,262.28Z"/>
	<path class="st0" d="M208.64,261.84C209.59,261.84 210.16,260.85 210.16,259.98L210.16,259.75L209.87,259.75C209.1,259.75 207.52,259.78 207.52,260.89C207.52,261.35 207.9,261.84 208.64,261.84M209.86,259.22L210.16,259.22L210.16,259.08C210.16,258.12 209.63,257.8 208.93,257.8C208.43,257.8 207.92,257.98 207.52,258.27L207.21,257.76C207.61,257.42 208.31,257.2 208.97,257.2C210.17,257.2 210.83,257.86 210.83,259.1L210.83,262.28L210.19,262.28L210.19,261.7C210.19,261.45 210.21,261.28 210.21,261.28L210.2,261.28C209.94,261.89 209.32,262.4 208.52,262.4C207.68,262.4 206.84,261.91 206.84,260.95C206.84,259.32 208.91,259.22 209.86,259.22"/>
	<path class="st0" d="M215.6,261.8C216.48,261.8 217.21,261.07 217.21,259.8C217.21,258.59 216.56,257.81 215.63,257.81C214.8,257.81 214.02,258.4 214.02,259.81C214.02,260.81 214.58,261.8 215.6,261.8M213.37,257.32L214.01,257.32L214.01,257.84C214.01,258.05 213.98,258.22 213.98,258.22L214,258.22C214.3,257.58 214.96,257.2 215.73,257.2C217.07,257.2 217.89,258.26 217.89,259.79C217.89,261.37 216.96,262.4 215.67,262.4C214.97,262.4 214.35,262.03 214.03,261.41L214.01,261.41C214.01,261.41 214.04,261.59 214.04,261.85L214.04,264.26L213.37,264.26Z"/>
	<path class="st0" d="M220.17,257.31L220.82,257.31L220.82,260.57C220.82,260.88 220.8,261.29 220.79,261.31L220.81,261.31C220.83,261.27 221.13,260.85 221.33,260.57L223.77,257.31L224.41,257.31L224.41,262.28L223.75,262.28L223.75,259.01C223.75,258.73 223.78,258.33 223.78,258.29L223.76,258.29C223.75,258.34 223.44,258.74 223.25,259.01L220.81,262.28L220.17,262.28Z"/>
	<path class="st0" d="M228.36,261.84C229.32,261.84 229.88,260.85 229.88,259.98L229.88,259.75L229.59,259.75C228.82,259.75 227.24,259.78 227.24,260.89C227.24,261.35 227.62,261.84 228.36,261.84M229.58,259.22L229.88,259.22L229.88,259.08C229.88,258.12 229.36,257.8 228.66,257.8C228.15,257.8 227.65,257.98 227.24,258.27L226.94,257.76C227.33,257.42 228.03,257.2 228.7,257.2C229.89,257.2 230.55,257.86 230.55,259.1L230.55,262.28L229.91,262.28L229.91,261.7C229.91,261.45 229.94,261.28 229.94,261.28L229.92,261.28C229.66,261.89 229.04,262.4 228.24,262.4C227.4,262.4 226.56,261.91 226.56,260.95C226.56,259.32 228.64,259.22 229.58,259.22"/>
	<path class="st0" d="M233.09,257.31L233.76,257.31L233.76,259.44L236.66,259.44L236.66,257.31L237.34,257.31L237.34,262.28L236.66,262.28L236.66,260.03L233.76,260.03L233.76,262.28L233.09,262.28Z"/>
	<path class="st0" d="M241.16,257.91L239.35,257.91L239.35,257.31L243.65,257.31L243.65,257.91L241.83,257.91L241.83,262.28L241.16,262.28Z"/>
	<path class="st0" d="M247.74,261.79C248.8,261.79 249.67,260.94 249.67,259.77C249.67,258.65 248.8,257.8 247.74,257.8C246.67,257.8 245.81,258.65 245.81,259.77C245.81,260.94 246.67,261.79 247.74,261.79M247.74,257.2C249.19,257.2 250.36,258.3 250.36,259.77C250.36,261.27 249.19,262.4 247.74,262.4C246.29,262.4 245.12,261.27 245.12,259.77C245.12,258.3 246.29,257.2 247.74,257.2"/>
	<path class="st0" d="M254.41,261.76C255.23,261.76 255.61,261.41 255.61,260.88C255.61,260.3 255.17,259.98 254.4,259.98L253.28,259.98L253.28,261.76ZM254.33,259.47C255,259.47 255.35,259.15 255.35,258.62C255.35,258.08 255,257.83 254.3,257.83L253.28,257.83L253.28,259.47ZM252.61,257.32L254.4,257.32C255.41,257.32 256.04,257.76 256.04,258.58C256.04,259.09 255.77,259.5 255.29,259.67L255.29,259.69C255.93,259.82 256.3,260.31 256.3,260.89C256.3,261.75 255.62,262.28 254.5,262.28L252.61,262.28Z"/>
	<path class="st0" d="M21.79,275.37C22.86,275.37 23.73,274.52 23.73,273.35C23.73,272.23 22.86,271.38 21.79,271.38C20.73,271.38 19.87,272.23 19.87,273.35C19.87,274.52 20.73,275.37 21.79,275.37M21.79,270.78C23.25,270.78 24.42,271.88 24.42,273.35C24.42,274.85 23.25,275.98 21.79,275.98C20.34,275.98 19.18,274.85 19.18,273.35C19.18,271.88 20.34,270.78 21.79,270.78"/>
	<path class="st0" d="M28.77,275.39C29.65,275.39 30.36,274.74 30.36,273.66C30.36,272.56 29.65,271.92 28.81,271.92C27.84,271.92 27.18,272.67 27.18,273.64C27.18,274.74 27.9,275.39 28.77,275.39M28.49,269.53L30.33,268.67L30.57,269.24L28.66,270.11C27.53,270.65 27.14,271.36 27.07,272.41L27.09,272.41C27.53,271.61 28.2,271.36 28.94,271.36C30.16,271.36 31.05,272.21 31.05,273.65C31.05,275.02 30.12,275.98 28.79,275.98C27.16,275.98 26.45,274.72 26.45,273.05C26.45,271.37 26.84,270.28 28.49,269.53"/>
	<path class="st0" d="M35.62,275.37C36.69,275.37 37.56,274.52 37.56,273.35C37.56,272.23 36.69,271.38 35.62,271.38C34.56,271.38 33.7,272.23 33.7,273.35C33.7,274.52 34.56,275.37 35.62,275.37M35.62,270.78C37.07,270.78 38.25,271.88 38.25,273.35C38.25,274.85 37.07,275.98 35.62,275.98C34.17,275.98 33.01,274.85 33.01,273.35C33.01,271.88 34.17,270.78 35.62,270.78"/>
	<path class="st0" d="M42.72,275.38C43.6,275.38 44.33,274.65 44.33,273.38C44.33,272.17 43.68,271.39 42.75,271.39C41.92,271.39 41.14,271.98 41.14,273.39C41.14,274.39 41.7,275.38 42.72,275.38M40.49,270.9L41.13,270.9L41.13,271.42C41.13,271.64 41.1,271.8 41.1,271.8L41.12,271.8C41.43,271.16 42.08,270.78 42.85,270.78C44.19,270.78 45.01,271.84 45.01,273.37C45.01,274.95 44.09,275.98 42.79,275.98C42.09,275.98 41.48,275.61 41.15,274.99L41.13,274.99C41.13,274.99 41.16,275.17 41.16,275.43L41.16,277.84L40.49,277.84Z"/>
	<path class="st0" d="M47.38,277.33C47.82,277.33 48.14,276.98 48.33,276.52L48.63,275.81L46.57,270.89L47.31,270.89L48.76,274.52C48.86,274.77 48.95,275.04 48.95,275.04L48.96,275.04C48.96,275.04 49.03,274.77 49.13,274.52L50.56,270.89L51.28,270.89L48.84,276.9C48.58,277.53 48.08,277.93 47.41,277.93C46.9,277.93 46.54,277.64 46.54,277.64L46.79,277.1C46.79,277.1 47.07,277.33 47.38,277.33"/>
	<path class="st0" d="M56.16,275.29L56.16,271.47L54.43,271.47L54.43,271.76C54.43,272.5 54.36,274.17 53.62,275.29ZM52.9,275.29C53.74,274.19 53.77,272.38 53.77,271.7L53.77,270.89L56.84,270.89L56.84,275.29L57.54,275.29L57.54,277.05L56.89,277.05L56.89,275.86L52.93,275.86L52.93,277.05L52.28,277.05L52.28,275.29Z"/>
	<path class="st0" d="M61.83,275.37C62.9,275.37 63.77,274.52 63.77,273.35C63.77,272.23 62.9,271.38 61.83,271.38C60.77,271.38 59.91,272.23 59.91,273.35C59.91,274.52 60.77,275.37 61.83,275.37M61.83,270.78C63.29,270.78 64.46,271.88 64.46,273.35C64.46,274.85 63.29,275.98 61.83,275.98C60.38,275.98 59.22,274.85 59.22,273.35C59.22,271.88 60.38,270.78 61.83,270.78"/>
	<path class="st0" d="M68.51,275.34C69.33,275.34 69.71,274.99 69.71,274.46C69.71,273.88 69.27,273.56 68.5,273.56L67.38,273.56L67.38,275.34ZM68.43,273.05C69.1,273.05 69.45,272.73 69.45,272.2C69.45,271.67 69.09,271.41 68.39,271.41L67.38,271.41L67.38,273.05ZM66.71,270.9L68.5,270.9C69.51,270.9 70.14,271.34 70.14,272.16C70.14,272.67 69.87,273.08 69.39,273.25L69.39,273.27C70.03,273.4 70.4,273.89 70.4,274.47C70.4,275.33 69.72,275.86 68.6,275.86L66.71,275.86Z"/>
	<path class="st0" d="M74.02,275.42C74.98,275.42 75.54,274.43 75.54,273.56L75.54,273.33L75.26,273.33C74.49,273.33 72.91,273.36 72.91,274.47C72.91,274.93 73.28,275.42 74.02,275.42M75.25,272.8L75.54,272.8L75.54,272.66C75.54,271.7 75.02,271.38 74.32,271.38C73.82,271.38 73.31,271.56 72.91,271.85L72.6,271.34C73,271 73.7,270.78 74.36,270.78C75.55,270.78 76.21,271.44 76.21,272.68L76.21,275.86L75.57,275.86L75.57,275.28C75.57,275.03 75.6,274.86 75.6,274.86L75.58,274.86C75.33,275.47 74.7,275.98 73.9,275.98C73.06,275.98 72.23,275.49 72.23,274.53C72.23,272.9 74.3,272.8 75.25,272.8"/>
	<path class="st0" d="M78.75,270.89L79.43,270.89L79.43,273.02L82.33,273.02L82.33,270.89L83,270.89L83,275.86L82.33,275.86L82.33,273.61L79.43,273.61L79.43,275.86L78.75,275.86Z"/>
	<path class="st0" d="M85.59,270.89L86.24,270.89L86.24,274.15C86.24,274.46 86.22,274.87 86.21,274.89L86.23,274.89C86.25,274.85 86.55,274.43 86.74,274.15L89.18,270.89L89.82,270.89L89.82,275.86L89.16,275.86L89.16,272.59C89.16,272.31 89.19,271.91 89.19,271.87L89.17,271.87C89.16,271.92 88.86,272.32 88.67,272.59L86.23,275.86L85.59,275.86Z"/>
	<path class="st0" d="M95.02,273.43L95.02,271.41L94.07,271.41C93.33,271.41 92.88,271.69 92.88,272.41C92.88,273.08 93.38,273.43 94.02,273.43ZM93.1,274.15C93.2,273.99 93.33,273.86 93.33,273.86L93.33,273.84C92.75,273.72 92.19,273.21 92.19,272.41C92.19,271.41 92.92,270.89 93.94,270.89L95.69,270.89L95.69,275.86L95.02,275.86L95.02,273.95L93.99,273.95L92.69,275.86L91.91,275.86Z"/>
	<path class="st0" d="M104.93,275.29L104.93,271.47L103.2,271.47L103.2,271.76C103.2,272.5 103.13,274.17 102.39,275.29ZM101.67,275.29C102.51,274.19 102.54,272.38 102.54,271.7L102.54,270.89L105.61,270.89L105.61,275.29L106.31,275.29L106.31,277.05L105.66,277.05L105.66,275.86L101.7,275.86L101.7,277.05L101.05,277.05L101.05,275.29Z"/>
	<path class="st0" d="M107.78,275.3C108.61,275.17 108.97,274.23 108.97,272.4L108.97,270.9L112.01,270.9L112.01,275.86L111.34,275.86L111.34,271.48L109.62,271.48L109.62,272.4C109.62,274.75 109.05,275.8 107.78,275.9Z"/>
	<path class="st0" d="M117.21,273.43L117.21,271.41L116.26,271.41C115.52,271.41 115.07,271.69 115.07,272.41C115.07,273.08 115.57,273.43 116.21,273.43ZM115.3,274.15C115.4,273.99 115.52,273.86 115.52,273.86L115.52,273.84C114.94,273.72 114.38,273.21 114.38,272.41C114.38,271.41 115.11,270.89 116.14,270.89L117.88,270.89L117.88,275.86L117.21,275.86L117.21,273.95L116.18,273.95L114.88,275.86L114.1,275.86Z"/>
	<path class="st0" d="M123.94,270.89L128.09,270.89L128.09,275.86L127.42,275.86L127.42,271.49L124.61,271.49L124.61,275.86L123.94,275.86Z"/>
	<path class="st0" d="M134.2,272.87C134.16,271.83 133.53,271.33 132.79,271.33C131.96,271.33 131.24,271.87 131.08,272.87ZM132.8,270.78C134.18,270.78 134.88,271.83 134.88,273.07C134.88,273.18 134.87,273.29 134.86,273.4L131.05,273.4C131.08,274.67 131.95,275.37 132.97,275.37C133.52,275.37 134.08,275.14 134.48,274.77L134.79,275.29C134.33,275.71 133.6,275.98 132.95,275.98C131.47,275.98 130.35,274.91 130.35,273.38C130.35,271.75 131.46,270.78 132.8,270.78"/>
	<path class="st0" d="M139.36,275.38C140.24,275.38 140.97,274.65 140.97,273.38C140.97,272.17 140.32,271.39 139.39,271.39C138.56,271.39 137.78,271.98 137.78,273.39C137.78,274.39 138.35,275.38 139.36,275.38M137.13,270.9L137.77,270.9L137.77,271.42C137.77,271.64 137.75,271.8 137.75,271.8L137.76,271.8C138.07,271.16 138.72,270.78 139.49,270.78C140.84,270.78 141.65,271.84 141.65,273.37C141.65,274.95 140.73,275.98 139.43,275.98C138.73,275.98 138.12,275.61 137.79,274.99L137.77,274.99C137.77,274.99 137.8,275.17 137.8,275.43L137.8,277.84L137.13,277.84Z"/>
	<path class="st0" d="M147.45,272.87C147.41,271.83 146.78,271.33 146.04,271.33C145.21,271.33 144.49,271.87 144.33,272.87ZM146.06,270.78C147.43,270.78 148.13,271.83 148.13,273.07C148.13,273.18 148.12,273.29 148.11,273.4L144.3,273.4C144.33,274.67 145.2,275.37 146.23,275.37C146.77,275.37 147.33,275.14 147.74,274.77L148.04,275.29C147.58,275.71 146.86,275.98 146.21,275.98C144.73,275.98 143.6,274.91 143.6,273.38C143.6,271.75 144.72,270.78 146.06,270.78"/>
	<path class="st0" d="M152.62,275.38C153.5,275.38 154.23,274.65 154.23,273.38C154.23,272.17 153.58,271.39 152.65,271.39C151.82,271.39 151.04,271.98 151.04,273.39C151.04,274.39 151.6,275.38 152.62,275.38M150.39,270.9L151.03,270.9L151.03,271.42C151.03,271.64 151,271.8 151,271.8L151.02,271.8C151.32,271.16 151.98,270.78 152.75,270.78C154.09,270.78 154.91,271.84 154.91,273.37C154.91,274.95 153.98,275.98 152.69,275.98C151.99,275.98 151.37,275.61 151.05,274.99L151.03,274.99C151.03,274.99 151.06,275.17 151.06,275.43L151.06,277.84L150.39,277.84Z"/>
	<path class="st0" d="M158.55,275.42C159.51,275.42 160.08,274.43 160.08,273.56L160.08,273.33L159.79,273.33C159.02,273.33 157.44,273.36 157.44,274.47C157.44,274.93 157.81,275.42 158.55,275.42M159.78,272.8L160.08,272.8L160.08,272.66C160.08,271.7 159.55,271.38 158.85,271.38C158.35,271.38 157.84,271.56 157.44,271.85L157.13,271.34C157.53,271 158.23,270.78 158.89,270.78C160.08,270.78 160.75,271.44 160.75,272.68L160.75,275.86L160.1,275.86L160.1,275.28C160.1,275.03 160.13,274.86 160.13,274.86L160.11,274.86C159.86,275.47 159.24,275.98 158.44,275.98C157.6,275.98 156.76,275.49 156.76,274.53C156.76,272.9 158.83,272.8 159.78,272.8"/>
	<path class="st0" d="M165.39,275.39C166.27,275.39 166.98,274.74 166.98,273.66C166.98,272.56 166.27,271.92 165.43,271.92C164.46,271.92 163.8,272.67 163.8,273.64C163.8,274.74 164.52,275.39 165.39,275.39M165.11,269.53L166.95,268.67L167.2,269.24L165.28,270.11C164.15,270.65 163.76,271.36 163.69,272.41L163.71,272.41C164.15,271.61 164.83,271.36 165.57,271.36C166.78,271.36 167.67,272.21 167.67,273.65C167.67,275.02 166.74,275.98 165.41,275.98C163.78,275.98 163.07,274.72 163.07,273.05C163.07,271.37 163.46,270.28 165.11,269.53"/>
	<path class="st0" d="M172.24,275.37C173.31,275.37 174.18,274.52 174.18,273.35C174.18,272.23 173.31,271.38 172.24,271.38C171.18,271.38 170.32,272.23 170.32,273.35C170.32,274.52 171.18,275.37 172.24,275.37M172.24,270.78C173.69,270.78 174.87,271.88 174.87,273.35C174.87,274.85 173.69,275.98 172.24,275.98C170.79,275.98 169.63,274.85 169.63,273.35C169.63,271.88 170.79,270.78 172.24,270.78"/>
	<path class="st0" d="M178.14,271.49L176.33,271.49L176.33,270.89L180.63,270.89L180.63,271.49L178.81,271.49L178.81,275.86L178.14,275.86Z"/>
	<path class="st0" d="M182.64,270.89L183.31,270.89L183.31,273L184.1,273L185.59,270.89L186.38,270.89L184.66,273.25L184.66,273.27L186.58,275.86L185.76,275.86L184.11,273.59L183.31,273.59L183.31,275.86L182.64,275.86Z"/>
	<path class="st0" d="M188.52,270.89L189.17,270.89L189.17,274.15C189.17,274.46 189.15,274.87 189.14,274.89L189.16,274.89C189.18,274.85 189.48,274.43 189.67,274.15L192.11,270.89L192.75,270.89L192.75,275.86L192.09,275.86L192.09,272.59C192.09,272.31 192.12,271.91 192.12,271.87L192.1,271.87C192.09,271.92 191.79,272.32 191.6,272.59L189.16,275.86L188.52,275.86Z"/>
	<path class="st0" d="M201.03,275.38C201.91,275.38 202.64,274.65 202.64,273.38C202.64,272.17 201.99,271.39 201.06,271.39C200.23,271.39 199.45,271.98 199.45,273.39C199.45,274.39 200.01,275.38 201.03,275.38M198.8,270.9L199.44,270.9L199.44,271.42C199.44,271.64 199.41,271.8 199.41,271.8L199.43,271.8C199.74,271.16 200.39,270.78 201.16,270.78C202.5,270.78 203.32,271.84 203.32,273.37C203.32,274.95 202.39,275.98 201.1,275.98C200.4,275.98 199.79,275.61 199.46,274.99L199.44,274.99C199.44,274.99 199.47,275.17 199.47,275.43L199.47,277.84L198.8,277.84Z"/>
	<path class="st0" d="M209.92 270.89L210.59 270.89L210.59 275.86L209.92 275.86ZM207.26,275.33C208.06,275.33 208.39,274.92 208.39,274.33C208.39,273.73 208.05,273.32 207.27,273.32L206.28,273.32L206.28,275.33ZM205.61,270.89L206.28,270.89L206.28,272.79L207.34,272.79C208.23,272.79 209.08,273.17 209.08,274.34C209.08,275.24 208.52,275.86 207.32,275.86L205.61,275.86Z"/>
	<path class="st0" d="M215.28,275.39C216.16,275.39 216.87,274.74 216.87,273.66C216.87,272.56 216.16,271.92 215.32,271.92C214.36,271.92 213.69,272.67 213.69,273.64C213.69,274.74 214.42,275.39 215.28,275.39M215.01,269.53L216.84,268.67L217.09,269.24L215.18,270.11C214.05,270.65 213.65,271.36 213.59,272.41L213.61,272.41C214.05,271.61 214.72,271.36 215.46,271.36C216.68,271.36 217.56,272.21 217.56,273.65C217.56,275.02 216.64,275.98 215.3,275.98C213.67,275.98 212.96,274.72 212.96,273.05C212.96,271.37 213.36,270.28 215.01,269.53"/>
	<path class="st0" d="M224.17 270.89L224.84 270.89L224.84 275.86L224.17 275.86ZM221.52,275.33C222.31,275.33 222.64,274.92 222.64,274.33C222.64,273.73 222.3,273.32 221.52,273.32L220.53,273.32L220.53,275.33ZM219.86,270.89L220.53,270.89L220.53,272.79L221.59,272.79C222.48,272.79 223.33,273.17 223.33,274.34C223.33,275.24 222.77,275.86 221.57,275.86L219.86,275.86Z"/>
	<path class="st0" d="M227.36 275.04L228.17 275.04L228.17 275.86L227.36 275.86Z"/>
	<path class="st1" d="M95.11,86.82L120.07,72.42M95.11,119.25L95.11,86.82M95.11,119.25L96.36,118.53M96.36,95.52L96.36,118.53M96.36,95.52L104.47,95.83M104.47,95.83L110.71,92.23M110.71,92.23L118.83,82.55M118.83,82.55L118.83,105.56M118.83,105.56L120.07,104.84M120.07,104.84L120.07,72.42M104.48,95.78L104.48,88.6M104.48,88.6L110.7,85.01M110.7,85.01L110.7,92.19M110.7,92.19L104.48,95.78M95.11,86.78L120,72.42M63.99,68.81L95.11,86.78M88.87,54.45L63.99,68.81M120,72.42L88.87,54.45M88.87,54.4L63.91,68.81M63.91,68.81L95.11,86.82M120.07,72.42L88.87,54.4M63.91,101.24L63.91,68.81M63.91,101.24L65.16,101.96M65.16,78.18L65.16,101.96M65.16,78.18L93.86,94.75M93.86,94.75L93.86,118.53M93.86,118.53L95.11,119.25M101.21,83.26L88.91,63.09M88.91,63.09L88.87,63.06M88.87,63.06L71.45,73.12M110.67,92.17L110.7,92.19M104.48,88.6L110.67,92.17M110.67,85.03L110.67,92.17M88.91,63.09L112.53,76.73M88.87,63.06L88.87,54.45M117.58,104.84L118.83,105.56M117.58,84.04L117.58,104.84M65.16,101.96L66.41,101.24M66.41,78.9L66.41,101.24"/>
	<path class="st2" d="M133.45,86.57C133.45,109.64 114.74,128.35 91.67,128.35C68.6,128.35 49.89,109.64 49.89,86.57C49.89,63.5 68.6,44.79 91.67,44.79C114.74,44.79 133.45,63.5 133.45,86.57Z"/>
	<path class="st1" d="M124.64,164.13L124.64,162.33M124.64,162.33L133.93,167.69M133.93,167.69L133.93,203.72M132.38,202.82L133.93,203.72M132.38,195.61L132.38,202.82M110.54,183.01L132.38,195.61M110.54,190.21L110.54,183.01M108.98,189.31L110.54,190.21M108.98,153.28L108.98,189.31M108.98,153.28L118.28,158.65M118.28,158.65L118.28,160.45M118.28,160.45L124.64,164.13M110.54,181.21L110.54,157.79M132.38,193.81L110.54,181.21M132.38,170.39L132.38,193.81M110.54,157.79L132.38,170.39M133.93,167.69L158.89,153.28M158.89,153.28L158.89,189.31M157.33,190.21L158.89,189.31M157.33,190.21L157.33,183.01M157.33,183.01L135.5,195.61M135.5,195.61L135.5,202.82M133.93,203.72L135.5,202.82M157.33,181.21L157.33,157.79M157.33,157.79L135.5,170.39M135.5,170.39L135.5,193.81M135.5,193.81L157.33,181.21M133.93,138.87L108.98,153.28M158.89,153.28L133.93,138.87M124.73,162.27L124.64,162.33M124.73,162.27L133.93,167.58M133.93,167.58L158.71,153.28M158.71,153.28L133.93,138.98M133.93,138.98L109.16,153.28M109.16,153.28L118.37,158.6M118.37,158.6L118.28,158.65M118.37,160.4L118.28,160.45M133.93,140.78L110.72,154.19M157.15,154.19L133.93,140.78M118.37,160.4L118.37,158.6M112.1,180.3L132.38,192.01M110.54,181.21L112.1,180.3M135.5,192.01L155.78,180.3M155.78,180.3L157.33,181.21M133.93,140.78L133.93,138.98M155.78,158.69L155.78,180.3M112.1,158.69L112.1,180.3M155.78,189.31L157.33,190.21M155.78,183.91L155.78,189.31M112.1,183.91L112.1,189.31M110.54,190.21L112.1,189.31M155.78,180.3L137.05,169.5M155.78,178.5L138.61,168.6M135.5,170.4L154.21,181.21M130.82,169.5L112.1,180.3M112.1,178.5L129.26,168.6M113.66,181.21L132.38,170.4"/>
	<path class="st2" d="M173.84,170.14C173.84,193.22 155.14,211.92 132.06,211.92C108.99,211.92 90.29,193.22 90.29,170.14C90.29,147.07 108.99,128.36 132.06,128.36C155.14,128.36 173.84,147.07 173.84,170.14Z"/>
	<path class="st1" d="M234.43,112.02L241.39,108M187.16,55.61L183.04,57.99M197.46,57.11L198.12,56.72M194.9,51.14L191.01,53.39M208.54,91.12L190.63,63.42M233.52,105.54L208.54,91.12M233.52,113.43L233.52,105.54M220.88,106.13L233.52,113.43M220.88,106.13L220.88,99.56M220.88,99.56L219.97,99.03M206.05,97.57L219.06,105.08M194.46,79.65L206.05,97.57M194.46,79.65L194.46,70.62M194.46,70.62L193.55,70.1M188.14,69.87L192.64,76.83M178.52,64.32L188.14,69.87M178.52,56.43L178.52,64.32M190.63,63.42L178.52,56.43M188.4,55.6L188.36,55.58L188.22,55.53L188.09,55.5L187.96,55.48L187.83,55.47L187.71,55.46L187.59,55.47L187.47,55.49L187.36,55.52L187.26,55.56L187.16,55.61M186.49,51.83L186.49,56M198.6,58.82L186.49,51.83M216.51,86.52L198.6,58.82M241.49,100.94L216.51,86.52M241.49,104.46L241.49,100.94M241.49,104.46L241.4,104.29L241.3,104.12L241.2,103.97L241.09,103.81L240.98,103.66L240.86,103.51L240.74,103.37L240.61,103.24L240.49,103.11L240.36,103L240.22,102.89L240.09,102.78L239.95,102.69L239.82,102.6M239.82,102.6L239.78,101.27M238.64,101.92L231.87,98.01M231.87,98.01L231.83,96.67M230.69,97.33L223.91,93.42M223.91,93.42L223.87,92.08M222.73,92.74L215.96,88.83M215.96,88.83L215.92,87.49M215.19,87.91L209.8,79.57M209.8,79.57L210.5,78.94M209.69,79.41L203.7,70.15M203.7,70.15L204.41,69.52M203.6,69.98L197.77,60.97M197.77,60.97L197.56,60.85M197.56,60.85L197.52,59.51M196.38,60.17L189.61,56.26M189.61,56.26L189.57,54.92M233.52,105.54L234.43,105.01M208.54,91.12L209.45,90.59M234.43,105.01L209.45,90.59M233.52,113.43L234.43,112.9M234.43,112.01L234.43,108.53M234.43,112.9L234.43,112.01M234.43,108.53L234.43,105.01M241.49,107.94L241.58,107.87L241.66,107.78L241.73,107.69L241.8,107.6L241.86,107.49L241.91,107.37L241.96,107.25L241.99,107.12L242.02,106.98L242.04,106.83L242.06,106.68L242.06,106.53L242.06,106.37L242.04,106.2L242.02,106.03L241.99,105.86L241.96,105.69L241.91,105.51L241.86,105.33L241.8,105.16L241.73,104.98L241.66,104.8L241.58,104.63L241.49,104.46M241.39,108L241.4,108L241.49,107.94M234.43,112.01L234.52,111.94L234.6,111.86L234.67,111.77L234.74,111.67L234.8,111.56L234.85,111.45L234.9,111.32L234.93,111.19L234.96,111.05L234.98,110.91L235,110.76L235,110.6L235,110.44L234.98,110.28L234.96,110.11L234.93,109.94L234.9,109.76L234.85,109.59L234.8,109.41L234.74,109.23L234.67,109.06L234.6,108.88L234.52,108.71L234.43,108.53M239.82,102.6L234.43,105.72M239.78,101.27L233.86,104.68M231.87,98.01L227.09,100.77M242.4,100.41L241.49,100.94M241.49,108.83L241.49,107.94M242.4,108.3L241.49,108.83M242.4,108.3L242.4,100.41M217.42,85.99L216.51,86.52M242.4,100.41L217.42,85.99M190.63,63.42L191.54,62.89M209.45,90.59L191.54,62.89M231.92,112.77L231.93,112.51M231.91,112.5L231.92,112.77M232.15,112.64L231.92,112.77M231.83,96.67L225.91,100.09M220.88,116.91L220.88,106.13M219.97,117.44L220.88,116.91M219.97,117.44L219.97,101.14M220.88,99.56L219.97,101.14M219.97,101.14L219.06,100.61M219.06,100.61L219.97,99.03M223.91,93.42L219.13,96.18M219.06,116.91L219.97,117.44M219.06,100.61L219.06,116.91M240.72,108.39L241.49,108.83M199.51,58.29L198.6,58.82M217.42,85.99L199.51,58.29M224.19,108.04L223.97,108.18M223.97,108.18L223.98,107.92M223.96,107.91L223.97,108.18M223.87,92.08L217.95,95.5M215.96,88.83L211.17,91.59M230.22,111.52L229.76,111.79M229.76,111.79L229.76,111.26M209.8,79.57L204.36,82.71M203.7,70.15L198.26,73.29M192.32,64.11L197.77,60.97M216.24,103.45L216.01,103.58M216.01,103.58L216.02,103.33M216,103.32L216.01,103.58M194.46,101.66L194.46,79.65M193.55,102.19L194.46,101.66M193.55,102.19L193.55,72.2M194.46,70.62L193.55,72.2M193.55,72.2L192.64,71.68M192.64,71.68L193.55,70.1M215.92,87.49L210,90.91M178.52,56.43L179.43,55.91M191.54,62.89L179.43,55.91M210.5,78.94L204.25,82.55M192.64,101.66L193.55,102.19M192.64,71.68L192.64,101.66M228.85,111.26L229.76,111.79M228.85,110.73L228.85,111.26M204.41,69.52L198.16,73.13M197.52,59.51L191.57,62.95M197.56,60.85L192.21,63.94M189.61,56.26L184.83,59.02M187.4,51.3L186.49,51.83M199.51,58.29L187.4,51.3M204.25,96.01L203.34,96.54M203.34,96.54L203.34,93.38M204.25,96.01L204.25,94.79M189.57,54.92L183.65,58.34M202.43,96.01L203.34,96.54M202.43,91.97L202.43,96.01M181.71,66.42L181.72,66.17M181.7,66.16L181.71,66.42M181.94,66.29L181.71,66.42M198.79,55.25L198.78,55.09L198.77,54.93L198.75,54.76L198.72,54.59L198.69,54.42L198.65,54.25L198.6,54.08L198.54,53.9L198.47,53.73L198.4,53.55L198.32,53.38L198.24,53.21L198.14,53.04L198.05,52.88L197.95,52.72L197.84,52.56L197.73,52.41L197.61,52.27L197.49,52.12L197.37,51.99L197.24,51.86L197.11,51.74L196.98,51.63L196.85,51.53L196.71,51.43L196.58,51.34L196.44,51.27L196.31,51.2L196.18,51.14L196.04,51.09L195.91,51.05L195.78,51.02L195.66,51L195.53,50.99L195.41,51L195.3,51.01L195.18,51.03L195.08,51.06L194.97,51.11L194.9,51.14M198.12,56.72L198.14,56.71L198.24,56.65L198.32,56.58L198.4,56.49L198.47,56.4L198.54,56.3L198.6,56.2L198.65,56.08L198.69,55.96L198.72,55.83L198.75,55.69L198.77,55.55L198.78,55.4L198.79,55.25"/>
	<path class="st2" d="M248.7,86.57C248.7,109.64 230,128.35 206.92,128.35C183.85,128.35 165.14,109.64 165.14,86.57C165.14,63.49 183.85,44.79 206.92,44.79C230,44.79 248.7,63.49 248.7,86.57Z"/>
	<path class="st3" d="M165.46,86.57L157.11,84.3L157.11,85.85L133.82,85.85L133.82,87.29L157.11,87.29L157.11,88.83Z"/>
	<path class="st3" d="M162.62,141.75L170.12,137.45L169.02,136.36L182.59,120.21L181.58,119.19L168.01,135.34L166.91,134.25Z"/>
	<path class="st3" d="M258.25,301.17L2.29,301.17L32.81,154.8L4.47,1.86L264.81,1.86L290.98,154.49ZM273.63,0.77L273.5,0L2.23,0L30.91,154.78L0,303.04L266.85,303.04L300,154.54Z"/>
	<path class="st3" d="M33,16.67C33,22.47 28.29,27.17 22.5,27.17C16.7,27.17 12,22.47 12,16.67C12,10.87 16.7,6.17 22.5,6.17C28.29,6.17 33,10.87 33,16.67"/>
</svg>