<?xml version="1.0" encoding="utf-8"?>
<!-- Generator: Adobe Illustrator 25.0.0, SVG Export Plug-In . SVG Version: 6.00 Build 0)  -->
<svg version="1.1" id="Layer_1" xmlns="http://www.w3.org/2000/svg" xmlns:xlink="http://www.w3.org/1999/xlink" x="0px" y="0px"
	 viewBox="0 0 283.46 283.46" style="enable-background:new 0 0 283.46 283.46;" xml:space="preserve">
<style type="text/css">
	.st0{fill-rule:evenodd;clip-rule:evenodd;fill:#FFFFFF;}
	.st1{fill:#020203;}
	.st2{fill:#1E1E1C;}
	.st3{fill-rule:evenodd;clip-rule:evenodd;fill:#020203;}
</style>
<g>
	<circle class="st0" cx="141.8" cy="141.73" r="64.08"/>
	<g>
		<g>
			<path class="st1" d="M141.78,206.73c-35.76,0-64.85-29.02-64.85-64.69s29.09-64.69,64.85-64.69s64.85,29.02,64.85,64.69
				S177.54,206.73,141.78,206.73L141.78,206.73z M141.78,78.65c-35.04,0-63.55,28.44-63.55,63.39c0,34.96,28.51,63.39,63.55,63.39
				s63.55-28.44,63.55-63.39C205.33,107.08,176.83,78.65,141.78,78.65L141.78,78.65z"/>
			<path class="st2" d="M141.73,206.5c-35.86,0-65.04-29.11-65.04-64.89s29.18-64.88,65.04-64.88s65.04,29.11,65.04,64.88
				S177.6,206.5,141.73,206.5L141.73,206.5z M141.73,78.63c-34.82,0-63.15,28.26-63.15,62.99s28.33,62.99,63.15,62.99
				s63.14-28.26,63.14-62.99S176.55,78.63,141.73,78.63L141.73,78.63z"/>
			<path class="st2" d="M109.04,102.27c-0.11,0-0.22-0.04-0.31-0.12l-1.76-1.54c-0.08-0.07-0.13-0.17-0.15-0.27l-2.79-2.36
				c-0.12-0.1-0.18-0.25-0.16-0.4c0.02-0.15,0.11-0.29,0.24-0.36l36.87-19.96c0.21-0.11,0.47-0.05,0.61,0.14
				c0.1-0.15,0.28-0.23,0.47-0.19c0.25,0.05,0.42,0.29,0.37,0.55l-0.58,3.06l5.8-3.11c0.22-0.12,0.51-0.04,0.63,0.19
				c0.12,0.23,0.04,0.51-0.19,0.63L141.62,82l-0.8,4.21l6.56-3.27c0.23-0.11,0.51-0.02,0.63,0.21c0.12,0.23,0.02,0.51-0.21,0.63
				l-7.2,3.59l-1.29,6.75c-0.05,0.25-0.28,0.42-0.55,0.37c-0.25-0.05-0.42-0.29-0.37-0.55l1.15-6.04l-27.22,13.55l-3.17,0.8
				C109.11,102.27,109.08,102.27,109.04,102.27L109.04,102.27z M107.85,100.14l1.31,1.15l2.84-0.71l27.76-13.83l0.79-4.16
				L107.85,100.14L107.85,100.14z M105.16,97.73l2.02,1.71l33.6-18.03l0.63-3.3L105.16,97.73L105.16,97.73z"/>
			<path class="st2" d="M143.35,91.57c-0.01,0-0.03,0-0.04,0l-3.61-0.35c-0.26-0.03-0.45-0.25-0.42-0.51
				c0.02-0.26,0.26-0.46,0.51-0.42l3.17,0.3l0.78-5.17l-2.68-2.48c-0.19-0.18-0.2-0.47-0.03-0.66c0.17-0.19,0.47-0.2,0.66-0.03
				l2.22,2.05l0.73-4.8c0.04-0.25,0.27-0.42,0.53-0.39c0.26,0.04,0.43,0.28,0.39,0.53l-0.82,5.43c0.17,0.18,0.18,0.46,0.01,0.64
				c-0.03,0.04-0.07,0.07-0.12,0.09l-0.81,5.36C143.78,91.4,143.58,91.57,143.35,91.57L143.35,91.57z M150.33,80.99
				c-0.15,0-0.29-0.07-0.38-0.2l-0.55-0.77c-0.11-0.15-0.12-0.35-0.02-0.51c0.09-0.16,0.27-0.25,0.46-0.22l0.88,0.11
				c0.15,0.02,0.28,0.11,0.35,0.24c0.07,0.13,0.07,0.3,0,0.43l-0.33,0.66c-0.07,0.15-0.22,0.24-0.38,0.26
				C150.36,80.99,150.35,80.99,150.33,80.99L150.33,80.99z"/>
			<g>
				<path class="st3" d="M157.44,80.34c0,0-1.2-0.27-2.45,0.6c-1.25,0.86-2.05,2.04-2.78,2.91c-0.73,0.86-0.8,1.8-0.91,1.93
					c-0.11,0.13,2-0.07,2.07,0.13c0.06,0.2,0.96-1.62,2.07-2.63c1.11-1,1.89-1.73,2.34-1.98C158.21,81.07,157.44,80.34,157.44,80.34
					L157.44,80.34z M148.16,87.22c0,0,1.28-2.18,3.91-5.12c1.46-1.63,2.57-2.51,3.28-2.98c3.85,0.83,7.57,2,11.13,3.49
					c0.74,2.74,1.09,10.95-0.98,8.96C161.59,87.8,148.39,87.22,148.16,87.22z"/>
				<path class="st2" d="M166.08,92.35c-0.3,0-0.6-0.14-0.91-0.44c-3.76-3.63-16.88-4.22-17.01-4.22c-0.18,0-0.35-0.11-0.42-0.28
					c-0.3-0.67,3.95-5.57,3.99-5.62c1.19-1.34,2.33-2.37,3.37-3.06c0.11-0.07,0.23-0.09,0.36-0.07c3.83,0.82,7.6,2.01,11.21,3.51
					c0.13,0.06,0.23,0.17,0.27,0.31c0.56,2.06,1.05,7.97-0.08,9.44C166.59,92.28,166.29,92.35,166.08,92.35L166.08,92.35z
					 M148.99,86.8c3.01,0.19,13.35,1.07,16.83,4.44l0.25,0.17c0.69-0.44,0.68-5.7,0.01-8.45c-2.64-1.09-5.37-2.01-8.15-2.73
					c0.27,0.28,0.48,0.62,0.43,0.96c-0.02,0.15-0.24,0.46-0.37,0.53c-0.33,0.18-0.96,0.75-1.76,1.48l-0.48,0.43
					c-0.63,0.57-1.19,1.43-1.57,2c-0.38,0.58-0.5,0.76-0.8,0.76l0,0c-0.1,0-0.19-0.03-0.28-0.09c-0.07-0.01-0.21-0.02-0.5-0.02
					l-0.94,0.01c-0.34,0-0.67,0-0.81-0.31c-0.08-0.17-0.05-0.37,0.07-0.51c0.11-0.49,0.32-1.23,0.91-1.93l0.46-0.56
					c0.64-0.8,1.37-1.71,2.41-2.43c0.63-0.44,1.25-0.62,1.75-0.69c-0.34-0.08-0.68-0.16-1.03-0.23c-0.68,0.47-1.72,1.32-3.03,2.79
					C150.7,84.34,149.56,85.95,148.99,86.8L148.99,86.8z M152.61,85.35c0.23,0,0.45,0,0.64,0.03c0.02-0.06,0.08-0.15,0.14-0.25
					c0.4-0.61,1-1.54,1.73-2.18l0.48-0.43c0.87-0.78,1.46-1.31,1.88-1.57c-0.05,0.03-0.18-0.08-0.27-0.17c-0.04,0-0.12,0-0.23,0
					c-0.42,0-1.06,0.1-1.71,0.55c-0.94,0.65-1.62,1.5-2.22,2.25l-0.48,0.58c-0.36,0.42-0.53,0.87-0.64,1.21L152.61,85.35
					L152.61,85.35z"/>
			</g>
			<path class="st2" d="M155.99,92.55c-0.94-0.21-3.27-0.74-5.26-1.84c-1.97-1.09-2.35-1.89-2.6-2.42
				c-0.18-0.34-0.39-0.67-0.23-1.01c0.18-0.37,0.58-0.42,1.23-0.49c0.86-0.09,2.42-0.02,2.42-0.03l-0.04,0.94
				c-0.01,0-1.47-0.07-2.24,0.02c-0.13,0.01-0.26,0.03-0.36,0.04c0.03,0.07,0.06,0.12,0.07,0.13c0.2,0.42,0.5,1.05,2.21,2
				c1.24,0.69,2.87,1.26,4.84,1.71l0.09,0.5L155.99,92.55L155.99,92.55z"/>
			<path class="st2" d="M96.61,107.29c-0.07,0-0.15-0.02-0.22-0.05c-0.23-0.12-0.32-0.4-0.2-0.63l1.52-2.92
				c0.06-0.12,0.18-0.21,0.31-0.24l10.49-2.32c0.24-0.06,0.5,0.1,0.56,0.36c0.06,0.25-0.1,0.5-0.36,0.56l-10.27,2.28l-1.42,2.72
				C96.95,107.19,96.78,107.29,96.61,107.29L96.61,107.29z"/>
			<g>
				<polygon class="st3" points="133.91,94.36 146.38,91.22 146.61,92.15 133.91,95.64 				"/>
				<path class="st2" d="M133.91,96.11c-0.1,0-0.2-0.03-0.28-0.09c-0.12-0.09-0.18-0.23-0.18-0.37v-1.28c0-0.21,0.15-0.4,0.35-0.45
					l12.47-3.15c0.12-0.03,0.25-0.01,0.36,0.05s0.18,0.17,0.22,0.29l0.23,0.93c0.06,0.25-0.09,0.5-0.33,0.57l-12.71,3.49
					C133.99,96.1,133.95,96.11,133.91,96.11L133.91,96.11z M134.37,94.73v0.3l11.67-3.21l-0.01-0.03L134.37,94.73L134.37,94.73z"/>
			</g>
			<path class="st2" d="M117.94,100.06c-0.21,0-0.4-0.14-0.46-0.36c-0.06-0.25,0.09-0.51,0.34-0.57l30.65-7.68
				c0.25-0.06,0.51,0.09,0.57,0.34c0.06,0.25-0.09,0.51-0.34,0.57l-30.65,7.68C118.02,100.06,117.98,100.06,117.94,100.06
				L117.94,100.06z"/>
			<path class="st2" d="M168.72,87.98c-0.22,0-0.42-0.16-0.46-0.39c-0.04-0.25,0.13-0.5,0.38-0.54l2.12-0.37l-0.29-1.52
				c-0.05-0.25,0.12-0.5,0.37-0.54c0.11-0.02,0.22,0,0.31,0.05c0.02,0.01,0.04,0.02,0.07,0.04l2.42,1.61
				c0.16,0.11,0.24,0.3,0.2,0.49c-0.04,0.19-0.19,0.33-0.38,0.36l-4.66,0.81C168.77,87.98,168.74,87.98,168.72,87.98L168.72,87.98z"
				/>
			<path class="st2" d="M107.69,106.82c-0.21,0-0.41-0.15-0.46-0.37c-0.06-0.25,0.1-0.5,0.36-0.56l71.9-15.83
				c0.26-0.05,0.5,0.1,0.56,0.36c0.06,0.25-0.1,0.5-0.36,0.56l-71.9,15.83C107.76,106.81,107.72,106.82,107.69,106.82L107.69,106.82
				z"/>
			<path class="st2" d="M134.62,106.8c-0.13,0-0.25-0.05-0.34-0.15c-0.11-0.12-0.15-0.29-0.11-0.45l0.32-1.09
				c-0.23-0.03-0.43-0.13-0.48-0.35c-0.06-0.25,0.09-0.51,0.34-0.57l0.45-0.11l0.14-0.49c0.07-0.25,0.33-0.4,0.58-0.32
				c0.23,0.07,0.37,0.3,0.33,0.54l22.37-5.62c0.15-0.03,0.31,0,0.42,0.1c0.12,0.1,0.17,0.25,0.15,0.41l-0.31,2.61
				c-0.02,0.2-0.17,0.36-0.36,0.4l-23.4,5.08C134.69,106.79,134.66,106.8,134.62,106.8L134.62,106.8z M135.55,104.85l-0.25,0.86
				l22.3-4.84l0.19-1.61L135.55,104.85L135.55,104.85z"/>
			<path class="st2" d="M121.85,134.78c-0.22,0-0.42-0.16-0.46-0.38c-0.04-0.23,0.09-0.46,0.31-0.53l13.55-4.61l24.58-12.28
				l17.22-10.62l-60.07,27.92c-0.12,0.06-0.25,0.06-0.38,0.01c-0.12-0.05-0.21-0.15-0.26-0.27l-0.46-1.24
				c-0.08-0.22,0.02-0.48,0.23-0.58l16.78-8.46l46.42-21.31l-23.29,6.34l-42.75,16.44c-0.24,0.09-0.51-0.03-0.61-0.27
				c-0.09-0.24,0.03-0.51,0.27-0.61l42.8-16.46l28.83-7.85c0.24-0.06,0.48,0.06,0.56,0.29c0.08,0.23-0.02,0.48-0.24,0.58
				l-51.58,23.68l-16.39,8.26l0.14,0.37l66.05-30.7c0.22-0.11,0.49-0.02,0.61,0.2c0.12,0.21,0.05,0.48-0.15,0.62l-0.13,0.09
				c-0.04,0.09-0.1,0.17-0.19,0.23l-2.15,1.33l-20,13.27l-24.98,13.1l-11.33,3.27l-2.88,0.17
				C121.86,134.78,121.86,134.78,121.85,134.78L121.85,134.78z M152.59,121.63l-16.99,8.48l-7.59,2.59l7.72-2.23L152.59,121.63
				L152.59,121.63z"/>
			<path class="st2" d="M176.5,121.87c-0.06,0-0.12-0.01-0.17-0.03c-0.24-0.1-0.36-0.37-0.26-0.61l7.39-18.45
				c0.1-0.24,0.37-0.35,0.61-0.26c0.24,0.1,0.36,0.37,0.26,0.61l-7.39,18.45C176.86,121.75,176.69,121.87,176.5,121.87L176.5,121.87
				z"/>
			<path class="st2" d="M125.54,135.4c-0.22,0-0.41-0.15-0.46-0.37c-0.05-0.25,0.11-0.5,0.36-0.56l30.54-6.56
				c0.26-0.04,0.5,0.11,0.56,0.36c0.05,0.25-0.11,0.5-0.36,0.56l-30.54,6.56C125.6,135.39,125.57,135.4,125.54,135.4L125.54,135.4z
				 M162.37,127.42c-0.22,0-0.41-0.15-0.46-0.37c-0.05-0.25,0.11-0.5,0.36-0.56l7.97-1.73l9.63-0.46c0.32-0.02,0.48,0.19,0.49,0.45
				c0.01,0.26-0.19,0.48-0.45,0.49l-9.55,0.45l-7.89,1.72C162.44,127.42,162.4,127.42,162.37,127.42L162.37,127.42z"/>
			<path class="st2" d="M178.81,127.09c-0.06,0-0.11-0.01-0.17-0.03c-0.24-0.09-0.36-0.36-0.27-0.61l2.17-5.67l-9.96,1.85
				c-0.26,0.04-0.5-0.12-0.55-0.37s0.12-0.5,0.37-0.55l10.78-2c0.16-0.04,0.33,0.03,0.45,0.16c0.11,0.13,0.14,0.31,0.08,0.47
				l-2.46,6.46C179.18,126.98,179,127.09,178.81,127.09L178.81,127.09z"/>
			<path class="st2" d="M170.5,127.86c-0.05,0-0.09-0.01-0.14-0.02c-0.25-0.08-0.39-0.34-0.31-0.59l2-6.46
				c0.07-0.25,0.33-0.39,0.59-0.31c0.25,0.08,0.39,0.34,0.31,0.59l-2,6.46C170.88,127.73,170.7,127.86,170.5,127.86L170.5,127.86z"
				/>
			<path class="st2" d="M170.04,118.79c-0.15,0-0.3-0.08-0.39-0.21c-0.14-0.22-0.08-0.51,0.14-0.65l6.47-4.15
				c0.21-0.14,0.51-0.08,0.65,0.14c0.14,0.22,0.08,0.51-0.14,0.65l-6.46,4.15C170.21,118.77,170.12,118.79,170.04,118.79
				L170.04,118.79z"/>
			<path class="st2" d="M173.73,120.64c-0.19,0-0.37-0.12-0.44-0.31l-1.7-4.61c-0.09-0.24,0.03-0.51,0.28-0.6
				c0.24-0.09,0.51,0.04,0.6,0.28l1.7,4.61c0.09,0.24-0.03,0.51-0.28,0.6C173.84,120.63,173.79,120.64,173.73,120.64L173.73,120.64z
				"/>
			<path class="st2" d="M172.5,121.56c-0.13,0-0.27-0.06-0.36-0.17l-3.08-3.69c-0.16-0.2-0.14-0.49,0.06-0.66s0.49-0.14,0.66,0.06
				l3.08,3.69c0.16,0.2,0.14,0.49-0.06,0.66C172.71,121.52,172.61,121.56,172.5,121.56L172.5,121.56z"/>
			<path class="st2" d="M132.75,124.8c-0.06,0-0.11-0.01-0.17-0.03c-0.13-0.05-0.23-0.15-0.27-0.28l-2.28-6.17
				c-0.08-0.23,0.02-0.48,0.24-0.59l1.31-0.61c0.12-0.06,0.26-0.06,0.38-0.01c0.12,0.05,0.22,0.15,0.26,0.27l2.22,6.12
				c0.08,0.22-0.01,0.46-0.22,0.57l-1.25,0.67C132.9,124.78,132.83,124.8,132.75,124.8L132.75,124.8z M131.06,118.41l1.94,5.26
				l0.42-0.22l-1.91-5.25L131.06,118.41L131.06,118.41z"/>
			<path class="st2" d="M157.35,113.3c-0.06,0-0.11-0.01-0.17-0.03c-0.12-0.05-0.23-0.15-0.27-0.27l-1.63-4.35
				c-0.09-0.24,0.03-0.5,0.26-0.6l0.97-0.4c0.24-0.09,0.51,0.01,0.61,0.25l1.73,4.18c0.09,0.22,0,0.48-0.21,0.59l-1.07,0.57
				C157.51,113.29,157.43,113.3,157.35,113.3L157.35,113.3z M156.32,108.75l1.29,3.43l0.22-0.12l-1.39-3.35L156.32,108.75
				L156.32,108.75z"/>
			<path class="st2" d="M134.93,130.21c-0.06,0-0.12-0.01-0.17-0.03c-0.13-0.05-0.24-0.16-0.28-0.3l-1.18-3.83
				c-0.07-0.22,0.03-0.46,0.24-0.56l0.98-0.48c0.12-0.06,0.26-0.06,0.39-0.01c0.12,0.05,0.22,0.15,0.26,0.28l1.25,3.69
				c0.07,0.21-0.02,0.44-0.21,0.55l-1.05,0.62C135.1,130.19,135.02,130.21,134.93,130.21L134.93,130.21z M134.32,126.15l0.88,2.88
				l0.21-0.12l-0.96-2.82L134.32,126.15L134.32,126.15z"/>
			<path class="st2" d="M159.24,118.19c-0.06,0-0.11-0.01-0.16-0.03c-0.13-0.05-0.24-0.15-0.28-0.29l-1.04-3.07
				c-0.07-0.21,0.02-0.45,0.21-0.56l1.24-0.69c0.12-0.07,0.26-0.08,0.39-0.03c0.13,0.05,0.23,0.15,0.28,0.27l1.14,2.97
				c0.08,0.21,0,0.46-0.2,0.57l-1.35,0.79C159.4,118.17,159.32,118.19,159.24,118.19L159.24,118.19z M158.77,114.87l0.73,2.15
				l0.5-0.3l-0.81-2.09L158.77,114.87L158.77,114.87z"/>
			<g>
				<polygon class="st3" points="129.4,144.83 162.33,124.58 162.77,125.67 154.65,147.19 153.06,147.41 162.22,124.79 
					162.22,124.46 				"/>
				<path class="st2" d="M153.06,147.87c-0.14,0-0.28-0.07-0.37-0.18c-0.1-0.13-0.13-0.31-0.06-0.46l8.7-21.48l-31.68,19.48
					c-0.22,0.13-0.51,0.06-0.64-0.15c-0.14-0.22-0.07-0.51,0.15-0.64l32.82-20.37c0.15-0.09,0.33-0.09,0.47-0.01
					c0.09,0.05,0.15,0.12,0.19,0.21c0.06,0.04,0.1,0.08,0.13,0.14l0.44,1.09c0.04,0.11,0.05,0.23,0,0.34l-8.12,21.52
					c-0.06,0.16-0.2,0.28-0.37,0.3l-1.59,0.22C153.1,147.87,153.08,147.87,153.06,147.87L153.06,147.87z M162.12,126.06l-8.32,20.78
					l0.52-0.07L162.12,126.06L162.12,126.06z"/>
			</g>
			<path class="st2" d="M149.78,143.44L149.78,143.44l-8.95-0.22c-0.2,0-0.38-0.14-0.44-0.33s0.01-0.4,0.18-0.52l12.44-8.87
				c0.17-0.12,0.4-0.12,0.56,0.01c0.16,0.13,0.22,0.35,0.15,0.54l-3.51,9.09C150.14,143.32,149.97,143.44,149.78,143.44
				L149.78,143.44z M142.25,142.32l7.21,0.18l2.82-7.33L142.25,142.32L142.25,142.32z"/>
			<path class="st2" d="M140.45,143.33c-0.2,0-0.38-0.12-0.44-0.31c-0.07-0.2,0-0.42,0.17-0.54l12.99-9.25
				c0.16-0.11,0.37-0.12,0.54,0c0.16,0.11,0.24,0.32,0.18,0.51l-0.39,1.42c-0.03,0.11-0.1,0.2-0.19,0.27l-11.56,7.77l-1.28,0.13
				C140.47,143.33,140.46,143.33,140.45,143.33L140.45,143.33z"/>
			<g>
				<polygon class="st3" points="129.76,145.93 181.35,149.32 180.97,153.87 128.78,149.16 129.11,147.63 181.08,152.61 
					181.3,149.43 				"/>
				<path class="st2" d="M180.97,154.33c-0.01,0-0.03,0-0.04,0l-52.19-4.71c-0.13-0.01-0.26-0.08-0.33-0.19
					c-0.08-0.11-0.11-0.25-0.08-0.38l0.33-1.53c0.05-0.23,0.26-0.41,0.5-0.37l51.49,4.94l0.15-2.23l-51.07-3.47
					c-0.26-0.02-0.45-0.24-0.44-0.5c0.02-0.26,0.26-0.43,0.5-0.44l0,0l51.59,3.39c0.13,0.01,0.24,0.07,0.33,0.16
					c0.08,0.09,0.12,0.22,0.11,0.34l-0.27,3.28c0,0.03-0.01,0.05-0.01,0.08l-0.1,1.19c-0.01,0.12-0.07,0.24-0.16,0.32
					C181.18,154.3,181.08,154.33,180.97,154.33L180.97,154.33z M129.35,148.74l51.19,4.62l0.03-0.33l-51.09-4.9L129.35,148.74
					L129.35,148.74z"/>
			</g>
			<path class="st2" d="M159.76,188.95c-0.03,0-0.06,0-0.09-0.01l-49.68-9.13c-0.25-0.05-0.42-0.29-0.38-0.55
				c0.05-0.25,0.25-0.43,0.55-0.38l49.29,9.05l12.83-35.21c0.09-0.24,0.36-0.36,0.6-0.28c0.24,0.09,0.37,0.36,0.28,0.6l-12.97,35.58
				C160.13,188.83,159.96,188.95,159.76,188.95L159.76,188.95z M174.56,148.99c-0.05,0-0.11-0.01-0.16-0.03
				c-0.24-0.09-0.37-0.36-0.28-0.6l17.28-46.76c0.09-0.24,0.36-0.37,0.6-0.28c0.24,0.09,0.37,0.36,0.28,0.6L175,148.68
				C174.93,148.87,174.75,148.99,174.56,148.99L174.56,148.99z"/>
			<path class="st2" d="M155.38,183.1c-0.02,0-0.05,0-0.07,0l-16.99-2.55c-0.15-0.02-0.27-0.11-0.34-0.24
				c-0.07-0.13-0.07-0.28-0.01-0.42l0.91-2.01c0.09-0.19,0.3-0.29,0.5-0.27l16.62,2.74c0.13,0.02,0.25,0.1,0.32,0.21
				s0.09,0.25,0.05,0.38l-0.55,1.82C155.77,182.97,155.58,183.1,155.38,183.1L155.38,183.1z M139.08,179.71l15.97,2.4l0.28-0.93
				l-15.74-2.59L139.08,179.71L139.08,179.71z"/>
			<path class="st3" d="M198.85,112.59l-27.03,85.38h0.22c1.11-0.6,2.2-1.23,3.27-1.88l24.56-81.41
				C199.54,113.97,199.21,113.28,198.85,112.59z"/>
			<path class="st3" d="M107.01,129.48c-0.1,0.58,0.7,0.45,0.7,0.45l0.34-0.57L107.01,129.48L107.01,129.48z M101.46,122.32
				c0,0-1.8,1.59-1.85,1.85c-0.06,0.27-0.06,0.37,0.31,0.74c0.37,0.37,0.8,0.21,0.96-0.27c0.16-0.48,0.58-1.16,0.58-1.16l0.37-0.58
				L101.46,122.32L101.46,122.32z M85.83,124.69c0,0,2.15-2.29,2.39-2.81c0.24-0.52,0.72-6.44,0.72-6.44l5.21-6.49l3.06-1l5.11-0.29
				l0.48-0.38l3.92,0.29l1.86,0.86c0,0,4.82,3.2,4.82,3.53c0,0.33,2.25,5.82,2.25,6.44c0,0.62-0.19,2.24-0.52,2.38
				c-0.34,0.14-4.54,2.29-4.54,2.58s-0.91,3.53-0.91,3.53s-1.29,0.14-1.67-0.19s-0.05-0.53,0.38-0.81c0.43-0.29,1.38-1.29,1.43-2.19
				c0.05-0.91,0.72-3.53,0.58-3.96s-1.68-3.92-2.01-3.96c-0.33-0.05-2.05,0.72-1.91,1.2c0.14,0.47,2.53,2.38,2.39,2.81
				s-4.39,3.24-4.64,3.82c-0.24,0.57,3.25,4.19,3.73,4.44c0.48,0.24,1.29,0.33,1.29,0.33l0.71-0.91c0,0,0.48-0.47,0.67-0.19
				c0.19,0.29-2.49,3.91-2.96,4.06c-0.48,0.14-1.09-0.79-1.33-0.5c-0.24,0.29-3.63,3.13-3.63,3.13s-0.94-0.15-0.97-0.4
				s3.66-3.69,4.12-3.96c0.46-0.28,0.91-0.87,0.99-1.25c0.07-0.38-3.85-4.13-3.85-4.13s-0.06-1.43-0.16-1.96s0-0.95-0.85-1
				c-0.85-0.05-2.12,0.68-3.07,2.01c-0.95,1.32-1.21,1.85-1.21,2.59c0,0.74,0,1.21,0,1.21l-0.85-0.21c0,0-0.11-0.27-0.11-0.9
				c0-0.64-0.32-1.06-1.48-0.95c-1.16,0.11-3.07,0.16-3.44-0.26c-0.37-0.43,0-1.43-0.85-1.95c-0.85-0.53-0.1-1.53-1.69-0.06
				c-1.59,1.48-1.96,2.38-2.54,2.38C86.17,125.12,85.83,124.69,85.83,124.69L85.83,124.69z M92.63,115.92c0,0-0.16,1.74-0.11,2.27
				s0.37,0.27,1,0.53c0.64,0.26,0-1,0.27-1.75c0.26-0.74,2.17-3.07,2.33-3.38c0.16-0.32,2.43,0.05,2.86,0
				c0.43-0.06,0.27,0.52,0.37,0.95c0.11,0.43,2.06,0.26,2.91,0.11c0.85-0.16-0.43-1.27-0.96-1.75c-0.53-0.47-6.3-0.32-6.3-0.32
				L92.63,115.92z"/>
			<path class="st3" d="M78.62,130.44l3.85-4.05l8.41-0.9l5.61,4.97l2.17,1.11l1.64,1.22l0.53,1.27l1.8,0.9l7.3,5.92l2.22,0.43
				l0.79,1.05l0.37,4.32l1.3,0.68v-2.73l1.3-1.97v-3.4l1.54-1.11l-3.15-5.49l0.62-0.55l3.21,5.12l1.11-1.54l4.33-0.19l4.57,2.78
				l0.56,3.02l-1.49,2.78l1.05,0.55l-2.47,11.23l-4.3,4.99l-7.13-0.44l-8.2-2.46l0.09,19.9l2.49-0.41l-1.46,6.83l-0.28,10.9v0.2
				c-0.64-0.41-1.26-0.84-1.89-1.27l0.37-1.62h-0.62l-0.59,1.03c-0.49-0.35-0.96-0.71-1.44-1.07l3.89-13.06l-14.29,3.03l-0.09-0.03
				c-0.31-0.38-0.63-0.76-0.93-1.15l2.26-0.33l3.87-21.39l0.62-0.07c0,0-1.86,19.08-2.35,20.04c-0.49,0.97,2.25,0.17,2.25,0.17
				l5.97-23.04l-5.18-1.1l-14.22,14.62l-0.27,0.04c-0.2-0.39-0.39-0.79-0.58-1.19l13.49-14.64l-2.83-1.38l0.6-1.13l20.94,7.51
				l4.81,0.19l3.99-4.42l1.94-6.35l-0.19-3.24l-7.56-2.68l-1.75,0.43l-1.13,1.12l-0.38,2.05l0.94,1.62l0.62,1.43l-1.62,2.06
				l-0.19-0.63c0,0,0.62-1.56,0.19-1.8c-0.44-0.25-1.25-0.87-1.81-0.75c-0.57,0.12-0.81,0.75-0.94,1.06
				c-0.12,0.31-0.49,0.94-0.49,0.94l-1.19-6.91l-14.05-10.53l-12.98-0.37l0.37-0.81l9.05-0.44l0.31-1.12l-3.93-3.61l-6.8,1.31
				l-3.19,2.8l0.81,0.31l0.06,1.44l-2.66,0.2C78.37,131.91,78.49,131.17,78.62,130.44L78.62,130.44z M100.47,179.03l3.34-0.4
				l0.88-15.74L100.47,179.03L100.47,179.03z M116.76,141.86l1.73-0.23l3.08,0.52l2.18,0.68l2.62,1.12l0.53-0.08l0.45-1.42l0.23-1.8
				l-0.38-1.88l-3.23-2.1l-3.45-0.15l-0.9,0.37l-0.68,1.27l-0.6,1.13l-1.35,0.3L116.76,141.86z"/>
			<g>
				<polygon class="st3" points="86.07,173.25 90.56,168.39 90.65,169.12 86.52,174.81 				"/>
				<path class="st2" d="M86.52,175.27c-0.03,0-0.05,0-0.08-0.01c-0.18-0.03-0.32-0.16-0.37-0.33l-0.46-1.56
					c-0.05-0.16-0.01-0.33,0.1-0.45l4.5-4.86c0.12-0.13,0.31-0.18,0.49-0.13c0.17,0.06,0.3,0.21,0.32,0.39l0.09,0.73
					c0.01,0.12-0.02,0.24-0.09,0.33l-4.13,5.68C86.81,175.2,86.67,175.27,86.52,175.27L86.52,175.27z M86.59,173.37l0.11,0.39
					l1.73-2.38L86.59,173.37L86.59,173.37z"/>
			</g>
			<path class="st3" d="M106.99,192.13l50.32,11.52c-1.68,0.42-3.39,0.77-5.12,1.05l-13.54-3.86l-0.17,4.63
				c-0.74-0.04-1.49-0.09-2.22-0.15l-0.45-1.64l-1.37-0.18l-0.07,1.63c-0.45-0.05-0.89-0.1-1.33-0.16l-0.25-5.59l-1.65-0.73
				l0.57,6.13c-0.66-0.1-1.31-0.22-1.96-0.35l-0.81-6.25l-3.67-0.36l1.41,5.96c-0.78-0.19-1.56-0.39-2.34-0.61l-0.81-5.63
				l-1.37-0.36l0.57,5.51c-0.74-0.22-1.46-0.47-2.17-0.72l-0.24-5.07l-14.13-3.85L106.99,192.13L106.99,192.13z M134.16,199.74
				l0.09,1.75l3.3,0.27l0.74,1.29l0.37-2.02L134.16,199.74z"/>
			<g>
				<path class="st3" d="M112.76,127.48l-1.47,5.32l-1.54,5.55l0.23,1l1.54-4.32l1.78-1l-1.47-0.23l1.08-5.47L112.76,127.48
					L112.76,127.48z M111.75,137.27l3.32-0.77l0.62,1.31l-3.01,0.77L111.75,137.27z"/>
				<path class="st2" d="M109.98,139.83c-0.01,0-0.02,0-0.03,0c-0.21-0.01-0.38-0.16-0.43-0.36l-0.23-1l3.02-11.1
					c0.06-0.21,0.26-0.34,0.47-0.34c0.22,0.01,0.4,0.17,0.44,0.39l0.15,0.85l-0.99,5.17l0.99,0.15c0.2,0.03,0.35,0.18,0.39,0.38
					c0.03,0.2-0.06,0.39-0.23,0.49l-1.62,0.92l-1.48,4.15C110.35,139.7,110.18,139.83,109.98,139.83L109.98,139.83z M112.68,139.05
					c-0.15,0-0.29-0.07-0.38-0.2l-0.93-1.31c-0.09-0.13-0.11-0.29-0.06-0.44c0.06-0.15,0.18-0.25,0.33-0.29l3.32-0.77
					c0.22-0.05,0.44,0.06,0.53,0.26l0.62,1.31c0.06,0.12,0.06,0.27,0,0.4s-0.17,0.22-0.31,0.25l-3.01,0.77
					C112.75,139.05,112.72,139.05,112.68,139.05L112.68,139.05z M112.54,137.57l0.34,0.48l2.15-0.55l-0.21-0.45L112.54,137.57
					L112.54,137.57z"/>
			</g>
		</g>
	</g>
</g>
</svg>
