<?xml version="1.0" encoding="utf-8"?>
<!-- Generator: Adobe Illustrator 25.0.0, SVG Export Plug-In . SVG Version: 6.00 Build 0)  -->
<svg version="1.1" id="Layer_1" xmlns="http://www.w3.org/2000/svg" xmlns:xlink="http://www.w3.org/1999/xlink" x="0px" y="0px"
	 viewBox="0 0 283.46 283.46" style="enable-background:new 0 0 283.46 283.46;" xml:space="preserve">
<style type="text/css">
	.st0{fill:none;stroke:#1E1E1C;stroke-width:0.3708;stroke-linecap:round;stroke-linejoin:round;stroke-miterlimit:10;}
	.st1{fill:none;stroke:#E8501D;stroke-width:1.2359;stroke-linecap:round;stroke-linejoin:round;stroke-miterlimit:10;}
	.st2{fill:#EB5B31;}
</style>
<g>
	<g>
		<path class="st0" d="M62.46,106.59v22.34 M61.22,129.65l1.25-0.72 M113.63,111.73v20.8 M113.63,132.53l1.25,0.72 M84.93,90.75
			v-8.61 M84.97,90.78l23.61,13.63 M106.72,112.72v7.14 M100.54,116.29l6.19,3.57 M106.72,119.86l0.03,0.02 M84.93,90.75
			L67.5,100.81 M84.97,90.78l-0.04-0.03 M97.27,110.95l-12.3-20.17 M89.92,146.22l1.25,0.72 M89.92,122.44v23.78 M61.22,105.87
			l28.7,16.57 M61.22,105.87v23.78 M59.97,128.93l1.25,0.72 M59.97,128.93V96.5 M116.13,100.11L84.93,82.1 M59.97,96.5l31.2,18.01
			 M84.93,82.1L59.97,96.51 M116.05,100.11L84.93,82.14 M84.93,82.14L60.05,96.5 M60.04,96.5l31.13,17.97 M91.17,114.47l24.88-14.36
			 M106.75,119.88l-6.22,3.59 M106.75,112.7v7.18 M100.54,116.29l6.22-3.59 M100.54,123.48v-7.18 M116.13,132.53v-32.42
			 M114.88,133.25l1.25-0.72 M114.88,110.24v23.01 M106.77,119.92l8.11-9.68 M100.53,123.53l6.24-3.6 M92.42,123.21l8.11,0.31
			 M92.42,123.21v23.01 M91.17,146.94l1.25-0.72 M91.17,146.94v-32.42 M91.17,114.52l24.96-14.41"/>
		<circle class="st1" cx="87.73" cy="114.26" r="41.78"/>
	</g>
	<g>
		<path class="st0" d="M109.71,208.9l18.72-10.81 M108.15,206.2l17.16-9.91 M126.87,197.19L108.15,208 M131.55,198.09l18.72,10.81
			 M151.83,206.2l-17.16-9.91 M151.83,208l-18.72-10.81 M106.59,217.91l1.56-0.9 M108.15,211.6v5.4 M151.83,211.6v5.4 M151.83,217
			l1.56,0.9 M108.15,186.38V208 M151.83,186.38V208 M129.99,168.48v-1.8 M151.83,208l1.56,0.9 M131.55,219.71L151.83,208
			 M106.59,208.9l1.56-0.9 M108.15,208l20.28,11.71 M114.42,188.09v-1.8 M153.2,181.88l-23.22-13.4 M129.99,168.48l-23.21,13.4
			 M114.42,188.09l-0.09,0.05 M114.42,186.29l-0.09,0.05 M105.22,180.98l9.2,5.31 M129.99,166.68l-24.77,14.3 M154.76,180.98
			l-24.78-14.3 M129.99,195.28l24.78-14.3 M120.79,189.96l9.2,5.31 M120.79,189.96l-0.09,0.05 M154.95,180.98l-24.96-14.41
			 M129.99,166.57l-24.96,14.41 M131.55,221.51l21.84-12.61 M131.55,198.09v23.42 M153.39,185.48l-21.84,12.61 M153.39,208.9v-23.42
			 M129.99,231.41l1.56-0.9 M131.55,223.31v7.21 M153.39,210.7l-21.84,12.61 M153.39,217.91v-7.21 M153.39,217.91l1.56-0.9
			 M154.95,180.98v36.03 M129.99,195.39l24.96-14.41 M106.59,185.48l21.84,12.61 M128.43,198.09v23.42 M128.43,221.51l-21.84-12.61
			 M106.59,208.9v-23.42 M114.33,188.15l6.36,3.67 M114.33,186.34v1.8 M105.03,180.98l9.3,5.37 M105.03,180.98v36.03 M105.03,217
			l1.56,0.9 M106.59,217.91v-7.21 M106.59,210.7l21.84,12.61 M128.43,223.31v7.21 M128.43,230.51l1.56,0.9 M129.99,195.39v36.03
			 M120.69,190.02l9.29,5.37 M120.69,191.82v-1.8"/>
		<path class="st1" d="M169.9,197.84c0,23.07-18.7,41.78-41.78,41.78c-23.07,0-41.78-18.7-41.78-41.78
			c0-23.07,18.71-41.78,41.78-41.78C151.19,156.06,169.9,174.76,169.9,197.84z"/>
	</g>
	<g>
		<path class="st0" d="M194.18,84.42l0.02-0.01l0.09-0.06l0.09-0.07l0.08-0.08l0.07-0.09l0.07-0.1l0.06-0.11l0.05-0.11l0.05-0.12
			l0.03-0.13l0.03-0.14l0.02-0.14l0.01-0.15l0.01-0.16 M194.84,82.94l-0.01-0.16l-0.01-0.16l-0.02-0.17l-0.03-0.17l-0.03-0.17
			l-0.05-0.17l-0.05-0.17l-0.06-0.17l-0.07-0.17l-0.07-0.17l-0.08-0.17l-0.09-0.17l-0.09-0.17l-0.09-0.16l-0.1-0.16l-0.11-0.16
			l-0.11-0.15l-0.11-0.15l-0.12-0.14l-0.13-0.13l-0.12-0.13l-0.13-0.12l-0.13-0.11l-0.13-0.11l-0.14-0.1l-0.13-0.09l-0.14-0.08
			l-0.13-0.07l-0.13-0.06l-0.13-0.05l-0.13-0.04l-0.13-0.03l-0.13-0.02l-0.12-0.01h-0.12l-0.11,0.01l-0.11,0.02l-0.1,0.03l-0.1,0.04
			l-0.07,0.04 M177.99,93.99l-0.23,0.13 M177.76,93.85l0.01,0.27 M177.76,94.12l0.01-0.26 M198.49,119.67v4.04 M198.49,123.7
			l0.91,0.53 M185.62,82.61l-5.92,3.42 M200.31,123.7v-1.22 M199.4,124.23v-3.15 M200.31,123.7l-0.91,0.53 M195.56,85.99L183.45,79
			 M183.46,79l-0.91,0.53 M185.66,83.95l-4.78,2.76 M193.62,88.54l-5.35,3.09 M193.58,87.21l-5.95,3.44 M200.46,97.21l-6.25,3.61
			 M224.91,138.43v0.53 M224.91,138.95l0.91,0.53 M188.69,99.37v29.99 M188.69,129.36l0.91,0.53 M206.55,106.63l-6.25,3.61
			 M187.59,90.59l-12.11-6.99 M174.57,84.12l0.91-0.53 M211.97,115.18l-5.92,3.42 M188.69,99.37l0.91-1.58 M189.6,99.9l-0.91-0.53
			 M190.52,98.32l-0.91,1.58 M189.6,129.88V99.89 M189.6,129.88l0.91-0.53 M190.52,129.36v-22.01 M212.06,131.01l0.01,0.27
			 M212.07,131.28v-0.26 M212.3,131.15l-0.23,0.13 M188.38,91.81l5.45-3.14 M199.76,97.84l-5.44,3.14 M205.85,107.26l-5.44,3.14
			 M225.82,139.48v-0.53 M226.27,139.22l-0.46,0.26 M212.01,116.52l-4.78,2.76 M219.93,119.77l-5.92,3.42 M220.01,135.6l0.01,0.27
			 M220.02,135.87l0.01-0.26 M220.25,135.74l-0.23,0.13 M213.48,113.68l-17.92-27.7 M195.56,85.99l-0.91,0.53 M236.78,136.08
			l0.77,0.44 M215.11,128.3v16.31 M215.11,144.61l0.91,0.53 M219.97,121.11l-4.78,2.76 M215.11,128.3l0.91-1.58 M216.02,128.83
			l-0.91-0.53 M216.94,127.25l-0.91,1.58 M216.02,145.13v-16.31 M216.02,145.13l0.91-0.53 M216.94,144.61v-10.78 M227.88,124.37
			l-5.92,3.42 M228.2,140.33l-0.23,0.13 M227.97,140.2l0.01,0.27 M227.98,140.46l0.01-0.26 M205.51,118.29l-17.92-27.7
			 M186.68,91.11l0.91-0.53 M238.46,128.1l-24.98-14.42 M213.48,113.68l-0.91,0.53 M238.46,135.99v-7.89 M238.46,135.99l-0.91,0.53
			 M237.54,136.52v-0.89 M238.46,128.1l-0.91,0.53 M227.92,125.71l-4.78,2.76 M235.84,128.96l-5.92,3.42 M235.87,130.3l-5.39,3.11
			 M230.48,139.71l0.09-0.07l0.08-0.08l0.07-0.09l0.07-0.1l0.06-0.11l0.05-0.12l0.05-0.12l0.04-0.13l0.03-0.14l0.02-0.14l0.01-0.15
			v-0.16v-0.16l-0.01-0.16l-0.02-0.17l-0.03-0.17l-0.04-0.17l-0.05-0.18l-0.05-0.18l-0.06-0.18l-0.07-0.18l-0.07-0.18l-0.08-0.17
			l-0.09-0.17 M237.45,135.69L237.45,135.69l0.1-0.06 M237.54,135.63l0.09-0.07l0.08-0.08l0.07-0.09l0.07-0.1l0.06-0.11l0.05-0.12
			l0.05-0.12l0.04-0.13l0.03-0.14l0.02-0.14l0.01-0.15v-0.16v-0.16l-0.01-0.17l-0.02-0.17l-0.03-0.17l-0.04-0.17l-0.05-0.18
			l-0.05-0.18l-0.06-0.18l-0.07-0.18l-0.07-0.18l-0.08-0.17l-0.09-0.17 M230.48,136.23v-3.52 M230.48,140.6v-0.89 M230.48,139.71
			v-3.48 M229.58,141.12l0.91-0.53 M230.48,132.71l-24.98-14.42 M204.6,118.81l0.91-0.53 M229.58,133.23l0.91-0.53 M185.66,83.95
			l-0.04-1.34 M192.44,87.86l-6.78-3.91 M193.62,88.54l-0.04-1.34 M193.82,88.66l-0.21-0.12 M199.65,97.68l-5.83-9.01 M199.76,97.84
			l0.7-0.63 M205.75,107.1l-5.99-9.26 M205.85,107.26l0.7-0.63 M211.24,115.6l-5.39-8.34 M212.01,116.52l-0.04-1.34 M218.79,120.43
			l-6.78-3.91 M219.97,121.11l-0.04-1.34 M226.74,125.02l-6.78-3.91 M227.92,125.71l-0.04-1.34 M234.7,129.62l-6.78-3.91
			 M235.87,130.3l-0.04-1.34 M237.54,132.15l-0.09-0.17l-0.1-0.16l-0.1-0.16l-0.11-0.16l-0.11-0.15l-0.12-0.15l-0.12-0.14
			l-0.13-0.13l-0.13-0.13l-0.13-0.12l-0.13-0.11l-0.13-0.1l-0.14-0.09l-0.13-0.09 M237.54,132.15v-3.52 M237.54,128.63l-24.98-14.42
			 M212.56,114.21l-17.91-27.7 M194.65,86.51l-12.11-6.99 M182.54,79.52v4.17 M184.46,83.29l-0.04-0.02l-0.14-0.05l-0.13-0.03
			l-0.13-0.02l-0.13-0.01h-0.12l-0.12,0.01l-0.12,0.02l-0.11,0.03l-0.11,0.04l-0.1,0.05 M186.68,91.11l-12.11-6.99 M174.57,84.12
			v7.89 M174.57,92.01l9.62,5.55 M184.2,97.57l4.5,6.96 M190.52,98.32l-0.91-0.53 M190.52,107.34v-9.02 M190.52,107.34l11.59,17.92
			 M202.11,125.27l13,7.51 M216.94,127.25l-0.91-0.52 M216.94,133.83v-6.58 M216.94,133.83l12.64,7.3 M229.58,141.12v-7.89
			 M229.58,133.23l-24.98-14.42 M204.6,118.81l-17.91-27.7 M190.96,78.84l-3.89,2.24 M193.51,84.8l0.67-0.38 M183.21,83.31
			l-4.12,2.38 M230.48,139.71l6.96-4.02"/>
		<circle class="st1" cx="202.98" cy="114.26" r="41.78"/>
	</g>
	<g>
		<g>
			<polygon class="st2" points="161.51,114.26 153.17,112 153.17,113.54 129.87,113.54 129.87,114.98 153.17,114.98 153.17,116.52 
							"/>
		</g>
	</g>
	<g>
		<g>
			<polygon class="st2" points="158.67,169.44 166.17,165.15 165.08,164.05 178.65,147.9 177.63,146.88 164.06,163.04 
				162.97,161.94 			"/>
		</g>
	</g>
</g>
</svg>
