<?xml version="1.0" encoding="utf-8"?>
<!-- Generator: Adobe Illustrator 25.0.0, SVG Export Plug-In . SVG Version: 6.00 Build 0)  -->
<svg version="1.1" id="Layer_1" xmlns="http://www.w3.org/2000/svg" xmlns:xlink="http://www.w3.org/1999/xlink" x="0px" y="0px"
	 viewBox="0 0 283.46 283.46" style="enable-background:new 0 0 283.46 283.46;" xml:space="preserve">
<style type="text/css">
	.st0{fill-rule:evenodd;clip-rule:evenodd;fill:#1E1E1C;stroke:#1E1E1C;stroke-width:1.6417;}
	.st1{fill-rule:evenodd;clip-rule:evenodd;fill:#EB5B31;}
	.st2{fill-rule:evenodd;clip-rule:evenodd;fill:#C7C7C6;}
	.st3{fill-rule:evenodd;clip-rule:evenodd;fill:#F29104;}
	.st4{fill:#1E1E1C;}
	.st5{fill:none;stroke:#1E1E1C;stroke-width:1.2256;stroke-linecap:round;stroke-linejoin:round;stroke-miterlimit:22.9256;}
	
		.st6{fill-rule:evenodd;clip-rule:evenodd;fill:#1E1E1C;stroke:#1E1E1C;stroke-width:1.2256;stroke-linecap:round;stroke-linejoin:round;stroke-miterlimit:22.9256;}
	.st7{fill-rule:evenodd;clip-rule:evenodd;fill:#1E1E1C;}
	.st8{fill-rule:evenodd;clip-rule:evenodd;fill:#7B8982;stroke:#1E1E1C;stroke-width:1.6417;}
</style>
<g>
	<path class="st0" d="M80,234.3c-0.09-0.02-0.19-0.03-0.29-0.06c1-0.43,1.5,0.33,2.13-0.18l-0.08-0.11h0.18l0.16-0.17l0.92,0.33
		c-0.62,0.3-0.5-0.13-1.08-0.16l-0.11,0.11l0.13,0.2c-0.33,0.07-0.73,0.13-1.16,0.13l3,0.33l6.57-10.67l-24.63,2.46l3.28,6.57
		L80,234.3z"/>
	<g>
		<path class="st1" d="M122.22,156.8c1.96-0.58,3.17,0.69,5.26,1.38c-0.26-3.64-3.94-6.75,2.83-7.55c3.91-0.46,7.97,0.79,9,4.74
			c0.89,3.41-1.69,6.59-3.3,9.48c-2.35,4.24-2.72,6.81-7.27,5.38c-3.88-1.22-5.48-3.73-9.84-3.93c-3.41-0.15-10.27,1.02-10.47,4.77
			c-0.17,3.16,3.73,7.05,3.36,11.4c-0.35,4.15-0.61,6.66,0.02,10.92c0.21,1.44-0.85,2.5,0.1,4.18c0.36-0.19,0.77-0.47,1.2-0.69
			c2.04,3.02-2.07,7.94-2.75,11.21c-0.75,3.59-1.77,8.16-1.96,11.8c-4.22,1.39-9.13-0.42-13.67,0.05
			c-5.22,0.54-10.51,1.31-15.71-0.54c-9.87-3.51-17.45-8.26-16.14-18.33c1.89-14.42,4.25-24.27,5.74-38.58
			c0.81-7.71,6.17-22.71,11.46-28.84c2.87-3.32,6.32-6.42,10.84-4.99c3.34,1.06,6.08,4.76,8.63,7.13
			c5.9,5.48,20.8,10.09,22.71,18.67c-0.31,0.9-0.37-0.04-0.98-0.03"/>
		<polyline class="st2" points="197.79,169.16 183.46,209.22 115.09,195.74 113.42,215.2 198.68,238.01 244.27,77.01 231.45,75.11 
			208.81,138.37 		"/>
		<polyline class="st3" points="212.02,158.29 174.7,155.41 186.82,125.51 143.79,152.04 143.4,155.7 210.61,162.21 		"/>
		<g>
			<path class="st4" d="M219.94,74.14l-2.81-0.45l0.23-1.41c0.09-0.56,0.16-1.15,0.21-1.77l0.11-1.42l2.84,0.22l-0.11,1.42
				c-0.05,0.69-0.14,1.37-0.24,2.01L219.94,74.14L219.94,74.14z M217.67,68.35l-0.1-1.42c-0.04-0.6-0.11-1.2-0.2-1.78l-0.22-1.41
				l2.82-0.43l0.22,1.41c0.1,0.65,0.18,1.32,0.22,2l0.1,1.42L217.67,68.35L217.67,68.35z M216.99,63.04l-0.45-1.35
				c-0.19-0.56-0.4-1.11-0.63-1.65l-0.57-1.3l2.61-1.15l0.57,1.3c0.27,0.62,0.52,1.26,0.73,1.9l0.45,1.35L216.99,63.04L216.99,63.04
				z M215.01,58.15l-0.82-1.17c-0.34-0.48-0.7-0.95-1.08-1.39l-0.93-1.08l2.16-1.86l0.93,1.08c0.44,0.51,0.86,1.06,1.25,1.61
				l0.82,1.17L215.01,58.15L215.01,58.15z M192.74,55.36l-2.81-0.42l0.21-1.4c0.01-0.1,0.15-0.99,0.62-2.15l0.53-1.32l2.65,1.05
				l-0.53,1.32c-0.34,0.86-0.45,1.51-0.45,1.52L192.74,55.36L192.74,55.36z M211.69,54.04l-1.12-0.89
				c-0.46-0.36-0.94-0.72-1.44-1.05l-1.19-0.79l1.57-2.38l1.19,0.79c0.56,0.37,1.11,0.77,1.64,1.19l1.11,0.88L211.69,54.04
				L211.69,54.04z M207.27,50.94L206,50.3c-0.56-0.28-1.11-0.53-1.63-0.75L203.05,49l1.1-2.63l1.32,0.55
				c0.59,0.25,1.2,0.53,1.81,0.84l1.27,0.64L207.27,50.94L207.27,50.94z M194.1,50.78l-1.94-2.09l1.05-0.97
				c0.57-0.53,1.2-0.97,1.88-1.31l1.27-0.64l1.28,2.54l-1.27,0.64c-0.44,0.22-0.85,0.51-1.23,0.86L194.1,50.78L194.1,50.78z
				 M202.43,48.78l-1.4-0.26c-0.58-0.11-1.13-0.17-1.66-0.18l-1.43-0.03l0.06-2.85l1.42,0.03c0.68,0.01,1.39,0.09,2.12,0.23
				l1.4,0.26L202.43,48.78L202.43,48.78z"/>
		</g>
		<g>
			<g>
				<path class="st5" d="M156.13,85.5l4.09-21.43 M159.21,64.08l-48.18,26.14l3.65,3.09l53.25-28.64 M114.88,93.67l2.3,2.01
					l4.02-1.01l46.36-23.14"/>
				<path class="st5" d="M170.43,66.79l0.71,1.01l0.43-0.86L170.43,66.79L170.43,66.79z M164.29,66.56l-2.28,15.09l-4.72-0.45
					 M163.38,74.18l-3.96-3.66"/>
				<path class="st6" d="M180.42,67.56c0,0-1.57-0.36-3.19,0.78c-1.63,1.14-2.68,2.68-3.64,3.82c-0.95,1.13-1.04,2.36-1.19,2.53
					c-0.14,0.17,2.62-0.09,2.71,0.17s1.26-2.13,2.71-3.43c1.46-1.32,2.47-2.27,3.06-2.59C181.44,68.52,180.42,67.56,180.42,67.56
					L180.42,67.56z M168.3,76.57c0,0,1.67-2.85,5.11-6.7c1.9-2.14,3.36-3.29,4.29-3.91c7.2-8.43,15.28-2.26,14.54,4.57
					c0.97,3.59,1.41,14.34-1.29,11.73C185.85,77.33,168.6,76.57,168.3,76.57z"/>
				<path class="st5" d="M172.71,76.58c0,0-1.98-0.1-3.02,0.03c-1.04,0.12-1.42,0.14-1.04,0.76c0.37,0.61,0.44,1.63,3.31,3.23
					c2.88,1.61,6.43,2.27,6.75,2.36"/>
				<polyline class="st5" points="100.94,102.24 102.92,98.42 116.63,95.38 				"/>
				<polygon class="st6" points="149.67,85.92 165.97,81.81 166.27,83.03 149.67,87.6 				"/>
				<line class="st5" x1="128.81" y1="92.78" x2="168.87" y2="82.72"/>
				<path class="st5" d="M195.16,76.95l6.1-1.06l-3.16-2.11 M198.05,73.76l0.46,2.43"/>
				<polyline class="st5" points="115.41,101.63 209.38,80.89 231.45,76.06 				"/>
				<polyline class="st5" points="150.41,99.39 181.59,91.53 181.19,94.96 150.61,101.6 151.62,98.18 				"/>
				<polygon class="st6" points="143.79,152.04 186.82,125.51 187.39,126.94 176.78,155.13 174.7,155.41 186.67,125.79 
					186.67,125.36 				"/>
				<polygon class="st5" points="158.73,149.31 175,137.69 170.41,149.6 				"/>
				<polygon class="st5" points="159.59,149.39 174.7,139.21 175.21,137.34 158.23,149.46 				"/>
				<polygon class="st6" points="144.26,153.48 211.67,157.93 211.17,163.88 142.97,157.71 143.4,155.7 211.32,162.23 211.6,158.07 
									"/>
				<path class="st5" d="M225.39,95.62l-22.59,61.26 M200.41,162.61l-16.95,46.61l-64.92-11.95"/>
				<polygon class="st5" points="156.73,195.59 155.54,198.22 177.74,201.56 178.45,199.17 				"/>
				<path class="st7" d="M233.73,106.52L193.3,237.19l0,0c1.44-0.78,3.17-1.61,4.57-2.46l37.2-125.47
					C234.62,108.33,234.18,107.42,233.73,106.52z"/>
				<path class="st7" d="M114.52,131.93c-0.14,0.76,0.91,0.59,0.91,0.59l0.45-0.75L114.52,131.93L114.52,131.93z M107.28,122.55
					c0,0-2.35,2.08-2.42,2.42c-0.07,0.36-0.07,0.49,0.41,0.98c0.49,0.48,1.04,0.27,1.25-0.35c0.21-0.63,0.76-1.52,0.76-1.52
					l0.48-0.77L107.28,122.55L107.28,122.55z M86.84,125.66c0,0,2.81-3,3.12-3.69c0.32-0.68,0.94-8.44,0.94-8.44l6.81-8.5l4-1.31
					l6.68-0.38l0.62-0.5l5.12,0.38l2.44,1.12c0,0,6.3,4.19,6.3,4.63s2.94,7.63,2.94,8.44s-0.25,2.94-0.68,3.13
					c-0.44,0.18-5.93,3-5.93,3.37s-1.19,4.63-1.19,4.63s-1.69,0.19-2.19-0.25s-0.06-0.69,0.5-1.06s1.81-1.69,1.87-2.87
					c0.06-1.19,0.94-4.63,0.75-5.19c-0.19-0.57-2.19-5.13-2.62-5.19c-0.43-0.07-2.68,0.94-2.5,1.56s3.3,3.12,3.12,3.69
					c-0.19,0.56-5.74,4.25-6.05,5c-0.32,0.75,4.24,5.5,4.86,5.81s1.69,0.43,1.69,0.43l0.94-1.19c0,0,0.62-0.62,0.87-0.24
					c0.25,0.37-3.25,5.12-3.87,5.31c-0.63,0.19-1.43-1.02-1.74-0.65s-4.75,4.1-4.75,4.1s-1.23-0.19-1.26-0.53
					c-0.03-0.33,4.79-4.82,5.39-5.19s1.21-1.13,1.3-1.64c0.1-0.5-5.04-5.4-5.04-5.4s-0.07-1.87-0.21-2.57
					c-0.14-0.69,0-1.24-1.1-1.31c-1.11-0.07-2.77,0.9-4.02,2.63c-1.24,1.73-1.59,2.42-1.59,3.39c0,0.97,0,1.59,0,1.59l-1.1-0.27
					c0,0-0.14-0.35-0.14-1.18s-0.41-1.38-1.94-1.24c-1.53,0.13-4.01,0.2-4.49-0.35c-0.49-0.55,0-1.87-1.11-2.56
					c-1.11-0.7-0.14-2.01-2.22-0.07c-2.07,1.94-2.56,3.11-3.32,3.11C87.29,126.22,86.84,125.66,86.84,125.66L86.84,125.66z
					 M95.73,114.17c0,0-0.21,2.28-0.14,2.98c0.06,0.7,0.48,0.35,1.31,0.7c0.83,0.34,0-1.32,0.34-2.29c0.35-0.96,2.84-4.01,3.05-4.43
					c0.21-0.41,3.18,0.07,3.73,0c0.56-0.07,0.34,0.69,0.48,1.24s2.7,0.35,3.81,0.14c1.1-0.21-0.56-1.66-1.25-2.29
					c-0.69-0.62-8.23-0.41-8.23-0.41L95.73,114.17z"/>
				<path class="st7" d="M77.43,133.18l5.03-5.3l11-1.18l7.33,6.51l2.84,1.45l2.14,1.59l0.69,1.66l2.35,1.17l9.55,7.76l2.9,0.56
					l1.04,1.37l0.49,5.66l1.69,0.89v-3.56l1.7-2.59v-4.45l2.02-1.45l-4.12-7.2l0.81-0.72l4.2,6.71l1.46-2.02l5.65-0.24l5.98,3.64
					l0.73,3.96l-1.94,3.64l1.38,0.72l-3.24,14.72l-5.61,6.54l-9.31-0.57l-10.72-3.24l0.12,26.07l3.25-0.54l-1.89,8.94l-0.36,14.28
					v0.26c-0.83-0.54-1.65-1.1-2.46-1.66l0.48-2.13h-0.81l-0.77,1.35c-0.64-0.47-1.26-0.93-1.88-1.4l5.08-17.11l-18.68,3.98
					l-0.11-0.04c-0.4-0.5-0.82-1-1.22-1.51l2.96-0.44l5.05-28.02l0.81-0.09c0,0-2.44,24.99-3.07,26.25
					c-0.63,1.27,2.94,0.22,2.94,0.22l7.8-30.18l-6.78-1.45l-18.59,19.15l-0.35,0.05c-0.26-0.52-0.51-1.04-0.77-1.56l17.63-19.18
					l-3.7-1.8l0.78-1.48l27.38,9.84l6.28,0.25l5.22-5.79l2.53-8.32l-0.24-4.25l-9.88-3.51l-2.28,0.57l-1.47,1.47l-0.48,2.69
					l1.22,2.12l0.81,1.87l-2.12,2.7l-0.24-0.81c0,0,0.81-2.04,0.24-2.36s-1.64-1.15-2.36-0.98c-0.74,0.16-1.06,0.98-1.23,1.39
					c-0.16,0.41-0.66,1.23-0.66,1.23l-1.55-9.05l-18.35-13.79l-16.97-0.49l0.48-1.06l11.83-0.57l0.41-1.47l-5.14-4.73l-8.89,1.71
					l-4.16,3.67l1.06,0.41l0.08,1.88l-3.47,0.27C77.1,135.12,77.25,134.15,77.43,133.18L77.43,133.18z M105.97,196.84l4.36-0.52
					l1.15-20.62L105.97,196.84L105.97,196.84z M127.27,148.15l2.25-0.3l4.03,0.69l2.84,0.89l3.44,1.46l0.69-0.1l0.59-1.87l0.29-2.35
					l-0.49-2.46l-4.22-2.75l-4.52-0.2l-1.17,0.49l-0.88,1.67l-0.78,1.47l-1.77,0.39L127.27,148.15z"/>
				<polygon class="st6" points="87.16,189.27 93.03,182.9 93.15,183.86 87.75,191.31 				"/>
				<path class="st7" d="M114.5,214l83.93,20.98c-2.2,0.55-4.43,1.01-6.69,1.38l-35.86-10.95l-0.22,6.07
					c-0.97-0.05-1.94-0.12-2.9-0.2l-0.59-2.15l-1.8-0.24l-0.09,2.14c-0.58-0.07-1.16-0.14-1.74-0.22l-0.33-7.33l-2.16-0.96
					l0.75,8.03c-0.87-0.14-1.72-0.29-2.56-0.45l-1.07-8.18l-4.79-0.48l1.83,7.8c-1.02-0.25-2.04-0.51-3.05-0.79l-1.06-7.38
					l-1.79-0.48l0.74,7.22c-0.96-0.29-1.89-0.61-2.83-0.94l-0.31-6.64l-18.47-5.05L114.5,214L114.5,214z M150,223.96l0.12,2.29
					l4.32,0.35l0.96,1.69l0.48-2.64L150,223.96z"/>
			</g>
		</g>
		<path class="st6" d="M184.15,61.34l3.99-8.48l5.89,1.84c0,0-1.8,6.37-3.81,10.37"/>
		<polygon class="st6" points="215.3,73.21 223.85,71.79 224.8,77.48 221,84.14 213.4,84.14 213.4,76.54 		"/>
	</g>
	<path class="st8" d="M103.08,217.49c-4.65,2.73-27.23,7.27-27.75-5.27c-0.23-5.54,3.66-35.23,4.74-42.32
		c1.18-7.72,3.69-13.32-0.78-19.72c-4.22-6.04-13.52-8.74-18.26-4.14c-4.94,4.79-7.78,17.28-10.28,23.7
		c-2.43,6.24-5.2,12.55-6.73,19.06c-2.11,8.99-8.08,21.24-2.49,28.7c7.37,9.83,15.98,10.97,27.93,9.83
		c6.71-0.64,10.54-0.1,17.01,1.46c5.23,1.26,23.01-2.25,27.27-6.38c0,0,12.71-7.73,6.57-13.14
		C114.18,203.86,105.45,216.09,103.08,217.49z"/>
	<path class="st0" d="M117,214.99c-0.71,0.05-1.39,0.11-2.03,0.18c-0.68,1.75-1.35,4.06-1.94,7.1c-0.3,1.55-0.58,3.29-0.83,5.23
		c-0.2,1.52-0.38,3.17-0.54,4.95c1.11-0.19,2.24-0.11,3.35-0.08c0.59-0.19,1.14-0.47,1.64-0.9c0.32-0.31,1.31-0.42,2.17,0.08
		c1.53-2.01,4.8-1.76,7.16-1.69c0.86-0.03,1.49,0.67,1.87,1.18c0.81-0.32,1.65-0.6,2.5-0.86c2.19-5.94,5.21-15.53,5.4-23.53
		c0.14-5.83-2.78-13.19-20.65-10.92l-12.01,21.75c-0.34,0.24,2.24-1.4,11.89-2.32C119,204.81,123.66,214.48,117,214.99z"/>
</g>
</svg>
