<?xml version="1.0" encoding="utf-8"?>
<!-- Generator: Adobe Illustrator 25.0.0, SVG Export Plug-In . SVG Version: 6.00 Build 0)  -->
<svg version="1.1" id="Layer_1" xmlns="http://www.w3.org/2000/svg" xmlns:xlink="http://www.w3.org/1999/xlink" x="0px" y="0px"
	 viewBox="0 0 283.46 283.46" style="enable-background:new 0 0 283.46 283.46;" xml:space="preserve">
<style type="text/css">
	.st0{fill-rule:evenodd;clip-rule:evenodd;fill:#3D3D3B;}
	.st1{fill-rule:evenodd;clip-rule:evenodd;fill:#C4C6C6;}
	.st2{fill-rule:evenodd;clip-rule:evenodd;fill:#746C49;}
	.st3{fill-rule:evenodd;clip-rule:evenodd;fill:#989D9D;}
	.st4{fill-rule:evenodd;clip-rule:evenodd;fill:#7B8982;}
	.st5{fill-rule:evenodd;clip-rule:evenodd;fill:#FFFFFF;}
	.st6{fill-rule:evenodd;clip-rule:evenodd;fill:#F8D2B1;}
	.st7{fill-rule:evenodd;clip-rule:evenodd;fill:#EB5B31;}
	.st8{fill-rule:evenodd;clip-rule:evenodd;fill:#1E1E1C;}
	.st9{fill-rule:evenodd;clip-rule:evenodd;fill:#F29104;}
	.st10{fill-rule:evenodd;clip-rule:evenodd;fill:#ECEFED;}
	.st11{fill-rule:evenodd;clip-rule:evenodd;fill:#CBA477;}
	.st12{fill-rule:evenodd;clip-rule:evenodd;fill:#9C9B9B;}
	.st13{fill-rule:evenodd;clip-rule:evenodd;fill:#CAB3A2;}
	.st14{fill-rule:evenodd;clip-rule:evenodd;fill:#C7C7C6;}
	.st15{fill-rule:evenodd;clip-rule:evenodd;fill:#B2B2B2;}
	.st16{fill-rule:evenodd;clip-rule:evenodd;fill:#A6C5C0;}
	.st17{fill-rule:evenodd;clip-rule:evenodd;fill:#F8B133;}
</style>
<g>
	<g>
		<g>
			<path class="st0" d="M115.44,73.17c1.53,6.13,0.22,15.09,0.66,22.31c-2.51,0.39,1-7.01-1.31-8.53c0-1.1,0-2.19,0-3.28
				C116.3,81.46,115.01,76.46,115.44,73.17z"/>
			<path class="st1" d="M116.75,73.17c1.09,1.13,1.09,6.74,0,7.87C116.75,78.42,116.75,75.79,116.75,73.17z"/>
			<path class="st0" d="M150.87,87.6c1.14-3.49,0.66-13.88,1.31-9.18c-0.06-0.42,0.58,11.04-0.66,13.78
				C150.62,91.35,150.87,89.34,150.87,87.6z"/>
			<path class="st1" d="M114.13,78.42c0.22,0,0.44,0,0.66,0c0,1.75,0,3.5,0,5.25c0,1.09,0,2.19,0,3.28c0,0.22,0,0.44,0,0.66
				C113.27,85.83,114.55,81.27,114.13,78.42z"/>
			<path class="st0" d="M194.83,92.19c-1.09,0-2.19,0-3.28,0c-0.14-0.51-0.55-0.76-1.31-0.66
				C189.61,86.37,199.05,90.55,194.83,92.19z"/>
			<path class="st0" d="M72.79,104c1.71-6.45-0.13-17.39,1.97-3.94c0,0.22,0,0.44,0,0.66c0.43,5.25-0.87,12.24,0.66,16.4
				c0,0.88,0,1.75,0,2.63c0,5.91,0,11.81,0,17.72c0,8.31,0,16.62,0,24.93c-0.84,0.04-0.91,0.84-1.97,0.66c0-3.5,0-7,0-10.5
				c-0.44-11.81,0.87-25.37-0.66-36.09c0-2.62,0-5.25,0-7.87C72.79,107.07,72.79,105.53,72.79,104z"/>
			<path class="st0" d="M198.11,96.13c0.48-1.79-1.3-1.32-1.31-2.62c1.3-1.09,0.84,0.06,2.62,0
				C199.27,94.67,200.08,96.79,198.11,96.13z"/>
			<path class="st2" d="M185.64,95.47c-0.15-0.51-0.55-0.76-1.31-0.65c1.12-1.5,5.01-0.24,7.22-0.66
				C190.51,95.53,186.96,94.38,185.64,95.47z"/>
			<path class="st0" d="M124.62,96.13c0.87,0,1.75,0,2.62,0c-0.11,1.42,2.33,0.3,3.28,0.66C130.03,97.66,124.12,98.43,124.62,96.13z
				"/>
			<path class="st3" d="M158.09,96.79c1.42-0.11,0.3,2.33,0.66,3.28c0,1.09,0,2.19,0,3.28c-0.22,0-0.44,0-0.66,0
				C158.09,101.16,158.09,98.97,158.09,96.79z"/>
			<path class="st0" d="M116.1,99.41c-4.97-1.06-6.26-1.34,0.66-1.31c1.12,1.5,5.01,0.24,7.22,0.66c1.12,1.5,5.01,0.24,7.22,0.66
				c1.1,0,2.19,0,3.28,0c0.98,0.11,2.42-0.23,2.63,0.66c-1.63-0.1-3.18-0.12-3.28,1.31c-1.53,10.28-0.22,23.4-0.65,34.77
				c0.98-0.11,2.42,0.23,2.62-0.66c3.2-0.3,6.05-0.95,8.53-1.97c0.87,0,1.75,0,2.62,0c0,0.66-0.53,0.78-0.66,1.31
				c-4.26,0.55-8.17,1.46-11.81,2.63c-3.15,1.18-2.37-0.92-5.91-0.66c-4.61-1.3-10.92-0.89-15.09-2.62c-0.99,1.06-0.99,4.84,0,5.9
				c-0.52,2.71,0.29,4.08,1.97,4.59c-0.87,0-1.75,0-2.62,0c-1.81-2.13,0.53-8.41-1.31-10.5c0.12-0.97,1.59-0.6,2.62-0.66
				c0.78,0.75,2.32,0.74,3.94,0.66c3.58,1.44,8.9,1.16,13.12,1.97c1.52-3.07,0.23-8.96,0.66-13.12c0-3.72,0-7.44,0-11.15
				c0.51-2.06,2.43-11.17-1.31-11.15C125.94,100.06,121.19,99.57,116.1,99.41z"/>
			<path class="st4" d="M130.53,100.72c3.75-0.02,1.82,9.1,1.31,11.15C131.31,108.25,133.11,102.3,130.53,100.72z"/>
			<path class="st0" d="M193.52,103.35c0.15-1.24-0.74-1.45-0.66-2.62c2.06-0.31,1.85,1.65,2.62,2.62c0,0.87,0,1.75,0,2.62
				C192.9,107.02,195.26,103.14,193.52,103.35z"/>
			<path class="st4" d="M95.75,105.31c0.22,0,0.44,0,0.66,0s0.44,0,0.65,0c0,0.22,0,0.44,0,0.66s0,0.44,0,0.66
				c-1.86-0.11,0.55,4.05-1.31,3.94C95.75,108.82,95.75,107.07,95.75,105.31z"/>
			<path class="st0" d="M97.07,106.63c0,6.12,0,12.25,0,18.37c0,5.03,0,10.06,0,15.09c0,4.38,0,8.75,0,13.12
				c-1.97-12.25,0.66-29.09-1.31-41.33c0-0.44,0-0.87,0-1.31C97.61,110.67,95.21,106.52,97.07,106.63z"/>
			<path class="st0" d="M189.58,108.6c-0.1-1.21-2.22-0.4-2.63-1.31c0.12-0.97,1.59-0.6,2.63-0.66c1.01,1.39,4.53,0.28,5.25,1.97
				c-1.31,0-2.62,0-3.94,0C190.45,108.6,190.02,108.6,189.58,108.6z"/>
			<path class="st4" d="M107.56,109.25c0.22,0,0.44,0,0.66,0c-0.43,4.82,0.87,11.37-0.66,15.09c0-4.37,0-8.75,0-13.12
				C107.56,110.56,107.56,109.91,107.56,109.25z"/>
			<path class="st5" d="M59.01,130.25c0.43-4.38-0.86-10.49,0.66-13.78c2.97,0.53,1.81,5.19,6.56,3.94
				c2.03-2.57,5.11-4.07,4.59-9.18c1.08,0.01,0.37,1.82,1.31,1.97c0,1.31,0,2.62,0,3.94c-0.43,3.29,0.86,8.3-0.66,10.5
				c-2.43,0.46-1.13-2.81-2.62-3.28c-4.07,2.38-5.92,6.51-9.84,7.22C59.01,131.12,59.01,130.69,59.01,130.25z"/>
			<path class="st1" d="M106.91,111.22c0.22,0,0.44,0,0.66,0c0,4.37,0,8.75,0,13.12c0,2.41,0,4.81,0,7.22c-0.22,0-0.44,0-0.66,0
				C106.91,124.78,106.91,118,106.91,111.22z"/>
			<path class="st2" d="M138.4,111.22c0.97,0.56,1.41,1.65,1.31,3.28C137.44,114.96,137.36,112.2,138.4,111.22z"/>
			<path class="st3" d="M75.42,119.75c0.22,0,0.44,0,0.66,0c0,5.91,0,11.81,0,17.72c-0.22,0-0.44,0-0.66,0
				C75.42,131.56,75.42,125.65,75.42,119.75z"/>
			<path class="st6" d="M99.04,123.03c0-0.88,0-1.75,0-2.63c4.56-0.62,8.07-0.2,6.56,5.25c-1.47-0.28-0.27-3.23-0.66-4.59
				c-1.75,0-3.5,0-5.25,0C99.59,121.83,99.8,122.92,99.04,123.03z"/>
			<path class="st7" d="M24.89,121.72c8.66-1.4,19.81-0.31,29.53-0.66c0.2,10.95-0.54,22.85,0.66,32.81
				c-2.16-0.03-3.27-1.11-5.91-0.66c-0.22,0-0.44,0-0.66,0c-4.73-1.61-10.18-2.5-16.4-2.62c-0.22,0-0.44,0-0.66,0
				c-3.02-1.59-8.8-0.02-10.5-1.31c-2.22-5.67-2.13-10.88,1.97-14.43c-0.04-1.92-1.5-2.44-2.62-3.28c0-0.66,0-1.31,0-1.97
				c0-0.44,0-0.87,0-1.31c1.21-2.29,2.98-4.02,3.94-6.56C24.46,121.72,24.67,121.72,24.89,121.72z"/>
			<path class="st7" d="M219.76,148.62c3.78-7.89,9.43-16.39,7.87-27.56c12.03,0,24.06,0,36.09,0c1.51,3.63,0.29,7.51,5.25,8.53
				c-0.87,4.16-2.51,7.55-6.56,8.53c-1.03,3.34-0.8,7.94-2.62,10.5c3.52,1.27,2.59,8.32,7.22,6.56c0,2.41,0,4.81,0,7.22
				c0,0.22,0,0.44,0,0.66c-1.68,1.39-2.42,3.7-3.28,5.9c0.77,2.51,3.4,3.16,2.62,7.22c-0.13,2.86-1.6,5.6-3.28,8.53
				c-0.22,0-0.44,0-0.66,0c-5.85-2.02-12.26-3.49-19.68-3.94c-0.22,0-0.44,0-0.66,0c-2.42-1.08-6.17-0.83-9.19-1.31
				c-2.1-0.74-4.35-1.34-7.22-1.31c-0.91-1.72-5.57,0.32-6.56-1.31c1.24-6.64,3.44-12.31,2.63-21
				C223.22,153.53,220.08,151.2,219.76,148.62z"/>
			<path class="st8" d="M97.07,125c0.22,0,0.44,0,0.66,0c0,2.19,0,4.37,0,6.56c0,2.84,0,5.69,0,8.53c-0.22,0-0.44,0-0.66,0
				C97.07,135.06,97.07,130.03,97.07,125z"/>
			<path class="st1" d="M72.79,129.59c0,7.22,0,14.43,0,21.65C71.7,145.55,71.7,135.28,72.79,129.59z"/>
			<path class="st9" d="M97.72,131.56c1.53,4.38,0.22,11.59,0.66,17.06c-0.11,0.98,0.23,2.42-0.66,2.63c0-3.72,0-7.44,0-11.16
				C97.72,137.25,97.72,134.4,97.72,131.56z"/>
			<path class="st1" d="M55.73,133.53c0.22,0,0.44,0,0.65,0c0,6.12,0,12.25,0,18.37c-0.76-0.11-0.71-1.04-0.65-1.97
				C55.73,144.46,55.73,139,55.73,133.53z"/>
			<path class="st6" d="M99.04,133.53c1.52,4.16,0.22,11.15,0.66,16.4c-0.22,0-0.44,0-0.66,0c0-0.44,0-0.88,0-1.31
				C99.04,143.59,99.04,138.56,99.04,133.53z"/>
			<path class="st0" d="M131.18,142.06c1.29-0.2,1.3,0.89,1.97,1.31c0,0.88,0,1.75,0,2.63c0,0.66,0.53,0.78,0.65,1.31
				c-4.16,1.14-10.05-0.6-13.78-1.97c1.53,0,3.06,0,4.59,0c1.37,1.03,4.36,0.46,5.9,1.31C132,146.37,130.79,143.42,131.18,142.06z"
				/>
			<path class="st1" d="M58.36,145.34c1.09,2.21,1.09,8.95,0,11.16C58.36,152.77,58.36,149.06,58.36,145.34z"/>
			<path class="st10" d="M99.04,149.93c0.22,0,0.44,0,0.66,0c0,0.22,0,0.44,0,0.66c0,2.62,0,5.25,0,7.87c-0.22,0-0.44,0-0.66,0
				C99.04,155.62,99.04,152.77,99.04,149.93z"/>
			<path class="st0" d="M166.62,150.59c0.87,0,1.75,0,2.62,0C171.11,152.36,166.34,153.38,166.62,150.59z"/>
			<path class="st2" d="M205.98,150.59c1.93,3.76,1.61,9.76,6.56,10.5c-0.03,1.13,0.51,1.68,1.31,1.97
				c-1.21,4.25-0.31,10.63-1.31,15.09c-10.21-2.26-22.22-2.71-32.15-5.25c1.17-3.42,1.39-7.8,1.31-12.47
				c1.1-1.09,0.52-3.85,0.66-5.91c4.97-1.41,9.13,1.5,12.47,1.31C200,155.54,201.15,151.98,205.98,150.59z"/>
			<path class="st1" d="M72.79,151.9c0,0.22,0,0.44,0,0.66c0,3.28,0,6.56,0,9.84C71.7,160.41,71.7,153.89,72.79,151.9z"/>
			<path class="st0" d="M42.61,157.15c-4.56,4.85-14.33,4.48-20.34,7.87c0.15-3.01,5.38-2.85,8.53-3.94
				C34.74,159.73,38.74,157.28,42.61,157.15z"/>
			<path class="st0" d="M52.45,157.8c-8.35,5.87-21.61,6.82-32.15,10.5C29.98,163.77,41.39,160.96,52.45,157.8z"/>
			<path class="st0" d="M55.08,159.77c-3.01,3.55-9.15,3.98-14.43,5.25C44.22,162.04,50.06,161.32,55.08,159.77z"/>
			<path class="st0" d="M54.42,162.4c1.52,2.86-4.68,3.61-7.87,3.94C47.36,163.21,52.32,164.23,54.42,162.4z"/>
			<path class="st2" d="M165.31,165.68c0,1.97,0,3.94,0,5.91C164.47,173.43,164.04,165.93,165.31,165.68z"/>
			<path class="st0" d="M41.95,166.99c-4.79,2.86-11.26,4.05-17.06,5.91C29.39,169.74,35.92,168.61,41.95,166.99z"/>
			<path class="st0" d="M54.42,166.99c-2.52,3.17-8.53,2.85-12.47,4.59C45.25,169.2,49.46,167.71,54.42,166.99z"/>
			<path class="st4" d="M131.18,176.83c-0.42,2.64,0.85,6.98-0.66,8.53C130.95,182.72,129.68,178.38,131.18,176.83z"/>
			<path class="st0" d="M152.84,189.3c7.3-6.04,17.56-9.12,27.56-12.47C173.51,183.29,162.01,185.13,152.84,189.3z"/>
			<path class="st0" d="M163.33,189.3c-0.77,0.1-1.86-0.11-1.97,0.66c-1.09,0-2.19,0-3.28,0c7.84-5.28,17.06-9.18,27.56-11.81
				C180.53,184.19,170.01,184.82,163.33,189.3z"/>
			<path class="st3" d="M104.28,187.99c0.43-2.86-0.85-7.42,0.66-9.19c0,3.06,0,6.12,0,9.19
				C104.72,187.99,104.5,187.99,104.28,187.99z"/>
			<path class="st0" d="M169.24,189.3c7.07-4.08,13.51-8.8,22.96-10.5C186.19,183.94,177.64,186.54,169.24,189.3z"/>
			<path class="st0" d="M197.45,179.46c2.13,2.89-7.37,4.65-11.15,5.9C188.67,182.04,194.16,181.85,197.45,179.46z"/>
			<path class="st6" d="M232.88,179.46c3.01,0.48,6.77,0.23,9.19,1.31c-1.97,0-3.94,0-5.9,0c-0.76-0.55-1.76-0.86-3.28-0.66
				C232.88,179.89,232.88,179.67,232.88,179.46z"/>
			<path class="st0" d="M30.8,181.42c0.47-1.78-3.09,0.47-2.62-1.31c2.88-0.04,5.42,0.27,7.22,1.31c-1.09,0-2.19,0-3.28,0
				C31.67,181.42,31.24,181.42,30.8,181.42z"/>
			<path class="st0" d="M83.29,182.08c0.1-0.77-0.11-1.86,0.66-1.97c0.15,0.51,0.02,1.3,0.65,1.31c0,2.84,0,5.69,0,8.53
				C82.67,188.82,85.22,183.21,83.29,182.08z"/>
			<path class="st11" d="M38.02,182.74c1.53,0,3.06,0,4.59,0c0.77,0.1,1.86-0.11,1.97,0.66C42.58,182.98,38.93,184.23,38.02,182.74z
				"/>
			<path class="st3" d="M52.45,186.67c0.22,0,0.44,0,0.66,0c-0.42,2.42,0.85,6.54-0.66,7.87C52.45,191.92,52.45,189.3,52.45,186.67z
				"/>
			<path class="st8" d="M114.78,189.95c10.72-1.09,26.02-1.09,36.74,0C139.28,189.95,127.03,189.95,114.78,189.95z"/>
			<path class="st8" d="M179.08,189.95c2.64-1.09,9.83-1.09,12.47,0C187.39,189.95,183.24,189.95,179.08,189.95z"/>
			<path class="st8" d="M202.7,189.95c16.84-1.09,38.27-1.09,55.11,0C239.45,189.95,221.07,189.95,202.7,189.95z"/>
			<path class="st10" d="M235.51,120.41c8.31-1.53,19.46-0.22,28.87-0.66c0.61,1.75,3.23,3.66,1.31,5.91
				c0.51,1.89,3.17,1.64,4.59,2.62c0,1.31,0,2.63,0,3.94c-0.53,0.13-0.66,0.66-1.31,0.66c0.55-0.76,0.87-1.76,0.66-3.28
				c-0.82-1.59-2.69-2.12-4.59-2.62c0.9-2.85,0.53-4.38-0.66-6.56C254.76,120.41,245.13,120.41,235.51,120.41z"/>
			<path class="st10" d="M156.77,92.85c1.74,0.01,3.75-0.25,4.59,0.66c-0.43,3.29,0.86,8.3-0.66,10.5
				c-0.43-3.29,0.86-8.29-0.66-10.5C159.1,93.15,156.66,94.27,156.77,92.85z"/>
			<path class="st10" d="M152.84,75.13c-2.42-2.31-12.97-0.04-14.43-5.25c-7.3,2.94-12.63-10.11-22.96-1.97c0,1.31,0,2.63,0,3.94
				c-1.16,1.24-0.48,4.33-0.65,6.56c-0.22,0-0.44,0-0.66,0c-0.14-4.52,0.31-8.44,1.31-11.81c8.94-5.73,15.32,2.96,22.31,2.63
				c3.07,3.61,10.91,4.05,15.09,4.59c2.47,4.52-1.93,15.92,2.62,18.37C149.84,91.25,154.23,80.3,152.84,75.13z"/>
			<path class="st10" d="M97.72,108.6c1.52,2.42,0.23,7.65,0.66,11.15c0.46,0.63,4.78-0.43,7.22,0c1.22,1.41,0.45,4.81,0.66,7.22
				c-0.22,0-0.44,0-0.66,0c0-0.44,0-0.88,0-1.31c1.51-5.45-2-5.87-6.56-5.25c0,0.88,0,1.75,0,2.63c0,3.5,0,7,0,10.5
				c0,5.03,0,10.06,0,15.09c-0.22,0-0.44,0-0.66,0c-0.43-5.47,0.87-12.68-0.66-17.06c0-2.19,0-4.37,0-6.56
				C97.72,119.53,97.72,114.06,97.72,108.6z"/>
			<path class="st10" d="M73.45,91.54c1.63-2.01,4.08,0.69,4.59,1.97c2.75,0.13,2.03-3.22,5.25-2.62c1.12,0.63,1.32,2.18,2.62,2.62
				c3.87-0.07,3.22-4.65,5.25-6.56c3.31-0.46,4.51,1.18,6.56,1.97c0,5.69,0,11.37,0,17.06c-0.22,0-0.44,0-0.66,0
				c0-0.22,0-0.44,0-0.66c-0.81-4.87,1.67-13.04-1.31-15.75c-0.56-1.41-1.62-2.32-3.93-1.97c-2.2,1.95-2.13,6.18-5.25,7.22
				c-2.3,0.11-2.07-2.31-3.28-3.28c-2.83,0.01-2.42,3.27-5.25,3.28c0.05-2.23-1.93-2.44-3.28-3.28
				C74.32,91.54,73.88,91.54,73.45,91.54z"/>
			<path class="st10" d="M20.3,129.59c-2.54-15.22,23.35-7.7,35.43-10.5c0.22,0,0.44,0,0.65,0c0,0.44,0,0.88,0,1.31
				c-1.52,3.07-0.22,8.96-0.65,13.12c0,5.47,0,10.94,0,16.4c-1.2-3.74-0.66-8.69-0.66-14.43c0-2.95,1.88-13.22,0-15.09
				c-1.2-1.2-26.13-0.35-28.21,0c-0.61,0.1-1.74,0.74-1.97,1.31c-0.22,0-0.44,0-0.66,0c-1.64,1.86-3.81,3.19-3.94,6.56
				C20.3,128.72,20.3,129.15,20.3,129.59z"/>
			<path class="st10" d="M20.3,132.87c0.86,0.23,1.03,1.16,1.97,1.31c-1.06,2.44-2.59,4.41-3.94,6.56c0.36-2.7,2.05-4.07,3.28-5.91
				C21.38,133.98,20.46,133.81,20.3,132.87z"/>
			<path class="st10" d="M18.33,141.4c-0.05,2.67,2.14,3.11,1.31,6.56c-0.73-2.11-1.37-4.32-1.97-6.56
				C17.89,141.4,18.11,141.4,18.33,141.4z"/>
			<path class="st12" d="M115.44,71.85c0-1.31,0-2.63,0-3.94c10.34-8.14,15.66,4.91,22.96,1.97c1.46,5.21,12.02,2.94,14.43,5.25
				c-3.75,1.06-1.23,8.39-1.97,12.47c0.01,1.74-0.25,3.75,0.66,4.59c0,0.22,0,0.44,0,0.66c-0.2,0.89-1.64,0.55-2.62,0.66
				c-5.25,1.1-10.72,1.97-15.75,3.28c-0.53-0.13-0.65-0.66-1.31-0.66c0-0.22,0-0.44,0-0.66c0-1.09,0-2.19,0-3.28
				c1.5-1.12,0.24-5.01,0.66-7.22c1.09-1.99,1.09-8.51,0-10.5c0.1-1.63,0.12-3.18-1.31-3.28c-1.46,0.28-0.27,3.24-0.66,4.59
				c-1.51,1.34-0.24,5.45-0.66,7.87c0.43,3.73-0.86,9.17,0.66,11.81c0.11,1.42-2.33,0.3-3.28,0.66c-0.87,0-1.75,0-2.62,0
				c-1.75,0-3.5,0-5.25,0c-0.2-0.89-1.64-0.54-2.62-0.66c0-4.81,0-9.62,0-14.43c1.09-1.13,1.09-6.74,0-7.87
				C116.46,72.58,116.18,71.99,115.44,71.85z"/>
			<path class="st4" d="M114.78,78.42c0.18-2.23-0.51-5.32,0.65-6.56c0.74,0.14,1.02,0.73,1.31,1.31c-0.58-0.4-1.17-0.79-1.31,0
				c-0.43,3.29,0.86,8.29-0.65,10.5C114.78,81.91,114.78,80.16,114.78,78.42z"/>
			<path class="st8" d="M115.44,73.17c0.14-0.79,0.73-0.4,1.31,0c0,2.63,0,5.25,0,7.87c0,4.81,0,9.62,0,14.43
				c0.98,0.11,2.42-0.23,2.62,0.66c-1.52,0.21-2.52-0.1-3.28-0.66C115.66,88.25,116.97,79.29,115.44,73.17z"/>
			<path class="st4" d="M108.22,96.13c0.34-2.29,4.29-0.96,6.56-1.31c0-2.41,0-4.81,0-7.22c0-0.22,0-0.44,0-0.66
				c2.31,1.51-1.2,8.91,1.31,8.53c0.76,0.55,1.76,0.87,3.28,0.66c1.75,0,3.5,0,5.25,0c-0.51,2.3,5.41,1.53,5.9,0.66
				c-0.95-0.36-3.39,0.77-3.28-0.66c0.95-0.36,3.39,0.77,3.28-0.66c0.44,0,0.88,0,1.31,0c0,0.22,0,0.44,0,0.66c0,0.44,0,0.88,0,1.31
				c-4.59,1.93-10.28-1.18-15.09,0.66c-6.92-0.02-5.62,0.25-0.66,1.31c-2.54,0.13-4.84,0.02-6.56-0.66c2.44,5.85-3.21,27.39,0,32.81
				c1.43,2.4,3.94,0.38,4.59,1.97c-1.04,0.06-2.5-0.31-2.62,0.66c1.85,2.09-0.49,8.37,1.31,10.5c-0.58-0.29-1.17-0.58-1.31-1.31
				c-0.81-3.34,2.36-10.67-3.28-9.18c0-0.22,0-0.44,0-0.66c1.66-7.82,0.13-23.72,0.66-34.77c0.53-0.57,1.8-0.39,1.97-1.31
				c1.75,0,3.5,0,5.25,0c-0.08-1.68-2.2-1.3-3.94-1.31c-0.27-1.46-3.6-0.63-3.28,0.66c-0.22,0-0.44,0-0.66,0
				C108.22,96.57,108.22,96.35,108.22,96.13z"/>
			<path class="st0" d="M181.05,89.57c2.96-4.19,8.3-8.97,15.75-6.56c0.12,0.53,0.66,0.66,0.66,1.31
				c-7.3-0.74-11.91,1.22-15.09,4.59c2.08,2.38,3.93,0.37,6.56,0c1.09,1.31-0.06,0.83,0,2.62c0,0.22,0,0.44,0,0.66
				c-1.71,1.38-9.6-0.75-6.56,3.28c-3.18-0.12-3.65,2.48-4.59,4.59c-0.77-0.11-0.55-1.2-0.66-1.97c0.2-1.33,1.32-1.75,1.97-2.62
				c0.44,0,0.88,0,1.31,0C180.19,93.08,180.5,91.2,181.05,89.57z"/>
			<path class="st8" d="M196.8,83.01c2.97,0.97,4.44,3.43,5.91,5.91c0,0.22,0,0.44,0,0.66c-1.81-1.47-2.44-4.12-4.59-5.25
				c-0.22,0-0.44,0-0.66,0C197.46,83.66,196.92,83.54,196.8,83.01z"/>
			<path class="st0" d="M198.11,84.32c2.15,1.13,2.78,3.78,4.59,5.25c0.41,2-0.84,5.65,0.65,6.56c0,0.66,0,1.31,0,1.97
				c-1.49,0.91-0.24,4.57-0.65,6.56c0.15,1.24-0.74,1.45-0.66,2.62c-0.93,0.06-1.86,0.11-1.97-0.66c0.59-1.69,3.53-5.45,0.66-6.56
				c-2.85-0.23-1.26,3.99-2.62,5.25c-1.91-0.5,0.59-5.41-1.31-5.9c-0.22-1.53-0.67-2.83-1.97-3.28c0-0.22,0-0.44,0-0.66
				c0.44,0,0.88,0,1.31,0c0.59,1.16,1.47,2.03,2.63,2.62C203.77,96,200.9,86.49,198.11,84.32z"/>
			<path class="st2" d="M197.45,84.32c0.22,0,0.44,0,0.66,0c2.79,2.17,5.66,11.68,0.66,13.78c-1.16-0.59-2.03-1.47-2.63-2.62
				c0.95-0.35,1.6,2.56,1.97,0.66c1.97,0.66,1.16-1.46,1.31-2.62c-1.79,0.06-1.32-1.09-2.62,0c-0.11-0.77-1.2-0.55-1.97-0.66
				c0-0.22,0-0.44,0-0.66c4.22-1.64-5.22-5.82-4.59-0.66c0.76-0.11,1.17,0.14,1.31,0.66c-1.18,0.08-1.38-0.8-2.62-0.66
				c-0.06-1.79,1.09-1.32,0-2.62c-2.64,0.37-4.48,2.38-6.56,0C185.55,85.54,190.16,83.58,197.45,84.32z"/>
			<path class="st12" d="M97.72,153.87c-0.6,1.65-1.26,4.5,1.31,4.59c0.22,0,0.44,0,0.66,0c0.95,0.8,0.88,2.62,2.62,2.62
				c0.56-0.12,0.62,0.26,0.66,0.66c-2.96,1.44-3.52-5.07-4.59-1.31c-0.95-0.15-0.23-1.96-1.31-1.97c0.3-1.07-3.57-1.07-3.28,0
				c-1.72,1.3-21.92,5.49-12.47,6.56c-0.01,1.96-4.86-0.92-3.94,1.97c-1.24-0.07-0.45-2.17-1.97-1.97
				c-1.47,1.51,1.63,4.03,1.97,5.91c1.4,1.44,1.8,3.88,3.28,5.25c-0.57,2.54,1.6,2.33,1.97,3.94c0,4.81,0,9.62,0,14.43
				c0,4.37,0,8.75,0,13.12c0.39,1.36-0.81,4.31,0.66,4.59c2.59,0.4,0.77-3.6,1.31-5.25c0-3.28,0-6.56,0-9.84
				c1.5-0.91,0.25-4.57,0.66-6.56c0.71-2.57-1.52-8.08,1.31-8.53c1.79-1.06,5.27-0.42,6.56-1.97c3.16-1.55,8.26-4.26,11.81-3.28
				c0,0.66,0,1.31,0,1.97c-1.51,1.77-0.23,6.33-0.66,9.19c0,1.09,0,2.19,0,3.28c-1.09,1.35-1.09,7.19,0,8.53
				c0.29,0.95,0.58-0.07,1.31,0c-2.48,4.12-7.71,4.18-12.47,3.94c-2.3,1.2-2.08,4.92-1.97,8.53c-2.46,3.23-6.01,5.36-10.5,6.56
				c-2.07-2.3-3.24-5.51-5.9-7.22c-3.97,3.85-6.07-1.68-9.84,1.97c-2.97-0.31-3.89-2.67-5.91-3.94c0-0.44,0-0.87,0-1.31
				c0-0.22,0-0.44,0-0.66c1.42,0.11,0.3-2.33,0.66-3.28c6.83,1.58,4.61-5.89,11.81-3.94c-0.33,4.62,4.6,7.02,7.87,5.9
				c2.38-5.95,3.9-18.96,1.31-25.59c-4.14,0.45-7.26,1.92-7.22,6.56c-6.95-1.48-8.2,2.73-11.15,5.25c-0.9-0.85-0.65-2.85-0.66-4.59
				c-3.17-1.69-3.7-2.07-7.22-1.31c0.18,7.63-0.28,16.58,0,22.31c-2.06,0.31-1.85-1.65-2.62-2.62c0.69-0.04,0.51-0.84-0.66-0.66
				c0-0.22,0-0.44,0-0.66c2.07-1.86,1.08-6.79,1.31-10.5c1.51-1.34,0.24-5.45,0.66-7.87c0-1.31,0-2.62,0-3.94
				c1.51-1.55,0.23-5.89,0.66-8.53c1.17-3.64,2.65-6.97,3.94-10.5c1.5-1.12,0.24-5.01,0.66-7.22c1.09-2.21,1.09-8.95,0-11.16
				c0-5.03,0-10.06,0-15.09c0.22,0,0.44,0,0.66,0c0,0.44,0,0.88,0,1.31c0.58,3.12,4.83-0.05,3.94-2.63
				c3.53,0.47,4.59-1.53,5.25-3.94c1.04,1.49,1.77,5.62,4.59,3.28c0,0.44,0,0.88,0,1.31c-1.09,5.69-1.09,15.96,0,21.65
				c0,0.22,0,0.44,0,0.65c-1.09,1.99-1.09,8.51,0,10.5c0.29,0.81,0.84,1.35,1.97,1.31c0.64-0.02,0.51-0.8,0.66-1.31
				c1.53-7,0.22-16.84,0.66-24.93c0-5.91,0-11.81,0-17.72c-0.41-1.99,0.84-5.65-0.66-6.56c0-4.15,0-8.31,0-12.47
				c-0.29-3,0.66-7.23-0.66-9.19c1.35,0.84,3.33,1.05,3.28,3.28c2.83-0.01,2.42-3.27,5.25-3.28c1.21,0.97,0.98,3.39,3.28,3.28
				c3.12-1.03,3.05-5.26,5.25-7.22c2.32-0.35,3.38,0.56,3.93,1.97c-1.09,6.57-1.09,17.71,0,24.28c0,13.34,0,26.68,0,40.02
				c0.58,0.4,1.17,0.79,1.31,0C97.29,153.87,97.5,153.87,97.72,153.87z M79.35,138.12c-2.07-0.97-3.15,3.77-0.65,3.28
				C80.12,141.51,78.99,139.07,79.35,138.12z M80.01,157.15c-0.66,0-1.31,0-1.97,0c0.29,1.24-0.89,3.96,1.31,3.28
				C80.77,160.54,79.65,158.1,80.01,157.15z M86.57,186.02c0.15,1.16-0.66,3.28,1.31,2.62C89.33,188.38,88.76,184.8,86.57,186.02z"
				/>
			<path class="st10" d="M72.79,117.12c0,3.72,0,7.44,0,11.15c-2.82,2.34-3.55-1.79-4.59-3.28c-0.66,2.4-1.72,4.4-5.25,3.94
				c0.89,2.58-3.35,5.75-3.94,2.63c3.92-0.71,5.77-4.84,9.84-7.22c1.49,0.47,0.2,3.74,2.62,3.28c1.52-2.2,0.23-7.21,0.66-10.5
				C72.35,117.12,72.57,117.12,72.79,117.12z"/>
			<path class="st12" d="M58.36,117.48c1.06-3.31,3.41-5.34,5.9-7.22c1.42,0.55,2.24,1.7,4.59,1.31c0.31-2.97,3.1-3.46,3.94-5.91
				c0.22,0,0.44,0,0.66,0c0,0.22,0,0.44,0,0.66c-0.89,0.2-0.54,1.64-0.66,2.62c-1.52,3.29-0.22,9.4-0.65,13.78c0,0.65,0,1.31,0,1.97
				c-3.23,2.02-3.16,7.34-6.56,9.18c-4.06,0.34-2.47-4.97-7.22-3.94c0-0.22,0-0.44,0-0.65C58.36,125.35,58.36,121.41,58.36,117.48z"
				/>
			<path class="st12" d="M73.45,92.19c0-0.22,0-0.44,0-0.66c0.44,0,0.88,0,1.31,0c1.32,1.96,0.37,6.19,0.66,9.19
				c-0.22,0-0.44,0-0.66,0c0-0.22,0-0.44,0-0.66C74.07,97.69,76.25,92.45,73.45,92.19z"/>
			<path class="st13" d="M188.92,91.54c1.24-0.15,1.45,0.74,2.62,0.66c1.09,0,2.19,0,3.28,0c0,0.22,0,0.44,0,0.66
				c-4.21-0.16-7.89-0.55-3.28,1.31c-2.21,0.42-6.1-0.84-7.22,0.66c0.76-0.11,1.17,0.14,1.31,0.65c-1.1,0-2.19,0-3.28,0
				c-3.04-4.03,4.85-1.9,6.56-3.28C188.92,91.98,188.92,91.75,188.92,91.54z"/>
			<path class="st4" d="M73.45,92.19c2.8,0.26,0.62,5.5,1.31,7.87c-2.1-13.45-0.26-2.51-1.97,3.94c0-3.06,0-6.12,0-9.18
				C72.9,93.83,72.56,92.4,73.45,92.19z"/>
			<path class="st4" d="M75.42,162.4c-0.15,0.51-0.02,1.29-0.66,1.31c-1.13,0.04-1.68-0.51-1.97-1.31c0-3.28,0-6.56,0-9.84
				c0.22,0,0.44,0,0.66,0c0,3.5,0,7,0,10.5C74.51,163.24,74.58,162.43,75.42,162.4z"/>
			<path class="st0" d="M151.53,92.85c1.31,0,2.62,0,3.94,0c0.44,0,0.88,0,1.31,0c-0.11,1.42,2.33,0.3,3.28,0.66
				c0,4.37,0,8.75,0,13.12c-1.45,0.08-0.28,2.78-0.66,3.94c-0.53-0.12-0.65-0.66-1.31-0.66c0.12-0.56-0.26-0.62-0.66-0.66
				c1.84-0.56,1.26-3.55,1.31-5.9c0-1.09,0-2.19,0-3.28c1.42,0.11,0.3-2.33,0.66-3.28c0.11-1.08-4.04-1.08-3.94,0
				c-0.22,0-0.44,0-0.66,0c-0.93,0.05-1.86,0.11-1.97-0.66c2.04-0.36,4.28-0.54,5.91-1.31c-1.13-1.09-6.74-1.09-7.87,0
				c-1.74,0.01-3.75-0.25-4.59,0.65c-3.49-0.58,2.55-0.82,2.63-1.97C149.88,93.39,151.32,93.74,151.53,92.85z"/>
			<path class="st8" d="M150.87,94.82c1.13-1.09,6.74-1.09,7.87,0c-1.63,0.78-3.86,0.95-5.91,1.31
				C155.03,94.79,153.36,94.71,150.87,94.82z"/>
			<path class="st12" d="M150.87,94.82c2.49-0.1,4.16-0.02,1.97,1.31c-4.7-0.33-6.96,1.79-11.81,1.31c0.71-1.69,4.24-0.57,5.25-1.97
				C147.12,94.57,149.12,94.82,150.87,94.82z"/>
			<path class="st12" d="M110.85,97.44c-0.44,0-0.87,0-1.31,0c0.16-1.15,1.13-1.49,2.63-1.31c1.74,0.01,3.86-0.36,3.94,1.31
				C114.34,97.44,112.59,97.44,110.85,97.44z"/>
			<path class="st10" d="M192.2,96.13c0.44,0,0.88,0,1.31,0c1.22,1.41-1.21,3.15-3.94,2.63c-0.22,0-0.44,0-0.66,0
				c0-0.22,0-0.44,0-0.66C191.15,98.41,193.9,97.82,192.2,96.13z"/>
			<path class="st8" d="M149.56,121.06c-1.35-1.72-2.41-7.28,0.65-7.87C148.14,115.34,149.54,117.68,149.56,121.06z"/>
			<path class="st3" d="M158.09,130.9c-1.63-2.08-3.13-4.3-4.59-6.56c2.66,1.05,3.22,4.21,5.25,5.9
				C158.86,130.81,158.49,130.87,158.09,130.9z"/>
			<path class="st4" d="M133.81,101.38c1.94,9.9-2.61,25.02,0,33.46c0.23,0.73,1.1,0.58,1.97,0.66c-0.2,0.89-1.64,0.54-2.62,0.66
				C133.59,124.78,132.28,111.66,133.81,101.38z"/>
			<path class="st9" d="M181.71,100.72c3.72,0,7.44,0,11.15,0c0.24-1.12-0.51-1.24-1.31-1.31c-0.93,0.06-1.86,0.11-1.97-0.66
				c2.72,0.53,5.15-1.21,3.94-2.63c0.44,0,0.88,0,1.31,0c1.3,0.46,1.75,1.75,1.97,3.28c0,1.75,0,3.5,0,5.25
				c-0.71-0.16-0.44-1.3-1.31-1.31c-0.77-0.97-0.57-2.93-2.62-2.62c-0.08,1.18,0.81,1.38,0.66,2.62c-0.68,3.09,1.51,3.3,2.62,4.59
				c-0.53,0.13-0.65,0.66-1.31,0.66c-0.72-1.69-4.24-0.57-5.25-1.97c-1.52-1.47-6.18-0.53-7.87,0c-0.22,0-0.44,0-0.66,0
				c-0.43-1.76-1.88-2.49-2.62-3.93c-0.06-0.93-0.11-1.86,0.65-1.97C179.96,100.72,180.83,100.72,181.71,100.72z"/>
			<path class="st12" d="M133.15,96.79c0.12,0.53,0.66,0.65,0.65,1.31c1.73-0.68,4.03-0.78,6.56-0.66
				c-1.37,1.04-3.45,1.36-5.91,1.31c-1.09,0-2.19,0-3.28,0c0.13-0.53,0.66-0.65,0.66-1.31c0-0.44,0-0.87,0-1.31
				C132.5,96.13,132.62,96.66,133.15,96.79z"/>
			<path class="st4" d="M128.56,136.81c3.54-0.27,2.75,1.83,5.91,0.66c-2.59,0.28-2.21,3.91-1.31,5.9
				c-0.67-0.43-0.68-1.51-1.97-1.31c0-1.31,0-2.62,0-3.94C131.65,136.34,128.09,138.59,128.56,136.81z"/>
			<path class="st8" d="M113.47,140.09c-0.99-1.06-0.99-4.84,0-5.9c4.17,1.73,10.48,1.33,15.09,2.62c-0.47,1.78,3.1-0.47,2.62,1.31
				c0,1.31,0,2.62,0,3.94c-0.39,1.36,0.81,4.31-0.66,4.59c-1.55-0.86-4.53-0.28-5.9-1.31c-2.95-1.21-7.79-0.52-10.5-1.97
				C113.77,142.42,114.89,139.98,113.47,140.09z"/>
			<path class="st4" d="M113.47,140.09c1.42-0.11,0.3,2.33,0.66,3.28c2.7,1.45,7.55,0.76,10.5,1.97c-1.53,0-3.06,0-4.59,0
				c-1.74-0.01-3.75,0.25-4.59-0.66C113.76,144.17,112.95,142.8,113.47,140.09z"/>
			<path class="st4" d="M118.06,134.19c4.51-1.61,9.91,3.39,12.47,1.31c2.91-2.37-1.3-8.35,1.31-12.47
				c-0.43,4.16,0.86,10.05-0.66,13.12C126.97,135.34,121.65,135.63,118.06,134.19z"/>
			<path class="st0" d="M140.37,99.41c-0.66,0-1.31,0-1.97,0c-1.17-0.37,5.08-2.28,5.91-0.66
				C142.69,98.67,141.15,98.65,140.37,99.41z"/>
			<path class="st3" d="M192.2,96.13c-4.33,0.05-9.06-0.31-12.47,0.66c-0.06,0.93-0.11,1.86,0.66,1.97
				c-0.43,0.67-1.51,0.68-1.31,1.97c-0.76,0.11-0.71,1.04-0.65,1.97c-1.35-0.18-0.16-2.91-1.97-2.63c0.1-0.77-0.11-1.86,0.65-1.97
				c0.1,0.77-0.11,1.86,0.66,1.97c0.95-2.12,1.42-4.71,4.59-4.59c1.09,0,2.19,0,3.28,0c1.31-1.09,4.87,0.06,5.9-1.31
				c0.66,0,1.31,0,1.97,0c-0.94,1.15-0.6,1.49,1.31,1.31c0,0.22,0,0.44,0,0.66c-0.44,0-0.87,0-1.31,0
				C193.08,96.13,192.64,96.13,192.2,96.13z"/>
			<path class="st1" d="M181.71,100.72c1.78-1.94,8.07,0.63,9.84-1.31c0.8,0.07,1.55,0.2,1.31,1.31
				C189.14,100.72,185.43,100.72,181.71,100.72z"/>
			<path class="st0" d="M181.71,106.63c0,0.22,0,0.44,0,0.66c2.07,0.32,2.32-1.18,4.59-0.66c0.19,1.14-2.09,3.52,0.65,3.28
				c0.71,0.16,0.45,1.31,1.31,1.31c-0.48,1.17-1.19,0.09-1.97,0c-0.64-0.02-0.51-0.8-0.66-1.31c-1.16,0.16-1.5,1.13-1.31,2.62
				c-0.22,0-0.44,0-0.66,0c-0.04-0.4-0.1-0.78-0.66-0.66c0.13-2.06,2.6-1.78,1.97-4.59c-1.63-0.1-2.03,1.03-3.28,1.31
				c-3.21-1.38-4.66-4.53-5.25-8.53c1.81-0.28,0.62,2.45,1.97,2.63c0.75,1.44,2.2,2.18,2.62,3.93
				C181.27,106.63,181.49,106.63,181.71,106.63z"/>
			<path class="st0" d="M148.24,102.03c0.2,2.61-1.26,3.55-3.94,3.28C143.65,102.25,145.45,101.65,148.24,102.03z"/>
			<path class="st4" d="M140.37,102.69c-0.38,1.15,0.79,3.85-0.66,3.93c-1.56-1.43-2.03-1.17-2.62,1.31
				c-1.88-0.09-1.2-2.74-1.31-4.59C136.62,102.44,138.63,102.7,140.37,102.69z"/>
			<path class="st4" d="M157.43,109.25c-0.96-0.57-2.08-0.98-1.97-2.62c-0.93-0.06-1.86-0.11-1.97,0.66
				c-0.71-0.16-0.45-1.3-1.31-1.31c1.44-1.52-1.68-2.17-0.66-5.25c1.09,0,2.19,0,3.28,0c0.18,1.71,0.23,3.28-1.97,2.62
				c0.02,0.64,0.8,0.51,1.31,0.65c1.04,1.37,3.53,1.29,3.28,3.94c1.47-0.28,0.27-3.23,0.66-4.59c0.22,0,0.44,0,0.66,0
				C158.69,105.7,159.27,108.69,157.43,109.25z"/>
			<path class="st3" d="M196.14,107.94c-1.11-1.29-3.3-1.5-2.62-4.59c1.74-0.21-0.61,3.68,1.97,2.62c0-0.88,0-1.75,0-2.62
				c0.87,0.01,0.6,1.15,1.31,1.31c0-1.75,0-3.5,0-5.25c1.91,0.5-0.59,5.41,1.31,5.9c0.48,1.79-1.3,1.32-1.31,2.62
				C196.58,107.94,196.36,107.94,196.14,107.94z"/>
			<path class="st8" d="M152.18,105.97c0.87,0.01,0.6,1.15,1.31,1.31c-0.48,1.79,1.3,1.32,1.31,2.62c-4.05-2.2-0.13,0.73,0.66,2.62
				c-0.66,0-1.31,0-1.97,0c0.02-0.64,0.8-0.51,1.31-0.66c-0.1-1.21-2.22-0.4-2.62-1.31C152.18,109.03,152.18,107.5,152.18,105.97z"
				/>
			<path class="st6" d="M200.08,106.63c-0.53-0.12-0.66-0.66-1.31-0.66c-0.1,2.51,3.1,1.71,3.28,3.94c-0.5,2.91,2.74,2.07,3.28,3.94
				c-1.24,1.82-1.79,4.33-3.28,5.9c-2.13,0.76-7.14,1.23-9.19,0c0.01-1.3,1.79-0.83,1.31-2.63c1.56-2.38,3.99-3.88,4.59-7.22
				c-2.13,2.03-3.38,4.93-6.56,5.9c-1.89-0.08-4.29,0.36-5.25-0.65c0.21-0.89,1.65-0.54,2.63-0.66c1.35-0.18,1.31-1.75,1.97-2.63
				c1.26,1.22,0.52,1.2,2.62,0.66c0.28-1.37-0.45-1.74-0.66-2.62c-0.74,0.12-0.36,0.66,0,0.66c-0.6,1.78-2.3-0.67-3.28-0.66
				c0.12-0.53,0.66-0.65,0.66-1.31c1.31,0,2.62,0,3.94,0c0.66,0,0.78-0.53,1.31-0.66c0.22,0,0.44,0,0.66,0
				c0.01-1.3,1.79-0.84,1.31-2.62c1.36-1.26-0.23-5.47,2.62-5.25C203.61,101.18,200.67,104.93,200.08,106.63z"/>
			<path class="st4" d="M183.02,111.88c-0.98-0.56-0.95-2.11-1.31-3.28c1.25-0.28,1.65-1.41,3.28-1.31
				C185.61,110.1,183.15,109.82,183.02,111.88z"/>
			<path class="st0" d="M57.7,163.71c-1.29,3.52-2.76,6.86-3.94,10.5c-0.77,0.1-0.56,1.19-0.66,1.97c-1.52,2.2-0.23,7.21-0.66,10.5
				c0,2.62,0,5.25,0,7.87c-0.23,3.71,0.76,8.63-1.31,10.5c0-3.94,0-7.87,0-11.81c0-3.06,0-6.12,0-9.18c0-0.44,0-0.88,0-1.31
				c-10.01-2.9-22.25-3.56-32.81-5.91c11.05-1.87,21.75,2.3,32.15,3.28c2.02-8.05,7.51-16.11,5.9-25.59c0-0.87,0-1.75,0-2.62
				c0-6.12,0-12.25,0-18.37c0-4.37,0-8.75,0-13.12c0-0.44,0-0.87,0-1.31c0-3.5,0-7,0-10.5c1.88,0.09-0.56,4.5,1.31,4.59
				c0,0.66,0,1.31,0,1.97c0,4.81,0,9.62,0,14.43C57.7,140.96,57.7,152.34,57.7,163.71z"/>
			<path class="st4" d="M148.24,108.6c-0.01,1.74,0.25,3.75-0.66,4.59c-0.93-0.06-1.86-0.11-1.97,0.66
				C142.84,112.71,144.28,107.06,148.24,108.6z M146.28,112.53c0.37-1.34,1.98-1.29,0.66-2.62
				C144.69,109.41,144.37,112.41,146.28,112.53z"/>
			<path class="st2" d="M150.21,119.75c0.53-2.28-0.98-2.52-0.65-4.59c2.15-0.91,4.58-1.55,7.87-1.31
				c-0.08,2.76-5.04,0.65-7.22,1.31c-0.32,2.07,1.18,2.32,0.66,4.59C150.65,119.75,150.43,119.75,150.21,119.75z"/>
			<path class="st0" d="M153.49,112.53c0.65,0,1.31,0,1.97,0c-0.79-1.9-4.71-4.82-0.66-2.62c0.99,0.81,4.02,2.92,2.63,3.94
				c-3.3-0.24-5.72,0.4-7.87,1.31c-0.32,2.07,1.18,2.32,0.65,4.59c0.44,3.49,4.84,3.04,5.91,5.91c1.47,2.03,3.22,3.77,5.25,5.25
				c0,0.87,0,1.75,0,2.62c-0.95,0.29,0.07,0.58,0,1.31c-0.29,0.95-0.58-0.07-1.31,0c-0.11-1.86,0.56-4.5-1.31-4.59
				c-2.02-1.69-2.59-4.85-5.25-5.9c-1.39-1.01-2.44-2.37-3.94-3.28c-0.01-3.38-1.42-5.72,0.65-7.87
				C151.74,113.4,152.73,113.08,153.49,112.53z"/>
			<path class="st2" d="M186.95,109.91c0.48-0.61,1.2-0.99,1.97-1.31c-0.18,1.71-0.22,3.28,1.97,2.63c-0.01,1.3-1.79,0.83-1.31,2.62
				c-0.99-0.98-2.76-1.17-3.28-2.62c0.78,0.09,1.49,1.17,1.97,0C187.4,111.21,187.67,110.07,186.95,109.91z"/>
			<path class="st2" d="M203.36,110.56c-0.53-0.12-0.65-0.66-1.31-0.66c-0.18-2.23-3.38-1.43-3.28-3.94c0.66,0,0.78,0.53,1.31,0.66
				c0.11,0.77,1.04,0.71,1.97,0.66C201.56,109.3,203.85,108.54,203.36,110.56z"/>
			<path class="st6" d="M158.09,109.91c1.41,2.52,4.77,3.11,5.25,6.56c0.88,2.41,1.55,5.01,1.97,7.87c-1.53,2,1.5,5.03,4.59,4.59
				c-1.02,1.82-2.06,3.63-3.28,5.25c0.76,1.76,1.71-1.71,2.62-1.97c0.53,0.56,1.8,0.39,1.97,1.31c1.68,2.48,4.29,4.03,7.22,5.25
				c0.22,0,0.44,0,0.65,0c2.92,3.92,9.9,7.08,16.4,5.25c-0.06,0.93-0.11,1.86,0.66,1.97c0.54,1.85-0.92,1.7-0.66,3.28
				c1.26,1.2-0.56,2.22-1.31,3.28c-7.33,2.12-17.39-0.97-20.99-6.56c-2.21-3.57-8.04-6.72-7.22-11.16c-0.44,0-0.88,0-1.31,0
				c-1.09,0-2.19,0-3.28,0c0.07-0.74-0.95-1.02,0-1.31c2.11-3.88-3.59-5.58-5.25-7.87c-1.07-2.87-5.46-2.41-5.91-5.91
				c0.22,0,0.44,0,0.66,0c0.53-2.28-0.98-2.52-0.66-4.59c2.18-0.66,7.14,1.45,7.22-1.31c1.39-1.02-1.64-3.13-2.63-3.94
				c-0.01-1.3-1.79-0.83-1.31-2.62c0.11-0.77,1.04-0.71,1.97-0.66c-0.11,1.64,1.01,2.05,1.97,2.62
				C157.83,109.29,158.21,109.35,158.09,109.91z"/>
			<path class="st4" d="M158.09,109.91c0.66,0,0.78,0.53,1.31,0.66c0.38-1.15-0.79-3.86,0.66-3.94c0,0.44,0,0.88,0,1.31
				c-0.62,4.12,3.26,3.74,3.94,6.56c-0.77,0.11-0.56,1.2-0.66,1.97C162.85,113.01,159.5,112.43,158.09,109.91z"/>
			<path class="st4" d="M183.67,112.53c0.22,0,0.44,0,0.66,0c-0.18-1.5,0.16-2.47,1.31-2.62c0.14,0.51,0.02,1.29,0.66,1.31
				c0.52,1.45,2.29,1.64,3.28,2.62c0,0.22,0,0.44,0,0.66c-0.98,0.11-2.42-0.24-2.63,0.66c0.96,1.01,3.36,0.58,5.25,0.65
				c0,0.22,0,0.44,0,0.66c-1.31,0-2.62,0-3.94,0c-1.78-0.47,0.47,3.1-1.31,2.62c0.12-3.97-1.55-0.44-2.62,0
				c-0.29-0.95-0.58,0.07-1.31,0c0.66-0.87,0.62-2.44,1.97-2.62C185.69,114.02,183.36,114.6,183.67,112.53z"/>
			<path class="st13" d="M190.89,108.6c0,0.66-0.53,0.78-0.66,1.31c0.98-0.01,2.68,2.44,3.28,0.66c-0.36,0-0.74-0.53,0-0.66
				c0.21,0.89,0.94,1.25,0.66,2.62c-2.11,0.55-1.36,0.56-2.62-0.66c-0.66,0.87-0.62,2.44-1.97,2.63c0-0.22,0-0.44,0-0.66
				c-0.48-1.79,1.3-1.32,1.31-2.62c-2.19,0.66-2.15-0.91-1.97-2.63c0.22,0,0.44,0,0.66,0C190.02,108.6,190.45,108.6,190.89,108.6z"
				/>
			<path class="st2" d="M192.2,115.81c3.19-0.97,4.43-3.88,6.56-5.9c-0.6,3.33-3.04,4.83-4.59,7.22c-0.22,0-0.44,0-0.66,0
				c-0.02-0.64-0.8-0.51-1.31-0.66C192.2,116.25,192.2,116.03,192.2,115.81z"/>
			<path class="st10" d="M167.27,126.31c0.65,0.88,1.75,1.31,2.62,1.97c0,0.22,0,0.44,0,0.66c-3.09,0.44-6.12-2.59-4.59-4.59
				C166.25,124.71,166.9,125.37,167.27,126.31z"/>
			<path class="st4" d="M179.08,133.53c1.12-1.51,1.02-4.23,1.97-5.9c-0.48,3.23,0.94,4.57,1.97,4.59c0.58,3.06-2.16-0.44-1.97,1.31
				c-0.61-0.37-0.99-1.82-1.31-0.66C179.86,133.43,179.48,133.49,179.08,133.53z"/>
			<path class="st2" d="M184.99,130.25c1.29,0.69,9.22,3.89,13.12,1.97c0.22,0,0.44,0,0.66,0c-2.37,3.76-9.85,2.4-9.84,8.53
				c-1.59-0.82-3.19-1.62-5.25-1.97c0-0.65,0-1.31,0-1.97C185.47,136.08,185.65,131.39,184.99,130.25z"/>
			<path class="st3" d="M192.86,130.9c3.12-0.76,5.37,1.52,7.22,0c-0.29,0.58-0.58,1.17-1.31,1.31c-0.22,0-0.44,0-0.66,0
				C196.88,131.26,193.76,132.19,192.86,130.9z"/>
			<path class="st8" d="M207.95,113.19c1.14,1.13,0.73,4.06-0.66,4.59c-0.92-1.88,2.04-3.58-0.66-3.28c-0.22,0-0.44,0-0.66,0
				c0.28-1.37-0.45-1.74-0.66-2.63C205.73,112.79,207.85,111.98,207.95,113.19z"/>
			<path class="st8" d="M167.27,126.31c0.93,0.06,1.86,0.11,1.97-0.66c1.43-0.12,2.09,0.54,1.97,1.97c-1.16-1.44-2.28-1.9-1.31,0.65
				C169.02,127.62,167.92,127.2,167.27,126.31z"/>
			<path class="st2" d="M205.33,113.84c-0.12,0.56,0.26,0.62,0.66,0.66c0.22,0,0.44,0,0.66,0c-1.08,2.2-1.94,4.62-4.59,5.25
				C203.53,118.18,204.08,115.66,205.33,113.84z"/>
			<path class="st8" d="M193.52,117.12c0.22,0,0.44,0,0.66,0c0.48,1.79-1.3,1.32-1.31,2.63c-1.06,0.19-1.13-0.62-1.97-0.66
				c-0.02-0.64-0.8-0.51-1.31-0.66C190.19,115.96,194.35,120.09,193.52,117.12z"/>
			<path class="st10" d="M220.42,120.41c1.79-0.48,1.32,1.3,2.63,1.31c0,1.53,0,3.06,0,4.59c-0.67,5.45-2.4,9.85-4.59,13.78
				c-0.95,0.37-1.6,1.02-1.97,1.97c-2.85,3.71-8.43,4.7-12.47,7.22c-0.44,0-0.88,0-1.31,0c0.01-2.04,1.55-4.27,0-5.9
				c0-0.22,0-0.44,0-0.66c2.06,1.87,2.77-1.59,5.25-1.31c0,0.88,0,1.75,0,2.63c0.61-0.7,2.42-0.2,1.97-1.97
				c1.49-0.7,0.25-4.12,0.66-5.9c0.89,0.2,0.54,1.64,0.66,2.62c6.39-2.57,7.88-10.05,10.5-16.4
				C221.5,121.51,220.57,121.34,220.42,120.41z"/>
			<path class="st10" d="M207.95,134.19c0.12-2.53-0.82-9.53,1.97-7.22c-0.56-0.12-0.62,0.26-0.66,0.66
				c-1.49,0.7-0.25,4.12-0.66,5.9c0,0.22,0,0.44,0,0.66C208.39,134.19,208.17,134.19,207.95,134.19z"/>
			<path class="st5" d="M209.92,117.78c0.77-0.11,0.55-1.2,0.66-1.97c2.07-0.32,2.32,1.18,4.59,0.66c2.59,0.25,3.56,2.12,5.25,3.28
				c0,0.22,0,0.44,0,0.66c0.16,0.94,1.08,1.11,1.31,1.97c-2.62,6.35-4.11,13.83-10.5,16.4c-0.11-0.98,0.23-2.42-0.66-2.62
				c-0.29-3,0.66-7.22-0.66-9.19c-2.79-2.31-1.85,4.69-1.97,7.22c0,2.19,0,4.37,0,6.56c0,0.22,0,0.44,0,0.66
				c-2.48-0.28-3.19,3.18-5.25,1.31c-0.76-2.3-2.83-3.29-3.28-5.9c1.04-0.05,2.5,0.31,2.62-0.66c0.47-1.78-3.09,0.47-2.62-1.31
				c4.43-4.98,6.92-11.89,13.12-15.09C212.75,118.01,208.87,120.36,209.92,117.78z"/>
			<path class="st5" d="M200.08,130.9c-1.85,1.52-4.1-0.76-7.22,0c-2.11,0.14-2.78-1.16-5.25-0.66c-0.05-4.65,1.09-8.09,1.97-11.81
				c0.51,0.15,1.29,0.02,1.31,0.66c-1.01,3.19,2.4,1.97,3.28,3.28c-2.35,1.03,7.6,1.03,5.25,0c0.41-1.34,3.32-0.18,2.62-2.62
				c2.65-0.63,3.51-3.05,4.59-5.25c2.69-0.3-0.27,1.4,0.66,3.28C204.89,122.16,204.16,128.21,200.08,130.9z"/>
			<path class="st5" d="M183.02,132.21c-1.03-0.02-2.45-1.36-1.97-4.59c0.36-3.57,1.91-5.96,3.28-8.53c1.07-0.44,2.74-3.97,2.62,0
				C185.26,123.08,185.34,128.85,183.02,132.21z"/>
			<path class="st0" d="M194.17,122.37c-0.87-1.31-4.29-0.09-3.28-3.28c0.84,0.04,0.91,0.84,1.97,0.66c2.04,1.23,7.05,0.76,9.19,0
				c0.69,2.44-2.21,1.29-2.62,2.62C197.67,122.37,195.92,122.37,194.17,122.37z"/>
			<path class="st6" d="M24.89,121.72c0.23-0.57,1.36-1.21,1.97-1.31c2.09-0.35,27.01-1.2,28.21,0c1.88,1.87,0,12.14,0,15.09
				c0,5.74-0.54,10.69,0.66,14.43c-0.06,0.93-0.11,1.86,0.65,1.97c0,0.88,0,1.75,0,2.62c-2.69-0.15-5.36-0.32-7.22-1.31
				c2.64-0.45,3.75,0.63,5.91,0.66c-1.2-9.96-0.45-21.85-0.66-32.81C44.7,121.4,33.55,120.32,24.89,121.72z"/>
			<path class="st6" d="M166.62,121.06c3.35-1.24,8.76-0.43,13.12-0.66c-1.4,4.72-2.37,9.87-5.25,13.12
				c-1.74-0.66-3.73-1.08-3.94-3.28c0.56,0.12,0.62-0.26,0.66-0.66c1.21,0.98,1.64,2.74,3.28,3.28c2.15-3.1,2.65-7.84,4.59-11.15
				c-2.42-1.52-7.64-0.23-11.15-0.66c-0.48,3.75,7.17,4.91,3.28,7.87c0-0.44,0-0.88,0-1.31c0.12-1.43-0.54-2.09-1.97-1.97
				c-0.97-0.34-1.66-0.97-2.62-1.31C166.62,123.25,166.62,122.16,166.62,121.06z"/>
			<path class="st8" d="M223.04,126.31c0-1.53,0-3.06,0-4.59c-1.3-0.01-0.83-1.79-2.63-1.31c0-0.22,0-0.44,0-0.66
				c1.06-0.18,1.13,0.62,1.97,0.66c0.28-2.24-1.97-1.97-2.63-3.28c2.57,0.94,4.31,2.69,5.25,5.25c0,0.22,0,0.44,0,0.66
				C222.77,119.41,224.64,125.58,223.04,126.31z"/>
			<path class="st6" d="M226.98,123.69c0-1.1,0-2.19,0-3.28c2.41,0,4.81,0,7.22,0c0.44,0,0.87,0,1.31,0c9.62,0,19.25,0,28.87,0
				c1.18,2.18,1.55,3.71,0.66,6.56c1.9,0.5,3.77,1.04,4.59,2.62c0.21,1.52-0.11,2.52-0.66,3.28c0,0.22,0,0.44,0,0.66
				c-1.64,3.61-6.73,3.77-6.56,9.19c0,0.22,0,0.44,0,0.66c-1.29,1.12-0.21,4.6-1.97,5.25c1.3,1.32,2.61,2.64,3.94,3.94
				c-1.16,3.34,3.47,0.9,3.28,3.28c-0.41,1.99,0.84,5.65-0.66,6.56c0-2.41,0-4.81,0-7.22c-4.63,1.76-3.7-5.3-7.22-6.56
				c1.82-2.55,1.59-7.16,2.62-10.5c4.05-0.98,5.69-4.37,6.56-8.53c-4.96-1.02-3.74-4.9-5.25-8.53c-12.03,0-24.06,0-36.09,0
				c1.56,11.16-4.09,19.67-7.87,27.56c-0.08-1.18,0.8-1.39,0.66-2.62c0.97-2.75,3.03-4.4,3.28-7.87c1.55-1.73,2.16-4.4,2.62-7.22
				C226.96,129.02,228.5,125.69,226.98,123.69z"/>
			<path class="st6" d="M48.51,153.21c-5.59-0.75-11.23-1.46-16.4-2.62C38.33,150.71,43.79,151.6,48.51,153.21z"/>
			<path class="st6" d="M20.3,131.56c1.12,0.84,2.58,1.36,2.62,3.28c-4.09,3.55-4.19,8.76-1.97,14.43c1.69,1.3,7.47-0.28,10.5,1.31
				c-5.54-0.43-9.69,1.06-11.81-1.97c0-0.22,0-0.44,0-0.66c0.83-3.45-1.36-3.89-1.31-6.56c0-0.22,0-0.44,0-0.66
				c1.35-2.15,2.88-4.12,3.94-6.56c-0.94-0.16-1.1-1.08-1.97-1.31C20.3,132.44,20.3,132,20.3,131.56z"/>
			<path class="st6" d="M20.3,128.28c0.13-3.37,2.3-4.7,3.94-6.56C23.28,124.26,21.51,125.99,20.3,128.28z"/>
			<path class="st7" d="M111.5,143.37c0.14,0.74,0.73,1.02,1.31,1.31c0.87,0,1.75,0,2.62,0c0.85,0.9,2.85,0.65,4.59,0.66
				c3.73,1.37,9.61,3.11,13.78,1.97c-0.12,0.56,0.26,0.62,0.66,0.66c3.67,0.6,9.4-2.4,13.78-3.28c0.22,0,0.44,0,0.66,0
				c4.92,0.55,7.53-1.22,9.18-3.94c-0.41-1.78,0.83-5.21-0.66-5.91c0-0.88,0-1.75,0-2.63c3.56-2.39,0.41,6.81,5.9,4.59
				c0.56-0.12,0.62,0.26,0.66,0.66c0.36,3.36,3.23,4.2,3.93,7.22c-4.64,0.06-7.47,4.32-5.25,9.19c-2.96,2.09-10.15,3.4-10.5,5.9
				c0,0.22,0,0.44,0,0.66c-3.4-0.44-3.74-1.41-7.22-0.66c-4.71,0.12-8.6-0.58-12.47-1.31c-0.19-2.53-5.41,0.85-7.22-1.31
				c-7.11-2.29-13.5,1.81-19.03,3.28c-0.86,0.67-2.42,0.64-3.28,1.31c-0.04-0.4-0.1-0.78-0.66-0.66c-2.68-1.69-1.28-7.47-2.62-10.5
				c0-0.22,0-0.44,0-0.66c-0.43-5.25,0.87-12.24-0.66-16.4c0-3.5,0-7,0-10.5c0.77-0.11,0.55-1.2,0.66-1.97c1.75,0,3.5,0,5.25,0
				c0.39,1.36-0.81,4.31,0.66,4.59c0,0.44,0,0.87,0,1.31c-0.18,4.33,0.19,8.12,4.59,7.87C110.46,137.85,109.34,142.25,111.5,143.37z
				"/>
			<path class="st6" d="M134.47,147.96c3.39-1.65,7.5-2.56,11.15-3.94c0.2,0.89,1.64,0.54,2.62,0.66
				C143.87,145.56,138.14,148.56,134.47,147.96z"/>
			<path class="st6" d="M148.9,144.68c2.33-1.38,7.22-0.21,7.87-3.28c1.17-1.24,0.48-4.33,0.66-6.56c1.49,0.7,0.25,4.13,0.66,5.91
				C156.43,143.46,153.82,145.23,148.9,144.68z"/>
			<path class="st11" d="M158.09,130.9c0.4-0.04,0.78-0.1,0.66-0.66c1.88,0.09,1.2,2.74,1.31,4.59c0.1,1.44,1.65,1.41,3.28,1.31
				c0,0.22,0,0.44,0,0.66c-5.49,2.21-2.34-6.98-5.9-4.59c-0.22,0-0.44,0-0.66,0c0.13-0.53,0.66-0.65,0.66-1.31
				C157.65,130.9,157.87,130.9,158.09,130.9z"/>
			<path class="st6" d="M152.18,159.77c0.35-2.51,7.54-3.82,10.5-5.9c-2.22-4.87,0.6-9.12,5.25-9.19c-0.7-3.01-3.58-3.86-3.93-7.22
				c1.64,2.21,8.81,7.14,3.28,8.53c-2.86-0.67-3.02,1.35-4.59,1.97c-0.39,2.79,0.47,4.34,0.66,6.56
				C159.31,155.96,155.77,157.9,152.18,159.77z"/>
			<path class="st6" d="M102.32,161.08c-1.75,0-1.67-1.83-2.62-2.62c0-2.62,0-5.25,0-7.87C101.04,153.61,99.64,159.39,102.32,161.08
				z"/>
			<path class="st6" d="M267,163.05c-0.33,2.73-2.53,3.6-2.63,6.56c1.91,1.15,2.87,3.25,2.63,6.56c-0.22,0-0.44,0-0.66,0
				c0.78-4.06-1.85-4.71-2.62-7.22C264.58,166.76,265.33,164.44,267,163.05z"/>
			<path class="st6" d="M257.16,184.05c-4.09-1.81-10.02-1.79-14.43-3.28c7.43,0.45,13.83,1.91,19.68,3.94
				C259.98,185.17,259.59,183.58,257.16,184.05z"/>
			<path class="st6" d="M218.45,172.24c3.65-2.91,1.77-11.35,3.28-16.4c0.81,8.69-1.39,14.36-2.63,21c0.99,1.63,5.65-0.4,6.56,1.31
				c-2.41-0.21-5.81,0.56-7.22-0.66c0-1.09,0-2.19,0-3.28C218.45,173.55,218.45,172.9,218.45,172.24z"/>
			<path class="st0" d="M223.04,126.31c1.6-0.74-0.27-6.9,1.97-3.28c0.51,2.7-1.01,3.37-0.66,5.9c-0.84,4.41-2.84,7.66-4.59,11.15
				c-0.58,0.4-1.17,0.79-1.31,0C220.64,136.16,222.37,131.76,223.04,126.31z"/>
			<path class="st10" d="M226.32,130.9c-0.47,2.82-1.07,5.49-2.62,7.22C224.49,135.63,224.97,132.83,226.32,130.9z"/>
			<path class="st5" d="M223.7,138.12c-0.25,3.47-2.31,5.12-3.28,7.87c-1.34,0.63-1.42,2.52-1.31,4.59
				c-1.96-0.45-2.2-2.61-1.97-5.25c0-0.44,0-0.87,0-1.31c1.72-0.46,1.29-3.08,2.62-3.94c1.75-3.5,3.75-6.74,4.59-11.15
				c1.51-1.11,0.87-4.38,2.62-5.25c1.53,2-0.01,5.33-0.66,7.22C224.97,132.83,224.49,135.63,223.7,138.12z"/>
			<path class="st10" d="M220.42,146c0.15,1.24-0.74,1.45-0.66,2.62c0.32,2.58,3.46,4.91,1.97,7.22c-1.51,5.05,0.37,13.49-3.28,16.4
				c-0.38-1.15,0.79-3.85-0.66-3.94c-0.12-0.56,0.26-0.62,0.66-0.66c0.39-3.58,2.96-7.34,1.97-12.47c-0.73-3.77-6.48-5.97-3.28-9.84
				c-0.23,2.64,0.01,4.8,1.97,5.25C219,148.51,219.08,146.63,220.42,146z"/>
			<path class="st2" d="M161.37,133.53c0-0.87,0-1.75,0-2.62c-2.03-1.47-3.77-3.22-5.25-5.25
				C157.78,127.95,163.48,129.65,161.37,133.53z"/>
			<path class="st2" d="M163.33,136.15c-1.63,0.1-3.18,0.12-3.28-1.31c0.74-0.07,1.02,0.95,1.31,0c1.09,0,2.19,0,3.28,0
				C164.49,135.55,163.34,135.29,163.33,136.15z"/>
			<path class="st0" d="M169.9,128.28c-0.96-2.56,0.16-2.09,1.31-0.65c0,0.44,0,0.87,0,1.31c0,0.22,0,0.44,0,0.66
				c-0.03,0.4-0.1,0.78-0.66,0.66c-0.61,0.48-0.99,1.19-1.31,1.97c-0.91,0.26-1.86,3.73-2.62,1.97c1.22-1.62,2.26-3.43,3.28-5.25
				C169.9,128.72,169.9,128.5,169.9,128.28z"/>
			<path class="st3" d="M209.26,127.62c0.04-0.4,0.1-0.78,0.66-0.66c1.32,1.96,0.37,6.19,0.66,9.19c-0.41,1.78,0.83,5.21-0.66,5.9
				c0-4.59,0-9.19,0-13.78C210.04,127.72,209.66,127.66,209.26,127.62z"/>
			<path class="st10" d="M267,176.18c0.58,5.82-2.77,7.73-4.59,11.15c-1.79-2.37-7.49-0.82-9.84-2.63c2.07,0.32,2.32-1.18,4.59-0.66
				c2.43-0.46,2.82,1.12,5.25,0.66c0.22,0,0.44,0,0.66,0c1.68-2.93,3.15-5.66,3.28-8.53C266.56,176.18,266.78,176.18,267,176.18z"/>
			<path class="st10" d="M262.41,143.37c-1.14,5.66-0.75,5.58,1.97,9.19c-1.32-1.3-2.64-2.61-3.94-3.94
				C262.2,147.97,261.12,144.49,262.41,143.37z"/>
			<path class="st10" d="M262.41,142.71c-0.17-5.42,4.92-5.57,6.56-9.19C267.84,137.65,263.19,138.25,262.41,142.71z"/>
			<path class="st1" d="M195.48,144.03c-6.51,1.83-13.48-1.33-16.4-5.25c4.26,1.42,7.46,3.6,12.47,2.62
				C194,141.14,195.4,141.92,195.48,144.03z M186.95,143.37c2.71-0.08,4.11,1.14,7.22,0.66
				C194.39,140.57,187.93,142.1,186.95,143.37z"/>
			<path class="st4" d="M171.21,133.53c-0.17-0.92-1.44-0.75-1.97-1.31c0.32-0.78,0.7-1.49,1.31-1.97c0.21,2.2,2.2,2.62,3.94,3.28
				c0.18,1.52,1.75,1.51,2.62,0.66c0.36,1.45-1.25,0.93-1.31,1.97C174.01,135.54,173,134.14,171.21,133.53z"/>
			<path class="st4" d="M163.33,136.15c0.01-0.87,1.15-0.6,1.31-1.31c0.44,0,0.87,0,1.31,0c-0.82,4.44,5.01,7.59,7.22,11.16
				c-0.83,0.16-0.66,1.3,0,1.31c-0.15,0.95-1.96,0.23-1.97,1.31c-1.94-0.57,1.52-0.98,0.66-2.62c-2.17,0.46-8.62,2.89-5.25,4.59
				c-0.28,2.79,4.49,1.77,2.62,0c2.47,0.38,4.54,1.15,4.59,3.94c-0.44,0-0.88,0-1.31,0c-0.29-0.58-0.58-1.17-1.31-1.31
				c-3.35-1.36-6.72,2.89-9.18,4.59c-0.22,0-0.44,0-0.66,0c0.4-0.58,0.79-1.17,0-1.31c0.98-0.77,1.6-1.9,3.28-1.97
				c-1.7-3.49,0-7.38,2.62-8.53c5.53-1.39-1.64-6.32-3.28-8.53c-0.04-0.4-0.1-0.78-0.66-0.66
				C163.33,136.59,163.33,136.37,163.33,136.15z"/>
			<path class="st1" d="M171.21,133.53c1.8,0.61,2.8,2.01,4.59,2.63c1.16,0.59,2.03,1.47,2.62,2.62
				C175.49,137.55,172.89,136,171.21,133.53z"/>
			<path class="st4" d="M133.15,146c7.75-1.65,14.99-3.82,21.65-6.56c-0.22-2.62,1.17-3.64,0.66-6.56
				c-3.93-0.21-5.86,1.58-9.19,1.97c0.12-0.53,0.66-0.65,0.66-1.31c-0.87,0-1.75,0-2.62,0c4.48-0.76,7.98-2.51,13.12-2.62
				c0,0.66-0.53,0.78-0.66,1.31c0,1.1,0,2.19,0,3.28c-1.86,0.55-0.78,4.03-1.97,5.25c0,0.22,0,0.44,0,0.66
				c-3.55,0.38-5.52,2.35-9.18,2.63c-3.65,1.38-7.77,2.29-11.15,3.94c-0.4-0.04-0.78-0.1-0.66-0.66
				C133.69,146.78,133.15,146.65,133.15,146z"/>
			<path class="st5" d="M193.52,140.09c-0.53-0.56-1.8-0.39-1.97-1.31c2.36-4.81,10.04-0.14,9.19,4.59c0,0.88,0,1.75,0,2.63
				c-1.85-0.54-1.7,0.92-3.28,0.65c-0.29-0.58-0.58-1.17-1.31-1.31C196.62,142.24,195.76,140.47,193.52,140.09z"/>
			<path class="st0" d="M209.92,117.78c-1.05,2.58,2.83,0.23,2.62,1.97c-6.2,3.2-8.7,10.11-13.12,15.09
				c-0.47,1.78,3.09-0.47,2.62,1.31c-0.12,0.97-1.58,0.6-2.62,0.66c0.45,2.61,2.52,3.6,3.28,5.9c0,0.22,0,0.44,0,0.66
				c-0.89,0.2-0.54,1.64-0.66,2.63c-1.78,0.47,0.47-3.09-1.31-2.63c0.86-4.73-6.82-9.4-9.19-4.59c0.17,0.92,1.44,0.75,1.97,1.31
				c-0.15,0.94-1.96,0.23-1.97,1.31c-5.01,0.98-8.21-1.21-12.47-2.62c-0.22,0-0.44,0-0.65,0c-0.59-1.16-1.47-2.03-2.62-2.62
				c0.06-1.03,1.67-0.51,1.31-1.97c1.47-4.66,3.25-8.99,4.59-13.78c0.22,0,0.44,0,0.66,0c0-0.66,0.53-0.78,0.66-1.31
				c0.74,0.07,1.02-0.95,1.31,0c-1.37,2.57-2.92,4.96-3.28,8.53c-0.95,1.67-0.85,4.4-1.97,5.9c-0.34,0.97-0.97,1.65-1.31,2.63
				c1.19,1,2.01,2.36,4.59,1.97c0.75-2.72-1.38-2.56-1.31-4.59c-0.19-1.76,2.54,1.74,1.97-1.31c2.32-3.36,2.24-9.13,3.94-13.12
				c1.78,0.47-0.47-3.09,1.31-2.62c1.31,0,2.62,0,3.94,0c0.51,0.15,1.3,0.02,1.31,0.66c0.84,2.97-3.33-1.17-3.94,1.31
				c-0.88,3.72-2.02,7.16-1.97,11.81c2.47-0.5,3.14,0.8,5.25,0.66c0.9,1.29,4.02,0.35,5.25,1.31c-3.91,1.92-11.83-1.27-13.12-1.97
				c-1.13,1.49-1.4,3.84-1.31,6.56c0,0.66,0,1.31,0,1.97c2.06,0.35,3.66,1.15,5.25,1.97c-0.01-6.13,7.47-4.77,9.84-8.53
				c0.74-0.14,1.02-0.73,1.31-1.31c4.08-2.7,4.81-8.75,7.22-13.12c1.38-0.54,1.8-3.46,0.66-4.59c5.3-0.05,7.87,2.63,11.81,3.94
				c0.66,1.31,2.9,1.04,2.63,3.28c-0.84-0.04-0.91-0.84-1.97-0.66c-1.68-1.16-2.66-3.03-5.25-3.28c-0.81-0.94-2.26-1.24-3.94-1.31
				C210.08,115.32,209.74,116.28,209.92,117.78z"/>
			<path class="st4" d="M78.7,141.4c-2.5,0.49-1.42-4.25,0.65-3.28C78.99,139.07,80.12,141.51,78.7,141.4z"/>
			<path class="st3" d="M154.8,140.75c3.34,0.93,1.51-3.3,1.97-5.25c0-1.1,0-2.19,0-3.28c0.22,0,0.44,0,0.66,0c0,0.88,0,1.75,0,2.63
				c-0.18,2.23,0.51,5.32-0.66,6.56c-0.66,0-1.31,0-1.97,0C154.8,141.18,154.8,140.96,154.8,140.75z"/>
			<path class="st4" d="M191.55,141.4c0.01-1.08,1.82-0.37,1.97-1.31c2.24,0.38,3.1,2.15,2.62,5.25c0,0.22,0,0.44,0,0.66
				c-0.76-0.11-0.71-1.04-0.66-1.97C195.4,141.92,194,141.14,191.55,141.4z"/>
			<path class="st4" d="M218.45,140.09c0.14,0.79,0.73,0.4,1.31,0c-1.33,0.86-0.9,3.47-2.62,3.94c-0.42-1.43,1.86-2.09-0.66-1.97
				C216.85,141.11,217.5,140.46,218.45,140.09z"/>
			<path class="st2" d="M215.17,168.96c-2.14-2.82,0.52-6.46,2.62-7.22c-0.85,2.21-3.44,2.68-2.62,6.56
				C215.17,168.52,215.17,168.74,215.17,168.96z"/>
			<path class="st0" d="M163.99,165.68c0-0.87,0-1.75,0-2.62c-5.24-2.2-13.44-1.44-19.03-3.28c3.48-0.75,3.82,0.21,7.22,0.66
				c4.19-0.19,6.14-2.61,9.18-3.94c0.79,0.14,0.4,0.73,0,1.31c-1.11,1.08-2.95,1.43-3.94,2.62c2.24,1.7,8.05-0.18,8.53,3.28
				c2.93-0.57,5.37-1.63,8.53-1.97c0.45-2.64-0.63-3.75-0.66-5.91c2.35,0.05,0.52,4.29,1.97,5.25c0.31,1.4-0.94,1.25-1.97,1.31
				c-0.28,1.81,2.45,0.62,2.63,1.97c-3.47-1.36-6.78-0.79-11.15,0c0,0.44,0,0.87,0,1.31c-1.26,0.26-0.84,7.75,0,5.91
				c3.88,0.05,6.76,1.11,10.5,1.31c0.22,0,0.44,0,0.66,0c0.44,0,0.87,0,1.31,0c1.51-1.55,0.24-5.89,0.66-8.53
				c-0.13-0.53-0.66-0.65-0.66-1.31c0.56,0.12,0.62-0.26,0.66-0.66c0.53-0.12,0.65-0.66,1.31-0.66c0.43,3.51-0.86,8.74,0.66,11.15
				c9.93,2.54,21.94,2.99,32.15,5.25c1-4.46,0.1-10.84,1.31-15.09c-0.81-0.29-1.35-0.84-1.31-1.97c-1.8-3.45-4.59-5.91-5.25-10.5
				c-0.44,0-0.87,0-1.31,0c-4.83,1.39-5.99,4.96-11.15,5.25c-3.33,0.19-7.49-2.72-12.47-1.31c0.12-0.56-0.26-0.62-0.66-0.66
				c-0.43-0.88-1.4-1.22-2.63-1.31c-1.57-2.36-5.11-2.76-7.87-3.94c0.01-1.08,1.82-0.37,1.97-1.31c-0.66-0.01-0.83-1.15,0-1.31
				c3.61,5.59,13.66,8.68,20.99,6.56c-0.51,0.58-0.71,1.48-0.66,2.62c3.83-0.54,7.34-1.41,7.88-5.25c1.04-0.05,2.5,0.31,2.62-0.66
				c4.04-2.52,9.61-3.51,12.47-7.22c2.52-0.12,0.24,0.54,0.66,1.97c0,0.44,0,0.88,0,1.31c-3.2,3.87,2.55,6.07,3.28,9.84
				c0.99,5.12-1.57,8.88-1.97,12.47c0.14-2.05-0.44-4.81,0.66-5.9c-0.44,0-0.87,0-1.31,0c-2.1,0.76-4.76,4.39-2.62,7.22
				c0.45,3.74-1.11,5.45-0.66,9.19c3.17,1.4,2.06-7.11,3.28-9.84c1.45,0.08,0.28,2.78,0.66,3.94c0,0.66,0,1.31,0,1.97
				c-1.45,0.08-0.28,2.78-0.66,3.94c3.42,2.92,11.33,1.36,15.75,3.28c-2.7,2.55-10.47-0.8-15.09-0.66
				c-2.06,4.29-8.04,4.64-12.47,6.56c0.35-0.53,0.69-1.07,0.66-1.97c-4.46,1.01-8.14,2.8-11.81,4.59c-0.87,0-1.75,0-2.62,0
				c5.6-5.78,16.48-8.73,23.62-9.19c-16.08-3.38-34.52-4.4-50.52-7.87c-1.22,0.1-0.41,2.22-1.31,2.62c-0.64-0.02-0.51-0.8-0.66-1.31
				C163.13,170.95,163.44,168.19,163.99,165.68z M214.51,148.62c1.09-0.66,0.71-2.79,1.31-3.94c-1.64-0.11-2.06,1.01-2.62,1.97
				c-1.65,1.42-5.02,1.11-5.91,3.28c2.96,2.94,4.04,7.77,6.56,11.15c2.74-0.83,7.65-5.21,3.28-7.22c-0.36-3.64-1.99-0.71-2.62,0.66
				c0-1.31,0-2.62,0-3.94C214.51,149.93,214.51,149.27,214.51,148.62z"/>
			<path class="st8" d="M175.8,161.08c1.57-0.26-0.36,2.99,1.97,1.97c0,0.66,0.53,0.78,0.66,1.31c-0.22,0-0.44,0-0.66,0
				c-0.53,0.12-0.65,0.66-1.31,0.65c0-0.22,0-0.44,0-0.65c-0.18-1.35-2.91-0.16-2.63-1.97C174.86,162.33,176.11,162.49,175.8,161.08
				z"/>
			<path class="st10" d="M156.77,141.4c-0.65,3.07-5.54,1.9-7.87,3.28c-0.22,0-0.44,0-0.66,0c-0.98-0.11-2.42,0.23-2.62-0.66
				c3.66-0.28,5.63-2.25,9.18-2.63C155.46,141.4,156.12,141.4,156.77,141.4z"/>
			<path class="st10" d="M200.73,143.37c1.78-0.47-0.47,3.1,1.31,2.63c0.48,2.01-1.13,1.93-0.65,3.94c-0.53,3.84-4.04,4.7-7.88,5.25
				c-0.05-1.14,0.15-2.04,0.66-2.62c0.75-1.06,2.58-2.08,1.31-3.28c0.96-0.57,2.54-0.52,1.97-2.62c1.58,0.27,1.43-1.2,3.28-0.65
				C200.73,145.12,200.73,144.24,200.73,143.37z"/>
			<path class="st8" d="M213.2,146.65c0.57-0.96,0.98-2.08,2.62-1.97c-0.6,1.15-0.23,3.27-1.31,3.94c0-0.88,0-1.75,0-2.62
				C213.98,146.12,213.86,146.65,213.2,146.65z"/>
			<path class="st4" d="M214.51,150.59c0,1.31,0,2.62,0,3.94c0.63-1.37,2.26-4.3,2.62-0.66c-2.07-2.13-0.27,2.5-3.28,1.31
				C214.25,153.82,213.04,150.87,214.51,150.59z"/>
			<path class="st5" d="M166.62,150.59c-3.37-1.7,3.08-4.14,5.25-4.59c0.87,1.64-2.6,2.05-0.66,2.62c2.76,1.17,6.3,1.57,7.87,3.94
				c0,1.09,0,2.19,0,3.28c-2.45,1.4-3.73-0.08-5.25-1.31c-0.05-2.79-2.13-3.56-4.59-3.94C168.37,150.59,167.49,150.59,166.62,150.59
				z"/>
			<path class="st5" d="M97.72,151.24c0.89-0.2,0.55-1.64,0.66-2.63c0.22,0,0.44,0,0.66,0c0,0.44,0,0.87,0,1.31
				c0,2.84,0,5.69,0,8.53c-2.57-0.09-1.92-2.94-1.31-4.59C97.72,152.99,97.72,152.12,97.72,151.24z"/>
			<path class="st10" d="M32.11,150.59c5.18,1.16,10.81,1.87,16.4,2.62c0.22,0,0.44,0,0.66,0c1.85,0.99,4.53,1.16,7.22,1.31
				c0,0.44,0,0.88,0,1.31c-4.36-0.02-7.31-1.43-11.81-1.31c-2.3-0.98-5.81-0.75-8.53-1.31c-0.23-2.17-3.78-1.03-5.91-1.31
				c-0.87,0-1.75,0-2.62,0c-4.82-3.7-3.01,4.84-7.22,3.94c0.11-0.76,1.04-0.71,1.97-0.66c0.69-3.75-2.05-4.07-2.62-6.56
				c2.12,3.02,6.27,1.54,11.81,1.97C31.67,150.59,31.89,150.59,32.11,150.59z"/>
			<path class="st10" d="M173.83,154.52c1.52,1.24,2.79,2.71,5.25,1.31c-0.18,2.22-1.04,3.77-0.65,6.56
				c-0.04,0.4-0.1,0.78-0.66,0.66c-2.33,1.02-0.4-2.23-1.97-1.97c-1.45-0.96,0.39-5.2-1.97-5.25c-0.16-0.71-1.3-0.45-1.31-1.31
				C172.96,154.52,173.4,154.52,173.83,154.52z"/>
			<path class="st8" d="M205.98,150.59c0.44,0,0.87,0,1.31,0c0.66,4.59,3.45,7.05,5.25,10.5
				C207.6,160.35,207.91,154.35,205.98,150.59z"/>
			<path class="st3" d="M50.48,193.23c-0.46-3.26,1.16-8.59-1.31-9.84c0.9-0.03,1.44,0.31,1.97,0.66c0,3.06,0,6.12,0,9.18
				C50.92,193.23,50.7,193.23,50.48,193.23z"/>
			<path class="st2" d="M30.8,181.42c-4.75-0.71-9.79-1.15-13.78-2.62c2.2-0.65,7,1.74,11.15,1.31
				C27.71,181.89,31.27,179.64,30.8,181.42z"/>
			<path class="st10" d="M162.02,157.8c2.47-1.7,5.84-5.96,9.18-4.59C167.69,154.29,166.3,157.48,162.02,157.8z"/>
			<path class="st6" d="M171.21,153.21c0.74,0.14,1.02,0.73,1.31,1.31c0.01,0.87,1.15,0.6,1.31,1.31c0.03,2.16,1.11,3.27,0.66,5.91
				c-3.16,0.34-5.6,1.4-8.53,1.97c-0.48-3.46-6.29-1.59-8.53-3.28c0.99-1.2,2.83-1.54,3.94-2.62c0.22,0,0.44,0,0.66,0
				C166.3,157.48,167.69,154.29,171.21,153.21z"/>
			<path class="st10" d="M152.18,159.77c3.59-1.87,7.12-3.81,11.15-5.25c-0.18-2.22-1.04-3.77-0.66-6.56
				c1.58-0.61,1.74-2.64,4.59-1.97c-2.63,1.15-4.32,5.04-2.62,8.53c-1.68,0.07-2.3,1.2-3.28,1.97c-3.05,1.33-5,3.75-9.18,3.94
				C152.18,160.21,152.18,159.99,152.18,159.77z"/>
			<path class="st2" d="M106.25,160.43c5.53-1.48,11.92-5.57,19.03-3.28c-1.52-0.21-2.52,0.11-3.28,0.66
				c-4.8-1.51-10.24,2-14.43,3.28C107.55,160.45,106.76,160.58,106.25,160.43z"/>
			<path class="st4" d="M93.79,158.46c-0.29-1.07,3.58-1.07,3.28,0c-0.17,1.36-2.88,0.18-3.28,1.31
				C94.19,159.19,94.58,158.6,93.79,158.46z"/>
			<path class="st0" d="M93.79,158.46c0.79,0.14,0.41,0.73,0,1.31c-5.5,0.41-8.22,3.59-12.47,5.25
				C71.87,163.95,92.07,159.77,93.79,158.46z"/>
			<path class="st14" d="M93.79,159.77c0.4-1.13,3.11,0.05,3.28-1.31c1.08,0.01,0.37,1.82,1.31,1.97c2.83,3.73,3.61,9.51,6.56,13.12
				c0,0.44,0,0.87,0,1.31c-4,0.81-8.15,1.47-11.15,3.28c-2.31,0.97-5.31,1.26-7.22,2.62c-0.53,0.35-1.07,0.69-1.97,0.66
				c-0.64-0.02-0.51-0.8-0.65-1.31c0.11-0.76-0.15-1.17-0.66-1.31c-1.54-0.21-0.64-2.86-1.97-3.28c-0.91-2.37-2.21-4.35-3.28-6.56
				c-0.77-0.11-0.55-1.2-0.66-1.97c-0.92-2.89,3.92-0.01,3.94-1.97C85.57,163.36,88.29,160.18,93.79,159.77z"/>
			<path class="st4" d="M106.91,181.42c0.48,2.8,5.7,0.86,7.22,2.63c-3.08-0.42-7.45,0.45-7.87-2.63
				C106.47,181.42,106.69,181.42,106.91,181.42z"/>
			<path class="st8" d="M163.99,165.68c-0.55,2.51-0.86,5.27-0.66,8.53c-0.53,0.12-0.65,0.66-1.31,0.66s-1.31,0-1.97,0
				c0.2-0.89,1.64-0.54,2.62-0.66c0.04-3.03-0.29-6.41,0.66-8.53C163.55,165.68,163.77,165.68,163.99,165.68z"/>
			<path class="st8" d="M159.4,163.71c0.66,0,1.31,0,1.97,0c-0.16,0.71-1.3,0.44-1.31,1.31c-1.58-0.27-1.43,1.2-3.28,0.66
				c-0.12-0.53-0.66-0.65-0.66-1.31C157.97,164.91,157.82,163.44,159.4,163.71z"/>
			<path class="st0" d="M77.38,170.93c-0.34-1.88-3.43-4.39-1.97-5.91c1.51-0.2,0.73,1.9,1.97,1.97c0.1,0.77-0.11,1.86,0.66,1.97
				C78.1,169.89,78.15,170.82,77.38,170.93z"/>
			<path class="st0" d="M31.45,167.65c-3.52,1.73-7.46,3.04-11.81,3.94C22.75,169.44,27.33,168.77,31.45,167.65z"/>
			<path class="st0" d="M51.8,170.27C44.76,174.47,44.16,171.77,51.8,170.27L51.8,170.27z"/>
			<path class="st4" d="M80.66,176.18c-1.48-1.37-1.87-3.81-3.28-5.25c0.76-0.11,0.71-1.04,0.66-1.97c1.07,2.21,2.37,4.2,3.28,6.56
				C80.76,175.4,80.7,175.78,80.66,176.18z"/>
			<path class="st4" d="M192.2,189.95c-0.22,0-0.44,0-0.66,0c-2.64-1.09-9.83-1.09-12.47,0c-3.72,0-7.44,0-11.15,0
				c-0.28-1.47-3.23-0.27-4.59-0.66c6.68-4.47,17.2-5.11,22.31-11.15c-10.5,2.63-19.72,6.53-27.56,11.81c-2.19,0-4.37,0-6.56,0
				c-10.72-1.09-26.02-1.09-36.74,0c-0.88,0-1.75,0-2.63,0c-1.21-1.41-4.83-0.42-5.91-1.97c0-1.1,0-2.19,0-3.28
				c6.02-0.27,15.09,1.92,22.31,2.63c1.25-0.56-0.71-0.39-0.65-1.31c0.87,0,1.75,0,2.62,0c2.36,1.53,27.9-7.22,31.49-9.84
				c0.76-0.56,0.08-0.37,0-1.31c0.66,0,0.78-0.53,1.31-0.66c0.15,0.51,0.02,1.29,0.66,1.31c0.91-0.4,0.1-2.53,1.31-2.62
				c16,3.47,34.44,4.49,50.52,7.87C208.68,181.22,197.81,184.17,192.2,189.95z M177.11,189.3c2.03,0.03,5.75-1.64,4.59-2.62
				C180.86,188.23,177.45,187.22,177.11,189.3z M192.2,178.8c-9.46,1.7-15.89,6.42-22.96,10.5
				C177.64,186.54,186.19,183.94,192.2,178.8z M180.39,176.83c-9.99,3.35-20.26,6.43-27.56,12.47
				C162.01,185.13,173.51,183.29,180.39,176.83z M186.3,185.36c3.79-1.26,13.29-3.02,11.15-5.9
				C194.16,181.85,188.67,182.04,186.3,185.36z"/>
			<path class="st0" d="M181.71,186.67c1.16,0.99-2.56,2.65-4.59,2.62C177.45,187.22,180.86,188.23,181.71,186.67z"/>
			<path class="st0" d="M81.32,175.52c1.33,0.42,0.43,3.06,1.97,3.28c0.11,0.76-0.15,1.17-0.66,1.31c-0.37-1.6-2.54-1.4-1.97-3.94
				C80.7,175.78,80.76,175.4,81.32,175.52z"/>
			<path class="st12" d="M82.63,180.11c0.51-0.14,0.76-0.55,0.66-1.31c0.51,0.15,0.76,0.55,0.66,1.31c-0.77,0.11-0.55,1.2-0.66,1.97
				c0,4.16,0,8.31,0,12.47c-0.22,0-0.44,0-0.66,0C82.63,189.74,82.63,184.92,82.63,180.11z"/>
			<path class="st10" d="M218.45,174.21c0,1.09,0,2.19,0,3.28c1.41,1.22,4.81,0.44,7.22,0.66c2.87-0.02,5.12,0.57,7.22,1.31
				c0,0.22,0,0.44,0,0.65c1.52-0.21,2.52,0.11,3.28,0.66c0.23,0.86,1.15,1.03,1.31,1.97c-2.27,0.52-2.77-0.73-3.94-1.31
				c-4.42-1.92-12.32-0.36-15.75-3.28C218.17,176.99,217,174.29,218.45,174.21z"/>
			<path class="st4" d="M233.54,181.42c1.17,0.58,1.67,1.83,3.94,1.31c5.15,0.53,9.42,1.95,15.09,1.97c2.35,1.8,8.05,0.26,9.84,2.63
				c-0.4,0.04-0.78,0.1-0.66,0.66c-1.6,0.37-1.4,2.54-3.94,1.97c-16.84-1.09-38.27-1.09-55.11,0c-0.66,0-1.31,0-1.97,0
				c-1.97,0-3.94,0-5.91,0c3.67-1.8,7.35-3.58,11.81-4.59c0.03,0.9-0.31,1.44-0.66,1.97c4.42-1.92,10.41-2.27,12.47-6.56
				C223.07,180.63,230.84,183.98,233.54,181.42z"/>
			<path class="st2" d="M38.02,182.74c-0.83-1.58-5.17,0.36-5.91-1.31c1.09,0,2.19,0,3.28,0c1.98,0.86,5.62,0.07,7.22,1.31
				C41.08,182.74,39.55,182.74,38.02,182.74z"/>
			<path class="st4" d="M87.88,188.64c-1.98,0.66-1.16-1.46-1.31-2.62C88.76,184.8,89.33,188.38,87.88,188.64z"/>
			<path class="st4" d="M106.25,192.58c-1.5,1.12-0.24,5.01-0.66,7.22c-0.74-0.07-1.02,0.95-1.31,0c0-2.84,0-5.69,0-8.53
				c0-1.09,0-2.19,0-3.28c0.22,0,0.44,0,0.66,0c0,1.31,0,2.62,0,3.94c0.71-0.16,0.45-1.3,1.31-1.31c0,0.22,0,0.44,0,0.66
				C106.25,191.7,106.25,192.14,106.25,192.58z"/>
			<path class="st8" d="M150.87,87.6c0.74-4.07-1.79-11.41,1.97-12.47c1.39,5.17-3,16.12,2.62,17.06c0,0.22,0,0.44,0,0.66
				c-1.31,0-2.62,0-3.94,0c0-0.22,0-0.44,0-0.66c1.24-2.74,0.59-14.2,0.66-13.78C151.53,73.72,152,84.11,150.87,87.6z"/>
			<path class="st8" d="M131.18,71.2c-0.43,3.51,0.86,8.74-0.66,11.15c0-2.19,0-4.37,0-6.56C130.92,74.43,129.72,71.48,131.18,71.2z
				"/>
			<path class="st1" d="M132.5,74.48c1.09,1.99,1.09,8.51,0,10.5c0-2.41,0-4.81,0-7.22C132.5,76.66,132.5,75.57,132.5,74.48z"/>
			<path class="st1" d="M130.53,75.79c0,2.19,0,4.37,0,6.56c0,0.44,0,0.88,0,1.31c-0.22,0-0.44,0-0.66,0
				C130.29,81.24,129.02,77.13,130.53,75.79z"/>
			<path class="st3" d="M95.75,89.57c2.98,2.71,0.5,10.87,1.31,15.75c-0.22,0-0.44,0-0.65,0c-0.43-4.82,0.87-11.36-0.66-15.09
				C95.75,90.01,95.75,89.79,95.75,89.57z"/>
			<path class="st3" d="M202.7,88.91c1.5,1.12,0.24,5.01,0.65,7.22c-1.49-0.91-0.24-4.56-0.65-6.56
				C202.7,89.35,202.7,89.13,202.7,88.91z"/>
			<path class="st6" d="M194.83,92.85c0.77,0.1,1.86-0.11,1.97,0.66c0.01,1.3,1.79,0.83,1.31,2.62c-0.37,1.9-1.02-1.01-1.97-0.66
				c-0.44,0-0.87,0-1.31,0c-1.91,0.18-2.25-0.16-1.31-1.31c-0.66,0-1.31,0-1.97,0C186.94,92.29,190.62,92.69,194.83,92.85z"/>
			<path class="st0" d="M131.84,92.19c0,1.09,0,2.19,0,3.28c-0.44,0-0.88,0-1.31,0c0-3.94,0-7.87,0-11.81c0-0.44,0-0.87,0-1.31
				c1.52-2.42,0.23-7.65,0.66-11.15c1.44,0.1,1.41,1.65,1.31,3.28c0,1.09,0,2.19,0,3.28C130.98,81.27,132.27,87.59,131.84,92.19z"/>
			<path class="st3" d="M160.05,106.63c0-4.37,0-8.75,0-13.12c1.52,2.2,0.23,7.21,0.66,10.5c-0.38,1.16,0.79,3.86-0.66,3.94
				C160.05,107.5,160.05,107.07,160.05,106.63z"/>
			<path class="st3" d="M181.05,89.57c-0.55,1.63-0.86,3.52-0.66,5.9c-0.44,0-0.87,0-1.31,0C180.65,94.42,178.55,89.69,181.05,89.57
				z"/>
			<path class="st1" d="M95.75,90.23c0,5.03,0,10.06,0,15.09c0,1.75,0,3.5,0,5.25c0,0.44,0,0.88,0,1.31c0,0.66,0,1.31,0,1.97
				c-1.09-6.57-1.09-17.71,0-24.28C95.75,89.79,95.75,90.01,95.75,90.23z"/>
			<path class="st1" d="M72.79,94.82c0,3.06,0,6.12,0,9.18c0,1.53,0,3.06,0,4.59c-0.22,0-0.44,0-0.65,0
				C72.57,104.22,71.27,98.11,72.79,94.82z"/>
			<path class="st4" d="M155.46,96.79c-0.11-1.08,4.04-1.08,3.94,0c-0.36,0.95,0.77,3.39-0.66,3.28c-0.36-0.95,0.77-3.39-0.66-3.28
				C157.21,96.79,156.34,96.79,155.46,96.79z"/>
			<path class="st3" d="M123.97,98.75c-2.21-0.42-6.1,0.84-7.22-0.66c4.81-1.84,10.5,1.27,15.09-0.66c0,0.66-0.53,0.78-0.66,1.31
				c1.1,0,2.19,0,3.28,0c0,0.22,0,0.44,0,0.66c-1.09,0-2.19,0-3.28,0C130.06,97.91,126.18,99.17,123.97,98.75z"/>
			<path class="st12" d="M181.71,98.75c1.12-1.5,5.01-0.24,7.22-0.66c0,0.22,0,0.44,0,0.66C186.52,98.75,184.11,98.75,181.71,98.75z
				"/>
			<path class="st8" d="M123.97,98.75c2.21,0.42,6.09-0.84,7.22,0.66C128.98,98.99,125.09,100.26,123.97,98.75z"/>
			<path class="st8" d="M203.36,98.1c-0.41,2,0.84,5.65-0.65,6.56C203.11,102.66,201.86,99.01,203.36,98.1z"/>
			<path class="st8" d="M116.1,99.41c5.09,0.16,9.85,0.65,14.43,1.31c2.58,1.58,0.78,7.53,1.31,11.15c0,3.72,0,7.44,0,11.15
				c-2.61,4.12,1.6,10.1-1.31,12.47c-2.56,2.08-7.96-2.92-12.47-1.31c-1.62,0.09-3.16,0.1-3.94-0.66c-0.65-1.58-3.17,0.44-4.59-1.97
				c-3.21-5.41,2.44-26.96,0-32.81C111.26,99.43,113.56,99.54,116.1,99.41z"/>
			<path class="st8" d="M151.53,100.72c0.99-0.98,2.88-1.06,4.59-1.31c0,1.31,0,2.63,0,3.94c-0.53,0.35-1.07,0.68-1.97,0.65
				c-0.51-0.15-1.29-0.02-1.31-0.65c2.19,0.66,2.15-0.91,1.97-2.62C153.71,100.72,152.62,100.72,151.53,100.72z"/>
			<path class="st8" d="M144.31,105.31c0,0.22,0,0.44,0,0.66c1.03,1.88-1.71-1.66-0.66-3.94c0.55-0.61,4.18-1.4,4.59,0
				C145.45,101.65,143.65,102.25,144.31,105.31z"/>
			<path class="st10" d="M107.56,98.75c0,3.5,0,7,0,10.5c0,0.66,0,1.31,0,1.97c-0.22,0-0.44,0-0.66,0
				C107.34,107.27,106.05,101.61,107.56,98.75z"/>
			<path class="st8" d="M181.71,106.63c1.69-0.53,6.36-1.47,7.87,0c-1.04,0.05-2.5-0.31-2.63,0.66c0.4,0.91,2.53,0.1,2.63,1.31
				c-0.22,0-0.44,0-0.66,0c-0.77,0.32-1.49,0.7-1.97,1.31c-2.75,0.24-0.47-2.14-0.65-3.28c-2.28-0.53-2.52,0.98-4.59,0.66
				C181.71,107.07,181.71,106.85,181.71,106.63z"/>
			<path class="st13" d="M56.39,108.6c0,3.5,0,7,0,10.5c-0.22,0-0.44,0-0.65,0c0-5.47,0-10.93,0-16.4c0.22,0,0.44,0,0.65,0
				C56.39,104.66,56.39,106.63,56.39,108.6z"/>
			<path class="st11" d="M146.93,109.91c1.32,1.34-0.29,1.29-0.66,2.62C144.37,112.41,144.69,109.41,146.93,109.91z"/>
			<path class="st0" d="M203.36,110.56c0.17,0.92,1.44,0.75,1.97,1.31c0.21,0.89,0.93,1.25,0.66,2.63c-0.4-0.04-0.78-0.1-0.66-0.66
				c-0.54-1.86-3.78-1.03-3.28-3.94C202.7,109.91,202.83,110.44,203.36,110.56z"/>
			<path class="st12" d="M72.14,117.12c0-1.31,0-2.62,0-3.94c0-0.88,0-1.75,0-2.63c0-0.66,0-1.31,0-1.97c0.22,0,0.44,0,0.65,0
				c0,2.63,0,5.25,0,7.87c0,0.22,0,0.44,0,0.66C72.57,117.12,72.35,117.12,72.14,117.12z"/>
			<path class="st3" d="M75.42,113.19c0,1.31,0,2.62,0,3.94c-1.52-4.16-0.22-11.15-0.66-16.4c0.22,0,0.44,0,0.66,0
				C75.42,104.88,75.42,109.03,75.42,113.19z"/>
			<path class="st12" d="M75.42,113.19c1.5,0.91,0.25,4.57,0.66,6.56c-0.22,0-0.44,0-0.66,0c0-0.87,0-1.75,0-2.63
				C75.42,115.81,75.42,114.5,75.42,113.19z"/>
			<path class="st0" d="M163.99,114.5c0.88,1.3,1.25,3.12,1.97,4.59c-0.06,0.93-0.11,1.86,0.66,1.97c0,1.09,0,2.19,0,3.28
				c0.97,0.34,1.65,0.97,2.62,1.31c-0.11,0.76-1.04,0.71-1.97,0.66c-0.37-0.94-1.03-1.6-1.97-1.97c-0.42-2.86-1.09-5.47-1.97-7.87
				C163.44,115.7,163.22,114.61,163.99,114.5z"/>
			<path class="st8" d="M209.92,117.78c-0.18-1.5,0.16-2.47,1.31-2.62c1.68,0.07,3.13,0.37,3.94,1.31
				c-2.28,0.53-2.52-0.98-4.59-0.66C210.47,116.58,210.69,117.67,209.92,117.78z"/>
			<path class="st8" d="M72.79,128.28c0-3.72,0-7.43,0-11.15c0-0.22,0-0.44,0-0.66c1.53,10.72,0.22,24.28,0.66,36.09
				c-0.22,0-0.44,0-0.66,0c0-0.22,0-0.44,0-0.66s0-0.44,0-0.65c0-7.22,0-14.44,0-21.65C72.79,129.15,72.79,128.72,72.79,128.28z"/>
			<path class="st13" d="M56.39,120.41c0,4.38,0,8.75,0,13.12c-0.22,0-0.44,0-0.65,0C56.16,129.37,54.87,123.48,56.39,120.41z"/>
			<path class="st3" d="M194.17,122.37c1.75,0,3.5,0,5.25,0C201.78,123.4,191.82,123.4,194.17,122.37z"/>
			<path class="st10" d="M224.36,128.93c-0.35-2.54,1.17-3.2,0.66-5.9c0-0.22,0-0.44,0-0.66c0.66,0,0.78,0.53,1.31,0.66
				c-1.65-4.73,6-3.59,7.87-2.63c-2.41,0-4.81,0-7.22,0c0,1.09,0,2.19,0,3.28C225.22,124.55,225.87,127.82,224.36,128.93z"/>
			<path class="st3" d="M58.36,115.81c0,4.59,0,9.19,0,13.78c-0.22,0-0.44,0-0.66,0c0-4.81,0-9.62,0-14.43c0.22,0,0.44,0,0.66,0
				C58.36,115.38,58.36,115.59,58.36,115.81z"/>
			<path class="st7" d="M171.21,128.93c3.89-2.97-3.76-4.12-3.28-7.87c3.51,0.43,8.74-0.86,11.15,0.66
				c-1.94,3.31-2.44,8.06-4.59,11.15c-1.64-0.54-2.08-2.3-3.28-3.28C171.21,129.37,171.21,129.15,171.21,128.93z"/>
			<path class="st8" d="M209.92,128.28c-1.9,0.29,0.58,4.96-1.31,5.25c0.41-1.78-0.83-5.21,0.66-5.9
				C209.66,127.66,210.04,127.72,209.92,128.28z"/>
			<path class="st8" d="M184.99,130.25c0.67,1.14,0.48,5.83-1.31,6.56C183.59,134.09,183.86,131.74,184.99,130.25z"/>
			<path class="st0" d="M108.22,133.53c-0.77-0.11-0.55-1.2-0.66-1.97c0-2.41,0-4.81,0-7.22c1.53-3.72,0.23-10.27,0.66-15.09
				c0-4.16,0-8.31,0-12.47c0.22,0,0.44,0,0.66,0c-0.32-1.29,3.01-2.11,3.28-0.66c-1.5-0.18-2.47,0.16-2.63,1.31
				c0.44,0,0.88,0,1.31,0c-0.17,0.92-1.44,0.75-1.97,1.31C108.35,109.81,109.88,125.71,108.22,133.53z"/>
			<path class="st10" d="M181.71,120.41c-1.34,4.79-3.12,9.12-4.59,13.78c-0.87,0.85-2.44,0.86-2.62-0.66
				c2.87-3.25,3.85-8.4,5.25-13.12c-4.36,0.23-9.77-0.58-13.12,0.66c-0.76-0.11-0.71-1.04-0.66-1.97c0.94,0.16,1.11,1.08,1.97,1.31
				C171.43,118.56,179.98,120.43,181.71,120.41z"/>
			<path class="st6" d="M108.22,133.53c0,0.22,0,0.44,0,0.66c5.64-1.48,2.47,5.84,3.28,9.18c-2.16-1.12-1.04-5.52-1.31-8.53
				c-4.4,0.24-4.77-3.55-4.59-7.87c0.22,0,0.44,0,0.66,0c0.39,1.36-0.81,4.31,0.66,4.59c0.22,0,0.44,0,0.66,0
				C107.67,132.33,107.45,133.42,108.22,133.53z"/>
			<path class="st5" d="M181.05,133.53c-0.07,2.04,2.06,1.87,1.31,4.59c-2.58,0.39-3.41-0.97-4.59-1.97
				c0.34-0.97,0.97-1.65,1.31-2.63c0.4-0.04,0.78-0.1,0.66-0.66C180.06,131.7,180.44,133.16,181.05,133.53z"/>
			<path class="st8" d="M208.61,134.19c-0.41,1.99,0.84,5.65-0.66,6.56c0-2.19,0-4.37,0-6.56
				C208.17,134.19,208.39,134.19,208.61,134.19z"/>
			<path class="st0" d="M156.77,135.5c-0.46,1.94,1.37,6.18-1.97,5.25C155.99,139.53,154.92,136.04,156.77,135.5z"/>
			<path class="st0" d="M209.92,142.06c0.45,1.76-1.35,1.27-1.97,1.97c0-0.87,0-1.75,0-2.63c0-0.22,0-0.44,0-0.66
				c1.5-0.91,0.24-4.57,0.66-6.56c0-0.22,0-0.44,0-0.66c1.9-0.29-0.58-4.96,1.31-5.25C209.92,132.87,209.92,137.47,209.92,142.06z"
				/>
			<path class="st0" d="M197.45,146.65c0.57,2.11-1.01,2.05-1.97,2.62c-0.27-1.58,1.2-1.43,0.66-3.28c0-0.22,0-0.44,0-0.66
				C196.88,145.48,197.16,146.07,197.45,146.65z"/>
			<path class="st4" d="M202.7,143.37c1.55,1.63,0.01,3.86,0,5.9c0.44,0,0.87,0,1.31,0c-0.12,0.97-1.59,0.6-2.62,0.66
				c-0.48-2.01,1.13-1.93,0.65-3.94C202.16,145.01,201.81,143.57,202.7,143.37z"/>
			<path class="st4" d="M97.07,153.21c0-4.37,0-8.75,0-13.12c0.22,0,0.44,0,0.66,0c0,3.72,0,7.44,0,11.16c0,0.87,0,1.75,0,2.62
				c-0.22,0-0.44,0-0.66,0C97.07,153.65,97.07,153.43,97.07,153.21z"/>
			<path class="st8" d="M30.14,151.9c2.12,0.28,5.68-0.86,5.91,1.31C34.24,152.62,31.44,153.01,30.14,151.9z"/>
			<path class="st0" d="M36.05,153.21c2.72,0.57,6.23,0.34,8.53,1.31c-5.93,0.9-15.15-0.59-20.34-2.62c1.09,0,2.19,0,3.28,0
				c0.87,0,1.75,0,2.62,0C31.44,153.01,34.24,152.62,36.05,153.21z"/>
			<path class="st4" d="M181.71,153.87c-2.53,0.75-1.77,4.79-1.97,7.87c-0.66,0-0.78,0.53-1.31,0.66c-0.39-2.79,0.47-4.34,0.65-6.56
				c0-1.09,0-2.19,0-3.28C180.3,152.65,181.28,152.99,181.71,153.87z"/>
			<path class="st0" d="M79.35,160.43c-2.2,0.67-1.02-2.04-1.31-3.28c0.66,0,1.31,0,1.97,0C79.65,158.1,80.77,160.54,79.35,160.43z"
				/>
			<path class="st4" d="M125.28,157.15c1.8,2.16,7.02-1.21,7.22,1.31c-1.75,0-3.5,0-5.25,0c-1.57-0.4-4.76,0.82-5.25-0.66
				C122.76,157.25,123.76,156.94,125.28,157.15z"/>
			<path class="st9" d="M181.71,160.43c-1.47,0.28-0.27,3.23-0.66,4.59c-1.83,0.3,0.51-3.57-1.31-3.28
				c0.19-3.09-0.57-7.13,1.97-7.87c0.4,0.04,0.78,0.1,0.66,0.66C182.23,156.58,182.81,159.34,181.71,160.43z"/>
			<path class="st8" d="M75.42,162.4c0-8.31,0-16.62,0-24.93c0.22,0,0.44,0,0.66,0C75.64,145.56,76.94,155.4,75.42,162.4z"/>
			<path class="st3" d="M144.96,159.77c5.59,1.84,13.79,1.08,19.03,3.28c0,0.87,0,1.75,0,2.62c-0.22,0-0.44,0-0.66,0
				c0-0.66,0-1.31,0-1.97c-0.84-1.83-1.36,2.07-3.28,1.31c0.01-0.87,1.15-0.6,1.31-1.31c-0.66,0-1.31,0-1.97,0
				c0.13-0.53,0.66-0.65,0.66-1.31c-11.38-0.87-22.35-2.15-32.81-3.94c1.75,0,3.5,0,5.25,0
				C136.36,159.19,140.25,159.89,144.96,159.77z"/>
			<path class="st8" d="M58.36,156.49c-0.41,2.21,0.84,6.09-0.66,7.22c0-11.37,0-22.75,0-34.12c0.22,0,0.44,0,0.66,0
				c0,0.22,0,0.44,0,0.66c0,5.03,0,10.06,0,15.09C58.36,149.06,58.36,152.77,58.36,156.49z"/>
			<path class="st3" d="M110.19,168.96c5.19,0.28,10.56,0.37,14.43,1.97C119.53,170.55,114.19,170.42,110.19,168.96z"/>
			<path class="st13" d="M217.79,168.3c-1.22,2.73-0.11,11.24-3.28,9.84c1.07-2.01,2.21-7.39,0.66-9.84
				c-0.82-3.88,1.78-4.35,2.62-6.56c0.44,0,0.88,0,1.31,0c-1.1,1.09-0.52,3.85-0.66,5.9C218.05,167.68,217.67,167.74,217.79,168.3z"
				/>
			<path class="st4" d="M125.28,170.93c3.06,0,6.12,0,9.18,0C132.91,172.02,126.84,172.02,125.28,170.93z"/>
			<path class="st6" d="M175.8,172.9c0.42-2.21-0.85-6.09,0.66-7.22c0,2.41,0,4.81,0,7.22C176.24,172.9,176.02,172.9,175.8,172.9z"
				/>
			<path class="st3" d="M177.77,172.9c0-2.84,0-5.69,0-8.53c0.22,0,0.44,0,0.66,0C178,167.01,179.28,171.34,177.77,172.9z"/>
			<path class="st3" d="M133.81,172.9c1.48-0.9-0.34,5.01-0.65,6.56c0-0.66,0-1.31,0-1.97C133.54,176.13,132.34,173.18,133.81,172.9
				z"/>
			<path class="st11" d="M214.51,178.14c-0.46-3.74,1.11-5.45,0.66-9.19c0-0.22,0-0.44,0-0.66
				C216.72,170.76,215.58,176.13,214.51,178.14z"/>
			<path class="st12" d="M160.05,174.86c-8.76,3.71-18.24,6.69-26.9,10.5c0-1.97,0-3.94,0-5.9c0.31-1.55,2.14-7.46,0.65-6.56
				c7.84-2.22,14.84-5.29,22.97-7.22c1.86,0.54,1.7-0.92,3.28-0.66c1.92,0.76,2.44-3.14,3.28-1.31c0,0.66,0,1.31,0,1.97
				c-0.95,2.12-0.62,5.5-0.66,8.53C161.7,174.32,160.26,173.97,160.05,174.86z"/>
			<path class="st4" d="M93.79,178.14c3-1.81,7.15-2.47,11.15-3.28c0-0.44,0-0.88,0-1.31c1.54,0.17,0.38,2.88,0,3.28
				c-3.55-0.98-8.65,1.73-11.81,3.28C93.32,179.35,96.85,178.22,93.79,178.14z"/>
			<path class="st0" d="M93.13,180.11c-1.3,1.55-4.78,0.91-6.56,1.97c0-0.44,0-0.87,0-1.31c1.91-1.37,4.9-1.66,7.22-2.62
				C96.85,178.22,93.32,179.35,93.13,180.11z"/>
			<path class="st5" d="M236.17,180.77c1.97,0,3.94,0,5.9,0c0.22,0,0.44,0,0.66,0c4.41,1.49,10.34,1.47,14.43,3.28
				c-2.28-0.53-2.52,0.98-4.59,0.66c-5.67-0.01-9.94-1.43-15.09-1.97C237.32,181.8,236.4,181.63,236.17,180.77z"/>
			<path class="st4" d="M133.15,179.46c0,1.97,0,3.94,0,5.9c-1.09-1.13-1.09-6.74,0-7.87C133.15,178.14,133.15,178.8,133.15,179.46z
				"/>
			<path class="st3" d="M86.57,182.08c-2.83,0.45-0.6,5.96-1.31,8.53c-0.22,0-0.44,0-0.66,0c0-0.22,0-0.44,0-0.66
				c0-2.84,0-5.69,0-8.53c0.9,0.03,1.44-0.31,1.97-0.66C86.57,181.21,86.57,181.64,86.57,182.08z"/>
			<path class="st4" d="M83.29,182.08c1.93,1.13-0.62,6.74,1.31,7.87c0,0.22,0,0.44,0,0.66c0,2.19,0,4.37,0,6.56
				c0,3.28,0,6.56,0,9.84c-1.91-0.71,0.61-5.85-1.31-6.56c0-1.97,0-3.94,0-5.91C83.29,190.39,83.29,186.24,83.29,182.08z"/>
			<path class="st0" d="M133.15,185.36c8.66-3.81,18.14-6.79,26.9-10.5c0.66,0,1.31,0,1.97,0c0.08,0.94,0.76,0.76,0,1.31
				c-3.6,2.63-29.14,11.38-31.49,9.84c0-0.22,0-0.44,0-0.66c1.51-1.55,0.23-5.89,0.66-8.53c-0.08-1.18,0.81-1.38,0.66-2.62
				c-6.8-3.48-17.96-2.6-26.24-4.59c0.61,3.76,1.91,6.83,1.31,11.81c-0.22,0-0.44,0-0.66,0c0.42,3.08,4.8,2.2,7.87,2.63
				c4.37,0.88,8.74,1.76,13.78,1.97c-0.05,0.92,1.91,0.75,0.65,1.31c-7.22-0.7-16.28-2.9-22.31-2.63c0,1.09,0,2.19,0,3.28
				c1.08,1.55,4.69,0.56,5.91,1.97c-1.57,0.4-4.76-0.82-5.25,0.66c-0.22,0-0.44,0-0.66,0c-0.87,0.01-0.6,1.15-1.31,1.31
				c0-1.31,0-2.62,0-3.94c0-3.06,0-6.12,0-9.19c0-0.66,0-1.31,0-1.97c0.38-0.4,1.54-3.11,0-3.28c-2.95-3.61-3.73-9.39-6.56-13.12
				c1.07-3.76,1.64,2.75,4.59,1.31c0.86-0.67,2.42-0.64,3.28-1.31c0.51,0.15,1.3,0.02,1.31,0.66c-1.15,1.04-3.5,0.88-5.25,1.31
				c-0.08,4.89,2.56,7.06,7.87,6.56c4,1.47,9.34,1.6,14.43,1.97c0.22,0,0.44,0,0.66,0c1.56,1.09,7.63,1.09,9.18,0
				c7.8-1.61,13.86-4.95,21.65-6.56c0,0.66,0.53,0.78,0.66,1.31c-8.13,1.93-15.13,4.99-22.97,7.22c-1.47,0.28-0.27,3.23-0.65,4.59
				C132.07,178.62,132.07,184.23,133.15,185.36z"/>
			<path class="st8" d="M161.37,189.95c0.11-0.77,1.2-0.55,1.97-0.66c1.36,0.39,4.31-0.81,4.59,0.66
				C165.74,189.95,163.55,189.95,161.37,189.95z"/>
			<path class="st1" d="M85.26,190.61c-0.41,2,0.84,5.65-0.66,6.56c0-2.19,0-4.37,0-6.56C84.82,190.61,85.04,190.61,85.26,190.61z"
				/>
			<path class="st1" d="M104.28,191.27c0,2.84,0,5.69,0,8.53C103.2,198.45,103.2,192.61,104.28,191.27z"/>
			<path class="st8" d="M50.48,204.39c0-3.72,0-7.44,0-11.15c0.22,0,0.44,0,0.66,0c0,3.94,0,7.87,0,11.81c0,0.22,0,0.44,0,0.66
				C50.63,205.56,50.38,205.15,50.48,204.39z"/>
			<path class="st3" d="M83.29,200.45c-0.41,2.21,0.84,6.09-0.66,7.22c0-4.37,0-8.75,0-13.12c0.22,0,0.44,0,0.66,0
				C83.29,196.52,83.29,198.48,83.29,200.45z"/>
			<path class="st0" d="M84.6,207.01c-0.54,1.65,1.28,5.65-1.31,5.25c-1.47-0.28-0.27-3.23-0.66-4.59c1.5-1.12,0.24-5.01,0.66-7.22
				C85.21,201.16,82.69,206.31,84.6,207.01z"/>
			<path class="st5" d="M180.39,98.75c-0.76-0.11-0.71-1.04-0.66-1.97c3.41-0.96,8.14-0.61,12.47-0.66c1.7,1.69-1.05,2.28-3.28,1.97
				c-2.21,0.42-6.09-0.84-7.22,0.66C181.27,98.75,180.83,98.75,180.39,98.75z"/>
			<path class="st5" d="M194.17,144.03c-3.11,0.49-4.51-0.74-7.22-0.66C187.93,142.1,194.39,140.57,194.17,144.03z"/>
			<path class="st10" d="M214.51,150.59c-1.47,0.28-0.27,3.23-0.66,4.59c3.01,1.19,1.21-3.44,3.28-1.31
				c4.37,2.01-0.54,6.39-3.28,7.22c-2.52-3.38-3.6-8.21-6.56-11.15c0.89-2.18,4.26-1.86,5.91-3.28c0.66,0,0.78-0.53,1.31-0.65
				c0,0.87,0,1.75,0,2.62C214.51,149.27,214.51,149.93,214.51,150.59z"/>
			<path class="st15" d="M122,157.8c0.49,1.48,3.68,0.26,5.25,0.66c10.46,1.79,21.43,3.07,32.81,3.94c0,0.66-0.53,0.78-0.66,1.31
				c-1.58-0.27-1.43,1.2-3.28,0.66c-7.8,1.61-13.86,4.95-21.65,6.56c-3.06,0-6.12,0-9.18,0c-0.22,0-0.44,0-0.66,0
				c-3.87-1.6-9.25-1.69-14.43-1.97c-5.31,0.5-7.95-1.67-7.87-6.56c1.75-0.43,4.1-0.27,5.25-1.31
				C111.76,159.81,117.2,156.3,122,157.8z"/>
			<path class="st12" d="M58.36,103.35c0,3.94,0,7.87,0,11.81c-0.22,0-0.44,0-0.66,0c0-0.66,0-1.31,0-1.97c0-3.72,0-7.44,0-11.15
				C58.21,102.18,58.46,102.58,58.36,103.35z"/>
			<path class="st1" d="M114.78,189.95c12.25,0,24.49,0,36.74,0c2.19,0,4.37,0,6.56,0c1.09,0,2.19,0,3.28,0c2.19,0,4.37,0,6.56,0
				c3.72,0,7.44,0,11.15,0c4.16,0,8.31,0,12.47,0c0.22,0,0.44,0,0.66,0c0.88,0,1.75,0,2.62,0c-27.99,1.53-58.83,0.22-87.92,0.66
				c0.49-1.48,3.68-0.26,5.25-0.66C113.03,189.95,113.91,189.95,114.78,189.95z"/>
			<path class="st10" d="M176.46,165.68c0-0.22,0-0.44,0-0.66c0.66,0,0.78-0.53,1.31-0.65c0,2.84,0,5.69,0,8.53
				c-0.44,0-0.87,0-1.31,0C176.46,170.49,176.46,168.08,176.46,165.68z"/>
			<path class="st8" d="M132.5,77.76c0,2.41,0,4.81,0,7.22c-0.42,2.21,0.85,6.09-0.66,7.22C132.27,87.59,130.98,81.27,132.5,77.76z"
				/>
			<path class="st8" d="M95.75,105.31c0-5.03,0-10.06,0-15.09c1.52,3.72,0.23,10.27,0.66,15.09
				C96.19,105.31,95.97,105.31,95.75,105.31z"/>
			<path class="st4" d="M133.15,96.79c5.03-1.31,10.5-2.18,15.75-3.28c-0.08,1.15-6.12,1.39-2.63,1.97
				c-1.01,1.4-4.53,0.28-5.25,1.97c4.85,0.48,7.11-1.64,11.81-1.31c0.11,0.76,1.04,0.71,1.97,0.66c-2.88,1.27-6.67,1.63-10.5,1.97
				c-0.83-1.63-7.07,0.29-5.91,0.66c0.66,0,1.31,0,1.97,0c0.11,1.42-2.33,0.3-3.28,0.66c-0.2-0.89-1.64-0.55-2.63-0.66
				c0-0.22,0-0.44,0-0.66c2.45,0.05,4.54-0.28,5.91-1.31c-2.53-0.13-4.84-0.02-6.56,0.66C133.81,97.44,133.28,97.32,133.15,96.79z"
				/>
			<path class="st4" d="M181.71,98.75c2.41,0,4.81,0,7.22,0c0.22,0,0.44,0,0.66,0c0.11,0.76,1.04,0.71,1.97,0.66
				c-1.78,1.94-8.07-0.63-9.84,1.31c-0.87,0-1.75,0-2.63,0c-0.19-1.29,0.89-1.3,1.31-1.97C180.83,98.75,181.27,98.75,181.71,98.75z"
				/>
			<path class="st4" d="M57.7,102.03c0,3.72,0,7.43,0,11.15c-1.88-0.09,0.57-4.5-1.31-4.59c0-1.97,0-3.94,0-5.9
				C56.53,102.18,56.94,101.93,57.7,102.03z"/>
			<path class="st8" d="M95.75,113.84c0-0.66,0-1.31,0-1.97c1.97,12.25-0.65,29.09,1.31,41.33c0,0.22,0,0.44,0,0.66
				c-0.14,0.79-0.73,0.4-1.31,0C95.75,140.53,95.75,127.19,95.75,113.84z"/>
			<path class="st8" d="M106.91,181.42c0.6-4.97-0.7-8.05-1.31-11.81c8.28,2,19.44,1.12,26.24,4.59c0.15,1.24-0.74,1.45-0.66,2.62
				c-1.51,1.55-0.23,5.89-0.66,8.53c0,0.22,0,0.44,0,0.66c-0.87,0-1.75,0-2.62,0c-5.04-0.21-9.4-1.09-13.78-1.97
				C112.61,182.28,107.39,184.22,106.91,181.42z"/>
			<path class="st8" d="M53.11,176.18c0,2.19,0,4.37,0,6.56c0,1.31,0,2.62,0,3.94c-0.22,0-0.44,0-0.66,0
				C52.88,183.38,51.59,178.38,53.11,176.18z"/>
			<path class="st7" d="M165.31,165.68c0-0.44,0-0.87,0-1.31c4.37-0.79,7.68-1.36,11.15,0c0,0.22,0,0.44,0,0.65
				c0,0.22,0,0.44,0,0.66c-1.5,1.13-0.24,5.01-0.66,7.22c-3.74-0.2-6.61-1.26-10.5-1.31C165.31,169.61,165.31,167.65,165.31,165.68z
				"/>
			<path class="st8" d="M130.53,83.66c0,3.94,0,7.87,0,11.81c-1.52-2.64-0.23-8.08-0.66-11.81
				C130.09,83.66,130.31,83.66,130.53,83.66z"/>
			<path class="st3" d="M108.22,96.79c0,4.15,0,8.31,0,12.47c-0.22,0-0.44,0-0.66,0c0-3.5,0-7,0-10.5c0.11-0.98-0.23-2.42,0.66-2.63
				C108.22,96.35,108.22,96.57,108.22,96.79z"/>
			<path class="st1" d="M53.11,182.74c0-2.19,0-4.37,0-6.56c0.1-0.77-0.11-1.86,0.66-1.97C53.34,176.85,54.62,181.19,53.11,182.74z"
				/>
			<path class="st14" d="M155.46,96.79c0.88,0,1.75,0,2.62,0c0,2.19,0,4.37,0,6.56c-0.39,1.36,0.81,4.31-0.66,4.59
				c0.24-2.65-2.24-2.57-3.28-3.94c0.9,0.03,1.44-0.31,1.97-0.65c0-1.31,0-2.62,0-3.94c-1.71,0.26-3.6,0.34-4.59,1.31
				c-1.03,3.07,2.09,3.73,0.66,5.25c0,1.53,0,3.06,0,4.59c0.4,0.91,2.52,0.1,2.62,1.31c-0.51,0.15-1.29,0.02-1.31,0.66
				c-0.76,0.55-1.76,0.87-3.28,0.66c-3.06,0.59-2.01,6.15-0.65,7.87c1.49,0.91,2.54,2.27,3.94,3.28c1.46,2.26,2.96,4.48,4.59,6.56
				c-0.22,0-0.44,0-0.66,0c-5.14,0.11-8.64,1.86-13.12,2.62c-2.48,1.02-5.33,1.67-8.53,1.97c-0.87-0.07-1.74,0.07-1.97-0.66
				c-2.61-8.44,1.94-23.56,0-33.46c0.1-1.44,1.65-1.41,3.28-1.31c0.95-0.36,3.39,0.77,3.28-0.66c0.77-0.76,2.32-0.74,3.94-0.66
				c3.82-0.33,7.62-0.69,10.5-1.97C155.02,96.79,155.24,96.79,155.46,96.79z M148.24,102.03c-0.41-1.4-4.04-0.61-4.59,0
				c-1.05,2.28,1.69,5.82,0.66,3.94c0-0.22,0-0.44,0-0.66C146.99,105.59,148.45,104.64,148.24,102.03z M135.78,103.35
				c0.11,1.86-0.57,4.5,1.31,4.59c0.59-2.48,1.06-2.75,2.62-1.31c1.45-0.08,0.28-2.78,0.66-3.93
				C138.63,102.7,136.62,102.44,135.78,103.35z M145.62,113.84c0.11-0.76,1.04-0.71,1.97-0.66c0.9-0.85,0.65-2.85,0.66-4.59
				C144.28,107.06,142.84,112.71,145.62,113.84z M139.72,114.5c0.1-1.63-0.34-2.72-1.31-3.28
				C137.36,112.2,137.44,114.96,139.72,114.5z"/>
			<path class="st12" d="M146.28,134.84c3.33-0.39,5.26-2.18,9.19-1.97c0.51,2.92-0.87,3.94-0.66,6.56
				c-6.66,2.74-13.9,4.91-21.65,6.56c0-0.88,0-1.75,0-2.63c-0.9-2-1.28-5.63,1.31-5.9C138.11,136.3,142.01,135.39,146.28,134.84z"/>
			<path class="st13" d="M179.74,161.74c1.83-0.3-0.51,3.57,1.31,3.28c0.39-1.36-0.81-4.31,0.66-4.59
				c0.08,4.67-0.14,9.05-1.31,12.47C178.88,170.48,180.17,165.25,179.74,161.74z"/>
			<path class="st3" d="M97.72,105.97c0,0.88,0,1.75,0,2.63c0,5.47,0,10.94,0,16.4c-0.22,0-0.44,0-0.66,0c0-6.12,0-12.25,0-18.37
				c0-0.22,0-0.44,0-0.66C97.29,105.97,97.5,105.97,97.72,105.97z"/>
			<path class="st4" d="M56.39,154.52c1.61,9.48-3.89,17.54-5.9,25.59c-10.4-0.98-21.1-5.15-32.15-3.28
				c10.56,2.34,22.8,3.01,32.81,5.91c0,0.44,0,0.87,0,1.31c-0.53-0.35-1.07-0.68-1.97-0.66c-0.44,0-0.88,0-1.31,0
				c-1.09,0-2.19,0-3.28,0c-0.11-0.77-1.2-0.55-1.97-0.66c-1.6-1.25-5.24-0.45-7.22-1.31c-1.8-1.05-4.33-1.35-7.22-1.31
				c-4.16,0.43-8.96-1.96-11.15-1.31c-0.44,0-0.87,0-1.31,0c-0.53-0.12-0.66-0.66-1.31-0.66c-1.77-7-2.89-18.46,5.91-22.31
				c4.2,0.9,2.39-7.64,7.22-3.94c-1.09,0-2.19,0-3.28,0c5.19,2.03,14.41,3.52,20.34,2.62c4.5-0.12,7.45,1.3,11.81,1.31
				C56.39,155.4,56.39,154.96,56.39,154.52z M30.8,161.08c-3.15,1.08-8.38,0.93-8.53,3.94c6.02-3.39,15.78-3.03,20.34-7.87
				C38.74,157.28,34.74,159.73,30.8,161.08z M20.3,168.3c10.54-3.68,23.8-4.63,32.15-10.5C41.39,160.96,29.98,163.77,20.3,168.3z
				 M40.64,165.02c5.29-1.27,11.43-1.69,14.43-5.25C50.06,161.32,44.22,162.04,40.64,165.02z M46.55,166.33
				c3.19-0.32,9.39-1.08,7.87-3.94C52.32,164.23,47.36,163.21,46.55,166.33z M24.89,172.9c5.8-1.86,12.27-3.05,17.06-5.91
				C35.92,168.61,29.39,169.74,24.89,172.9z M41.95,171.58c3.94-1.75,9.95-1.42,12.47-4.59C49.46,167.71,45.25,169.2,41.95,171.58z
				 M19.64,171.58c4.35-0.9,8.29-2.21,11.81-3.94C27.33,168.77,22.75,169.44,19.64,171.58z M51.8,170.27
				C44.16,171.77,44.76,174.47,51.8,170.27L51.8,170.27z"/>
		</g>
		<g>
			<path class="st8" d="M130.92,70.3c3.57,6.73-0.44,17.19,0.66,25.84C128.32,89.72,131.22,78.16,130.92,70.3z"/>
			<path class="st8" d="M95.14,89.52c1.28,17.33,2.44,45.1,1.32,65.6C95.38,133.89,95.56,111.4,95.14,89.52z"/>
			<path class="st8" d="M72.61,92.17c2.9,21.18,2.35,49.33,1.33,72.23c-2.73-7.44-2.47-18.91-1.99-29.82
				c0.59-13.4-0.58-28.46,0.66-40.42C72.61,93.49,72.61,92.83,72.61,92.17z"/>
			<path class="st8" d="M154.78,100.12c0.44,0,0.88,0,1.32,0c-0.53,2.22-0.01,4.6-4.64,3.98c-0.13-1.9-0.08-3.62,1.99-3.31
				c-0.35,0.53-0.69,1.08-0.66,1.99c0.66,0,1.32,0,1.99,0C155.41,101.54,152.79,100.55,154.78,100.12z"/>
			<path class="st8" d="M148.15,101.44c0.83,3.7-1.48,4.27-3.97,4.64C143.59,102.62,144.75,100.92,148.15,101.44z"/>
			<path class="st8" d="M148.15,108.73c0.58,3.46-0.58,5.16-3.97,4.64C143.59,109.91,144.75,108.21,148.15,108.73z M146.16,112.71
				c0.28-1.04,2.09-0.56,1.33-2.65c-0.66,0-1.33,0-1.99,0C145.61,111.05,145.26,112.5,146.16,112.71z"/>
			<path class="st8" d="M137.55,110.72c0.89,0,1.77,0,2.65,0c0,1.33,0,2.65,0,3.98c-1.87-0.55-1.72,0.93-3.31,0.66
				C136.89,113.6,136.63,111.57,137.55,110.72z"/>
			<path class="st8" d="M209.77,128.61c1.02,2.87,1.8,12.68-0.66,16.57C207.21,140.17,210.06,134.21,209.77,128.61z"/>
			<path class="st8" d="M79.23,157.77c-0.75,2.08,0.19,1.75-0.66,3.31C76.6,161.02,76.8,157.13,79.23,157.77z"/>
			<path class="st8" d="M96.46,158.43c-6.32,2.34-13.16,7.54-19.88,7.29C81.58,161.66,89.41,160.43,96.46,158.43z"/>
			<path class="st8" d="M103.09,175.66c-0.02,2.56-4.7,2.28-7.29,3.31c-3.3,1.33-6.71,4.54-10.6,3.98
				C88.79,178.15,97.84,178.81,103.09,175.66z"/>
			<path class="st8" d="M105.08,175.66c-0.98-6.42-6.87-9.77-7.29-15.24c0.29-3.13,2.4,1.52,3.31,1.99
				c6.3-0.53,10.03-4.48,16.57-5.3c17.1-2.15,37.1,10.08,47.05-1.99c0.32-2.09-1.2-2.34-0.66-4.64c1.61-2.14,3.41-4.1,6.63-4.64
				c-1.38,2.38-5.27,2.24-5.97,5.3c0.78,0.98,0.57,2.96,2.65,2.65c2.15-2.1-1.98-0.25-1.33-2.65c8.68-0.95,8.86,6.6,10.6,12.59
				c-1.19,0.08-1.4-0.81-2.65-0.66c0.01,1.82,3.13,1.57,3.98,0.66c1.62-2.35,0.68-7.27,1.99-9.94c-1.96-2.69-5.63-3.65-9.28-4.64
				c0.37-1.38,1.03-1.4,1.99-0.66c-2.74-3.01-5.8-11.43-12.59-12.59c0.16-10.62-13.32-10.87-11.27-21.2
				c1.61-1.26,3.28-2.47,6.63-1.99c-1.16-1.95-4.95-3.99-2.65-7.29c3.87-0.78,3.79,2.39,5.96,3.31c0-4.2,0-8.39,0-12.59
				c-8.32,1.62-16.86,3.02-25.18,4.64c-0.37,11.56,0.78,24.64-0.66,35.12c7.06-0.45,17.57-3.19,25.18-5.3
				c-2.03,1.95-1.17,6.78-1.32,10.6c-13.99,4.52-30.36,10.6-45.72,3.31c0-3.09,0-6.19,0-9.28c-0.67-1.1-2.81-0.72-3.98-1.33
				c-0.2-13.01,0.11-25.52,0.66-37.77c1.67-1.42,5.27-0.92,7.29-1.99c-0.15-7-1.59-15.2,0-21.87c2.98,5.39-0.6,15.15,0.66,23.19
				c4.02,1.72,11.78-0.29,15.9,1.33c-6.33,3.73-16.53-2.95-22.53,0c16.24,4.35,33.4,2.08,49.03-1.99
				c-8.62-1.99-16.02,2.97-25.18,2.65c5.64-1.87,12.07-2.95,18.55-3.98c-0.93-5.41-1.03-14.35,1.33-18.55
				c-0.41,5.56-0.95,10.98-0.67,17.23c1.99,1.1,5.69,0.5,7.95,1.33c-0.44,5.09,0.88,11.92-0.66,15.9
				c6.34,3.82,5.64,14.68,11.93,18.55c1.44,1.38-0.08,2.14-0.66,3.31c0.98,2.33,3.76,2.86,5.3,4.64c3.94-6,4.6-15.28,9.94-19.88
				c-1.81-6.37-9.85-9.33-9.27-15.91c0.39-4.41,5.48-5.39,4.64-11.26c3.8-3.64,7.49-7.25,13.25-6.63
				c11.96,1.29,8.39,18.26,8.61,27.83c5.29,5.31,17.89,3.31,20.54,11.26c-4.05-1.92-6.82-5.11-11.93-5.96
				c-1.1,0.88-1.03,2.95-1.99,3.98c0.61,1.8,2.07-0.93,3.98,0c-5.97,3.97-9.48,10.41-13.92,15.9c0.17,1.38,2.91,0.18,3.31,1.33
				c0.11,1.43-2.35,0.3-3.31,0.66c0.21,2.47,5.72,7.32,3.31,12.59c11.63-1.67,22.28-13.45,20.54-28.5
				c7.23,10.53-7.36,18.21-6.63,27.17c0.22,2.74,3.39,4.21,3.98,6.63 M157.43,161.08c2.31,1,9.42,0,7.95,2.65
				c3.77,0.01,6.39-1.12,9.28-1.99C174.22,146.38,163.28,156.88,157.43,161.08z M169.35,131.93c-0.5,2.15-1.1,4.2-3.98,3.97
				c5.28,9.57,14.23,20.87,29.16,16.57c1.92-3.58,2.54-8.44-0.66-11.26C183.37,144.89,175.95,136.31,169.35,131.93z M209.11,114.7
				c-0.94-0.16-1.12-1.09-1.99-1.32c0.27,8.07-14.09,13.77-17.23,4.64c-0.09,4.77-2.48,7.24-1.99,12.59
				c4.16,0.48,8.25,1.02,11.93,1.99C204.42,128.11,206.22,120.86,209.11,114.7z M191.88,94.15c4.38,0.68,6.7,4.05,7.95,2.65
				c-2.69-6.27-13.52-5.37-17.23-2.65C184.92,94.82,188.53,93.63,191.88,94.15z M195.86,96.14c-10.25-3.89-24.14,2.32-14.58,10.6
				c4.57-0.5,9.56-0.05,13.92,1.33c0.66-1.67-1.57-5.25-2.65-7.29c-3.29-1.27-11.13-0.29-13.25-0.66
				c4.87-2.26,14.45-2.28,16.57,2.65c0.66,1.53-1.61,3.22,1.32,3.97C198.7,103.26,197.49,98.5,195.86,96.14z M199.84,109.39
				c-1.29,4.23-4.91,6.14-6.63,9.94c-0.14-0.74-0.73-1.03-1.33-1.33c4.21,4.62,13.26,2.99,13.92-3.97
				c-4.16-0.47-3.09-6.19-6.63-7.29c2.88-0.21,2.55-3.64,2.65-6.63c-3.68,2.32-2.91,8.91-9.28,9.94c2.44-0.64,2.63,3.26,0.66,3.31
				c2.3-2.14-3.84-2.28-1.33-4.64c-2.77,0.56-3.13-1.29-5.3-1.32c0,0.44,0,0.88,0,1.32c0.14,0.51,0.01,1.31,0.66,1.33
				c1.71-1.85,2.26,0.3,0.66,1.33c0.96,0.36,3.42-0.78,3.31,0.66c-1.86,1.4-3.4,0.43-0.66,1.99c-1.26-0.15-1.46,0.74-2.65,0.66
				c-0.96-0.37-1.62-1.03-1.99-1.99c0.78-0.1,1.88,0.12,1.99-0.66c-2.04,0.49-1.27-1.82-3.32-1.33
				C186.68,120.92,197.27,114.69,199.84,109.39z M159.42,114.03c-3.58,0.4-4.65,0.55-9.28,0.66c-0.49,2.47,0.89,4.52,0.66,7.29
				c5.18,2.6,11.27,6.91,10.6,13.25c1.55,0,3.09,0,4.64,0c2-1.31,1.18-5.44,4.64-5.3c-7.87-5.47-6.25-19.89-17.23-23.86
				C152.22,109.8,157.71,111.18,159.42,114.03z M131.58,123.97c-0.36-3.41,0.77-11.79-0.66-11.93
				C131.28,115.46,130.15,123.84,131.58,123.97z M183.27,133.91c0.27-5.77,5.64-13.26,3.32-17.23
				C183.8,120.43,177.65,129.96,183.27,133.91z M184.59,138.55c-0.69-2.71,2.04-5.42,0-7.29
				C185.28,133.98,182.55,136.68,184.59,138.55z M177.97,137.23c2.1-0.11,2.21,1.76,4.64,1.32c-0.2-2.89-1.66-4.52-2.65-6.63
				C179.92,134.32,178.31,135.13,177.97,137.23z M132.24,138.55c-0.39,3.48,1.17,5.02,0.66,8.61c7.63-2.31,15.6-4.28,22.53-7.29
				c-0.38-3.02,1.18-4.13,0.66-7.29C147.91,134.33,140.45,136.81,132.24,138.55z M191.22,140.54c4.64-1.78,6.13,4.17,6.63,8.62
				c-1.79,1.52-2.93,3.69-3.98,5.96c1.83,1.01,5.2-1.15,7.29-1.99C206.26,145.75,196.6,130.89,191.22,140.54z M207.79,150.48
				c2.99,2.97,4.08,7.85,6.62,11.27c2.59-0.95,4.36-2.71,5.3-5.3c-1.22-0.99-1.65-2.76-3.31-3.31c0.18,1.73-0.24,2.85-1.99,2.65
				c-0.03-4.22,0.95-7.45,1.99-10.6C213.44,146.86,210.72,148.77,207.79,150.48z M213.09,161.74c-3.05-2.69-3.52-7.96-6.63-10.6
				C208.15,154.76,209.99,161.74,213.09,161.74z M181.28,174.33c-0.37-7.43,0.81-13.32,1.32-19.88c-0.91,0.03-1.45-0.31-1.99-0.66
				C180.42,159.41,178.33,169.96,181.28,174.33z M132.91,173.67c0.28,4.7-0.24,8.59-0.66,12.59c10.57-3.35,18.86-8.98,31.15-10.6
				c-0.4-4.82,0.51-8.33,0.66-12.59c-22.2-0.88-45.38-9.63-62.29,0.66c0.11,1.87,1.21,2.76,1.32,4.64
				c10.37,1.19,20.47,5.17,30.49,3.98c10.11-1.2,19.31-9.82,29.16-7.95C152.87,167.58,143.51,171.24,132.91,173.67z M215.74,179.63
				c2.08-4.11,3.46-12.43,2.65-17.23C213.66,164.76,216.44,172.34,215.74,179.63z"/>
			<path class="st8" d="M161.4,116.69c-1.77,1.77-3.34,3.72-4.64,5.96C154.97,119.94,158.92,117.32,161.4,116.69z"/>
			<path class="st8" d="M73.93,165.72c4.9,3.72,5.59,11.64,9.94,15.9c-0.08,11.3-0.41,22.41-0.66,31.81
				c-3.07-9.12,1.26-21.77-0.66-30.48C80.93,175.59,75.22,171.82,73.93,165.72z"/>
			<path class="st8" d="M137.55,102.77c1.39-0.28,1.75,0.45,2.65,0.66c0.35,3-0.97,4.32-3.98,3.97
				C136.01,105.21,136.12,103.33,137.55,102.77z"/>
		</g>
		<path class="st16" d="M194.92,107.01c-1.5,0.23-3.74-0.62-6.01-0.83c-2.22-0.2-3.57,0.57-5.66,0.46c-4.73-0.24-6.72-3.55-3.3-7.98
			c2.18-2.83,9.6-6.11,13.56-4.4c4.77,2.06,4,8.62,2.35,12.28"/>
	</g>
	<path class="st17" d="M159.33,113.64c-3.58,0.4-4.65,0.55-9.28,0.66c-0.49,2.47,0.89,4.52,0.66,7.29
		c5.18,2.6,11.27,6.91,10.6,13.25c1.55,0,3.1,0,4.64,0c2-1.31,1.18-5.44,4.64-5.3c-7.87-5.47-6.25-19.89-17.23-23.86
		C152.14,109.41,157.63,110.78,159.33,113.64z"/>
	<path class="st9" d="M205.91,150.46c1.93,3.77,1.62,9.79,6.58,10.53c-0.04,1.13,0.51,1.69,1.32,1.97
		c-1.22,4.27-0.31,10.66-1.32,15.13c-10.24-2.26-22.29-2.72-32.24-5.26c1.17-3.43,1.39-7.82,1.32-12.5c1.1-1.09,0.52-3.86,0.66-5.92
		c4.99-1.41,9.16,1.51,12.5,1.32C199.91,155.43,201.07,151.85,205.91,150.46z"/>
	<path class="st9" d="M184.86,130.06c1.3,0.69,9.24,3.9,13.16,1.97c0.22,0,0.44,0,0.66,0c-2.38,3.76-9.88,2.4-9.87,8.55
		c-1.59-0.82-3.2-1.63-5.26-1.97c0-0.66,0-1.31,0-1.97C185.34,135.9,185.52,131.21,184.86,130.06z"/>
</g>
</svg>
