<?xml version="1.0" encoding="utf-8"?>
<!-- Generator: Adobe Illustrator 25.0.0, SVG Export Plug-In . SVG Version: 6.00 Build 0)  -->
<svg version="1.1" id="первая_страница"
	 xmlns="http://www.w3.org/2000/svg" xmlns:xlink="http://www.w3.org/1999/xlink" x="0px" y="0px" viewBox="0 0 300 303"
	 style="enable-background:new 0 0 300 303;" xml:space="preserve">
<style type="text/css">
	.st0{fill:#EC5A2E;}
	.st1{fill:#FFFFFF;}
	.st2{clip-path:url(#SVGID_2_);}
	.st3{fill-rule:evenodd;clip-rule:evenodd;fill:#3C3C3B;}
	.st4{fill-rule:evenodd;clip-rule:evenodd;fill:#C3C5C5;}
	.st5{fill-rule:evenodd;clip-rule:evenodd;fill:#736B48;}
	.st6{fill-rule:evenodd;clip-rule:evenodd;fill:#979D9C;}
	.st7{fill-rule:evenodd;clip-rule:evenodd;fill:#7A8981;}
	.st8{fill-rule:evenodd;clip-rule:evenodd;fill:#FFFFFF;}
	.st9{fill-rule:evenodd;clip-rule:evenodd;fill:#F7D1B1;}
	.st10{fill-rule:evenodd;clip-rule:evenodd;fill:#EC5A2E;}
	.st11{fill-rule:evenodd;clip-rule:evenodd;fill:#1D1D1B;}
	.st12{fill-rule:evenodd;clip-rule:evenodd;fill:#F29100;}
	.st13{fill-rule:evenodd;clip-rule:evenodd;fill:#ECEFEC;}
	.st14{fill-rule:evenodd;clip-rule:evenodd;fill:#CBA477;}
	.st15{fill-rule:evenodd;clip-rule:evenodd;fill:#9C9B9B;}
	.st16{fill-rule:evenodd;clip-rule:evenodd;fill:#CAB2A1;}
	.st17{fill-rule:evenodd;clip-rule:evenodd;fill:#C6C6C5;}
	.st18{fill-rule:evenodd;clip-rule:evenodd;fill:#B1B1B1;}
	.st19{fill-rule:evenodd;clip-rule:evenodd;fill:#A6C5C0;}
	.st20{fill-rule:evenodd;clip-rule:evenodd;fill:#F8B133;}
	.st21{fill-rule:evenodd;clip-rule:evenodd;fill:#EC5A2E;stroke:#1D1D1B;stroke-width:0.7592;}
	.st22{fill-rule:evenodd;clip-rule:evenodd;fill:#D9D9D9;stroke:#1D1D1B;stroke-width:0.7592;}
	.st23{fill-rule:evenodd;clip-rule:evenodd;fill:none;stroke:#1D1D1B;stroke-width:0.7592;}
	.st24{fill-rule:evenodd;clip-rule:evenodd;fill:#F29100;stroke:#1D1D1B;stroke-width:0.7592;}
	.st25{fill-rule:evenodd;clip-rule:evenodd;fill:none;stroke:#E84E1B;stroke-width:0.6203;}
	.st26{fill-rule:evenodd;clip-rule:evenodd;fill:#C6C6C5;stroke:#1D1D1B;stroke-width:0.7592;}
	.st27{fill-rule:evenodd;clip-rule:evenodd;fill:#FFFFFF;stroke:#1D1D1B;stroke-width:0.7592;}
	.st28{fill-rule:evenodd;clip-rule:evenodd;fill:#B1B1B1;stroke:#1D1D1B;stroke-width:0.7592;}
	.st29{fill-rule:evenodd;clip-rule:evenodd;fill:none;stroke:#1D1D1B;stroke-width:0.3508;}
	.st30{fill-rule:evenodd;clip-rule:evenodd;fill:none;stroke:#FFFFFF;stroke-width:0.7592;}
	.st31{fill-rule:evenodd;clip-rule:evenodd;fill:#D9D9D9;stroke:#1D1D1B;stroke-width:0.7909;}
	.st32{fill-rule:evenodd;clip-rule:evenodd;fill:none;stroke:#1D1D1B;stroke-width:0.7909;}
	.st33{fill-rule:evenodd;clip-rule:evenodd;fill:#1D1D1B;stroke:#1D1D1B;stroke-width:0.0798;}
	.st34{fill:#9C9B9B;}
	.st35{opacity:0.9;}
	.st36{fill:#E9F1EF;}
	.st37{fill:#F1F6F5;}
	.st38{fill:#D0E1DE;}
	.st39{fill:#C7DAD7;}
	.st40{fill:#E0EBE9;}
	.st41{fill:#D9E6E4;}
	.st42{fill:#BDD4D0;}
	.st43{fill-rule:evenodd;clip-rule:evenodd;fill:#FFFFFF;stroke:#1D1D1B;stroke-width:0.2282;}
	.st44{fill-rule:evenodd;clip-rule:evenodd;fill:none;}
	.st45{fill:#CBCBCB;}
	.st46{fill:#DDDDDD;}
	.st47{fill:#E5E5E5;}
	.st48{fill:#E1E1E1;}
	.st49{fill:#D1D1D1;}
	.st50{fill:#D4D4D3;}
	.st51{fill:#BABAB9;}
	.st52{fill:#C1C1C1;}
	.st53{fill:#C5C5C4;}
	.st54{fill:#F0F0F0;}
	.st55{fill:#ECECEC;}
	.st56{fill:#B0D0C0;}
	.st57{fill:#CBE0D5;}
	.st58{fill:#D8E8E0;}
	.st59{fill:#D1E3DA;}
	.st60{fill:#B9D5C7;}
	.st61{fill:#BDD7CA;}
	.st62{fill:#96C0AB;}
	.st63{fill:#A1C7B4;}
	.st64{fill:#A6CAB8;}
	.st65{fill:#E8F1ED;}
	.st66{fill:#E3EEE9;}
	.st67{fill-rule:evenodd;clip-rule:evenodd;fill:#1D1D1B;stroke:#1D1D1B;stroke-width:0.2234;}
	.st68{fill:#1D1D1B;}
	.st69{fill:#E84E1B;}
	.st70{fill-rule:evenodd;clip-rule:evenodd;fill:#D9D9D9;}
	.st71{fill:#575756;}
	.st72{fill:#649898;}
	.st73{fill:#7A8981;}
	.st74{clip-path:url(#SVGID_6_);}
	.st75{fill:none;}
	.st76{fill-rule:evenodd;clip-rule:evenodd;}
	.st77{fill-rule:evenodd;clip-rule:evenodd;fill:#62697F;}
	.st78{fill-rule:evenodd;clip-rule:evenodd;fill:#06080B;}
	.st79{fill-rule:evenodd;clip-rule:evenodd;fill:#B1B8CF;}
	.st80{fill-rule:evenodd;clip-rule:evenodd;fill:#B9C5D9;}
	.st81{fill-rule:evenodd;clip-rule:evenodd;fill:#D6DFF0;}
</style>
<g>
	<g>
		<polygon class="st0" points="273.64,0.78 273.5,0 2.23,0 30.91,154.76 0,303 266.86,303 300,154.52 		"/>
		<polygon class="st1" points="258.25,301.13 2.3,301.13 32.82,154.78 4.47,1.87 264.82,1.87 290.99,154.47 		"/>
	</g>
	<g>
		<path d="M36.06,227.66h0.99v3.1h3.67v-3.1h0.98v7.06h-0.98v-3.1h-3.67v3.1h-0.99V227.66z"/>
		<path d="M46.88,231.57h0.26v-0.1c0-0.83-0.48-1.11-1.11-1.11c-0.5,0-1.01,0.2-1.42,0.49l-0.39-0.71c0.41-0.34,1.18-0.6,1.89-0.6
			c1.27,0,2,0.7,2,1.98v3.2H47.2v-0.51c0-0.23,0.03-0.4,0.03-0.4h-0.02c-0.29,0.58-0.91,1.03-1.66,1.03c-0.88,0-1.69-0.55-1.69-1.5
			C43.86,231.75,45.83,231.57,46.88,231.57z M45.78,234.07c0.85,0,1.36-0.86,1.36-1.61v-0.19h-0.25c-0.72,0-2.06,0.06-2.06,0.99
			C44.83,233.66,45.15,234.07,45.78,234.07z"/>
		<path d="M50.51,229.66h0.93v4.22h1.87v-4.22h0.94v4.22h1.87v-4.22h0.93v5.06h-6.54V229.66z"/>
		<path d="M59.52,229.66h0.93v3.02c0,0.27-0.02,0.63-0.03,0.68h0.02c0.04-0.09,0.28-0.44,0.45-0.68l2.18-3.02h0.94v5.06h-0.94v-3.02
			c0-0.24,0.03-0.59,0.03-0.67h-0.02c-0.03,0.09-0.28,0.43-0.44,0.67l-2.19,3.02h-0.93V229.66z"/>
		<path d="M69.94,229.66h0.97v2.04h0.71l1.38-2.04h1.1l-1.69,2.41v0.02l1.89,2.63h-1.15l-1.51-2.19h-0.73v2.19h-0.97V229.66z"/>
		<path d="M78.31,229.54c1.51,0,2.73,1.11,2.73,2.64c0,1.54-1.22,2.66-2.72,2.66c-1.51,0-2.73-1.12-2.73-2.66
			C75.59,230.65,76.81,229.54,78.31,229.54z M78.32,234c0.95,0,1.74-0.76,1.74-1.82c0-1.05-0.79-1.8-1.74-1.8
			c-0.96,0-1.74,0.75-1.74,1.8C76.58,233.24,77.36,234,78.32,234z"/>
		<path d="M83.18,229.66h0.97v2.06h2.56v-2.06h0.97v5.06h-0.97v-2.17h-2.56v2.17h-0.97V229.66z"/>
		<path d="M92.53,229.54c0.67,0,1.42,0.23,1.9,0.74l-0.46,0.68c-0.34-0.34-0.87-0.58-1.4-0.58c-1.02,0-1.76,0.77-1.76,1.8
			c0,1.03,0.74,1.82,1.79,1.82c0.56,0,1.17-0.27,1.56-0.68l0.39,0.71c-0.46,0.49-1.23,0.81-2.02,0.81c-1.6,0-2.71-1.13-2.71-2.65
			C89.82,230.69,90.94,229.54,92.53,229.54z"/>
		<path d="M97.79,230.49h-1.76v-0.83h4.49v0.83h-1.77v4.23h-0.96V230.49z"/>
		<path d="M102.44,229.66h0.9v0.45c0,0.21-0.03,0.38-0.03,0.38h0.02c0.32-0.61,0.96-0.95,1.7-0.95c1.37,0,2.22,1.08,2.22,2.65
			c0,1.61-0.96,2.65-2.29,2.65c-0.64,0-1.22-0.32-1.57-0.86h-0.02c0,0,0.04,0.18,0.04,0.44v2.3h-0.97V229.66z M104.81,234
			c0.8,0,1.46-0.65,1.46-1.8c0-1.1-0.59-1.81-1.43-1.81c-0.76,0-1.46,0.54-1.46,1.82C103.38,233.11,103.88,234,104.81,234z"/>
		<path d="M109.6,235.99c0.4,0,0.73-0.29,0.92-0.75l0.25-0.58l-2.12-5h1.09l1.27,3.31c0.1,0.25,0.19,0.61,0.19,0.61h0.02
			c0,0,0.08-0.34,0.17-0.6l1.23-3.32h1.05l-2.38,5.97c-0.3,0.79-0.93,1.19-1.64,1.19c-0.56,0-0.97-0.31-0.97-0.31l0.34-0.74
			C109.02,235.77,109.3,235.99,109.6,235.99z"/>
		<path d="M115.59,229.66h0.97v2.04h0.71l1.38-2.04h1.1l-1.69,2.41v0.02l1.89,2.63h-1.15l-1.51-2.19h-0.73v2.19h-0.97V229.66z"/>
		<path d="M123,230.49h-1.76v-0.83h4.49v0.83h-1.77v4.23H123V230.49z"/>
		<path d="M129.87,229.54c1.51,0,2.73,1.11,2.73,2.64c0,1.54-1.22,2.66-2.72,2.66c-1.51,0-2.73-1.12-2.73-2.66
			C127.15,230.65,128.37,229.54,129.87,229.54z M129.88,234c0.95,0,1.74-0.76,1.74-1.82c0-1.05-0.79-1.8-1.74-1.8
			c-0.96,0-1.74,0.75-1.74,1.8C128.14,233.24,128.92,234,129.88,234z"/>
		<path d="M134.74,229.66h0.9v0.45c0,0.21-0.03,0.38-0.03,0.38h0.02c0.32-0.61,0.96-0.95,1.7-0.95c1.37,0,2.22,1.08,2.22,2.65
			c0,1.61-0.96,2.65-2.29,2.65c-0.64,0-1.22-0.32-1.57-0.86h-0.02c0,0,0.04,0.18,0.04,0.44v2.3h-0.97V229.66z M137.11,234
			c0.8,0,1.46-0.65,1.46-1.8c0-1.1-0.59-1.81-1.43-1.81c-0.76,0-1.46,0.54-1.46,1.82C135.68,233.11,136.18,234,137.11,234z"/>
		<path d="M144.32,231.57h0.26v-0.1c0-0.83-0.48-1.11-1.11-1.11c-0.5,0-1.01,0.2-1.42,0.49l-0.39-0.71c0.41-0.34,1.18-0.6,1.89-0.6
			c1.27,0,2,0.7,2,1.98v3.2h-0.91v-0.51c0-0.23,0.03-0.4,0.03-0.4h-0.02c-0.29,0.58-0.91,1.03-1.66,1.03c-0.88,0-1.69-0.55-1.69-1.5
			C141.3,231.75,143.27,231.57,144.32,231.57z M143.22,234.07c0.85,0,1.36-0.86,1.36-1.61v-0.19h-0.25c-0.72,0-2.06,0.06-2.06,0.99
			C142.27,233.66,142.59,234.07,143.22,234.07z"/>
		<path d="M151.42,229.66h0.9v0.45c0,0.21-0.03,0.38-0.03,0.38h0.02c0.32-0.61,0.96-0.95,1.7-0.95c1.37,0,2.22,1.08,2.22,2.65
			c0,1.61-0.96,2.65-2.29,2.65c-0.64,0-1.22-0.32-1.57-0.86h-0.02c0,0,0.04,0.18,0.04,0.44v2.3h-0.97V229.66z M153.79,234
			c0.8,0,1.46-0.65,1.46-1.8c0-1.1-0.59-1.81-1.43-1.81c-0.76,0-1.46,0.54-1.46,1.82C152.36,233.11,152.86,234,153.79,234z"/>
		<path d="M161,231.57h0.26v-0.1c0-0.83-0.48-1.11-1.11-1.11c-0.5,0-1.01,0.2-1.42,0.49l-0.39-0.71c0.41-0.34,1.18-0.6,1.89-0.6
			c1.27,0,2,0.7,2,1.98v3.2h-0.91v-0.51c0-0.23,0.03-0.4,0.03-0.4h-0.02c-0.29,0.58-0.91,1.03-1.66,1.03c-0.88,0-1.69-0.55-1.69-1.5
			C157.98,231.75,159.95,231.57,161,231.57z M159.9,234.07c0.85,0,1.36-0.86,1.36-1.61v-0.19H161c-0.72,0-2.06,0.06-2.06,0.99
			C158.95,233.66,159.27,234.07,159.9,234.07z"/>
		<path d="M164.59,233.46c0.23,0.24,0.71,0.6,1.32,0.6c0.58,0,1.05-0.28,1.05-0.83c0-0.49-0.33-0.77-1.04-0.77h-0.62v-0.7h0.53
			c0.57,0,0.96-0.22,0.96-0.73c0-0.47-0.34-0.73-0.9-0.73c-0.44,0-0.84,0.15-1.23,0.44l-0.36-0.65c0.39-0.29,0.96-0.55,1.76-0.55
			c0.96,0,1.71,0.47,1.71,1.37c0,0.63-0.34,0.98-0.74,1.15v0.02c0.51,0.16,0.91,0.54,0.91,1.19c0,1.04-0.9,1.57-1.94,1.57
			c-0.78,0-1.44-0.34-1.86-0.74L164.59,233.46z"/>
		<path d="M170.08,229.66h0.9v0.45c0,0.21-0.03,0.38-0.03,0.38h0.02c0.32-0.61,0.96-0.95,1.7-0.95c1.37,0,2.22,1.08,2.22,2.65
			c0,1.61-0.96,2.65-2.29,2.65c-0.64,0-1.22-0.32-1.57-0.86H171c0,0,0.04,0.18,0.04,0.44v2.3h-0.97V229.66z M172.44,234
			c0.8,0,1.46-0.65,1.46-1.8c0-1.1-0.59-1.81-1.43-1.81c-0.76,0-1.46,0.54-1.46,1.82C171.02,233.11,171.51,234,172.44,234z"/>
		<path d="M179.66,231.57h0.26v-0.1c0-0.83-0.48-1.11-1.11-1.11c-0.5,0-1.01,0.2-1.42,0.49l-0.39-0.71c0.41-0.34,1.18-0.6,1.89-0.6
			c1.27,0,2,0.7,2,1.98v3.2h-0.91v-0.51c0-0.23,0.03-0.4,0.03-0.4h-0.02c-0.29,0.58-0.91,1.03-1.66,1.03c-0.88,0-1.69-0.55-1.69-1.5
			C176.64,231.75,178.61,231.57,179.66,231.57z M178.56,234.07c0.85,0,1.36-0.86,1.36-1.61v-0.19h-0.25c-0.72,0-2.06,0.06-2.06,0.99
			C177.61,233.66,177.93,234.07,178.56,234.07z"/>
		<path d="M185.34,228.16l1.81-0.78l0.32,0.8l-1.94,0.81c-1.01,0.46-1.49,1.05-1.56,2.02H184c0.45-0.68,1.12-0.9,1.79-0.9
			c1.27,0,2.15,0.9,2.15,2.33c0,1.4-0.96,2.4-2.39,2.4c-1.71,0-2.48-1.28-2.48-3.03C183.07,230,183.59,228.9,185.34,228.16z
			 M185.5,234.02c0.8,0,1.45-0.58,1.45-1.56c0-0.99-0.65-1.58-1.41-1.58c-0.86,0-1.47,0.67-1.47,1.56
			C184.08,233.44,184.72,234.02,185.5,234.02z"/>
		<path d="M192.72,231.57h0.26v-0.1c0-0.83-0.48-1.11-1.11-1.11c-0.5,0-1.01,0.2-1.42,0.49l-0.39-0.71c0.41-0.34,1.18-0.6,1.89-0.6
			c1.27,0,2,0.7,2,1.98v3.2h-0.91v-0.51c0-0.23,0.03-0.4,0.03-0.4h-0.02c-0.29,0.58-0.91,1.03-1.66,1.03c-0.88,0-1.69-0.55-1.69-1.5
			C189.7,231.75,191.67,231.57,192.72,231.57z M191.62,234.07c0.85,0,1.36-0.86,1.36-1.61v-0.19h-0.25c-0.72,0-2.06,0.06-2.06,0.99
			C190.67,233.66,190.99,234.07,191.62,234.07z"/>
		<path d="M197.5,230.49h-1.76v-0.83h4.49v0.83h-1.77v4.23h-0.96V230.49z"/>
		<path d="M202.15,229.66h0.97v1.83h0.99c1.05,0,1.84,0.48,1.84,1.63c0,0.95-0.58,1.6-1.85,1.6h-1.95V229.66z M203.96,234.02
			c0.7,0,1-0.38,1-0.91c0-0.54-0.31-0.92-1.01-0.92h-0.84v1.83H203.96z M206.72,229.66h0.97v5.06h-0.97V229.66z"/>
		<path d="M210.17,229.66h2.09c1.02,0,1.69,0.45,1.69,1.3c0,0.49-0.26,0.91-0.72,1.11v0.01c0.63,0.15,0.96,0.64,0.96,1.2
			c0,0.94-0.76,1.44-1.86,1.44h-2.16V229.66z M212.09,231.8c0.58,0,0.87-0.3,0.87-0.77c0-0.46-0.29-0.7-0.9-0.7h-0.92v1.47H212.09z
			 M212.18,234.04c0.7,0,1.03-0.32,1.03-0.79c0-0.5-0.37-0.8-1.04-0.8h-1.03v1.59H212.18z"/>
		<path d="M218.94,231.57h0.26v-0.1c0-0.83-0.48-1.11-1.11-1.11c-0.5,0-1.01,0.2-1.42,0.49l-0.39-0.71c0.41-0.34,1.18-0.6,1.89-0.6
			c1.27,0,2,0.7,2,1.98v3.2h-0.91v-0.51c0-0.23,0.03-0.4,0.03-0.4h-0.02c-0.29,0.58-0.91,1.03-1.66,1.03c-0.88,0-1.69-0.55-1.69-1.5
			C215.92,231.75,217.89,231.57,218.94,231.57z M217.84,234.07c0.85,0,1.36-0.86,1.36-1.61v-0.19h-0.25c-0.72,0-2.06,0.06-2.06,0.99
			C216.89,233.66,217.21,234.07,217.84,234.07z"/>
		<path d="M222.57,229.66h0.97v2.12h0.92c0.18-1.31,1.25-2.24,2.58-2.24c1.47,0,2.64,1.11,2.64,2.64c0,1.54-1.17,2.66-2.63,2.66
			c-1.34,0-2.41-0.94-2.59-2.26h-0.92v2.14h-0.97V229.66z M227.04,234c0.91,0,1.64-0.76,1.64-1.82c0-1.05-0.73-1.8-1.64-1.8
			c-0.92,0-1.65,0.75-1.65,1.8C225.39,233.24,226.12,234,227.04,234z"/>
		<path d="M232.87,230.49h-1.76v-0.83h4.49v0.83h-1.77v4.23h-0.96V230.49z"/>
		<path d="M33,242.66h4.42v5.06h-0.97v-4.23h-2.48v4.23H33V242.66z"/>
		<path d="M42.28,242.54c1.51,0,2.73,1.11,2.73,2.64c0,1.54-1.22,2.66-2.72,2.66c-1.51,0-2.73-1.12-2.73-2.66
			C39.57,243.65,40.78,242.54,42.28,242.54z M42.29,247c0.95,0,1.74-0.76,1.74-1.82c0-1.05-0.79-1.8-1.74-1.8
			c-0.96,0-1.74,0.75-1.74,1.8C40.55,246.24,41.33,247,42.29,247z"/>
		<path d="M47.02,246.92c0.71-0.97,0.79-2.55,0.79-3.33v-0.93h3.42v4.26h0.72v2h-0.89v-1.2H47.3v1.2H46.4v-2H47.02z M50.25,246.92
			v-3.47h-1.52v0.27c0,0.76-0.08,2.2-0.72,3.2H50.25z"/>
		<path d="M53.94,242.66h0.9v0.45c0,0.21-0.03,0.38-0.03,0.38h0.02c0.32-0.61,0.96-0.95,1.7-0.95c1.37,0,2.22,1.08,2.22,2.65
			c0,1.61-0.96,2.65-2.29,2.65c-0.64,0-1.22-0.32-1.57-0.86h-0.02c0,0,0.04,0.18,0.04,0.44v2.3h-0.97V242.66z M56.3,247
			c0.8,0,1.46-0.65,1.46-1.8c0-1.1-0.59-1.81-1.43-1.81c-0.76,0-1.46,0.54-1.46,1.82C54.87,246.11,55.37,247,56.3,247z"/>
		<path d="M63.3,242.54c1.51,0,2.73,1.11,2.73,2.64c0,1.54-1.22,2.66-2.72,2.66c-1.51,0-2.73-1.12-2.73-2.66
			C60.58,243.65,61.8,242.54,63.3,242.54z M63.31,247c0.95,0,1.74-0.76,1.74-1.82c0-1.05-0.79-1.8-1.74-1.8
			c-0.96,0-1.74,0.75-1.74,1.8C61.57,246.24,62.35,247,63.31,247z"/>
		<path d="M70.23,241.16l1.81-0.78l0.32,0.8l-1.94,0.81c-1.01,0.46-1.49,1.05-1.56,2.02h0.02c0.45-0.68,1.12-0.9,1.79-0.9
			c1.27,0,2.15,0.9,2.15,2.33c0,1.4-0.96,2.4-2.39,2.4c-1.71,0-2.48-1.28-2.48-3.03C67.96,243,68.47,241.9,70.23,241.16z
			 M70.39,247.02c0.8,0,1.45-0.58,1.45-1.56c0-0.99-0.65-1.58-1.41-1.58c-0.86,0-1.47,0.67-1.47,1.56
			C68.96,246.44,69.61,247.02,70.39,247.02z"/>
		<path d="M75,242.66h0.97v2.06h2.56v-2.06h0.97v5.06h-0.97v-2.17h-2.56v2.17H75V242.66z"/>
		<path d="M81.97,242.66h0.97v1.83h0.99c1.05,0,1.84,0.48,1.84,1.63c0,0.95-0.58,1.6-1.85,1.6h-1.95V242.66z M83.79,247.02
			c0.7,0,1-0.38,1-0.91c0-0.54-0.31-0.92-1.01-0.92h-0.84v1.83H83.79z M86.55,242.66h0.97v5.06h-0.97V242.66z"/>
		<path d="M92.2,242.54c1.43,0,2.19,1.07,2.19,2.37c0,0.13-0.02,0.27-0.04,0.41h-3.68c0.05,1.09,0.83,1.68,1.74,1.68
			c0.54,0,1.09-0.23,1.49-0.59l0.41,0.71c-0.49,0.45-1.26,0.72-1.96,0.72c-1.59,0-2.69-1.15-2.69-2.65
			C89.66,243.58,90.76,242.54,92.2,242.54z M93.41,244.62c-0.03-0.87-0.57-1.33-1.23-1.33c-0.75,0-1.34,0.49-1.48,1.33H93.41z"/>
		<path d="M99.68,244.31v-1.65h0.95v1.51c0,0.5,0.18,0.95,1.01,0.95c0.5,0,0.91-0.21,1.12-0.36v-2.1h0.97v5.06h-0.97v-1.83
			c0-0.14,0.01-0.3,0.01-0.3h-0.02c-0.32,0.2-0.87,0.37-1.37,0.37C100.3,245.96,99.68,245.39,99.68,244.31z"/>
		<path d="M108.41,242.54c1.43,0,2.19,1.07,2.19,2.37c0,0.13-0.02,0.27-0.04,0.41h-3.68c0.05,1.09,0.83,1.68,1.74,1.68
			c0.54,0,1.09-0.23,1.49-0.59l0.41,0.71c-0.49,0.45-1.26,0.72-1.96,0.72c-1.59,0-2.69-1.15-2.69-2.65
			C105.87,243.58,106.97,242.54,108.41,242.54z M109.62,244.62c-0.03-0.87-0.57-1.33-1.23-1.33c-0.75,0-1.34,0.49-1.48,1.33H109.62z
			"/>
		<path d="M112.74,242.66h0.9v0.45c0,0.21-0.03,0.38-0.03,0.38h0.02c0.32-0.61,0.96-0.95,1.7-0.95c1.37,0,2.22,1.08,2.22,2.65
			c0,1.61-0.96,2.65-2.29,2.65c-0.64,0-1.22-0.32-1.57-0.86h-0.02c0,0,0.04,0.18,0.04,0.44v2.3h-0.97V242.66z M115.11,247
			c0.8,0,1.46-0.65,1.46-1.8c0-1.1-0.59-1.81-1.43-1.81c-0.76,0-1.46,0.54-1.46,1.82C113.68,246.11,114.18,247,115.11,247z"/>
		<path d="M120.84,243.49h-1.76v-0.83h4.49v0.83h-1.77v4.23h-0.96V243.49z"/>
		<path d="M127.53,242.54c1.43,0,2.19,1.07,2.19,2.37c0,0.13-0.02,0.27-0.04,0.41H126c0.05,1.09,0.83,1.68,1.74,1.68
			c0.54,0,1.09-0.23,1.49-0.59l0.41,0.71c-0.49,0.45-1.26,0.72-1.96,0.72c-1.59,0-2.69-1.15-2.69-2.65
			C124.99,243.58,126.09,242.54,127.53,242.54z M128.74,244.62c-0.03-0.87-0.57-1.33-1.23-1.33c-0.75,0-1.34,0.49-1.48,1.33H128.74z
			"/>
		<path d="M132.87,245.12v-0.02l-1.49-2.44h1.03l1.24,2.07h0.72v-2.07h0.92v2.07h0.72l1.25-2.07h1.02l-1.48,2.44v0.02l1.63,2.6
			h-1.09l-1.32-2.16h-0.73v2.16h-0.92v-2.16h-0.72l-1.33,2.16h-1.08L132.87,245.12z"/>
		<path d="M140.31,242.66h0.93v3.02c0,0.27-0.02,0.63-0.03,0.68h0.02c0.04-0.09,0.28-0.44,0.45-0.68l2.18-3.02h0.94v5.06h-0.94
			v-3.02c0-0.24,0.03-0.59,0.03-0.67h-0.02c-0.03,0.09-0.28,0.43-0.44,0.67l-2.19,3.02h-0.93V242.66z"/>
		<path d="M153.12,242.54c1.51,0,2.73,1.11,2.73,2.64c0,1.54-1.22,2.66-2.72,2.66c-1.51,0-2.73-1.12-2.73-2.66
			C150.4,243.65,151.62,242.54,153.12,242.54z M153.13,247c0.95,0,1.74-0.76,1.74-1.82c0-1.05-0.79-1.8-1.74-1.8
			c-0.96,0-1.74,0.75-1.74,1.8C151.39,246.24,152.17,247,153.13,247z"/>
		<path d="M160.05,241.16l1.81-0.78l0.32,0.8l-1.94,0.81c-1.01,0.46-1.49,1.05-1.56,2.02h0.02c0.45-0.68,1.12-0.9,1.79-0.9
			c1.27,0,2.15,0.9,2.15,2.33c0,1.4-0.96,2.4-2.39,2.4c-1.71,0-2.48-1.28-2.48-3.03C157.77,243,158.29,241.9,160.05,241.16z
			 M160.21,247.02c0.8,0,1.45-0.58,1.45-1.56c0-0.99-0.65-1.58-1.41-1.58c-0.86,0-1.47,0.67-1.47,1.56
			C158.78,246.44,159.43,247.02,160.21,247.02z"/>
		<path d="M167.21,242.54c1.51,0,2.73,1.11,2.73,2.64c0,1.54-1.22,2.66-2.72,2.66c-1.51,0-2.73-1.12-2.73-2.66
			C164.49,243.65,165.71,242.54,167.21,242.54z M167.22,247c0.95,0,1.74-0.76,1.74-1.82c0-1.05-0.79-1.8-1.74-1.8
			c-0.96,0-1.74,0.75-1.74,1.8C165.48,246.24,166.26,247,167.22,247z"/>
		<path d="M172.08,242.66h0.9v0.45c0,0.21-0.03,0.38-0.03,0.38h0.02c0.32-0.61,0.96-0.95,1.7-0.95c1.37,0,2.22,1.08,2.22,2.65
			c0,1.61-0.96,2.65-2.29,2.65c-0.64,0-1.22-0.32-1.57-0.86h-0.02c0,0,0.04,0.18,0.04,0.44v2.3h-0.97V242.66z M174.45,247
			c0.8,0,1.46-0.65,1.46-1.8c0-1.1-0.59-1.81-1.43-1.81c-0.76,0-1.46,0.54-1.46,1.82C173.02,246.11,173.52,247,174.45,247z"/>
		<path d="M179.24,248.99c0.4,0,0.73-0.29,0.92-0.75l0.25-0.58l-2.12-5h1.09l1.27,3.31c0.1,0.25,0.19,0.61,0.19,0.61h0.02
			c0,0,0.08-0.34,0.17-0.6l1.23-3.32h1.05l-2.38,5.97c-0.3,0.79-0.93,1.19-1.64,1.19c-0.56,0-0.97-0.31-0.97-0.31l0.34-0.74
			C178.66,248.77,178.94,248.99,179.24,248.99z"/>
		<path d="M184.86,246.92c0.71-0.97,0.79-2.55,0.79-3.33v-0.93h3.42v4.26h0.72v2h-0.89v-1.2h-3.75v1.2h-0.91v-2H184.86z
			 M188.1,246.92v-3.47h-1.52v0.27c0,0.76-0.08,2.2-0.72,3.2H188.1z"/>
		<path d="M194.11,242.54c1.51,0,2.73,1.11,2.73,2.64c0,1.54-1.22,2.66-2.72,2.66c-1.51,0-2.73-1.12-2.73-2.66
			C191.39,243.65,192.61,242.54,194.11,242.54z M194.12,247c0.95,0,1.74-0.76,1.74-1.82c0-1.05-0.79-1.8-1.74-1.8
			c-0.96,0-1.74,0.75-1.74,1.8C192.38,246.24,193.16,247,194.12,247z"/>
		<path d="M198.98,242.66h2.09c1.02,0,1.69,0.45,1.69,1.3c0,0.49-0.26,0.91-0.72,1.11v0.01c0.63,0.15,0.96,0.64,0.96,1.2
			c0,0.94-0.76,1.44-1.86,1.44h-2.16V242.66z M200.9,244.8c0.58,0,0.87-0.3,0.87-0.77c0-0.46-0.29-0.7-0.9-0.7h-0.92v1.47H200.9z
			 M200.99,247.04c0.7,0,1.03-0.32,1.03-0.79c0-0.5-0.37-0.8-1.04-0.8h-1.03v1.59H200.99z"/>
		<path d="M207.75,244.57h0.26v-0.1c0-0.83-0.48-1.11-1.11-1.11c-0.5,0-1.01,0.2-1.42,0.49l-0.39-0.71c0.41-0.34,1.18-0.6,1.89-0.6
			c1.27,0,2,0.7,2,1.98v3.2h-0.91v-0.51c0-0.23,0.03-0.4,0.03-0.4h-0.02c-0.29,0.58-0.91,1.03-1.66,1.03c-0.88,0-1.69-0.55-1.69-1.5
			C204.73,244.75,206.7,244.57,207.75,244.57z M206.65,247.07c0.85,0,1.36-0.86,1.36-1.61v-0.19h-0.25c-0.72,0-2.06,0.06-2.06,0.99
			C205.7,246.66,206.02,247.07,206.65,247.07z"/>
		<path d="M211.38,242.66h0.97v2.06h2.56v-2.06h0.97v5.06h-0.97v-2.17h-2.56v2.17h-0.97V242.66z"/>
		<path d="M218.35,242.66h0.93v3.02c0,0.27-0.02,0.63-0.03,0.68h0.02c0.04-0.09,0.28-0.44,0.45-0.68l2.18-3.02h0.94v5.06h-0.94
			v-3.02c0-0.24,0.03-0.59,0.03-0.67h-0.02c-0.03,0.09-0.28,0.43-0.44,0.67l-2.19,3.02h-0.93V242.66z"/>
		<path d="M225.96,246.04c0.11-0.18,0.23-0.31,0.23-0.31v-0.01c-0.58-0.16-1.1-0.7-1.1-1.47c0-1.04,0.74-1.59,1.81-1.59h2.02v5.06
			h-0.97v-1.83h-0.85l-1.24,1.83h-1.07L225.96,246.04z M227.95,245.18v-1.85h-0.81c-0.65,0-1.07,0.26-1.07,0.91
			c0,0.63,0.45,0.94,1.04,0.94H227.95z"/>
		<path d="M231.61,246.67h1.02l-0.87,2.06h-0.77L231.61,246.67z"/>
		<path d="M30.13,255.66h4.42v5.06h-0.97v-4.23H31.1v4.23h-0.97V255.66z"/>
		<path d="M37.02,255.66h0.9v0.45c0,0.21-0.03,0.38-0.03,0.38h0.02c0.32-0.61,0.96-0.95,1.7-0.95c1.37,0,2.22,1.08,2.22,2.65
			c0,1.61-0.96,2.65-2.29,2.65c-0.64,0-1.22-0.32-1.57-0.86h-0.02c0,0,0.04,0.18,0.04,0.44v2.3h-0.97V255.66z M39.39,260
			c0.8,0,1.46-0.65,1.46-1.8c0-1.1-0.59-1.81-1.43-1.81c-0.76,0-1.46,0.54-1.46,1.82C37.96,259.11,38.46,260,39.39,260z"/>
		<path d="M46.21,255.54c1.43,0,2.19,1.07,2.19,2.37c0,0.13-0.02,0.27-0.04,0.41h-3.68c0.05,1.09,0.83,1.68,1.74,1.68
			c0.54,0,1.09-0.23,1.49-0.59l0.41,0.71c-0.49,0.45-1.26,0.72-1.96,0.72c-1.59,0-2.69-1.15-2.69-2.65
			C43.67,256.58,44.77,255.54,46.21,255.54z M47.42,257.62c-0.03-0.87-0.57-1.33-1.23-1.33c-0.75,0-1.34,0.49-1.48,1.33H47.42z"/>
		<path d="M50.53,259.92c0.71-0.97,0.79-2.55,0.79-3.33v-0.93h3.42v4.26h0.72v2h-0.89v-1.2h-3.75v1.2h-0.91v-2H50.53z M53.77,259.92
			v-3.47h-1.52v0.27c0,0.76-0.08,2.2-0.72,3.2H53.77z"/>
		<path d="M57.45,255.66h0.97v2.06h2.56v-2.06h0.97v5.06h-0.97v-2.17h-2.56v2.17h-0.97V255.66z"/>
		<path d="M67.02,257.57h0.26v-0.1c0-0.83-0.48-1.11-1.11-1.11c-0.5,0-1.01,0.2-1.42,0.49l-0.39-0.71c0.41-0.34,1.18-0.6,1.89-0.6
			c1.27,0,2,0.7,2,1.98v3.2h-0.91v-0.51c0-0.23,0.03-0.4,0.03-0.4h-0.02c-0.29,0.58-0.91,1.03-1.66,1.03c-0.88,0-1.69-0.55-1.69-1.5
			C64,257.75,65.97,257.57,67.02,257.57z M65.92,260.07c0.85,0,1.36-0.86,1.36-1.61v-0.19h-0.25c-0.72,0-2.06,0.06-2.06,0.99
			C64.97,259.66,65.29,260.07,65.92,260.07z"/>
		<path d="M70.61,259.46c0.23,0.24,0.71,0.6,1.32,0.6c0.58,0,1.05-0.28,1.05-0.83c0-0.49-0.33-0.77-1.04-0.77h-0.62v-0.7h0.53
			c0.57,0,0.96-0.22,0.96-0.73c0-0.47-0.34-0.73-0.9-0.73c-0.44,0-0.84,0.15-1.23,0.44l-0.36-0.65c0.39-0.29,0.96-0.55,1.76-0.55
			c0.96,0,1.71,0.47,1.71,1.37c0,0.63-0.34,0.98-0.74,1.15v0.02c0.51,0.16,0.91,0.54,0.91,1.19c0,1.04-0.9,1.57-1.94,1.57
			c-0.78,0-1.44-0.34-1.86-0.74L70.61,259.46z"/>
		<path d="M76.1,255.66h0.97v2.06h2.56v-2.06h0.97v5.06h-0.97v-2.17h-2.56v2.17H76.1V255.66z"/>
		<path d="M85.67,257.57h0.26v-0.1c0-0.83-0.48-1.11-1.11-1.11c-0.5,0-1.01,0.2-1.42,0.49l-0.39-0.71c0.41-0.34,1.18-0.6,1.89-0.6
			c1.27,0,2,0.7,2,1.98v3.2h-0.91v-0.51c0-0.23,0.03-0.4,0.03-0.4H86c-0.29,0.58-0.91,1.03-1.66,1.03c-0.88,0-1.69-0.55-1.69-1.5
			C82.65,257.75,84.62,257.57,85.67,257.57z M84.57,260.07c0.85,0,1.36-0.86,1.36-1.61v-0.19h-0.25c-0.72,0-2.06,0.06-2.06,0.99
			C83.62,259.66,83.94,260.07,84.57,260.07z"/>
		<path d="M88.98,257.31v-1.65h0.95v1.51c0,0.5,0.18,0.95,1.01,0.95c0.5,0,0.91-0.21,1.12-0.36v-2.1h0.97v5.06h-0.97v-1.83
			c0-0.14,0.01-0.3,0.01-0.3h-0.02c-0.32,0.2-0.87,0.37-1.37,0.37C89.6,258.96,88.98,258.39,88.98,257.31z"/>
		<path d="M97.71,255.54c1.43,0,2.19,1.07,2.19,2.37c0,0.13-0.02,0.27-0.04,0.41h-3.68c0.05,1.09,0.83,1.68,1.74,1.68
			c0.54,0,1.09-0.23,1.49-0.59l0.41,0.71c-0.49,0.45-1.26,0.72-1.96,0.72c-1.59,0-2.69-1.15-2.69-2.65
			C95.17,256.58,96.27,255.54,97.71,255.54z M98.92,257.62c-0.03-0.87-0.57-1.33-1.23-1.33c-0.75,0-1.34,0.49-1.48,1.33H98.92z"/>
		<path d="M102.04,255.66h0.97v2.06h2.56v-2.06h0.97v5.06h-0.97v-2.17h-2.56v2.17h-0.97V255.66z"/>
		<path d="M109.01,255.66h0.97v2.06h2.56v-2.06h0.97v5.06h-0.97v-2.17h-2.56v2.17h-0.97V255.66z"/>
		<path d="M118.37,255.54c1.51,0,2.73,1.11,2.73,2.64c0,1.54-1.22,2.66-2.72,2.66c-1.51,0-2.73-1.12-2.73-2.66
			C115.65,256.65,116.87,255.54,118.37,255.54z M118.38,260c0.95,0,1.74-0.76,1.74-1.82c0-1.05-0.79-1.8-1.74-1.8
			c-0.96,0-1.74,0.75-1.74,1.8C116.64,259.24,117.42,260,118.38,260z"/>
		<path d="M123.24,255.66h3.17v0.83h-2.2v4.23h-0.97V255.66z"/>
		<path d="M130.54,255.54c1.51,0,2.73,1.11,2.73,2.64c0,1.54-1.22,2.66-2.72,2.66c-1.51,0-2.73-1.12-2.73-2.66
			C127.82,256.65,129.04,255.54,130.54,255.54z M130.55,260c0.95,0,1.74-0.76,1.74-1.82c0-1.05-0.79-1.8-1.74-1.8
			c-0.96,0-1.74,0.75-1.74,1.8C128.81,259.24,129.59,260,130.55,260z"/>
		<path d="M138.87,259.92c0.71-0.97,0.79-2.55,0.79-3.33v-0.93h3.42v4.26h0.72v2h-0.89v-1.2h-3.75v1.2h-0.91v-2H138.87z
			 M142.11,259.92v-3.47h-1.52v0.27c0,0.76-0.08,2.2-0.72,3.2H142.11z"/>
		<path d="M145.24,259.9c0.74-0.11,1.14-0.85,1.14-2.68v-1.56h3.39v5.06h-0.97v-4.26h-1.49v0.76c0,2.29-0.58,3.47-2.07,3.55V259.9z"
			/>
		<path d="M152.9,259.04c0.11-0.18,0.23-0.31,0.23-0.31v-0.01c-0.58-0.16-1.1-0.7-1.1-1.47c0-1.04,0.74-1.59,1.81-1.59h2.02v5.06
			h-0.97v-1.83h-0.85l-1.24,1.83h-1.07L152.9,259.04z M154.89,258.18v-1.85h-0.81c-0.65,0-1.07,0.26-1.07,0.91
			c0,0.63,0.45,0.94,1.04,0.94H154.89z"/>
		<path d="M161.8,255.66h0.93v3.02c0,0.27-0.02,0.63-0.03,0.68h0.02c0.04-0.09,0.28-0.44,0.45-0.68l2.18-3.02h0.94v5.06h-0.94v-3.02
			c0-0.24,0.03-0.59,0.03-0.67h-0.02c-0.03,0.09-0.28,0.43-0.44,0.67l-2.19,3.02h-0.93V255.66z"/>
		<path d="M171.13,255.54c0.67,0,1.42,0.23,1.9,0.74l-0.46,0.68c-0.34-0.34-0.87-0.58-1.4-0.58c-1.02,0-1.76,0.77-1.76,1.8
			c0,1.03,0.74,1.82,1.79,1.82c0.56,0,1.17-0.27,1.56-0.68l0.39,0.71c-0.46,0.49-1.23,0.81-2.02,0.81c-1.6,0-2.71-1.13-2.71-2.65
			C168.42,256.69,169.54,255.54,171.13,255.54z"/>
		<path d="M175.17,255.66h4.42v5.06h-0.97v-4.23h-2.48v4.23h-0.97V255.66z"/>
		<path d="M184.45,255.54c1.51,0,2.73,1.11,2.73,2.64c0,1.54-1.22,2.66-2.72,2.66c-1.51,0-2.73-1.12-2.73-2.66
			C181.73,256.65,182.95,255.54,184.45,255.54z M184.46,260c0.95,0,1.74-0.76,1.74-1.82c0-1.05-0.79-1.8-1.74-1.8
			c-0.96,0-1.74,0.75-1.74,1.8C182.72,259.24,183.5,260,184.46,260z"/>
		<path d="M188.63,259.9c0.74-0.11,1.14-0.85,1.14-2.68v-1.56h3.39v5.06h-0.97v-4.26h-1.49v0.76c0,2.29-0.58,3.47-2.07,3.55V259.9z"
			/>
		<path d="M195.63,255.66h0.97v1.83h1.02c1.05,0,1.84,0.48,1.84,1.63c0,0.95-0.58,1.6-1.86,1.6h-1.97V255.66z M197.47,260.02
			c0.7,0,1-0.38,1-0.91c0-0.54-0.3-0.92-1-0.92h-0.87v1.83H197.47z"/>
		<path d="M201.43,259.46c0.23,0.24,0.71,0.6,1.32,0.6c0.58,0,1.05-0.28,1.05-0.83c0-0.49-0.33-0.77-1.04-0.77h-0.62v-0.7h0.53
			c0.57,0,0.96-0.22,0.96-0.73c0-0.47-0.34-0.73-0.9-0.73c-0.44,0-0.84,0.15-1.23,0.44l-0.36-0.65c0.39-0.29,0.96-0.55,1.76-0.55
			c0.96,0,1.71,0.47,1.71,1.37c0,0.63-0.34,0.98-0.74,1.15v0.02c0.51,0.16,0.91,0.54,0.91,1.19c0,1.04-0.9,1.57-1.94,1.57
			c-0.78,0-1.44-0.34-1.86-0.74L201.43,259.46z"/>
		<path d="M209.31,255.54c1.51,0,2.73,1.11,2.73,2.64c0,1.54-1.22,2.66-2.72,2.66c-1.51,0-2.73-1.12-2.73-2.66
			C206.59,256.65,207.81,255.54,209.31,255.54z M209.32,260c0.95,0,1.74-0.76,1.74-1.82c0-1.05-0.79-1.8-1.74-1.8
			c-0.96,0-1.74,0.75-1.74,1.8C207.58,259.24,208.36,260,209.32,260z"/>
		<path d="M214.18,255.66h2.09c1.02,0,1.69,0.45,1.69,1.3c0,0.49-0.26,0.91-0.72,1.11v0.01c0.63,0.15,0.96,0.64,0.96,1.2
			c0,0.94-0.76,1.44-1.86,1.44h-2.16V255.66z M216.1,257.8c0.58,0,0.87-0.3,0.87-0.77c0-0.46-0.29-0.7-0.9-0.7h-0.92v1.47H216.1z
			 M216.19,260.04c0.7,0,1.03-0.32,1.03-0.79c0-0.5-0.37-0.8-1.04-0.8h-1.03v1.59H216.19z"/>
		<path d="M222.95,257.57h0.26v-0.1c0-0.83-0.48-1.11-1.11-1.11c-0.5,0-1.01,0.2-1.42,0.49l-0.39-0.71c0.41-0.34,1.18-0.6,1.89-0.6
			c1.27,0,2,0.7,2,1.98v3.2h-0.91v-0.51c0-0.23,0.03-0.4,0.03-0.4h-0.02c-0.29,0.58-0.91,1.03-1.66,1.03c-0.88,0-1.69-0.55-1.69-1.5
			C219.93,257.75,221.9,257.57,222.95,257.57z M221.85,260.07c0.85,0,1.36-0.86,1.36-1.61v-0.19h-0.25c-0.72,0-2.06,0.06-2.06,0.99
			C220.9,259.66,221.22,260.07,221.85,260.07z"/>
		<path d="M226.58,255.66h0.97v2.06h2.56v-2.06h0.97v5.06h-0.97v-2.17h-2.56v2.17h-0.97V255.66z"/>
		<path d="M233.55,255.66h0.93v3.02c0,0.27-0.02,0.63-0.03,0.68h0.02c0.04-0.09,0.28-0.44,0.45-0.68l2.18-3.02h0.94v5.06h-0.94
			v-3.02c0-0.24,0.03-0.59,0.03-0.67h-0.02c-0.03,0.09-0.28,0.43-0.44,0.67l-2.19,3.02h-0.93V255.66z"/>
		<path d="M241.16,259.04c0.11-0.18,0.23-0.31,0.23-0.31v-0.01c-0.58-0.16-1.1-0.7-1.1-1.47c0-1.04,0.74-1.59,1.81-1.59h2.02v5.06
			h-0.97v-1.83h-0.85l-1.24,1.83h-1.07L241.16,259.04z M243.15,258.18v-1.85h-0.81c-0.65,0-1.07,0.26-1.07,0.91
			c0,0.63,0.45,0.94,1.04,0.94H243.15z"/>
		<path d="M27.26,268.66h2.09c1.02,0,1.69,0.45,1.69,1.3c0,0.49-0.26,0.91-0.72,1.11v0.01c0.63,0.15,0.96,0.64,0.96,1.2
			c0,0.94-0.76,1.44-1.86,1.44h-2.16V268.66z M29.18,270.8c0.58,0,0.87-0.3,0.87-0.77c0-0.46-0.29-0.7-0.9-0.7h-0.92v1.47H29.18z
			 M29.27,273.04c0.7,0,1.03-0.32,1.03-0.79c0-0.5-0.37-0.8-1.04-0.8h-1.03v1.59H29.27z"/>
		<path d="M39.28,268.54c0.67,0,1.42,0.23,1.9,0.74l-0.46,0.68c-0.34-0.34-0.87-0.58-1.4-0.58c-1.02,0-1.76,0.77-1.76,1.8
			c0,1.03,0.74,1.82,1.79,1.82c0.56,0,1.17-0.27,1.56-0.68l0.39,0.71c-0.46,0.49-1.23,0.81-2.02,0.81c-1.6,0-2.71-1.13-2.71-2.65
			C36.57,269.69,37.69,268.54,39.28,268.54z"/>
		<path d="M45.59,268.54c1.51,0,2.73,1.11,2.73,2.64c0,1.54-1.22,2.66-2.72,2.66c-1.51,0-2.73-1.12-2.73-2.66
			C42.87,269.65,44.09,268.54,45.59,268.54z M45.6,273c0.95,0,1.74-0.76,1.74-1.82c0-1.05-0.79-1.8-1.74-1.8
			c-0.96,0-1.74,0.75-1.74,1.8C43.86,272.24,44.64,273,45.6,273z"/>
		<path d="M52.84,268.54c0.67,0,1.42,0.23,1.9,0.74l-0.46,0.68c-0.34-0.34-0.87-0.58-1.4-0.58c-1.02,0-1.76,0.77-1.76,1.8
			c0,1.03,0.74,1.82,1.79,1.82c0.56,0,1.17-0.27,1.56-0.68l0.39,0.71c-0.46,0.49-1.23,0.81-2.02,0.81c-1.6,0-2.71-1.13-2.71-2.65
			C50.13,269.69,51.25,268.54,52.84,268.54z"/>
		<path d="M58.1,269.49h-1.76v-0.83h4.49v0.83h-1.77v4.23H58.1V269.49z"/>
		<path d="M65.3,270.57h0.26v-0.1c0-0.83-0.48-1.11-1.11-1.11c-0.5,0-1.01,0.2-1.42,0.49l-0.39-0.71c0.41-0.34,1.18-0.6,1.89-0.6
			c1.27,0,2,0.7,2,1.98v3.2h-0.91v-0.51c0-0.23,0.03-0.4,0.03-0.4h-0.02c-0.29,0.58-0.91,1.03-1.66,1.03c-0.88,0-1.69-0.55-1.69-1.5
			C62.28,270.75,64.25,270.57,65.3,270.57z M64.2,273.07c0.85,0,1.36-0.86,1.36-1.61v-0.19h-0.25c-0.72,0-2.06,0.06-2.06,0.99
			C63.25,272.66,63.57,273.07,64.2,273.07z"/>
		<path d="M68.93,268.66h2.09c1.02,0,1.69,0.45,1.69,1.3c0,0.49-0.26,0.91-0.72,1.11v0.01c0.63,0.15,0.96,0.64,0.96,1.2
			c0,0.94-0.76,1.44-1.86,1.44h-2.16V268.66z M70.85,270.8c0.58,0,0.87-0.3,0.87-0.77c0-0.46-0.29-0.7-0.9-0.7H69.9v1.47H70.85z
			 M70.94,273.04c0.7,0,1.03-0.32,1.03-0.79c0-0.5-0.37-0.8-1.04-0.8H69.9v1.59H70.94z"/>
		<path d="M77.31,268.54c1.43,0,2.19,1.07,2.19,2.37c0,0.13-0.02,0.27-0.04,0.41h-3.68c0.05,1.09,0.83,1.68,1.74,1.68
			c0.54,0,1.09-0.23,1.49-0.59l0.41,0.71c-0.49,0.45-1.26,0.72-1.96,0.72c-1.59,0-2.69-1.15-2.69-2.65
			C74.77,269.58,75.87,268.54,77.31,268.54z M78.52,270.62c-0.03-0.87-0.57-1.33-1.23-1.33c-0.75,0-1.34,0.49-1.48,1.33H78.52z"/>
		<path d="M86.33,269.49h-1.76v-0.83h4.49v0.83h-1.77v4.23h-0.96V269.49z"/>
		<path d="M93.02,268.54c1.43,0,2.19,1.07,2.19,2.37c0,0.13-0.02,0.27-0.04,0.41h-3.68c0.05,1.09,0.83,1.68,1.74,1.68
			c0.54,0,1.09-0.23,1.49-0.59l0.41,0.71c-0.49,0.45-1.26,0.72-1.96,0.72c-1.59,0-2.69-1.15-2.69-2.65
			C90.48,269.58,91.58,268.54,93.02,268.54z M94.23,270.62c-0.03-0.87-0.57-1.33-1.23-1.33c-0.75,0-1.34,0.49-1.48,1.33H94.23z"/>
		<path d="M98.46,271.12l-1.63-2.46h1.11l0.94,1.54c0.07,0.13,0.16,0.3,0.16,0.3h0.02c0,0,0.1-0.17,0.17-0.3l0.94-1.54h1.11
			l-1.63,2.46l1.73,2.6h-1.1l-1.06-1.69c-0.08-0.12-0.16-0.27-0.16-0.27h-0.02c0,0-0.07,0.15-0.15,0.27l-1.06,1.69h-1.1
			L98.46,271.12z"/>
		<path d="M103.27,268.66h0.97v2.06h2.56v-2.06h0.97v5.06h-0.97v-2.17h-2.56v2.17h-0.97V268.66z"/>
		<path d="M112.63,268.54c1.51,0,2.73,1.11,2.73,2.64c0,1.54-1.22,2.66-2.72,2.66c-1.51,0-2.73-1.12-2.73-2.66
			C109.91,269.65,111.13,268.54,112.63,268.54z M112.64,273c0.95,0,1.74-0.76,1.74-1.82c0-1.05-0.79-1.8-1.74-1.8
			c-0.96,0-1.74,0.75-1.74,1.8C110.9,272.24,111.68,273,112.64,273z"/>
		<path d="M116.81,272.9c0.74-0.11,1.14-0.85,1.14-2.68v-1.56h3.39v5.06h-0.97v-4.26h-1.49v0.76c0,2.29-0.58,3.47-2.07,3.55V272.9z"
			/>
		<path d="M126.2,268.54c1.51,0,2.73,1.11,2.73,2.64c0,1.54-1.22,2.66-2.72,2.66c-1.51,0-2.73-1.12-2.73-2.66
			C123.48,269.65,124.7,268.54,126.2,268.54z M126.21,273c0.95,0,1.74-0.76,1.74-1.82c0-1.05-0.79-1.8-1.74-1.8
			c-0.96,0-1.74,0.75-1.74,1.8C124.47,272.24,125.25,273,126.21,273z"/>
		<path d="M131.07,268.66h3.17v0.83h-2.2v4.23h-0.97V268.66z"/>
		<path d="M136.17,268.66h0.93v3.02c0,0.27-0.02,0.63-0.03,0.68h0.02c0.04-0.09,0.28-0.44,0.45-0.68l2.18-3.02h0.94v5.06h-0.94
			v-3.02c0-0.24,0.03-0.59,0.03-0.67h-0.02c-0.03,0.09-0.28,0.43-0.44,0.67l-2.19,3.02h-0.93V268.66z"/>
		<path d="M142.8,270.31v-1.65h0.95v1.51c0,0.5,0.18,0.95,1.01,0.95c0.5,0,0.91-0.21,1.12-0.36v-2.1h0.97v5.06h-0.97v-1.83
			c0-0.14,0.01-0.3,0.01-0.3h-0.02c-0.32,0.2-0.87,0.37-1.37,0.37C143.42,271.96,142.8,271.39,142.8,270.31z"/>
		<path d="M151.53,268.54c1.43,0,2.19,1.07,2.19,2.37c0,0.13-0.02,0.27-0.04,0.41H150c0.05,1.09,0.83,1.68,1.74,1.68
			c0.54,0,1.09-0.23,1.49-0.59l0.41,0.71c-0.49,0.45-1.26,0.72-1.96,0.72c-1.59,0-2.69-1.15-2.69-2.65
			C148.99,269.58,150.09,268.54,151.53,268.54z M152.74,270.62c-0.03-0.87-0.57-1.33-1.23-1.33c-0.75,0-1.34,0.49-1.48,1.33H152.74z
			"/>
		<path d="M158.24,268.54c0.67,0,1.42,0.23,1.9,0.74l-0.46,0.68c-0.34-0.34-0.87-0.58-1.4-0.58c-1.02,0-1.76,0.77-1.76,1.8
			c0,1.03,0.74,1.82,1.79,1.82c0.56,0,1.17-0.27,1.56-0.68l0.39,0.71c-0.46,0.49-1.23,0.81-2.02,0.81c-1.6,0-2.71-1.13-2.71-2.65
			C155.53,269.69,156.65,268.54,158.24,268.54z"/>
		<path d="M162.28,268.66h0.97v2.04h0.71l1.38-2.04h1.1l-1.69,2.41v0.02l1.89,2.63h-1.15l-1.51-2.19h-0.73v2.19h-0.97V268.66z"/>
		<path d="M170.65,268.54c1.51,0,2.73,1.11,2.73,2.64c0,1.54-1.22,2.66-2.72,2.66c-1.51,0-2.73-1.12-2.73-2.66
			C167.93,269.65,169.15,268.54,170.65,268.54z M170.66,273c0.95,0,1.74-0.76,1.74-1.82c0-1.05-0.79-1.8-1.74-1.8
			c-0.96,0-1.74,0.75-1.74,1.8C168.92,272.24,169.7,273,170.66,273z"/>
		<path d="M175.52,268.66h0.93v3.02c0,0.27-0.02,0.63-0.03,0.68h0.02c0.04-0.09,0.28-0.44,0.45-0.68l2.18-3.02h0.94v5.06h-0.94
			v-3.02c0-0.24,0.03-0.59,0.03-0.67h-0.02c-0.03,0.09-0.28,0.43-0.44,0.67l-2.19,3.02h-0.93V268.66z M176.27,266.8v-0.15h0.78v0.14
			c0,0.44,0.35,0.66,0.7,0.66s0.71-0.22,0.71-0.67v-0.13h0.77v0.15c0,0.82-0.7,1.28-1.48,1.28
			C176.98,268.08,176.27,267.62,176.27,266.8z"/>
		<path d="M185.39,272.9c0.74-0.11,1.14-0.85,1.14-2.68v-1.56h3.39v5.06h-0.97v-4.26h-1.49v0.76c0,2.29-0.58,3.47-2.07,3.55V272.9z"
			/>
		<path d="M192.39,268.66h0.93v3.02c0,0.27-0.02,0.63-0.03,0.68h0.02c0.04-0.09,0.28-0.44,0.45-0.68l2.18-3.02h0.94v5.06h-0.94
			v-3.02c0-0.24,0.03-0.59,0.03-0.67h-0.02c-0.03,0.09-0.28,0.43-0.44,0.67l-2.19,3.02h-0.93V268.66z"/>
		<path d="M199.34,268.66h0.97v2.06h2.56v-2.06h0.97v5.06h-0.97v-2.17h-2.56v2.17h-0.97V268.66z"/>
		<path d="M206.31,268.66h0.93v3.02c0,0.27-0.02,0.63-0.03,0.68h0.02c0.04-0.09,0.28-0.44,0.45-0.68l2.18-3.02h0.94v5.06h-0.94
			v-3.02c0-0.24,0.03-0.59,0.03-0.67h-0.02c-0.03,0.09-0.28,0.43-0.44,0.67l-2.19,3.02h-0.93V268.66z"/>
		<path d="M213.26,268.66h0.93v3.02c0,0.27-0.02,0.63-0.03,0.68h0.02c0.04-0.09,0.28-0.44,0.45-0.68l2.18-3.02h0.94v5.06h-0.94
			v-3.02c0-0.24,0.03-0.59,0.03-0.67h-0.02c-0.03,0.09-0.28,0.43-0.44,0.67l-2.19,3.02h-0.93V268.66z"/>
		<path d="M220.16,272.67h1.04v1.05h-1.04V272.67z"/>
	</g>
	<g>
		<path d="M38.02,10.49h3.2c1.59,0,2.73,1.07,2.73,2.73s-1.14,2.77-2.73,2.77h-1.98v3.22h-1.22V10.49z M41.02,14.93
			c1.04,0,1.69-0.65,1.69-1.7c0-1.04-0.65-1.67-1.68-1.67h-1.79v3.37H41.02z"/>
		<path d="M48.41,10.49h1.3l3.12,8.71h-1.26l-0.88-2.51h-3.28l-0.88,2.51h-1.25L48.41,10.49z M50.37,15.69l-0.96-2.75
			c-0.15-0.46-0.35-1.25-0.35-1.25h-0.03c0,0-0.18,0.79-0.33,1.25l-0.98,2.75H50.37z"/>
		<path d="M55.26,17.34c0.46,0.49,1.23,0.91,2.05,0.91c1.06,0,1.81-0.59,1.81-1.58c0-0.91-0.68-1.44-1.63-1.44h-1.07v-1.01h0.86
			c0.88,0,1.57-0.58,1.57-1.41c0-0.75-0.47-1.39-1.54-1.39c-0.62,0-1.31,0.2-1.95,0.74l-0.52-0.91c0.93-0.77,1.9-0.9,2.64-0.9
			c1.49,0,2.62,0.86,2.62,2.32c0,1.06-0.64,1.65-1.26,1.96v0.03c0.91,0.26,1.53,1.01,1.53,2.09c0,1.62-1.32,2.62-2.96,2.62
			c-1.05,0-2.15-0.43-2.83-1.19L55.26,17.34z"/>
		<path d="M63.37,10.49h3.2c1.59,0,2.73,1.07,2.73,2.73s-1.14,2.77-2.73,2.77H64.6v3.22h-1.22V10.49z M66.37,14.93
			c1.04,0,1.69-0.65,1.69-1.7c0-1.04-0.65-1.67-1.68-1.67H64.6v3.37H66.37z"/>
		<path d="M73.77,10.49h1.3l3.12,8.71h-1.26l-0.88-2.51h-3.28l-0.88,2.51h-1.25L73.77,10.49z M75.73,15.69l-0.96-2.75
			c-0.15-0.46-0.35-1.25-0.35-1.25H74.4c0,0-0.18,0.79-0.33,1.25l-0.98,2.75H75.73z"/>
		<path d="M80.76,10.49h5.15v1.06h-3.93v2.43h1.91c1.53,0,2.65,0.95,2.65,2.63c0,1.56-1.07,2.59-2.59,2.59h-3.2V10.49z M83.76,18.15
			c0.98,0,1.56-0.58,1.56-1.53c0-0.96-0.62-1.57-1.58-1.57h-1.75v3.1H83.76z"/>
		<path d="M93.4,10.35c2.52,0,4.47,1.94,4.47,4.44c0,2.57-1.95,4.57-4.47,4.57s-4.48-2-4.48-4.57
			C88.92,12.28,90.88,10.35,93.4,10.35z M93.4,18.23c1.78,0,3.21-1.49,3.21-3.44c0-1.89-1.43-3.33-3.21-3.33
			c-1.79,0-3.22,1.44-3.22,3.33C90.18,16.74,91.61,18.23,93.4,18.23z"/>
		<path d="M102.51,11.56h-3v-1.06h7.21v1.06h-3v7.65h-1.21V11.56z"/>
		<path d="M109.3,10.49h1.22v3.67h1.3l2.21-3.67h1.35l-2.54,4.13v0.03l2.7,4.55h-1.39l-2.32-3.99h-1.3v3.99h-1.22V10.49z"/>
		<path d="M120.27,10.49h1.3l3.12,8.71h-1.26l-0.88-2.51h-3.28l-0.88,2.51h-1.25L120.27,10.49z M122.24,15.69l-0.96-2.75
			c-0.15-0.46-0.35-1.25-0.35-1.25h-0.03c0,0-0.18,0.79-0.33,1.25l-0.98,2.75H122.24z"/>
		<path d="M131.06,13.32v-2.83h1.23v2.57c0,1.1,0.48,1.69,1.65,1.69c0.83,0,1.6-0.35,1.97-0.59v-3.67h1.23v8.71h-1.23v-3.53
			c0-0.17,0.02-0.41,0.02-0.41h-0.02c-0.44,0.23-1.33,0.59-2.23,0.59C131.89,15.86,131.06,14.93,131.06,13.32z"/>
		<path d="M140.7,10.49h5.07v1.06h-3.85v2.73h3.12v1.06h-3.12v2.8h4.06v1.06h-5.28V10.49z"/>
		<path d="M148.9,10.49h3.2c1.59,0,2.73,1.07,2.73,2.73s-1.14,2.77-2.73,2.77h-1.98v3.22h-1.22V10.49z M151.9,14.93
			c1.04,0,1.69-0.65,1.69-1.7c0-1.04-0.65-1.67-1.68-1.67h-1.79v3.37H151.9z"/>
		<path d="M159.63,11.56h-3v-1.06h7.21v1.06h-3v7.65h-1.21V11.56z"/>
		<path d="M166.42,10.49h5.07v1.06h-3.85v2.73h3.12v1.06h-3.12v2.8h4.06v1.06h-5.28V10.49z"/>
		<path d="M176.22,14.65v-0.03l-2.36-4.13h1.33l2.04,3.67h1.14v-3.67h1.21v3.67h1.15l2.02-3.67h1.33l-2.36,4.13v0.03l2.54,4.55
			h-1.38l-2.16-3.99h-1.15v3.99h-1.21v-3.99h-1.14l-2.17,3.99h-1.37L176.22,14.65z"/>
		<path d="M186.87,10.49h5.07v1.06h-3.85v2.73h3.12v1.06h-3.12v2.8h4.06v1.06h-5.28V10.49z"/>
		<path d="M195.06,10.49h1.22v5.65c0,0.49-0.07,1.27-0.07,1.27h0.02c0,0,0.43-0.81,0.74-1.28l3.86-5.64h1.2v8.71h-1.21v-5.65
			c0-0.49,0.07-1.27,0.07-1.27h-0.03c0,0-0.42,0.79-0.73,1.27l-3.89,5.65h-1.2V10.49z M196.77,8.51V8.32h0.96v0.17
			c0,0.54,0.43,0.81,0.86,0.81c0.43,0,0.88-0.27,0.88-0.83V8.32h0.95v0.19c0,1.01-0.86,1.58-1.83,1.58
			C197.64,10.09,196.77,9.52,196.77,8.51z"/>
	</g>
	<g>
		<circle class="st0" cx="23.17" cy="15.54" r="10.5"/>
		<g>
			<path class="st1" d="M17.33,16.96l5.96-8.19h2.02l-0.07,7.81h1.73l-0.01,1.49h-1.73l-0.03,3.4h-1.75l0.03-3.4h-6.16L17.33,16.96z
				 M23.49,16.59l0.04-4.65c0.01-0.59,0.08-1.28,0.08-1.28h-0.04c0,0-0.29,0.61-0.64,1.06l-3.64,4.83l0,0.04H23.49z"/>
		</g>
	</g>
	<g>
		<g>
			<g>
				<path class="st11" d="M93.47,209.07c-0.09-0.02-0.17-0.03-0.26-0.06c0.93-0.4,1.39,0.3,1.97-0.17l-0.07-0.1l0.17,0l0.15-0.16
					l0.85,0.31c-0.57,0.28-0.47-0.12-1-0.15l-0.1,0.1l0.12,0.19c-0.31,0.07-0.67,0.12-1.07,0.12l2.78,0.31l6.08-9.88l-22.81,2.28
					l3.04,6.08L93.47,209.07z"/>
				<path class="st68" d="M97.41,210.27l-3.26-0.36l0.01-0.21c0,0,0,0,0,0c-0.26-0.06-0.41-0.09-0.65,0.01l-0.07-0.17l-0.05,0.28
					l-10.55-1.17l-3.72-7.44l25.43-2.54L97.41,210.27z M95.22,207.7l1.63,0.58l4.8-7.8l-20.18,2.02l2.36,4.72l9.23,1.03
					c0.26-0.09,0.5-0.13,0.71-0.13l-0.11-0.16l1.3,0.02L95.22,207.7z"/>
			</g>
			<g>
				<g>
					<path class="st10" d="M132.57,137.3c1.82-0.54,2.94,0.64,4.87,1.28c-0.24-3.37-3.65-6.25,2.62-6.99
						c3.62-0.43,7.38,0.73,8.33,4.39c0.83,3.15-1.57,6.1-3.06,8.78c-2.18,3.92-2.52,6.31-6.73,4.98c-3.6-1.13-5.08-3.46-9.12-3.64
						c-3.16-0.14-9.51,0.94-9.7,4.42c-0.15,2.93,3.45,6.53,3.11,10.56c-0.32,3.84-0.57,6.17,0.01,10.11
						c0.2,1.33-0.78,2.31,0.09,3.87c0.34-0.18,0.71-0.44,1.11-0.64c1.89,2.8-1.92,7.36-2.55,10.38c-0.69,3.33-1.64,7.55-1.82,10.93
						c-3.91,1.28-8.45-0.39-12.65,0.04c-4.84,0.5-9.73,1.21-14.54-0.5c-9.14-3.25-16.16-7.65-14.94-16.97
						c1.75-13.35,3.93-22.48,5.32-35.73c0.75-7.14,5.72-21.03,10.61-26.71c2.66-3.08,5.85-5.95,10.04-4.62
						c3.09,0.98,5.63,4.41,7.99,6.6c5.47,5.07,19.26,9.35,21.03,17.29c-0.28,0.83-0.34-0.04-0.91-0.03"/>
				</g>
				<g>
					<polyline class="st17" points="202.55,148.75 189.28,185.84 125.97,173.36 124.42,191.38 203.37,212.5 245.59,63.42 
						233.71,61.66 212.75,120.24 					"/>
				</g>
				<g>
					<polyline class="st12" points="215.72,138.68 181.17,136.02 192.38,108.32 152.54,132.89 152.18,136.28 214.42,142.31 					"/>
				</g>
				<g>
					<g>
						<path class="st68" d="M223.05,60.76l-2.61-0.42l0.21-1.3c0.08-0.52,0.15-1.07,0.19-1.64l0.1-1.32l2.63,0.2l-0.1,1.32
							c-0.05,0.64-0.13,1.27-0.22,1.86L223.05,60.76L223.05,60.76z M220.95,55.39l-0.1-1.32c-0.04-0.56-0.1-1.11-0.18-1.64l-0.2-1.3
							l2.61-0.4l0.2,1.31c0.09,0.6,0.16,1.23,0.21,1.85l0.1,1.32L220.95,55.39L220.95,55.39z M220.33,50.48l-0.41-1.25
							c-0.17-0.51-0.37-1.03-0.59-1.52l-0.53-1.21l2.41-1.06l0.53,1.21c0.25,0.57,0.48,1.16,0.68,1.76l0.41,1.25L220.33,50.48
							L220.33,50.48z M218.49,45.95l-0.76-1.08c-0.31-0.44-0.65-0.88-1-1.29l-0.86-1l2-1.72l0.86,1c0.41,0.48,0.8,0.98,1.16,1.49
							l0.76,1.08L218.49,45.95L218.49,45.95z M197.87,43.36l-2.6-0.39l0.19-1.3c0.01-0.09,0.14-0.91,0.57-1.99l0.49-1.23l2.45,0.98
							l-0.49,1.23c-0.31,0.79-0.41,1.4-0.41,1.4L197.87,43.36L197.87,43.36z M215.42,42.14l-1.03-0.82
							c-0.42-0.34-0.87-0.66-1.33-0.97l-1.1-0.73l1.46-2.2l1.1,0.73c0.52,0.35,1.03,0.72,1.51,1.1l1.03,0.82L215.42,42.14
							L215.42,42.14z M211.32,39.27l-1.18-0.59c-0.52-0.26-1.02-0.49-1.51-0.7l-1.22-0.51l1.02-2.44l1.22,0.51
							c0.55,0.23,1.11,0.49,1.68,0.77l1.18,0.59L211.32,39.27L211.32,39.27z M199.13,39.13l-1.8-1.93l0.97-0.9
							c0.53-0.49,1.11-0.89,1.74-1.21l1.18-0.59l1.19,2.36l-1.18,0.59c-0.41,0.21-0.79,0.48-1.14,0.79L199.13,39.13L199.13,39.13z
							 M206.84,37.27l-1.3-0.24c-0.53-0.1-1.05-0.16-1.53-0.16l-1.32-0.03l0.05-2.64l1.32,0.03c0.63,0.01,1.29,0.08,1.97,0.21
							l1.3,0.24L206.84,37.27L206.84,37.27z"/>
					</g>
				</g>
				<g>
					<g>
						<g>
							<path class="st68" d="M127.9,81.27c-0.14,0-0.27-0.05-0.37-0.14l-2.13-1.86c-0.1-0.09-0.16-0.2-0.19-0.33l-3.38-2.86
								c-0.14-0.12-0.22-0.31-0.2-0.49c0.02-0.19,0.13-0.35,0.29-0.44l44.62-24.21c0.26-0.14,0.57-0.06,0.74,0.17
								c0.12-0.18,0.34-0.28,0.57-0.23c0.31,0.06,0.51,0.36,0.45,0.66l-0.71,3.72l7.02-3.78c0.28-0.15,0.62-0.04,0.77,0.23
								c0.15,0.28,0.04,0.62-0.23,0.77l-7.83,4.21l-0.97,5.1l7.94-3.96c0.28-0.14,0.62-0.03,0.76,0.25
								c0.14,0.28,0.03,0.62-0.25,0.76l-8.72,4.35l-1.56,8.18c-0.06,0.31-0.35,0.51-0.66,0.45c-0.31-0.06-0.51-0.36-0.45-0.66
								l1.4-7.33l-32.94,16.44c-0.04,0.02-0.08,0.03-0.12,0.04l-3.72,0.93C127.99,81.26,127.94,81.27,127.9,81.27z M126.45,78.68
								l1.59,1.39l3.37-0.84l33.65-16.79l0.96-5.05L126.45,78.68z M123.2,75.75l2.45,2.08l40.66-21.87l0.77-4.01L123.2,75.75z"/>
						</g>
						<g>
							<path class="st68" d="M169.41,68.28c-0.02,0-0.04,0-0.06,0l-4.37-0.42c-0.31-0.03-0.54-0.31-0.51-0.62s0.31-0.54,0.62-0.51
								l3.83,0.37l0.95-6.27l-3.25-3c-0.23-0.21-0.25-0.57-0.03-0.8c0.21-0.23,0.57-0.24,0.8-0.03l2.68,2.48l0.88-5.81
								c0.05-0.31,0.33-0.52,0.65-0.48c0.31,0.05,0.52,0.34,0.48,0.65l-1,6.58c0.21,0.21,0.21,0.56,0.01,0.78
								c-0.04,0.05-0.09,0.08-0.14,0.11l-0.98,6.51C169.93,68.08,169.69,68.28,169.41,68.28z M177.87,55.45
								c-0.18,0-0.36-0.09-0.46-0.24l-0.66-0.93c-0.13-0.18-0.14-0.43-0.02-0.62c0.12-0.19,0.33-0.31,0.56-0.27l1.06,0.14
								c0.18,0.02,0.34,0.13,0.43,0.3s0.09,0.36,0.01,0.52l-0.4,0.8c-0.09,0.18-0.27,0.3-0.46,0.31
								C177.9,55.45,177.88,55.45,177.87,55.45z"/>
						</g>
						<g>
							<path class="st11" d="M186.46,54.66c0,0-1.46-0.33-2.96,0.73c-1.51,1.05-2.48,2.48-3.37,3.53c-0.88,1.05-0.97,2.19-1.1,2.35
								c-0.13,0.16,2.43-0.08,2.51,0.16c0.08,0.24,1.17-1.97,2.51-3.18c1.35-1.22,2.29-2.11,2.83-2.4
								C187.4,55.55,186.46,54.66,186.46,54.66L186.46,54.66z M175.24,63.01c0,0,1.55-2.64,4.73-6.2c1.76-1.98,3.12-3.05,3.98-3.62
								c6.67-7.81,14.14-2.09,13.46,4.23c0.89,3.33,1.31,13.28-1.19,10.86C191.49,63.72,175.52,63.01,175.24,63.01z"/>
							<path class="st68" d="M196.92,69.23c-0.3,0-0.67-0.12-1.1-0.53c-4.57-4.42-20.43-5.12-20.58-5.12c-0.2,0-0.39-0.11-0.49-0.29
								c-0.1-0.18-0.1-0.39,0-0.57c0.06-0.11,1.61-2.73,4.8-6.29c1.42-1.6,2.78-2.83,4.02-3.67c3.05-3.54,6.65-4.76,9.88-3.37
								c3,1.3,4.86,4.57,4.53,7.99c0.66,2.59,1.34,10.6-0.51,11.7C197.34,69.16,197.15,69.23,196.92,69.23z M176.24,62.5
								c3.65,0.23,16.18,1.33,20.37,5.39c0.21,0.2,0.31,0.22,0.31,0.22c0.84-0.47,0.82-7.26-0.06-10.52
								c-0.02-0.07-0.02-0.14-0.02-0.21c0.32-2.92-1.3-5.83-3.84-6.93c-2.76-1.19-5.91-0.05-8.62,3.12
								c-0.03,0.04-0.07,0.08-0.12,0.11c-0.81,0.54-2.14,1.58-3.87,3.52C178.31,59.52,176.93,61.46,176.24,62.5z M181.58,62.01
								c-0.03,0-0.06,0-0.1-0.01c-0.09-0.01-0.19-0.05-0.27-0.11c-0.24-0.03-0.86-0.02-1.21-0.01c-1.04,0.02-1.32,0.02-1.5-0.36
								c-0.1-0.2-0.06-0.46,0.08-0.63c-0.03,0.04-0.01-0.04,0.01-0.14c0.13-0.48,0.38-1.36,1.09-2.21c0.19-0.22,0.38-0.46,0.58-0.7
								c0.77-0.96,1.65-2.05,2.91-2.93c1.69-1.18,3.34-0.83,3.41-0.81c0.1,0.02,0.19,0.07,0.26,0.14c0.25,0.23,0.82,0.84,0.74,1.45
								c-0.03,0.28-0.19,0.51-0.45,0.65c-0.41,0.22-1.18,0.92-2.16,1.81l-0.56,0.51c-0.75,0.68-1.43,1.72-1.88,2.4
								C182.1,61.75,181.92,62.01,181.58,62.01z M181,61.61c0.02,0.06,0.05,0.11,0.08,0.15C181.04,61.72,181.02,61.67,181,61.61z
								 M180.67,60.74c0.28,0,0.52,0.01,0.71,0.03c0.06-0.09,0.13-0.2,0.21-0.33c0.48-0.74,1.21-1.85,2.07-2.62l0.56-0.51
								c0.98-0.89,1.67-1.52,2.18-1.85c-0.05-0.08-0.13-0.18-0.21-0.27c-0.37-0.04-1.34-0.05-2.36,0.66
								c-1.12,0.78-1.95,1.81-2.67,2.71c-0.21,0.25-0.4,0.5-0.59,0.73c-0.43,0.51-0.65,1.05-0.77,1.47c0.07,0,0.14,0,0.2,0
								C180.24,60.75,180.47,60.74,180.67,60.74z"/>
						</g>
						<g>
							<path class="st68" d="M184.87,69.49c-0.05,0-0.1-0.01-0.16-0.02c-0.03-0.01-0.11-0.03-0.22-0.05
								c-0.93-0.21-3.75-0.85-6.16-2.19c-2.38-1.32-2.84-2.29-3.14-2.93c-0.04-0.09-0.08-0.18-0.13-0.26
								c-0.09-0.15-0.34-0.55-0.14-0.97c0.22-0.45,0.71-0.5,1.46-0.59c1.07-0.13,2.88-0.04,2.96-0.04c0.31,0.01,0.55,0.28,0.54,0.59
								c-0.01,0.31-0.27,0.58-0.59,0.54c-0.02,0-1.79-0.08-2.71,0.02c-0.16,0.02-0.31,0.04-0.43,0.05c0.03,0.05,0.05,0.1,0.08,0.15
								c0.24,0.51,0.6,1.28,2.67,2.42c2.26,1.26,4.96,1.87,5.85,2.07c0.14,0.03,0.24,0.05,0.28,0.07c0.3,0.09,0.47,0.4,0.39,0.7
								C185.35,69.33,185.12,69.49,184.87,69.49z"/>
						</g>
						<g>
							<path class="st68" d="M112.86,87.34c-0.09,0-0.18-0.02-0.26-0.06c-0.28-0.14-0.39-0.49-0.24-0.77l1.84-3.53
								c0.08-0.15,0.22-0.26,0.38-0.29l12.69-2.82c0.31-0.07,0.61,0.12,0.68,0.43c0.07,0.31-0.12,0.61-0.43,0.68l-12.44,2.76
								l-1.71,3.3C113.26,87.23,113.07,87.34,112.86,87.34z"/>
						</g>
						<g>
							<polygon class="st11" points="157.99,71.67 173.08,67.86 173.36,68.99 157.99,73.22 							"/>
							<path class="st68" d="M157.99,73.79c-0.12,0-0.24-0.04-0.34-0.12c-0.14-0.11-0.22-0.27-0.22-0.45v-1.55
								c0-0.26,0.18-0.49,0.43-0.55l15.09-3.81c0.14-0.04,0.3-0.01,0.43,0.06c0.13,0.08,0.22,0.2,0.26,0.35l0.28,1.13
								c0.07,0.3-0.1,0.6-0.4,0.68l-15.37,4.23C158.09,73.78,158.04,73.79,157.99,73.79z M158.56,72.11v0.37l14.12-3.88l-0.01-0.04
								L158.56,72.11z"/>
						</g>
						<g>
							<path class="st68" d="M138.67,78.59c-0.25,0-0.49-0.17-0.55-0.43c-0.08-0.3,0.11-0.61,0.41-0.69l37.09-9.32
								c0.31-0.07,0.61,0.11,0.69,0.41c0.08,0.3-0.11,0.61-0.41,0.69l-37.09,9.32C138.76,78.58,138.71,78.59,138.67,78.59z"/>
						</g>
						<g>
							<path class="st68" d="M200.11,63.93c-0.27,0-0.51-0.19-0.56-0.47c-0.05-0.31,0.15-0.6,0.46-0.66l2.57-0.45l-0.35-1.85
								c-0.06-0.31,0.14-0.6,0.45-0.66c0.12-0.02,0.24,0,0.35,0.05c0.04,0.01,0.08,0.03,0.11,0.06l2.93,1.96
								c0.19,0.13,0.29,0.36,0.24,0.59c-0.05,0.23-0.23,0.4-0.46,0.44l-5.65,0.98C200.17,63.92,200.14,63.93,200.11,63.93z
								 M203.59,61.61l0.1,0.55l0.57-0.1L203.59,61.61z"/>
						</g>
						<g>
							<path class="st68" d="M126.26,86.78c-0.26,0-0.5-0.18-0.55-0.45c-0.07-0.31,0.13-0.61,0.43-0.68l87.01-19.2l20.44-4.47
								c0.3-0.06,0.61,0.13,0.68,0.43c0.07,0.31-0.13,0.61-0.43,0.68l-20.44,4.47l-87.01,19.2
								C126.34,86.77,126.3,86.78,126.26,86.78z"/>
						</g>
						<g>
							<path class="st68" d="M158.86,86.76c-0.16,0-0.31-0.06-0.42-0.18c-0.14-0.15-0.18-0.36-0.13-0.55l0.39-1.33
								c-0.27,0.03-0.51-0.16-0.58-0.43c-0.08-0.3,0.11-0.61,0.41-0.69l0.54-0.14l0.18-0.59c0.09-0.3,0.41-0.48,0.7-0.38
								c0.28,0.08,0.45,0.37,0.4,0.66l27.06-6.82c0.18-0.05,0.37,0,0.51,0.12c0.14,0.12,0.21,0.31,0.19,0.49l-0.37,3.17
								c-0.03,0.24-0.21,0.44-0.44,0.49l-28.32,6.16C158.94,86.75,158.9,86.76,158.86,86.76z M159.98,84.39l-0.31,1.04l26.99-5.87
								l0.23-1.95L159.98,84.39z"/>
						</g>
						<g>
							<polygon class="st11" points="152.54,132.89 192.38,108.32 192.91,109.65 183.09,135.75 181.17,136.02 192.25,108.58 
								192.25,108.19 							"/>
							<path class="st68" d="M181.17,136.58c-0.17,0-0.34-0.08-0.45-0.22c-0.12-0.16-0.15-0.37-0.08-0.56l10.53-26.07l-38.34,23.64
								c-0.27,0.16-0.62,0.08-0.78-0.18s-0.08-0.62,0.18-0.78l39.71-24.7c0.18-0.11,0.39-0.11,0.58-0.01
								c0.08,0.04,0.14,0.1,0.19,0.17c0.09,0.06,0.16,0.15,0.2,0.25l0.53,1.33c0.05,0.13,0.05,0.28,0,0.41l-9.82,26.1
								c-0.07,0.19-0.25,0.33-0.45,0.36l-1.93,0.26C181.22,136.58,181.19,136.58,181.17,136.58z M190.58,114.23l-8.52,21.09
								l0.62-0.08L190.58,114.23z"/>
						</g>
						<g>
							<path class="st68" d="M177.19,131.21c0,0-0.01,0-0.01,0l-10.82-0.27c-0.24-0.01-0.46-0.17-0.53-0.4
								c-0.07-0.23,0.01-0.49,0.21-0.63l15.06-10.76c0.21-0.15,0.48-0.14,0.68,0.01c0.2,0.15,0.27,0.42,0.18,0.65l-4.25,11.03
								C177.64,131.06,177.43,131.21,177.19,131.21z M168.09,129.84l8.72,0.22l3.42-8.89L168.09,129.84z"/>
						</g>
						<g>
							<path class="st68" d="M165.91,131.07c-0.24,0-0.46-0.15-0.54-0.38c-0.08-0.24,0-0.5,0.21-0.65l15.73-11.22
								c0.19-0.14,0.46-0.14,0.65,0s0.29,0.38,0.22,0.61l-0.47,1.73c-0.04,0.13-0.12,0.25-0.23,0.32l-13.99,9.43
								c-0.09,0.06-0.18,0.09-0.29,0.1l-1.26,0.07C165.93,131.07,165.92,131.07,165.91,131.07z M167.18,130.44L167.18,130.44
								L167.18,130.44z"/>
						</g>
						<g>
							<polygon class="st11" points="152.98,134.22 215.4,138.34 214.94,143.85 151.78,138.14 152.18,136.28 215.07,142.33 
								215.34,138.48 							"/>
							<path class="st68" d="M214.94,144.42c-0.02,0-0.03,0-0.05,0l-63.16-5.71c-0.16-0.01-0.31-0.1-0.41-0.23
								c-0.1-0.13-0.13-0.3-0.1-0.46l0.4-1.86c0.06-0.28,0.31-0.47,0.61-0.44l62.31,5.99l0.18-2.7l-61.79-4.22
								c-0.31-0.02-0.55-0.29-0.53-0.6c0.02-0.31,0.3-0.55,0.6-0.53h0l62.42,4.12c0.15,0.01,0.29,0.08,0.39,0.2
								c0.1,0.12,0.15,0.27,0.14,0.42l-0.33,3.97c0,0.04-0.01,0.07-0.02,0.11l-0.12,1.43c-0.01,0.15-0.08,0.29-0.2,0.39
								C215.2,144.37,215.07,144.42,214.94,144.42z M152.47,137.63l61.95,5.6l0.03-0.4l-61.82-5.94L152.47,137.63z"/>
						</g>
						<g>
							<path class="st68" d="M189.28,186.41c-0.03,0-0.07,0-0.1-0.01l-60.12-11.07c-0.31-0.06-0.51-0.35-0.46-0.66
								c0.06-0.31,0.35-0.51,0.66-0.46l59.65,10.98l15.53-42.71c0.11-0.29,0.43-0.45,0.73-0.34c0.29,0.11,0.45,0.43,0.34,0.73
								l-15.69,43.16C189.73,186.26,189.51,186.41,189.28,186.41z M207.18,137.94c-0.07,0-0.13-0.01-0.2-0.04
								c-0.29-0.11-0.44-0.43-0.34-0.73l20.92-56.72c0.11-0.29,0.44-0.45,0.73-0.34c0.29,0.11,0.44,0.43,0.34,0.73l-20.92,56.72
								C207.63,137.79,207.41,137.94,207.18,137.94z"/>
						</g>
						<g>
							<path class="st68" d="M183.98,179.32c-0.03,0-0.06,0-0.08-0.01l-20.56-3.1c-0.18-0.03-0.33-0.13-0.41-0.29
								s-0.09-0.34-0.02-0.5l1.1-2.43c0.11-0.23,0.35-0.38,0.61-0.33l20.11,3.32c0.16,0.03,0.3,0.12,0.39,0.26
								c0.09,0.14,0.11,0.31,0.06,0.46l-0.66,2.21C184.45,179.16,184.22,179.32,183.98,179.32z M164.25,175.21l19.33,2.91l0.33-1.12
								l-19.05-3.14L164.25,175.21z"/>
						</g>
						<g>
							<path class="st11" d="M235.82,90.74l-37.44,121l0,0c1.34-0.72,2.93-1.49,4.23-2.28l34.45-116.19
								C236.65,92.42,236.25,91.58,235.82,90.74z"/>
						</g>
						<g>
							<path class="st11" d="M125.44,114.27c-0.13,0.71,0.84,0.55,0.84,0.55l0.42-0.69L125.44,114.27L125.44,114.27z M118.73,105.59
								c0,0-2.18,1.93-2.24,2.24c-0.07,0.33-0.07,0.45,0.38,0.9c0.45,0.45,0.96,0.25,1.16-0.32c0.19-0.58,0.71-1.4,0.71-1.4
								l0.44-0.71L118.73,105.59L118.73,105.59z M99.81,108.47c0,0,2.6-2.77,2.89-3.41c0.29-0.63,0.87-7.81,0.87-7.81l6.3-7.87
								l3.71-1.22l6.18-0.35l0.58-0.46l4.74,0.35l2.26,1.04c0,0,5.84,3.88,5.84,4.29s2.72,7.06,2.72,7.82
								c0,0.75-0.23,2.72-0.63,2.89c-0.41,0.17-5.5,2.78-5.5,3.12c0,0.35-1.1,4.28-1.1,4.28s-1.56,0.17-2.02-0.23
								c-0.46-0.41-0.06-0.64,0.46-0.99c0.52-0.35,1.68-1.56,1.73-2.66c0.06-1.1,0.87-4.29,0.7-4.8c-0.17-0.53-2.02-4.75-2.43-4.8
								c-0.4-0.06-2.49,0.87-2.31,1.45c0.17,0.57,3.06,2.89,2.89,3.42c-0.17,0.52-5.32,3.93-5.6,4.63c-0.29,0.69,3.92,5.09,4.5,5.38
								c0.57,0.29,1.56,0.4,1.56,0.4l0.87-1.1c0,0,0.57-0.57,0.8-0.23c0.23,0.35-3.01,4.74-3.58,4.92c-0.58,0.17-1.32-0.95-1.61-0.6
								c-0.29,0.35-4.4,3.8-4.4,3.8s-1.14-0.18-1.17-0.49c-0.03-0.31,4.44-4.47,4.99-4.81c0.56-0.34,1.12-1.05,1.21-1.52
								c0.09-0.46-4.66-5-4.66-5s-0.06-1.73-0.19-2.38c-0.13-0.64,0-1.15-1.02-1.21c-1.03-0.06-2.57,0.83-3.72,2.44
								c-1.15,1.6-1.47,2.24-1.47,3.14c0,0.9,0,1.48,0,1.48l-1.02-0.25c0,0-0.13-0.32-0.13-1.1c0-0.77-0.38-1.28-1.79-1.15
								c-1.41,0.12-3.71,0.19-4.16-0.32c-0.45-0.51,0-1.73-1.03-2.37c-1.02-0.65-0.13-1.86-2.05-0.07c-1.92,1.8-2.37,2.88-3.07,2.88
								C100.22,108.98,99.81,108.47,99.81,108.47L99.81,108.47z M108.03,97.83c0,0-0.19,2.12-0.13,2.76
								c0.06,0.65,0.45,0.32,1.22,0.65c0.77,0.31,0-1.22,0.32-2.12c0.33-0.89,2.63-3.72,2.82-4.1c0.19-0.38,2.94,0.07,3.46,0
								c0.52-0.06,0.32,0.64,0.45,1.15c0.13,0.51,2.5,0.32,3.53,0.13c1.02-0.19-0.52-1.54-1.16-2.12c-0.64-0.57-7.62-0.38-7.62-0.38
								L108.03,97.83z"/>
						</g>
						<g>
							<path class="st11" d="M91.09,115.43l4.65-4.91l10.18-1.09l6.79,6.03l2.63,1.35l1.99,1.48l0.64,1.54l2.17,1.09l8.84,7.19
								l2.69,0.52l0.96,1.27l0.45,5.24l1.57,0.82v-3.3l1.57-2.39v-4.12l1.87-1.34l-3.82-6.67l0.75-0.67l3.89,6.21l1.35-1.87
								l5.23-0.23l5.54,3.37l0.67,3.67l-1.8,3.37l1.27,0.67l-3,13.63l-5.2,6.06l-8.62-0.53l-9.93-3l0.11,24.15l3.01-0.5l-1.75,8.28
								l-0.34,13.22v0.24c-0.77-0.5-1.52-1.02-2.28-1.54l0.44-1.97h-0.75l-0.71,1.25c-0.59-0.43-1.16-0.86-1.74-1.3l4.71-15.85
								l-17.3,3.68l-0.1-0.03c-0.37-0.46-0.76-0.93-1.13-1.4l2.74-0.41l4.68-25.94l0.75-0.08c0,0-2.26,23.14-2.85,24.31
								c-0.59,1.17,2.73,0.2,2.73,0.2l7.22-27.94l-6.27-1.34l-17.21,17.73l-0.32,0.05c-0.24-0.48-0.48-0.96-0.71-1.44l16.33-17.76
								l-3.43-1.67l0.72-1.38l25.35,9.11l5.81,0.23l4.83-5.36l2.35-7.7l-0.22-3.93l-9.15-3.25l-2.11,0.53l-1.36,1.36l-0.45,2.49
								l1.13,1.96l0.75,1.73l-1.96,2.5l-0.23-0.75c0,0,0.75-1.89,0.23-2.19c-0.53-0.3-1.52-1.06-2.19-0.91
								c-0.69,0.15-0.98,0.91-1.14,1.28c-0.15,0.38-0.61,1.14-0.61,1.14l-1.43-8.38l-16.99-12.77l-15.71-0.45l0.45-0.98l10.95-0.53
								l0.38-1.36l-4.76-4.38l-8.23,1.59l-3.85,3.39l0.98,0.38l0.08,1.74l-3.21,0.25C90.79,117.22,90.92,116.33,91.09,115.43
								L91.09,115.43z M117.52,174.38l4.04-0.48l1.07-19.09L117.52,174.38L117.52,174.38z M137.24,129.29l2.09-0.28l3.73,0.64
								l2.63,0.82l3.18,1.35l0.64-0.09l0.55-1.73l0.27-2.18l-0.45-2.27l-3.91-2.54l-4.18-0.18l-1.09,0.45l-0.82,1.55l-0.72,1.36
								l-1.64,0.36L137.24,129.29z"/>
						</g>
						<g>
							<polygon class="st11" points="100.1,167.36 105.54,161.47 105.65,162.36 100.65,169.26 							"/>
							<path class="st68" d="M100.65,169.83c-0.03,0-0.06,0-0.1-0.01c-0.21-0.04-0.39-0.19-0.45-0.4l-0.55-1.9
								c-0.06-0.19-0.01-0.4,0.13-0.54l5.44-5.89c0.15-0.16,0.38-0.22,0.59-0.16c0.21,0.07,0.36,0.25,0.39,0.47l0.1,0.89
								c0.02,0.14-0.02,0.28-0.1,0.4l-5,6.9C101,169.74,100.83,169.83,100.65,169.83z M100.73,167.51l0.14,0.47l2.09-2.88
								L100.73,167.51z"/>
						</g>
						<g>
							<path class="st11" d="M125.42,190.27l77.72,19.42c-2.04,0.51-4.1,0.93-6.2,1.28l-33.2-10.14l-0.21,5.62
								c-0.9-0.05-1.8-0.11-2.69-0.19l-0.55-1.99l-1.67-0.22l-0.08,1.98c-0.53-0.06-1.08-0.13-1.61-0.2l-0.31-6.78l-2-0.89
								l0.69,7.44c-0.8-0.13-1.59-0.27-2.37-0.42l-0.99-7.58l-4.44-0.44l1.7,7.23c-0.94-0.23-1.89-0.48-2.83-0.74l-0.99-6.83
								l-1.66-0.44l0.69,6.69c-0.89-0.27-1.75-0.57-2.62-0.87l-0.29-6.15l-17.1-4.67L125.42,190.27L125.42,190.27z M158.29,199.5
								l0.11,2.12l4,0.33l0.89,1.56l0.44-2.45L158.29,199.5z"/>
						</g>
						<g>
							<defs>
								<polygon id="SVGID_3_" points="221.39,76.19 203.71,136.92 184.11,136.16 193.68,108.11 193.15,106.78 153.31,131.35 
									151.79,123.4 149.12,120.01 138.75,120.78 130.39,107.23 137.3,103.48 136.15,91.95 188.33,80.99 195.64,75.03 								"/>
							</defs>
							<clipPath id="SVGID_2_">
								<use xlink:href="#SVGID_3_"  style="overflow:visible;"/>
							</clipPath>
						</g>
					</g>
				</g>
				<g>
					<path class="st11" d="M189.92,48.9l3.69-7.85l5.46,1.71c0,0-1.66,5.89-3.53,9.6"/>
					<path class="st68" d="M195.54,52.92c-0.09,0-0.17-0.02-0.25-0.06c-0.28-0.14-0.39-0.48-0.25-0.76c1.5-2.97,2.88-7.45,3.33-8.97
						l-4.45-1.39l-3.48,7.4c-0.13,0.28-0.47,0.4-0.75,0.27c-0.28-0.13-0.41-0.47-0.27-0.75l3.69-7.85c0.12-0.26,0.42-0.39,0.68-0.3
						l5.46,1.71c0.29,0.09,0.46,0.4,0.38,0.7c-0.07,0.24-1.7,5.99-3.57,9.7C195.95,52.81,195.75,52.92,195.54,52.92z"/>
				</g>
				<g>
					<polygon class="st11" points="218.76,59.9 226.67,58.58 227.56,63.85 224.04,70.01 217,70.01 217,62.98 					"/>
					<path class="st68" d="M224.04,70.58H217c-0.31,0-0.57-0.25-0.57-0.57v-7.04c0-0.1,0.03-0.2,0.07-0.28l1.76-3.08
						c0.08-0.15,0.23-0.25,0.4-0.28l7.92-1.32c0.31-0.06,0.6,0.16,0.65,0.47l0.88,5.28c0.02,0.13,0,0.26-0.07,0.38l-3.52,6.16
						C224.43,70.47,224.24,70.58,224.04,70.58z M217.57,69.45h6.14l3.26-5.7l-0.75-4.52l-7.09,1.18l-1.55,2.71V69.45z"/>
				</g>
			</g>
			<g>
				<path class="st7" d="M114.85,193.5c-4.31,2.53-25.21,6.73-25.69-4.88c-0.21-5.13,3.39-32.62,4.39-39.19
					c1.09-7.15,3.42-12.34-0.72-18.26c-3.91-5.59-12.52-8.1-16.91-3.84c-4.57,4.44-7.21,16-9.52,21.95
					c-2.25,5.78-4.81,11.62-6.23,17.65c-1.95,8.32-7.48,19.67-2.3,26.58c6.82,9.11,14.8,10.16,25.86,9.11
					c6.21-0.59,9.76-0.1,15.75,1.35c4.84,1.17,21.31-2.09,25.25-5.91c0,0,11.77-7.15,6.08-12.16
					C125.12,180.88,117.04,192.21,114.85,193.5z"/>
				<path class="st68" d="M102.04,204.95c-1.12,0-2.06-0.08-2.75-0.25c-5.88-1.42-9.34-1.92-15.5-1.33
					c-11.52,1.1-19.56-0.09-26.54-9.41c-4.27-5.7-1.72-14.03,0.52-21.38c0.63-2.07,1.23-4.02,1.65-5.83
					c1.15-4.91,3.07-9.72,4.93-14.38c0.45-1.13,0.9-2.25,1.33-3.38c0.59-1.53,1.22-3.47,1.89-5.52c1.91-5.92,4.3-13.28,7.81-16.7
					c1.82-1.77,4.46-2.59,7.4-2.3c4.1,0.39,8.28,2.84,10.66,6.25c3.51,5.02,2.61,9.56,1.57,14.82c-0.25,1.28-0.51,2.6-0.73,3.99
					c-0.98,6.39-4.59,33.95-4.38,39.04c0.1,2.5,1.21,4.29,3.38,5.48c5.96,3.25,17.92,0.69,21.16-1.22c0.41-0.24,1.26-1.1,2.15-2
					c3.41-3.45,9.77-9.87,14.7-5.52c1.33,1.17,1.93,2.54,1.79,4.09c-0.39,4.46-7.09,8.74-7.91,9.25
					C121.45,202.19,108.66,204.95,102.04,204.95z M88.35,201.62c3.84,0,6.99,0.57,11.31,1.61c4.75,1.15,20.97-2.25,24.54-5.72
					l0.13-0.1c1.92-1.17,6.97-4.91,7.26-8.13c0.09-1.05-0.33-1.97-1.28-2.81c-3.86-3.4-9.34,2.14-12.62,5.45
					c-1.09,1.1-1.88,1.9-2.46,2.24h0c-3.56,2.09-16.14,4.8-22.66,1.24c-2.65-1.44-4.05-3.71-4.18-6.75
					c-0.21-5.18,3.42-32.91,4.4-39.34c0.22-1.43,0.48-2.76,0.74-4.05c1.01-5.12,1.81-9.17-1.33-13.66
					c-2.14-3.06-5.89-5.26-9.56-5.61c-2.5-0.23-4.7,0.43-6.2,1.88c-3.25,3.15-5.56,10.32-7.43,16.07c-0.67,2.08-1.31,4.04-1.92,5.61
					c-0.44,1.13-0.89,2.26-1.34,3.39c-1.83,4.6-3.73,9.36-4.86,14.16c-0.44,1.86-1.04,3.84-1.68,5.93
					c-2.14,7.01-4.56,14.95-0.76,20.02c6.56,8.75,14.2,9.85,25.18,8.8C85.38,201.7,86.91,201.62,88.35,201.62z"/>
			</g>
			<g>
				<path class="st11" d="M127.73,191.19c-0.66,0.05-1.28,0.1-1.88,0.16c-0.63,1.62-1.25,3.76-1.79,6.58
					c-0.28,1.44-0.54,3.05-0.77,4.85c-0.18,1.41-0.35,2.94-0.5,4.58c1.03-0.18,2.08-0.1,3.1-0.07c0.54-0.18,1.06-0.43,1.52-0.83
					c0.3-0.29,1.21-0.39,2.01,0.08c1.42-1.86,4.45-1.63,6.63-1.57c0.8-0.02,1.38,0.62,1.73,1.09c0.75-0.29,1.52-0.56,2.31-0.8
					c2.02-5.5,4.83-14.38,5-21.79c0.13-5.4-2.57-12.22-19.12-10.12l-11.12,20.14c-0.32,0.22,2.07-1.29,11.01-2.15
					C129.58,181.76,133.9,190.71,127.73,191.19z"/>
				<path class="st68" d="M121.95,208.27l0.09-0.98c0.15-1.65,0.32-3.2,0.5-4.61c0.23-1.75,0.49-3.39,0.78-4.89
					c0.41-2.11,0.88-3.97,1.41-5.56c-5.95,0.65-8.63,1.58-9.54,1.96l-0.63,0.27l-0.4-0.57l-0.33-0.6l0.44-0.31l11.22-20.32
					l0.38-0.05c8-1.02,13.69-0.06,16.91,2.84c2.12,1.91,3.15,4.62,3.07,8.04c-0.17,7.34-2.84,16.03-5.05,22.03l-0.13,0.36
					l-0.36,0.11c-0.83,0.25-1.57,0.51-2.26,0.77l-0.54,0.21l-0.35-0.47c-0.4-0.54-0.78-0.8-1.1-0.79l-0.49-0.01
					c-1.99-0.06-4.48-0.14-5.56,1.28l-0.41,0.53l-0.58-0.34c-0.49-0.29-1.01-0.23-1.13-0.16c-0.49,0.43-1.07,0.75-1.78,0.98
					l-0.13,0.04l-0.65-0.02c-0.85-0.03-1.66-0.06-2.44,0.08L121.95,208.27z M124.32,206.48c0.37,0,0.73,0.01,1.09,0.02l0.37,0.01
					c0.46-0.17,0.83-0.37,1.14-0.64c0.48-0.46,1.44-0.56,2.31-0.27c1.64-1.58,4.38-1.49,6.41-1.42l0.44,0.01
					c0.68-0.02,1.34,0.3,1.95,0.95c0.47-0.17,0.96-0.34,1.49-0.51c2.14-5.87,4.66-14.2,4.82-21.19c0.07-2.96-0.79-5.28-2.57-6.88
					c-2.83-2.55-7.98-3.39-15.32-2.51l-9.99,18.1c1.72-0.49,4.52-1.08,8.86-1.52l0.01,0c1.79-4.32,3.64-4.63,4.59-4.41
					c1.06,0.24,1.77,1.33,1.67,2.59c-0.1,1.32-1.15,2.93-3.79,3.13h0c-0.48,0.04-0.95,0.08-1.39,0.12c-0.6,1.64-1.14,3.66-1.59,6.01
					c-0.28,1.47-0.54,3.09-0.76,4.8c-0.15,1.12-0.28,2.34-0.41,3.63C123.87,206.49,124.09,206.48,124.32,206.48z M129.48,187.7
					c-0.46,0-1.39,0.59-2.43,2.78c0.2-0.02,0.41-0.03,0.62-0.05c1.68-0.13,2.34-0.98,2.39-1.72c0.04-0.49-0.18-0.93-0.49-1
					C129.55,187.7,129.51,187.7,129.48,187.7z"/>
			</g>
		</g>
		<g>
			<g>
				<g>
					<path class="st73" d="M142.52,119.11c-0.14,0-0.26-0.1-0.28-0.23c-0.03-0.14,0.05-0.28,0.19-0.33l16.85-5.75l30.58-15.32
						l25.7-15.89l-79.23,36.92c-0.07,0.03-0.16,0.04-0.23,0c-0.07-0.03-0.13-0.09-0.16-0.17l-0.57-1.53
						c-0.05-0.14,0.01-0.29,0.14-0.36l20.86-10.54l60.94-28.06l-32.41,8.86l-53.18,20.49c-0.15,0.06-0.32-0.02-0.37-0.17
						c-0.06-0.15,0.02-0.32,0.17-0.37l53.21-20.5l35.81-9.79c0.14-0.04,0.3,0.04,0.35,0.18c0.05,0.14-0.01,0.3-0.15,0.36
						l-64.11,29.51l-20.62,10.42l0.37,1l82.4-38.39c0.14-0.06,0.3-0.01,0.37,0.12c0.07,0.13,0.03,0.3-0.09,0.38l-0.26,0.17
						c-0.01,0.09-0.05,0.17-0.14,0.22l-2.76,1.71l-24.79,16.49l-31.03,16.3l-14.03,4.05l-3.51,0.2
						C142.53,119.11,142.53,119.11,142.52,119.11z M201.25,91.11l-11.12,6.87l-30.64,15.34l-14.9,5.09l1.35-0.08l13.91-4.01
						l30.95-16.26L201.25,91.11z"/>
				</g>
				<g>
					<path class="st73" d="M210.47,103.01c-0.04,0-0.07-0.01-0.11-0.02c-0.15-0.06-0.22-0.23-0.16-0.38l9.2-23
						c0.06-0.15,0.23-0.22,0.38-0.16c0.15,0.06,0.22,0.23,0.16,0.38l-9.2,23C210.69,102.95,210.58,103.01,210.47,103.01z"/>
				</g>
				<g>
					<path class="st73" d="M147.12,119.88c-0.13,0-0.25-0.09-0.28-0.23c-0.03-0.16,0.07-0.31,0.22-0.34l37.96-8.18
						c0.16-0.03,0.31,0.07,0.34,0.22c0.03,0.16-0.07,0.31-0.22,0.34l-37.96,8.18C147.16,119.88,147.14,119.88,147.12,119.88z
						 M192.91,109.94c-0.13,0-0.25-0.09-0.28-0.23c-0.03-0.16,0.07-0.31,0.22-0.34l9.9-2.15l11.92-0.57c0,0,0.01,0,0.01,0
						c0.15,0,0.28,0.12,0.29,0.27c0.01,0.16-0.12,0.29-0.27,0.3l-11.87,0.56l-9.85,2.14C192.95,109.94,192.93,109.94,192.91,109.94z
						"/>
				</g>
				<g>
					<path class="st73" d="M213.34,109.53c-0.03,0-0.07-0.01-0.1-0.02c-0.15-0.06-0.22-0.22-0.17-0.37l2.88-7.57l-12.89,2.4
						c-0.16,0.03-0.31-0.07-0.34-0.23c-0.03-0.16,0.07-0.31,0.23-0.34l13.4-2.49c0.1-0.02,0.21,0.02,0.27,0.1
						c0.07,0.08,0.08,0.19,0.05,0.29l-3.07,8.05C213.57,109.46,213.46,109.53,213.34,109.53z"/>
				</g>
				<g>
					<path class="st73" d="M203.01,110.48c-0.03,0-0.06,0-0.08-0.01c-0.15-0.05-0.24-0.21-0.19-0.36l2.48-8.05
						c0.05-0.15,0.21-0.24,0.36-0.19c0.15,0.05,0.24,0.21,0.19,0.36l-2.48,8.05C203.25,110.4,203.13,110.48,203.01,110.48z"/>
				</g>
				<g>
					<path class="st73" d="M202.43,99.18c-0.09,0-0.19-0.05-0.24-0.13c-0.09-0.13-0.05-0.31,0.09-0.4l8.04-5.18
						c0.13-0.09,0.31-0.05,0.4,0.09c0.09,0.13,0.05,0.31-0.09,0.4l-8.04,5.18C202.54,99.17,202.48,99.18,202.43,99.18z"/>
				</g>
				<g>
					<path class="st73" d="M207.03,101.48c-0.12,0-0.23-0.07-0.27-0.19l-2.11-5.75c-0.05-0.15,0.02-0.32,0.17-0.37
						c0.15-0.05,0.31,0.02,0.37,0.17l2.11,5.75c0.05,0.15-0.02,0.32-0.17,0.37C207.09,101.47,207.06,101.48,207.03,101.48z"/>
				</g>
				<g>
					<path class="st73" d="M205.49,102.63c-0.08,0-0.17-0.04-0.22-0.1l-3.82-4.6c-0.1-0.12-0.08-0.3,0.04-0.41
						c0.12-0.1,0.31-0.08,0.41,0.04l3.82,4.6c0.1,0.12,0.08,0.3-0.04,0.41C205.62,102.61,205.56,102.63,205.49,102.63z"/>
				</g>
				<g>
					<path class="st73" d="M156.08,106.67c-0.03,0-0.07-0.01-0.1-0.02c-0.08-0.03-0.14-0.09-0.17-0.17l-2.84-7.68
						c-0.05-0.14,0.01-0.3,0.15-0.36l1.64-0.77c0.07-0.04,0.16-0.04,0.23-0.01c0.07,0.03,0.13,0.09,0.16,0.17l2.76,7.62
						c0.05,0.14-0.01,0.29-0.14,0.35l-1.56,0.83C156.17,106.66,156.13,106.67,156.08,106.67z M153.6,98.85l2.64,7.13l1.04-0.56
						l-2.57-7.09L153.6,98.85z"/>
				</g>
				<g>
					<path class="st73" d="M186.67,92.35c-0.03,0-0.07-0.01-0.1-0.02c-0.08-0.03-0.14-0.09-0.17-0.17l-2.03-5.43
						c-0.05-0.14,0.02-0.31,0.16-0.37l1.2-0.5c0.07-0.03,0.15-0.03,0.22,0c0.07,0.03,0.13,0.09,0.16,0.16l2.15,5.21
						c0.06,0.14,0,0.29-0.13,0.36l-1.32,0.71C186.76,92.33,186.72,92.35,186.67,92.35z M185.01,86.79l1.82,4.86l0.8-0.43l-1.94-4.7
						L185.01,86.79z"/>
				</g>
				<g>
					<path class="st73" d="M158.79,113.41c-0.04,0-0.07-0.01-0.1-0.02c-0.08-0.03-0.15-0.1-0.17-0.18l-1.46-4.77
						c-0.04-0.14,0.02-0.28,0.15-0.34l1.22-0.59c0.07-0.04,0.16-0.04,0.24-0.01c0.08,0.03,0.14,0.09,0.16,0.17l1.55,4.6
						c0.04,0.13-0.01,0.27-0.13,0.34l-1.31,0.76C158.89,113.39,158.84,113.41,158.79,113.41z M157.67,108.5l1.29,4.19l0.79-0.46
						l-1.37-4.07L157.67,108.5z"/>
				</g>
				<g>
					<path class="st73" d="M189,98.43c-0.03,0-0.07-0.01-0.1-0.02c-0.08-0.03-0.14-0.1-0.17-0.18l-1.29-3.82
						c-0.04-0.13,0.01-0.28,0.13-0.34l1.54-0.86c0.07-0.04,0.16-0.05,0.24-0.02c0.08,0.03,0.14,0.09,0.17,0.17l1.42,3.7
						c0.05,0.13,0,0.28-0.12,0.35l-1.67,0.98C189.11,98.42,189.06,98.43,189,98.43z M188.07,94.46l1.1,3.26l1.15-0.68l-1.21-3.16
						L188.07,94.46z"/>
				</g>
			</g>
		</g>
	</g>
</g>
</svg>
