<?xml version="1.0" encoding="utf-8"?>
<!-- Generator: Adobe Illustrator 25.0.0, SVG Export Plug-In . SVG Version: 6.00 Build 0)  -->
<svg version="1.1" id="первая_страница"
	 xmlns="http://www.w3.org/2000/svg" xmlns:xlink="http://www.w3.org/1999/xlink" x="0px" y="0px" viewBox="0 0 300 303"
	 style="enable-background:new 0 0 300 303;" xml:space="preserve">
<style type="text/css">
	.st0{fill:#EC5A2E;}
	.st1{fill:#FFFFFF;}
	.st2{clip-path:url(#SVGID_2_);}
	.st3{fill-rule:evenodd;clip-rule:evenodd;fill:#3C3C3B;}
	.st4{fill-rule:evenodd;clip-rule:evenodd;fill:#C3C5C5;}
	.st5{fill-rule:evenodd;clip-rule:evenodd;fill:#736B48;}
	.st6{fill-rule:evenodd;clip-rule:evenodd;fill:#979D9C;}
	.st7{fill-rule:evenodd;clip-rule:evenodd;fill:#7A8981;}
	.st8{fill-rule:evenodd;clip-rule:evenodd;fill:#FFFFFF;}
	.st9{fill-rule:evenodd;clip-rule:evenodd;fill:#F7D1B1;}
	.st10{fill-rule:evenodd;clip-rule:evenodd;fill:#EC5A2E;}
	.st11{fill-rule:evenodd;clip-rule:evenodd;fill:#1D1D1B;}
	.st12{fill-rule:evenodd;clip-rule:evenodd;fill:#F29100;}
	.st13{fill-rule:evenodd;clip-rule:evenodd;fill:#ECEFEC;}
	.st14{fill-rule:evenodd;clip-rule:evenodd;fill:#CBA477;}
	.st15{fill-rule:evenodd;clip-rule:evenodd;fill:#9C9B9B;}
	.st16{fill-rule:evenodd;clip-rule:evenodd;fill:#CAB2A1;}
	.st17{fill-rule:evenodd;clip-rule:evenodd;fill:#C6C6C5;}
	.st18{fill-rule:evenodd;clip-rule:evenodd;fill:#B1B1B1;}
	.st19{fill-rule:evenodd;clip-rule:evenodd;fill:#A6C5C0;}
	.st20{fill-rule:evenodd;clip-rule:evenodd;fill:#F8B133;}
	.st21{fill-rule:evenodd;clip-rule:evenodd;fill:#EC5A2E;stroke:#1D1D1B;stroke-width:0.7592;}
	.st22{fill-rule:evenodd;clip-rule:evenodd;fill:#D9D9D9;stroke:#1D1D1B;stroke-width:0.7592;}
	.st23{fill-rule:evenodd;clip-rule:evenodd;fill:none;stroke:#1D1D1B;stroke-width:0.7592;}
	.st24{fill-rule:evenodd;clip-rule:evenodd;fill:#F29100;stroke:#1D1D1B;stroke-width:0.7592;}
	.st25{fill-rule:evenodd;clip-rule:evenodd;fill:none;stroke:#E84E1B;stroke-width:0.6203;}
	.st26{fill-rule:evenodd;clip-rule:evenodd;fill:#C6C6C5;stroke:#1D1D1B;stroke-width:0.7592;}
	.st27{fill-rule:evenodd;clip-rule:evenodd;fill:#FFFFFF;stroke:#1D1D1B;stroke-width:0.7592;}
	.st28{fill-rule:evenodd;clip-rule:evenodd;fill:#B1B1B1;stroke:#1D1D1B;stroke-width:0.7592;}
	.st29{fill-rule:evenodd;clip-rule:evenodd;fill:none;stroke:#1D1D1B;stroke-width:0.3508;}
	.st30{fill-rule:evenodd;clip-rule:evenodd;fill:none;stroke:#FFFFFF;stroke-width:0.7592;}
	.st31{fill-rule:evenodd;clip-rule:evenodd;fill:#D9D9D9;stroke:#1D1D1B;stroke-width:0.7909;}
	.st32{fill-rule:evenodd;clip-rule:evenodd;fill:none;stroke:#1D1D1B;stroke-width:0.7909;}
	.st33{fill-rule:evenodd;clip-rule:evenodd;fill:#1D1D1B;stroke:#1D1D1B;stroke-width:0.0798;}
	.st34{fill:#9C9B9B;}
	.st35{opacity:0.9;}
	.st36{fill:#E9F1EF;}
	.st37{fill:#F1F6F5;}
	.st38{fill:#D0E1DE;}
	.st39{fill:#C7DAD7;}
	.st40{fill:#E0EBE9;}
	.st41{fill:#D9E6E4;}
	.st42{fill:#BDD4D0;}
	.st43{fill-rule:evenodd;clip-rule:evenodd;fill:#FFFFFF;stroke:#1D1D1B;stroke-width:0.2282;}
	.st44{fill-rule:evenodd;clip-rule:evenodd;fill:none;}
	.st45{fill:#CBCBCB;}
	.st46{fill:#DDDDDD;}
	.st47{fill:#E5E5E5;}
	.st48{fill:#E1E1E1;}
	.st49{fill:#D1D1D1;}
	.st50{fill:#D4D4D3;}
	.st51{fill:#BABAB9;}
	.st52{fill:#C1C1C1;}
	.st53{fill:#C5C5C4;}
	.st54{fill:#F0F0F0;}
	.st55{fill:#ECECEC;}
	.st56{fill:#B0D0C0;}
	.st57{fill:#CBE0D5;}
	.st58{fill:#D8E8E0;}
	.st59{fill:#D1E3DA;}
	.st60{fill:#B9D5C7;}
	.st61{fill:#BDD7CA;}
	.st62{fill:#96C0AB;}
	.st63{fill:#A1C7B4;}
	.st64{fill:#A6CAB8;}
	.st65{fill:#E8F1ED;}
	.st66{fill:#E3EEE9;}
	.st67{fill-rule:evenodd;clip-rule:evenodd;fill:#1D1D1B;stroke:#1D1D1B;stroke-width:0.2234;}
	.st68{fill:#1D1D1B;}
	.st69{fill:#E84E1B;}
	.st70{fill-rule:evenodd;clip-rule:evenodd;fill:#D9D9D9;}
	.st71{fill:#575756;}
	.st72{fill:#649898;}
	.st73{fill:#7A8981;}
	.st74{clip-path:url(#SVGID_6_);}
	.st75{fill:none;}
	.st76{fill-rule:evenodd;clip-rule:evenodd;}
	.st77{fill-rule:evenodd;clip-rule:evenodd;fill:#62697F;}
	.st78{fill-rule:evenodd;clip-rule:evenodd;fill:#06080B;}
	.st79{fill-rule:evenodd;clip-rule:evenodd;fill:#B1B8CF;}
	.st80{fill-rule:evenodd;clip-rule:evenodd;fill:#B9C5D9;}
	.st81{fill-rule:evenodd;clip-rule:evenodd;fill:#D6DFF0;}
</style>
<g>
	<g>
		<polygon class="st0" points="273.64,0.78 273.5,0 2.23,0 30.91,154.76 0,303 266.86,303 300,154.52 		"/>
		<polygon class="st1" points="258.25,301.13 2.3,301.13 32.82,154.78 4.47,1.87 264.82,1.87 290.99,154.47 		"/>
	</g>
	<g>
		<path d="M43.09,214.66h2.47c1.2,0,2.05,0.66,2.05,1.8c0,0.69-0.34,1.24-0.88,1.52V218c0.75,0.22,1.17,0.92,1.17,1.71
			c0,1.33-1.04,2.01-2.28,2.01h-2.53V214.66z M45.56,217.63c0.64,0,1.04-0.45,1.04-1.07c0-0.62-0.38-1.04-1.05-1.04h-1.47v2.11
			H45.56z M45.67,220.86c0.76,0,1.21-0.48,1.21-1.21c0-0.71-0.47-1.2-1.21-1.2h-1.59v2.41H45.67z"/>
		<path d="M55.97,216.54c0.67,0,1.42,0.23,1.9,0.74l-0.46,0.68c-0.34-0.34-0.87-0.58-1.4-0.58c-1.02,0-1.76,0.77-1.76,1.8
			c0,1.03,0.74,1.82,1.79,1.82c0.56,0,1.17-0.27,1.56-0.68l0.39,0.71c-0.46,0.49-1.23,0.81-2.02,0.81c-1.6,0-2.71-1.13-2.71-2.65
			C53.26,217.69,54.38,216.54,55.97,216.54z"/>
		<path d="M62.28,216.54c1.51,0,2.73,1.11,2.73,2.64c0,1.54-1.22,2.66-2.72,2.66c-1.51,0-2.73-1.12-2.73-2.66
			C59.56,217.65,60.78,216.54,62.28,216.54z M62.29,221c0.95,0,1.74-0.76,1.74-1.82c0-1.05-0.79-1.8-1.74-1.8
			c-0.96,0-1.74,0.75-1.74,1.8C60.55,220.24,61.33,221,62.29,221z"/>
		<path d="M69.54,216.54c1.51,0,2.73,1.11,2.73,2.64c0,1.54-1.22,2.66-2.72,2.66c-1.51,0-2.73-1.12-2.73-2.66
			C66.82,217.65,68.04,216.54,69.54,216.54z M69.55,221c0.95,0,1.74-0.76,1.74-1.82c0-1.05-0.79-1.8-1.74-1.8
			c-0.96,0-1.74,0.75-1.74,1.8C67.81,220.24,68.59,221,69.55,221z"/>
		<path d="M75.46,217.49H73.7v-0.83h4.49v0.83h-1.77v4.23h-0.96V217.49z"/>
		<path d="M80.11,216.66h2.09c1.02,0,1.69,0.45,1.69,1.3c0,0.49-0.26,0.91-0.72,1.11v0.01c0.63,0.15,0.96,0.64,0.96,1.2
			c0,0.94-0.76,1.44-1.86,1.44h-2.16V216.66z M82.03,218.8c0.58,0,0.87-0.3,0.87-0.77c0-0.46-0.29-0.7-0.9-0.7h-0.92v1.47H82.03z
			 M82.12,221.04c0.7,0,1.03-0.32,1.03-0.79c0-0.5-0.37-0.8-1.04-0.8h-1.03v1.59H82.12z"/>
		<path d="M88.49,216.54c1.43,0,2.19,1.07,2.19,2.37c0,0.13-0.02,0.27-0.04,0.41h-3.68c0.05,1.09,0.83,1.68,1.74,1.68
			c0.54,0,1.09-0.23,1.49-0.59l0.41,0.71c-0.49,0.45-1.26,0.72-1.96,0.72c-1.59,0-2.69-1.15-2.69-2.65
			C85.95,217.58,87.05,216.54,88.49,216.54z M89.7,218.62c-0.03-0.87-0.57-1.33-1.23-1.33c-0.75,0-1.34,0.49-1.48,1.33H89.7z"/>
		<path d="M93.98,217.49h-1.76v-0.83h4.49v0.83h-1.77v4.23h-0.96V217.49z"/>
		<path d="M100.84,216.54c0.67,0,1.42,0.23,1.9,0.74l-0.46,0.68c-0.34-0.34-0.87-0.58-1.4-0.58c-1.02,0-1.76,0.77-1.76,1.8
			c0,1.03,0.74,1.82,1.79,1.82c0.56,0,1.17-0.27,1.56-0.68l0.39,0.71c-0.46,0.49-1.23,0.81-2.02,0.81c-1.6,0-2.71-1.13-2.71-2.65
			C98.13,217.69,99.25,216.54,100.84,216.54z"/>
		<path d="M106.1,217.49h-1.76v-0.83h4.49v0.83h-1.77v4.23h-0.96V217.49z"/>
		<path d="M110.75,216.66h2.09c1.02,0,1.69,0.45,1.69,1.3c0,0.49-0.26,0.91-0.72,1.11v0.01c0.63,0.15,0.96,0.64,0.96,1.2
			c0,0.94-0.76,1.44-1.86,1.44h-2.16V216.66z M112.67,218.8c0.58,0,0.87-0.3,0.87-0.77c0-0.46-0.29-0.7-0.9-0.7h-0.92v1.47H112.67z
			 M112.76,221.04c0.7,0,1.03-0.32,1.03-0.79c0-0.5-0.37-0.8-1.04-0.8h-1.03v1.59H112.76z"/>
		<path d="M116.92,216.66h0.93v3.02c0,0.27-0.02,0.63-0.03,0.68h0.02c0.04-0.09,0.28-0.44,0.45-0.68l2.18-3.02h0.94v5.06h-0.94
			v-3.02c0-0.24,0.03-0.59,0.03-0.67h-0.02c-0.03,0.09-0.28,0.43-0.44,0.67l-2.19,3.02h-0.93V216.66z"/>
		<path d="M123.87,216.66h0.93v3.02c0,0.27-0.02,0.63-0.03,0.68h0.02c0.04-0.09,0.28-0.44,0.45-0.68l2.18-3.02h0.94v5.06h-0.94
			v-3.02c0-0.24,0.03-0.59,0.03-0.67h-0.02c-0.03,0.09-0.28,0.43-0.44,0.67l-2.19,3.02h-0.93V216.66z"/>
		<path d="M136.67,216.54c0.67,0,1.42,0.23,1.9,0.74l-0.46,0.68c-0.34-0.34-0.87-0.58-1.4-0.58c-1.02,0-1.76,0.77-1.76,1.8
			c0,1.03,0.74,1.82,1.79,1.82c0.56,0,1.17-0.27,1.56-0.68l0.39,0.71c-0.46,0.49-1.23,0.81-2.02,0.81c-1.6,0-2.71-1.13-2.71-2.65
			C133.96,217.69,135.08,216.54,136.67,216.54z"/>
		<path d="M144.18,216.66h2.09c1.02,0,1.69,0.45,1.69,1.3c0,0.49-0.26,0.91-0.72,1.11v0.01c0.63,0.15,0.96,0.64,0.96,1.2
			c0,0.94-0.76,1.44-1.86,1.44h-2.16V216.66z M146.1,218.8c0.58,0,0.87-0.3,0.87-0.77c0-0.46-0.29-0.7-0.9-0.7h-0.92v1.47H146.1z
			 M146.19,221.04c0.7,0,1.03-0.32,1.03-0.79c0-0.5-0.37-0.8-1.04-0.8h-1.03v1.59H146.19z"/>
		<path d="M150.35,216.66h0.97v1.83h0.99c1.05,0,1.84,0.48,1.84,1.63c0,0.95-0.58,1.6-1.85,1.6h-1.95V216.66z M152.17,221.02
			c0.7,0,1-0.38,1-0.91c0-0.54-0.31-0.92-1.01-0.92h-0.84v1.83H152.17z M154.92,216.66h0.97v5.06h-0.97V216.66z"/>
		<path d="M160.43,215.16l1.81-0.78l0.32,0.8l-1.94,0.81c-1.01,0.46-1.49,1.05-1.56,2.02h0.02c0.45-0.68,1.12-0.9,1.79-0.9
			c1.27,0,2.15,0.9,2.15,2.33c0,1.4-0.96,2.4-2.39,2.4c-1.71,0-2.48-1.28-2.48-3.03C158.15,217,158.67,215.9,160.43,215.16z
			 M160.59,221.02c0.8,0,1.45-0.58,1.45-1.56c0-0.99-0.65-1.58-1.41-1.58c-0.86,0-1.47,0.67-1.47,1.56
			C159.16,220.44,159.81,221.02,160.59,221.02z"/>
		<path d="M165.2,216.66h0.9v0.45c0,0.21-0.03,0.38-0.03,0.38h0.02c0.32-0.61,0.96-0.95,1.7-0.95c1.37,0,2.22,1.08,2.22,2.65
			c0,1.61-0.96,2.65-2.29,2.65c-0.64,0-1.22-0.32-1.57-0.86h-0.02c0,0,0.04,0.18,0.04,0.44v2.3h-0.97V216.66z M167.57,221
			c0.8,0,1.46-0.65,1.46-1.8c0-1.1-0.59-1.81-1.43-1.81c-0.76,0-1.46,0.54-1.46,1.82C166.14,220.11,166.64,221,167.57,221z"/>
		<path d="M174.78,218.57h0.26v-0.1c0-0.83-0.48-1.11-1.11-1.11c-0.5,0-1.01,0.2-1.42,0.49l-0.39-0.71c0.41-0.34,1.18-0.6,1.89-0.6
			c1.27,0,2,0.7,2,1.98v3.2h-0.91v-0.51c0-0.23,0.03-0.4,0.03-0.4h-0.02c-0.29,0.58-0.91,1.03-1.66,1.03c-0.88,0-1.69-0.55-1.69-1.5
			C171.76,218.75,173.73,218.57,174.78,218.57z M173.68,221.07c0.85,0,1.36-0.86,1.36-1.61v-0.19h-0.25c-0.72,0-2.06,0.06-2.06,0.99
			C172.73,220.66,173.05,221.07,173.68,221.07z"/>
		<path d="M178.41,216.66h0.97v2.06h2.56v-2.06h0.97v5.06h-0.97v-2.17h-2.56v2.17h-0.97V216.66z"/>
		<path d="M185.38,216.66h0.97v2.06h2.56v-2.06h0.97v5.06h-0.97v-2.17h-2.56v2.17h-0.97V216.66z"/>
		<path d="M194.74,216.54c1.51,0,2.73,1.11,2.73,2.64c0,1.54-1.22,2.66-2.72,2.66c-1.51,0-2.73-1.12-2.73-2.66
			C192.02,217.65,193.24,216.54,194.74,216.54z M194.75,221c0.95,0,1.74-0.76,1.74-1.82c0-1.05-0.79-1.8-1.74-1.8
			c-0.96,0-1.74,0.75-1.74,1.8C193.01,220.24,193.79,221,194.75,221z"/>
		<path d="M199.61,216.66h0.93v3.02c0,0.27-0.02,0.63-0.03,0.68h0.02c0.04-0.09,0.28-0.44,0.45-0.68l2.18-3.02h0.94v5.06h-0.94
			v-3.02c0-0.24,0.03-0.59,0.03-0.67h-0.02c-0.03,0.09-0.28,0.43-0.44,0.67l-2.19,3.02h-0.93V216.66z M200.36,214.8v-0.15h0.78v0.14
			c0,0.44,0.35,0.66,0.7,0.66s0.71-0.22,0.71-0.67v-0.13h0.77v0.15c0,0.82-0.7,1.28-1.48,1.28
			C201.07,216.08,200.36,215.62,200.36,214.8z"/>
		<path d="M41.41,230.49h-1.76v-0.83h4.49v0.83h-1.77v4.23h-0.96V230.49z"/>
		<path d="M48.1,229.54c1.43,0,2.19,1.07,2.19,2.37c0,0.13-0.02,0.27-0.04,0.41h-3.68c0.05,1.09,0.83,1.68,1.74,1.68
			c0.54,0,1.09-0.23,1.49-0.59l0.41,0.71c-0.49,0.45-1.26,0.72-1.96,0.72c-1.59,0-2.69-1.15-2.69-2.65
			C45.56,230.58,46.66,229.54,48.1,229.54z M49.31,231.62c-0.03-0.87-0.57-1.33-1.23-1.33c-0.75,0-1.34,0.49-1.48,1.33H49.31z"/>
		<path d="M53.54,232.12l-1.63-2.46h1.11l0.94,1.54c0.07,0.13,0.16,0.3,0.16,0.3h0.02c0,0,0.1-0.17,0.17-0.3l0.94-1.54h1.11
			l-1.63,2.46l1.73,2.6h-1.1l-1.06-1.69c-0.08-0.12-0.16-0.27-0.16-0.27h-0.02c0,0-0.07,0.15-0.15,0.27l-1.06,1.69h-1.1
			L53.54,232.12z"/>
		<path d="M58.35,229.66h0.97v2.06h2.56v-2.06h0.97v5.06h-0.97v-2.17h-2.56v2.17h-0.97V229.66z"/>
		<path d="M67.71,229.54c1.51,0,2.73,1.11,2.73,2.64c0,1.54-1.22,2.66-2.72,2.66c-1.51,0-2.73-1.12-2.73-2.66
			C64.99,230.65,66.21,229.54,67.71,229.54z M67.72,234c0.95,0,1.74-0.76,1.74-1.82c0-1.05-0.79-1.8-1.74-1.8
			c-0.96,0-1.74,0.75-1.74,1.8C65.98,233.24,66.76,234,67.72,234z"/>
		<path d="M71.89,233.9c0.74-0.11,1.14-0.85,1.14-2.68v-1.56h3.39v5.06h-0.97v-4.26h-1.49v0.76c0,2.29-0.58,3.47-2.07,3.55V233.9z"
			/>
		<path d="M81.28,229.54c1.51,0,2.73,1.11,2.73,2.64c0,1.54-1.22,2.66-2.72,2.66c-1.51,0-2.73-1.12-2.73-2.66
			C78.56,230.65,79.78,229.54,81.28,229.54z M81.29,234c0.95,0,1.74-0.76,1.74-1.82c0-1.05-0.79-1.8-1.74-1.8
			c-0.96,0-1.74,0.75-1.74,1.8C79.55,233.24,80.33,234,81.29,234z"/>
		<path d="M86.15,229.66h3.17v0.83h-2.2v4.23h-0.97V229.66z"/>
		<path d="M91.25,229.66h0.93v3.02c0,0.27-0.02,0.63-0.03,0.68h0.02c0.04-0.09,0.28-0.44,0.45-0.68l2.18-3.02h0.94v5.06h-0.94v-3.02
			c0-0.24,0.03-0.59,0.03-0.67H94.8c-0.03,0.09-0.28,0.43-0.44,0.67l-2.19,3.02h-0.93V229.66z"/>
		<path d="M100.41,229.54c1.43,0,2.19,1.07,2.19,2.37c0,0.13-0.02,0.27-0.04,0.41h-3.68c0.05,1.09,0.83,1.68,1.74,1.68
			c0.54,0,1.09-0.23,1.49-0.59l0.41,0.71c-0.49,0.45-1.26,0.72-1.96,0.72c-1.59,0-2.69-1.15-2.69-2.65
			C97.87,230.58,98.97,229.54,100.41,229.54z M101.62,231.62c-0.03-0.87-0.57-1.33-1.23-1.33c-0.75,0-1.34,0.49-1.48,1.33H101.62z"
			/>
		<path d="M104.74,229.66h0.93v3.02c0,0.27-0.02,0.63-0.03,0.68h0.02c0.04-0.09,0.28-0.44,0.45-0.68l2.18-3.02h0.94v5.06h-0.94
			v-3.02c0-0.24,0.03-0.59,0.03-0.67h-0.02c-0.03,0.09-0.28,0.43-0.44,0.67l-2.19,3.02h-0.93V229.66z M105.49,227.8v-0.15h0.78v0.14
			c0,0.44,0.35,0.66,0.7,0.66s0.71-0.22,0.71-0.67v-0.13h0.77v0.15c0,0.82-0.7,1.28-1.48,1.28
			C106.2,229.08,105.49,228.62,105.49,227.8z"/>
		<path d="M115.16,229.66h0.9v0.45c0,0.21-0.03,0.38-0.03,0.38h0.02c0.32-0.61,0.96-0.95,1.7-0.95c1.37,0,2.22,1.08,2.22,2.65
			c0,1.61-0.96,2.65-2.29,2.65c-0.64,0-1.22-0.32-1.57-0.86h-0.02c0,0,0.04,0.18,0.04,0.44v2.3h-0.97V229.66z M117.53,234
			c0.8,0,1.46-0.65,1.46-1.8c0-1.1-0.59-1.81-1.43-1.81c-0.76,0-1.46,0.54-1.46,1.82C116.1,233.11,116.6,234,117.53,234z"/>
		<path d="M122.14,229.66h0.97v1.83h0.99c1.05,0,1.84,0.48,1.84,1.63c0,0.95-0.58,1.6-1.85,1.6h-1.95V229.66z M123.96,234.02
			c0.7,0,1-0.38,1-0.91c0-0.54-0.31-0.92-1.01-0.92h-0.84v1.83H123.96z M126.71,229.66h0.97v5.06h-0.97V229.66z"/>
		<path d="M132.22,228.16l1.81-0.78l0.32,0.8l-1.94,0.81c-1.01,0.46-1.49,1.05-1.56,2.02h0.02c0.45-0.68,1.12-0.9,1.79-0.9
			c1.27,0,2.15,0.9,2.15,2.33c0,1.4-0.96,2.4-2.39,2.4c-1.71,0-2.48-1.28-2.48-3.03C129.94,230,130.46,228.9,132.22,228.16z
			 M132.38,234.02c0.8,0,1.45-0.58,1.45-1.56c0-0.99-0.65-1.58-1.41-1.58c-0.86,0-1.47,0.67-1.47,1.56
			C130.95,233.44,131.6,234.02,132.38,234.02z"/>
		<path d="M139.38,229.54c1.51,0,2.73,1.11,2.73,2.64c0,1.54-1.22,2.66-2.72,2.66c-1.51,0-2.73-1.12-2.73-2.66
			C136.66,230.65,137.88,229.54,139.38,229.54z M139.38,234c0.95,0,1.74-0.76,1.74-1.82c0-1.05-0.79-1.8-1.74-1.8
			c-0.96,0-1.74,0.75-1.74,1.8C137.65,233.24,138.43,234,139.38,234z"/>
		<path d="M144.25,229.66h4.42v5.06h-0.97v-4.23h-2.48v4.23h-0.97V229.66z"/>
		<path d="M153.35,229.54c1.43,0,2.19,1.07,2.19,2.37c0,0.13-0.02,0.27-0.04,0.41h-3.68c0.05,1.09,0.83,1.68,1.74,1.68
			c0.54,0,1.09-0.23,1.49-0.59l0.41,0.71c-0.49,0.45-1.26,0.72-1.96,0.72c-1.59,0-2.69-1.15-2.69-2.65
			C150.81,230.58,151.91,229.54,153.35,229.54z M154.55,231.62c-0.03-0.87-0.57-1.33-1.23-1.33c-0.75,0-1.34,0.49-1.48,1.33H154.55z
			"/>
		<path d="M157.68,229.66h0.9v0.45c0,0.21-0.03,0.38-0.03,0.38h0.02c0.32-0.61,0.96-0.95,1.7-0.95c1.37,0,2.22,1.08,2.22,2.65
			c0,1.61-0.96,2.65-2.29,2.65c-0.64,0-1.22-0.32-1.57-0.86h-0.02c0,0,0.04,0.18,0.04,0.44v2.3h-0.97V229.66z M160.04,234
			c0.8,0,1.46-0.65,1.46-1.8c0-1.1-0.59-1.81-1.43-1.81c-0.76,0-1.46,0.54-1.46,1.82C158.62,233.11,159.12,234,160.04,234z"/>
		<path d="M166.86,229.54c1.43,0,2.19,1.07,2.19,2.37c0,0.13-0.02,0.27-0.04,0.41h-3.68c0.05,1.09,0.83,1.68,1.74,1.68
			c0.54,0,1.09-0.23,1.49-0.59l0.41,0.71c-0.49,0.45-1.26,0.72-1.96,0.72c-1.59,0-2.69-1.15-2.69-2.65
			C164.33,230.58,165.43,229.54,166.86,229.54z M168.07,231.62c-0.03-0.87-0.57-1.33-1.23-1.33c-0.75,0-1.34,0.49-1.48,1.33H168.07z
			"/>
		<path d="M171.2,229.66h0.9v0.45c0,0.21-0.03,0.38-0.03,0.38h0.02c0.32-0.61,0.96-0.95,1.7-0.95c1.37,0,2.22,1.08,2.22,2.65
			c0,1.61-0.96,2.65-2.29,2.65c-0.64,0-1.22-0.32-1.57-0.86h-0.02c0,0,0.04,0.18,0.04,0.44v2.3h-0.97V229.66z M173.56,234
			c0.8,0,1.46-0.65,1.46-1.8c0-1.1-0.59-1.81-1.43-1.81c-0.76,0-1.46,0.54-1.46,1.82C172.14,233.11,172.63,234,173.56,234z"/>
		<path d="M180.77,231.57h0.26v-0.1c0-0.83-0.48-1.11-1.11-1.11c-0.5,0-1.01,0.2-1.42,0.49l-0.39-0.71c0.41-0.34,1.18-0.6,1.89-0.6
			c1.27,0,2,0.7,2,1.98v3.2h-0.91v-0.51c0-0.23,0.03-0.4,0.03-0.4h-0.02c-0.29,0.58-0.91,1.03-1.66,1.03c-0.88,0-1.69-0.55-1.69-1.5
			C177.76,231.75,179.72,231.57,180.77,231.57z M179.67,234.07c0.85,0,1.36-0.86,1.36-1.61v-0.19h-0.25c-0.72,0-2.06,0.06-2.06,0.99
			C178.72,233.66,179.04,234.07,179.67,234.07z"/>
		<path d="M186.46,228.16l1.81-0.78l0.32,0.8l-1.94,0.81c-1.01,0.46-1.49,1.05-1.56,2.02h0.02c0.45-0.68,1.12-0.9,1.79-0.9
			c1.27,0,2.15,0.9,2.15,2.33c0,1.4-0.96,2.4-2.39,2.4c-1.71,0-2.48-1.28-2.48-3.03C184.18,230,184.71,228.9,186.46,228.16z
			 M186.62,234.02c0.8,0,1.45-0.58,1.45-1.56c0-0.99-0.65-1.58-1.41-1.58c-0.86,0-1.47,0.67-1.47,1.56
			C185.19,233.44,185.84,234.02,186.62,234.02z"/>
		<path d="M193.62,229.54c1.51,0,2.73,1.11,2.73,2.64c0,1.54-1.22,2.66-2.72,2.66c-1.51,0-2.73-1.12-2.73-2.66
			C190.91,230.65,192.12,229.54,193.62,229.54z M193.63,234c0.95,0,1.74-0.76,1.74-1.82c0-1.05-0.79-1.8-1.74-1.8
			c-0.96,0-1.74,0.75-1.74,1.8C191.89,233.24,192.67,234,193.63,234z"/>
		<path d="M199.54,230.49h-1.76v-0.83h4.49v0.83h-1.77v4.23h-0.96V230.49z"/>
		<path d="M204.2,229.66h0.97v2.04h0.71l1.38-2.04h1.1l-1.69,2.41v0.02l1.89,2.63h-1.15l-1.51-2.19h-0.73v2.19h-0.97V229.66z"/>
		<path d="M210.39,229.66h0.93v3.02c0,0.27-0.02,0.63-0.03,0.68h0.02c0.04-0.09,0.28-0.44,0.45-0.68l2.18-3.02h0.94v5.06h-0.94
			v-3.02c0-0.24,0.03-0.59,0.03-0.67h-0.02c-0.03,0.09-0.28,0.43-0.44,0.67l-2.19,3.02h-0.93V229.66z"/>
		<path d="M217.56,233.67h1.02l-0.87,2.06h-0.77L217.56,233.67z"/>
		<path d="M37.47,242.66h4.42v5.06h-0.97v-4.23h-2.48v4.23h-0.97V242.66z"/>
		<path d="M46.75,242.54c1.51,0,2.73,1.11,2.73,2.64c0,1.54-1.22,2.66-2.72,2.66c-1.51,0-2.73-1.12-2.73-2.66
			C44.03,243.65,45.25,242.54,46.75,242.54z M46.76,247c0.95,0,1.74-0.76,1.74-1.82c0-1.05-0.79-1.8-1.74-1.8
			c-0.96,0-1.74,0.75-1.74,1.8C45.02,246.24,45.8,247,46.76,247z"/>
		<path d="M51.48,246.92c0.71-0.97,0.79-2.55,0.79-3.33v-0.93h3.42v4.26h0.72v2h-0.89v-1.2h-3.75v1.2h-0.91v-2H51.48z M54.72,246.92
			v-3.47H53.2v0.27c0,0.76-0.08,2.2-0.72,3.2H54.72z"/>
		<path d="M60.4,241.16l1.81-0.78l0.32,0.8l-1.94,0.81c-1.01,0.46-1.49,1.05-1.56,2.02h0.02c0.45-0.68,1.12-0.9,1.79-0.9
			c1.27,0,2.15,0.9,2.15,2.33c0,1.4-0.96,2.4-2.39,2.4c-1.71,0-2.48-1.28-2.48-3.03C58.12,243,58.64,241.9,60.4,241.16z
			 M60.56,247.02c0.8,0,1.45-0.58,1.45-1.56c0-0.99-0.65-1.58-1.41-1.58c-0.86,0-1.47,0.67-1.47,1.56
			C59.13,246.44,59.78,247.02,60.56,247.02z"/>
		<path d="M65.17,242.66h0.93v3.02c0,0.27-0.02,0.63-0.03,0.68h0.02c0.04-0.09,0.28-0.44,0.45-0.68l2.18-3.02h0.94v5.06h-0.94v-3.02
			c0-0.24,0.03-0.59,0.03-0.67h-0.02c-0.03,0.09-0.28,0.43-0.44,0.67l-2.19,3.02h-0.93V242.66z"/>
		<path d="M72.12,242.66h0.9v0.45c0,0.21-0.03,0.38-0.03,0.38h0.02c0.32-0.61,0.96-0.95,1.7-0.95c1.37,0,2.22,1.08,2.22,2.65
			c0,1.61-0.96,2.65-2.29,2.65c-0.64,0-1.22-0.32-1.57-0.86h-0.02c0,0,0.04,0.18,0.04,0.44v2.3h-0.97V242.66z M74.49,247
			c0.8,0,1.46-0.65,1.46-1.8c0-1.1-0.59-1.81-1.43-1.81c-0.76,0-1.46,0.54-1.46,1.82C73.06,246.11,73.56,247,74.49,247z"/>
		<path d="M81.7,244.57h0.26v-0.1c0-0.83-0.48-1.11-1.11-1.11c-0.5,0-1.01,0.2-1.42,0.49l-0.39-0.71c0.41-0.34,1.18-0.6,1.89-0.6
			c1.27,0,2,0.7,2,1.98v3.2h-0.91v-0.51c0-0.23,0.03-0.4,0.03-0.4h-0.02c-0.29,0.58-0.91,1.03-1.66,1.03c-0.88,0-1.69-0.55-1.69-1.5
			C78.68,244.75,80.65,244.57,81.7,244.57z M80.6,247.07c0.85,0,1.36-0.86,1.36-1.61v-0.19h-0.25c-0.72,0-2.06,0.06-2.06,0.99
			C79.65,246.66,79.97,247.07,80.6,247.07z"/>
		<path d="M87.54,242.54c1.43,0,2.19,1.07,2.19,2.37c0,0.13-0.02,0.27-0.04,0.41h-3.68c0.05,1.09,0.83,1.68,1.74,1.68
			c0.54,0,1.09-0.23,1.49-0.59l0.41,0.71c-0.49,0.45-1.26,0.72-1.96,0.72c-1.59,0-2.69-1.15-2.69-2.65
			C85,243.58,86.1,242.54,87.54,242.54z M88.74,244.62c-0.03-0.87-0.57-1.33-1.23-1.33c-0.75,0-1.34,0.49-1.48,1.33H88.74z"/>
		<path d="M92.1,242.66h1.08l1.29,2.86c0.14,0.3,0.28,0.68,0.28,0.68h0.02c0,0,0.15-0.37,0.28-0.68l1.32-2.86h1.06l0.44,5.06h-0.94
			l-0.22-3.01c-0.01-0.3,0.01-0.87,0.01-0.87h-0.02c0,0-0.13,0.35-0.32,0.74l-1.2,2.53h-0.83l-1.2-2.52
			c-0.16-0.37-0.32-0.75-0.32-0.75h-0.02c0,0,0.03,0.57,0.01,0.87l-0.22,3.01h-0.94L92.1,242.66z"/>
		<path d="M103.61,242.66h2.09c1.02,0,1.69,0.45,1.69,1.3c0,0.49-0.26,0.91-0.72,1.11v0.01c0.63,0.15,0.96,0.64,0.96,1.2
			c0,0.94-0.76,1.44-1.86,1.44h-2.16V242.66z M105.53,244.8c0.58,0,0.87-0.3,0.87-0.77c0-0.46-0.29-0.7-0.9-0.7h-0.92v1.47H105.53z
			 M105.62,247.04c0.7,0,1.03-0.32,1.03-0.79c0-0.5-0.37-0.8-1.04-0.8h-1.03v1.59H105.62z"/>
		<path d="M112.37,244.57h0.26v-0.1c0-0.83-0.48-1.11-1.11-1.11c-0.5,0-1.01,0.2-1.42,0.49l-0.39-0.71c0.41-0.34,1.18-0.6,1.89-0.6
			c1.27,0,2,0.7,2,1.98v3.2h-0.91v-0.51c0-0.23,0.03-0.4,0.03-0.4h-0.02c-0.29,0.58-0.91,1.03-1.66,1.03c-0.88,0-1.69-0.55-1.69-1.5
			C109.36,244.75,111.33,244.57,112.37,244.57z M111.27,247.07c0.85,0,1.36-0.86,1.36-1.61v-0.19h-0.25c-0.72,0-2.06,0.06-2.06,0.99
			C110.33,246.66,110.65,247.07,111.27,247.07z"/>
		<path d="M116.01,242.66h0.9v0.45c0,0.21-0.03,0.38-0.03,0.38h0.02c0.32-0.61,0.96-0.95,1.7-0.95c1.37,0,2.22,1.08,2.22,2.65
			c0,1.61-0.96,2.65-2.29,2.65c-0.64,0-1.22-0.32-1.57-0.86h-0.02c0,0,0.04,0.18,0.04,0.44v2.3h-0.97V242.66z M118.37,247
			c0.8,0,1.46-0.65,1.46-1.8c0-1.1-0.59-1.81-1.43-1.81c-0.76,0-1.46,0.54-1.46,1.82C116.95,246.11,117.45,247,118.37,247z"/>
		<path d="M122.99,242.66h0.93v3.02c0,0.27-0.02,0.63-0.03,0.68h0.02c0.04-0.09,0.28-0.44,0.45-0.68l2.18-3.02h0.94v5.06h-0.94
			v-3.02c0-0.24,0.03-0.59,0.03-0.67h-0.02c-0.03,0.09-0.28,0.43-0.44,0.67l-2.19,3.02h-0.93V242.66z"/>
		<path d="M132.53,244.57h0.26v-0.1c0-0.83-0.48-1.11-1.11-1.11c-0.5,0-1.01,0.2-1.42,0.49l-0.39-0.71c0.41-0.34,1.18-0.6,1.89-0.6
			c1.27,0,2,0.7,2,1.98v3.2h-0.91v-0.51c0-0.23,0.03-0.4,0.03-0.4h-0.02c-0.29,0.58-0.91,1.03-1.66,1.03c-0.88,0-1.69-0.55-1.69-1.5
			C129.52,244.75,131.48,244.57,132.53,244.57z M131.43,247.07c0.85,0,1.36-0.86,1.36-1.61v-0.19h-0.25c-0.72,0-2.06,0.06-2.06,0.99
			C130.49,246.66,130.8,247.07,131.43,247.07z"/>
		<path d="M136.17,242.66h0.97v2.06h2.56v-2.06h0.97v5.06h-0.97v-2.17h-2.56v2.17h-0.97V242.66z"/>
		<path d="M144.35,243.49h-1.76v-0.83h4.49v0.83h-1.77v4.23h-0.96V243.49z"/>
		<path d="M149,242.66h0.97v1.83h0.99c1.05,0,1.84,0.48,1.84,1.63c0,0.95-0.58,1.6-1.85,1.6H149V242.66z M150.82,247.02
			c0.7,0,1-0.38,1-0.91c0-0.54-0.31-0.92-1.01-0.92h-0.84v1.83H150.82z M153.58,242.66h0.97v5.06h-0.97V242.66z"/>
		<path d="M162.88,242.54c1.51,0,2.73,1.11,2.73,2.64c0,1.54-1.22,2.66-2.72,2.66c-1.51,0-2.73-1.12-2.73-2.66
			C160.17,243.65,161.38,242.54,162.88,242.54z M162.89,247c0.95,0,1.74-0.76,1.74-1.82c0-1.05-0.79-1.8-1.74-1.8
			c-0.96,0-1.74,0.75-1.74,1.8C161.15,246.24,161.93,247,162.89,247z"/>
		<path d="M169.81,241.16l1.81-0.78l0.32,0.8l-1.94,0.81c-1.01,0.46-1.49,1.05-1.56,2.02h0.02c0.45-0.68,1.12-0.9,1.79-0.9
			c1.27,0,2.15,0.9,2.15,2.33c0,1.4-0.96,2.4-2.39,2.4c-1.71,0-2.48-1.28-2.48-3.03C167.53,243,168.05,241.9,169.81,241.16z
			 M169.97,247.02c0.8,0,1.45-0.58,1.45-1.56c0-0.99-0.65-1.58-1.41-1.58c-0.86,0-1.47,0.67-1.47,1.56
			C168.54,246.44,169.19,247.02,169.97,247.02z"/>
		<path d="M176.97,242.54c1.51,0,2.73,1.11,2.73,2.64c0,1.54-1.22,2.66-2.72,2.66c-1.51,0-2.73-1.12-2.73-2.66
			C174.25,243.65,175.47,242.54,176.97,242.54z M176.98,247c0.95,0,1.74-0.76,1.74-1.82c0-1.05-0.79-1.8-1.74-1.8
			c-0.96,0-1.74,0.75-1.74,1.8C175.24,246.24,176.02,247,176.98,247z"/>
		<path d="M181.84,242.66h0.9v0.45c0,0.21-0.03,0.38-0.03,0.38h0.02c0.32-0.61,0.96-0.95,1.7-0.95c1.37,0,2.22,1.08,2.22,2.65
			c0,1.61-0.96,2.65-2.29,2.65c-0.64,0-1.22-0.32-1.57-0.86h-0.02c0,0,0.04,0.18,0.04,0.44v2.3h-0.97V242.66z M184.21,247
			c0.8,0,1.46-0.65,1.46-1.8c0-1.1-0.59-1.81-1.43-1.81c-0.76,0-1.46,0.54-1.46,1.82C182.78,246.11,183.28,247,184.21,247z"/>
		<path d="M189,248.99c0.4,0,0.73-0.29,0.92-0.75l0.25-0.58l-2.12-5h1.09l1.27,3.31c0.1,0.25,0.19,0.61,0.19,0.61h0.02
			c0,0,0.08-0.34,0.17-0.6l1.23-3.32h1.05l-2.38,5.97c-0.3,0.79-0.93,1.19-1.64,1.19c-0.56,0-0.97-0.31-0.97-0.31l0.34-0.74
			C188.42,248.77,188.7,248.99,189,248.99z"/>
		<path d="M194.62,246.92c0.71-0.97,0.79-2.55,0.79-3.33v-0.93h3.42v4.26h0.72v2h-0.89v-1.2h-3.75v1.2H194v-2H194.62z
			 M197.86,246.92v-3.47h-1.52v0.27c0,0.76-0.08,2.2-0.72,3.2H197.86z"/>
		<path d="M203.87,242.54c1.51,0,2.73,1.11,2.73,2.64c0,1.54-1.22,2.66-2.72,2.66c-1.51,0-2.73-1.12-2.73-2.66
			C201.16,243.65,202.37,242.54,203.87,242.54z M203.88,247c0.95,0,1.74-0.76,1.74-1.82c0-1.05-0.79-1.8-1.74-1.8
			c-0.96,0-1.74,0.75-1.74,1.8C202.14,246.24,202.92,247,203.88,247z"/>
		<path d="M208.75,242.66h2.09c1.02,0,1.69,0.45,1.69,1.3c0,0.49-0.26,0.91-0.72,1.11v0.01c0.63,0.15,0.96,0.64,0.96,1.2
			c0,0.94-0.76,1.44-1.86,1.44h-2.16V242.66z M210.66,244.8c0.58,0,0.87-0.3,0.87-0.77c0-0.46-0.29-0.7-0.9-0.7h-0.92v1.47H210.66z
			 M210.75,247.04c0.7,0,1.03-0.32,1.03-0.79c0-0.5-0.37-0.8-1.04-0.8h-1.03v1.59H210.75z"/>
		<path d="M217.51,244.57h0.26v-0.1c0-0.83-0.48-1.11-1.11-1.11c-0.5,0-1.01,0.2-1.42,0.49l-0.39-0.71c0.41-0.34,1.18-0.6,1.89-0.6
			c1.27,0,2,0.7,2,1.98v3.2h-0.91v-0.51c0-0.23,0.03-0.4,0.03-0.4h-0.02c-0.29,0.58-0.91,1.03-1.66,1.03c-0.88,0-1.69-0.55-1.69-1.5
			C214.5,244.75,216.46,244.57,217.51,244.57z M216.42,247.07c0.85,0,1.36-0.86,1.36-1.61v-0.19h-0.25c-0.72,0-2.06,0.06-2.06,0.99
			C215.46,246.66,215.79,247.07,216.42,247.07z"/>
		<path d="M221.15,242.66h0.97v2.06h2.56v-2.06h0.97v5.06h-0.97v-2.17h-2.56v2.17h-0.97V242.66z"/>
		<path d="M228.12,242.66h0.93v3.02c0,0.27-0.02,0.63-0.03,0.68h0.02c0.04-0.09,0.28-0.44,0.45-0.68l2.18-3.02h0.94v5.06h-0.94
			v-3.02c0-0.24,0.03-0.59,0.03-0.67h-0.02c-0.03,0.09-0.28,0.43-0.44,0.67l-2.19,3.02h-0.93V242.66z"/>
		<path d="M235.72,246.04c0.11-0.18,0.23-0.31,0.23-0.31v-0.01c-0.58-0.16-1.1-0.7-1.1-1.47c0-1.04,0.74-1.59,1.81-1.59h2.02v5.06
			h-0.97v-1.83h-0.85l-1.24,1.83h-1.07L235.72,246.04z M237.71,245.18v-1.85h-0.81c-0.65,0-1.07,0.26-1.07,0.91
			c0,0.63,0.45,0.94,1.04,0.94H237.71z"/>
		<path d="M34.75,255.66h4.42v5.06h-0.97v-4.23h-2.48v4.23h-0.97V255.66z"/>
		<path d="M43.84,255.54c1.43,0,2.19,1.07,2.19,2.37c0,0.13-0.02,0.27-0.04,0.41h-3.68c0.05,1.09,0.83,1.68,1.74,1.68
			c0.54,0,1.09-0.23,1.49-0.59l0.41,0.71c-0.49,0.45-1.26,0.72-1.96,0.72c-1.59,0-2.69-1.15-2.69-2.65
			C41.31,256.58,42.41,255.54,43.84,255.54z M45.05,257.62c-0.03-0.87-0.57-1.33-1.23-1.33c-0.75,0-1.34,0.49-1.48,1.33H45.05z"/>
		<path d="M48.18,255.66h0.9v0.45c0,0.21-0.03,0.38-0.03,0.38h0.02c0.32-0.61,0.96-0.95,1.7-0.95c1.37,0,2.22,1.08,2.22,2.65
			c0,1.61-0.96,2.65-2.29,2.65c-0.64,0-1.22-0.32-1.57-0.86h-0.02c0,0,0.04,0.18,0.04,0.44v2.3h-0.97V255.66z M50.54,260
			c0.8,0,1.46-0.65,1.46-1.8c0-1.1-0.59-1.81-1.43-1.81c-0.76,0-1.46,0.54-1.46,1.82C49.12,259.11,49.62,260,50.54,260z"/>
		<path d="M57.36,255.54c1.43,0,2.19,1.07,2.19,2.37c0,0.13-0.02,0.27-0.04,0.41h-3.68c0.05,1.09,0.83,1.68,1.74,1.68
			c0.54,0,1.09-0.23,1.49-0.59l0.41,0.71c-0.49,0.45-1.26,0.72-1.96,0.72c-1.59,0-2.69-1.15-2.69-2.65
			C54.83,256.58,55.92,255.54,57.36,255.54z M58.57,257.62c-0.03-0.87-0.57-1.33-1.23-1.33c-0.75,0-1.34,0.49-1.48,1.33H58.57z"/>
		<path d="M61.7,255.66h0.9v0.45c0,0.21-0.03,0.38-0.03,0.38h0.02c0.32-0.61,0.96-0.95,1.7-0.95c1.37,0,2.22,1.08,2.22,2.65
			c0,1.61-0.96,2.65-2.29,2.65c-0.64,0-1.22-0.32-1.57-0.86h-0.02c0,0,0.04,0.18,0.04,0.44v2.3H61.7V255.66z M64.06,260
			c0.8,0,1.46-0.65,1.46-1.8c0-1.1-0.59-1.81-1.43-1.81c-0.76,0-1.46,0.54-1.46,1.82C62.63,259.11,63.13,260,64.06,260z"/>
		<path d="M71.27,257.57h0.26v-0.1c0-0.83-0.48-1.11-1.11-1.11c-0.5,0-1.01,0.2-1.42,0.49l-0.39-0.71c0.41-0.34,1.18-0.6,1.89-0.6
			c1.27,0,2,0.7,2,1.98v3.2h-0.91v-0.51c0-0.23,0.03-0.4,0.03-0.4H71.6c-0.29,0.58-0.91,1.03-1.66,1.03c-0.88,0-1.69-0.55-1.69-1.5
			C68.25,257.75,70.22,257.57,71.27,257.57z M70.17,260.07c0.85,0,1.36-0.86,1.36-1.61v-0.19h-0.25c-0.72,0-2.06,0.06-2.06,0.99
			C69.22,259.66,69.54,260.07,70.17,260.07z"/>
		<path d="M76.96,254.16l1.81-0.78l0.32,0.8l-1.94,0.81c-1.01,0.46-1.49,1.05-1.56,2.02h0.02c0.45-0.68,1.12-0.9,1.79-0.9
			c1.27,0,2.15,0.9,2.15,2.33c0,1.4-0.96,2.4-2.39,2.4c-1.71,0-2.48-1.28-2.48-3.03C74.68,256,75.2,254.9,76.96,254.16z
			 M77.12,260.02c0.8,0,1.45-0.58,1.45-1.56c0-0.99-0.65-1.58-1.41-1.58c-0.86,0-1.47,0.67-1.47,1.56
			C75.69,259.44,76.34,260.02,77.12,260.02z"/>
		<path d="M84.33,257.57h0.26v-0.1c0-0.83-0.48-1.11-1.11-1.11c-0.5,0-1.01,0.2-1.42,0.49l-0.39-0.71c0.41-0.34,1.18-0.6,1.89-0.6
			c1.27,0,2,0.7,2,1.98v3.2h-0.91v-0.51c0-0.23,0.03-0.4,0.03-0.4h-0.02c-0.29,0.58-0.91,1.03-1.66,1.03c-0.88,0-1.69-0.55-1.69-1.5
			C81.31,257.75,83.28,257.57,84.33,257.57z M83.23,260.07c0.85,0,1.36-0.86,1.36-1.61v-0.19h-0.25c-0.72,0-2.06,0.06-2.06,0.99
			C82.28,259.66,82.6,260.07,83.23,260.07z"/>
		<path d="M89.11,256.49h-1.76v-0.83h4.49v0.83h-1.77v4.23h-0.96V256.49z"/>
		<path d="M93.76,255.66h0.97v1.83h0.99c1.05,0,1.84,0.48,1.84,1.63c0,0.95-0.58,1.6-1.85,1.6h-1.95V255.66z M95.58,260.02
			c0.7,0,1-0.38,1-0.91c0-0.54-0.31-0.92-1.01-0.92h-0.84v1.83H95.58z M98.34,255.66h0.97v5.06h-0.97V255.66z"/>
		<path d="M101.78,255.66h2.09c1.02,0,1.69,0.45,1.69,1.3c0,0.49-0.26,0.91-0.72,1.11v0.01c0.63,0.15,0.96,0.64,0.96,1.2
			c0,0.94-0.76,1.44-1.86,1.44h-2.16V255.66z M103.7,257.8c0.58,0,0.87-0.3,0.87-0.77c0-0.46-0.29-0.7-0.9-0.7h-0.92v1.47H103.7z
			 M103.79,260.04c0.7,0,1.03-0.32,1.03-0.79c0-0.5-0.37-0.8-1.04-0.8h-1.03v1.59H103.79z"/>
		<path d="M110.55,257.57h0.26v-0.1c0-0.83-0.48-1.11-1.11-1.11c-0.5,0-1.01,0.2-1.42,0.49l-0.39-0.71c0.41-0.34,1.18-0.6,1.89-0.6
			c1.27,0,2,0.7,2,1.98v3.2h-0.91v-0.51c0-0.23,0.03-0.4,0.03-0.4h-0.02c-0.29,0.58-0.91,1.03-1.66,1.03c-0.88,0-1.69-0.55-1.69-1.5
			C107.53,257.75,109.5,257.57,110.55,257.57z M109.45,260.07c0.85,0,1.36-0.86,1.36-1.61v-0.19h-0.25c-0.72,0-2.06,0.06-2.06,0.99
			C108.5,259.66,108.82,260.07,109.45,260.07z"/>
		<path d="M114.18,255.66h0.97v2.12h0.92c0.18-1.31,1.25-2.24,2.58-2.24c1.47,0,2.64,1.11,2.64,2.64c0,1.54-1.17,2.66-2.63,2.66
			c-1.34,0-2.41-0.94-2.59-2.26h-0.92v2.14h-0.97V255.66z M118.66,260c0.91,0,1.64-0.76,1.64-1.82c0-1.05-0.73-1.8-1.64-1.8
			c-0.92,0-1.65,0.75-1.65,1.8C117.01,259.24,117.74,260,118.66,260z"/>
		<path d="M123.43,255.66h0.93v4.22h1.87v-4.22h0.94v4.22h1.87v-4.22h0.93v4.22h0.72v2.04h-0.89v-1.2h-6.37V255.66z"/>
		<path d="M134.84,255.54c1.43,0,2.19,1.07,2.19,2.37c0,0.13-0.02,0.27-0.04,0.41h-3.68c0.05,1.09,0.83,1.68,1.74,1.68
			c0.54,0,1.09-0.23,1.49-0.59l0.41,0.71c-0.49,0.45-1.26,0.72-1.96,0.72c-1.59,0-2.69-1.15-2.69-2.65
			C132.3,256.58,133.4,255.54,134.84,255.54z M136.05,257.62c-0.03-0.87-0.57-1.33-1.23-1.33c-0.75,0-1.34,0.49-1.48,1.33H136.05z"
			/>
		<path d="M139.17,255.66h0.93v3.02c0,0.27-0.02,0.63-0.03,0.68h0.02c0.04-0.09,0.28-0.44,0.45-0.68l2.18-3.02h0.94v5.06h-0.94
			v-3.02c0-0.24,0.03-0.59,0.03-0.67h-0.02c-0.03,0.09-0.28,0.43-0.44,0.67l-2.19,3.02h-0.93V255.66z M139.92,253.8v-0.15h0.78v0.14
			c0,0.44,0.35,0.66,0.7,0.66c0.35,0,0.71-0.22,0.71-0.67v-0.13h0.77v0.15c0,0.82-0.7,1.28-1.48,1.28
			C140.63,255.08,139.92,254.62,139.92,253.8z"/>
		<path d="M149.04,259.9c0.74-0.11,1.14-0.85,1.14-2.68v-1.56h3.39v5.06h-0.97v-4.26h-1.49v0.76c0,2.29-0.58,3.47-2.07,3.55V259.9z"
			/>
		<path d="M156.04,255.66h0.93v3.02c0,0.27-0.02,0.63-0.03,0.68h0.02c0.04-0.09,0.28-0.44,0.45-0.68l2.18-3.02h0.94v5.06h-0.94
			v-3.02c0-0.24,0.03-0.59,0.03-0.67h-0.02c-0.03,0.09-0.28,0.43-0.44,0.67l-2.19,3.02h-0.93V255.66z"/>
		<path d="M162.99,255.66h0.97v2.06h2.56v-2.06h0.97v5.06h-0.97v-2.17h-2.56v2.17h-0.97V255.66z"/>
		<path d="M169.96,255.66h0.93v3.02c0,0.27-0.02,0.63-0.03,0.68h0.02c0.04-0.09,0.28-0.44,0.45-0.68l2.18-3.02h0.94v5.06h-0.94
			v-3.02c0-0.24,0.03-0.59,0.03-0.67h-0.02c-0.03,0.09-0.28,0.43-0.44,0.67l-2.19,3.02h-0.93V255.66z"/>
		<path d="M176.91,255.66h0.93v3.02c0,0.27-0.02,0.63-0.03,0.68h0.02c0.04-0.09,0.28-0.44,0.45-0.68l2.18-3.02h0.94v5.06h-0.94
			v-3.02c0-0.24,0.03-0.59,0.03-0.67h-0.02c-0.03,0.09-0.28,0.43-0.44,0.67l-2.19,3.02h-0.93V255.66z"/>
		<path d="M187.33,255.66h0.9v0.45c0,0.21-0.03,0.38-0.03,0.38h0.02c0.32-0.61,0.96-0.95,1.7-0.95c1.37,0,2.22,1.08,2.22,2.65
			c0,1.61-0.96,2.65-2.29,2.65c-0.64,0-1.22-0.32-1.57-0.86h-0.02c0,0,0.04,0.18,0.04,0.44v2.3h-0.97V255.66z M189.7,260
			c0.8,0,1.46-0.65,1.46-1.8c0-1.1-0.59-1.81-1.43-1.81c-0.76,0-1.46,0.54-1.46,1.82C188.27,259.11,188.77,260,189.7,260z"/>
		<path d="M196.91,257.57h0.26v-0.1c0-0.83-0.48-1.11-1.11-1.11c-0.5,0-1.01,0.2-1.42,0.49l-0.39-0.71c0.41-0.34,1.18-0.6,1.89-0.6
			c1.27,0,2,0.7,2,1.98v3.2h-0.91v-0.51c0-0.23,0.03-0.4,0.03-0.4h-0.02c-0.29,0.58-0.91,1.03-1.66,1.03c-0.88,0-1.69-0.55-1.69-1.5
			C193.89,257.75,195.86,257.57,196.91,257.57z M195.81,260.07c0.85,0,1.36-0.86,1.36-1.61v-0.19h-0.25c-0.72,0-2.06,0.06-2.06,0.99
			C194.86,259.66,195.18,260.07,195.81,260.07z"/>
		<path d="M200.5,259.46c0.23,0.24,0.71,0.6,1.32,0.6c0.58,0,1.05-0.28,1.05-0.83c0-0.49-0.33-0.77-1.04-0.77h-0.62v-0.7h0.53
			c0.57,0,0.96-0.22,0.96-0.73c0-0.47-0.34-0.73-0.9-0.73c-0.44,0-0.84,0.15-1.23,0.44l-0.36-0.65c0.39-0.29,0.96-0.55,1.76-0.55
			c0.96,0,1.71,0.47,1.71,1.37c0,0.63-0.34,0.98-0.74,1.15v0.02c0.51,0.16,0.91,0.54,0.91,1.19c0,1.04-0.9,1.57-1.94,1.57
			c-0.78,0-1.44-0.34-1.86-0.74L200.5,259.46z"/>
		<path d="M205.99,255.66h0.97v2.06h2.56v-2.06h0.97v5.06h-0.97v-2.17h-2.56v2.17h-0.97V255.66z"/>
		<path d="M215.35,255.54c1.51,0,2.73,1.11,2.73,2.64c0,1.54-1.22,2.66-2.72,2.66c-1.51,0-2.73-1.12-2.73-2.66
			C212.63,256.65,213.85,255.54,215.35,255.54z M215.36,260c0.95,0,1.74-0.76,1.74-1.82c0-1.05-0.79-1.8-1.74-1.8
			c-0.96,0-1.74,0.75-1.74,1.8C213.62,259.24,214.4,260,215.36,260z"/>
		<path d="M220.22,255.66h0.93v3.02c0,0.27-0.02,0.63-0.03,0.68h0.02c0.04-0.09,0.28-0.44,0.45-0.68l2.18-3.02h0.94v5.06h-0.94
			v-3.02c0-0.24,0.03-0.59,0.03-0.67h-0.02c-0.03,0.09-0.28,0.43-0.44,0.67l-2.19,3.02h-0.93V255.66z M220.97,253.8v-0.15h0.78v0.14
			c0,0.44,0.35,0.66,0.7,0.66s0.71-0.22,0.71-0.67v-0.13h0.77v0.15c0,0.82-0.7,1.28-1.48,1.28
			C221.68,255.08,220.97,254.62,220.97,253.8z"/>
		<path d="M34.4,268.54c0.67,0,1.42,0.23,1.9,0.74l-0.46,0.68c-0.34-0.34-0.87-0.58-1.4-0.58c-1.02,0-1.76,0.77-1.76,1.8
			c0,1.03,0.74,1.82,1.79,1.82c0.56,0,1.17-0.27,1.56-0.68l0.39,0.71c-0.46,0.49-1.23,0.81-2.02,0.81c-1.6,0-2.71-1.13-2.71-2.65
			C31.7,269.69,32.81,268.54,34.4,268.54z"/>
		<path d="M39.67,269.49h-1.76v-0.83h4.49v0.83h-1.77v4.23h-0.96V269.49z"/>
		<path d="M46.35,268.54c1.43,0,2.19,1.07,2.19,2.37c0,0.13-0.02,0.27-0.04,0.41h-3.68c0.05,1.09,0.83,1.68,1.74,1.68
			c0.54,0,1.09-0.23,1.49-0.59l0.41,0.71c-0.49,0.45-1.26,0.72-1.96,0.72c-1.59,0-2.69-1.15-2.69-2.65
			C43.82,269.58,44.92,268.54,46.35,268.54z M47.56,270.62c-0.03-0.87-0.57-1.33-1.23-1.33c-0.75,0-1.34,0.49-1.48,1.33H47.56z"/>
		<path d="M50.69,268.66h4.42v5.06h-0.97v-4.23h-2.48v4.23h-0.97V268.66z"/>
		<path d="M59.78,268.54c1.43,0,2.19,1.07,2.19,2.37c0,0.13-0.02,0.27-0.04,0.41h-3.68c0.05,1.09,0.83,1.68,1.74,1.68
			c0.54,0,1.09-0.23,1.49-0.59l0.41,0.71c-0.49,0.45-1.26,0.72-1.96,0.72c-1.59,0-2.69-1.15-2.69-2.65
			C57.25,269.58,58.34,268.54,59.78,268.54z M60.99,270.62c-0.03-0.87-0.57-1.33-1.23-1.33c-0.75,0-1.34,0.49-1.48,1.33H60.99z"/>
		<path d="M64.12,268.66h0.97v2.06h2.56v-2.06h0.97v5.06h-0.97v-2.17h-2.56v2.17h-0.97V268.66z"/>
		<path d="M71.08,268.66h0.93v3.02c0,0.27-0.02,0.63-0.03,0.68H72c0.04-0.09,0.28-0.44,0.45-0.68l2.18-3.02h0.94v5.06h-0.94v-3.02
			c0-0.24,0.03-0.59,0.03-0.67h-0.02c-0.03,0.09-0.28,0.43-0.44,0.67l-2.19,3.02h-0.93V268.66z"/>
		<path d="M81.73,268.66h1.08l1.29,2.86c0.14,0.3,0.28,0.68,0.28,0.68h0.02c0,0,0.15-0.37,0.28-0.68l1.32-2.86h1.06l0.44,5.06h-0.94
			l-0.22-3.01c-0.01-0.3,0.01-0.87,0.01-0.87h-0.02c0,0-0.13,0.35-0.32,0.74l-1.2,2.53h-0.83l-1.2-2.52
			c-0.16-0.37-0.32-0.75-0.32-0.75h-0.02c0,0,0.03,0.57,0.01,0.87l-0.22,3.01h-0.94L81.73,268.66z"/>
		<path d="M91.98,268.54c1.43,0,2.19,1.07,2.19,2.37c0,0.13-0.02,0.27-0.04,0.41h-3.68c0.05,1.09,0.83,1.68,1.74,1.68
			c0.54,0,1.09-0.23,1.49-0.59l0.41,0.71c-0.49,0.45-1.26,0.72-1.96,0.72c-1.59,0-2.69-1.15-2.69-2.65
			C89.45,269.58,90.54,268.54,91.98,268.54z M93.19,270.62c-0.03-0.87-0.57-1.33-1.23-1.33c-0.75,0-1.34,0.49-1.48,1.33H93.19z"/>
		<path d="M97.42,271.12l-1.63-2.46h1.11l0.94,1.54c0.07,0.13,0.16,0.3,0.16,0.3h0.02c0,0,0.1-0.17,0.17-0.3l0.94-1.54h1.11
			l-1.63,2.46l1.73,2.6h-1.1l-1.06-1.69c-0.08-0.12-0.16-0.27-0.16-0.27H98c0,0-0.07,0.15-0.15,0.27l-1.06,1.69h-1.1L97.42,271.12z"
			/>
		<path d="M104.83,270.57h0.26v-0.1c0-0.83-0.48-1.11-1.11-1.11c-0.5,0-1.01,0.2-1.42,0.49l-0.39-0.71c0.41-0.34,1.18-0.6,1.89-0.6
			c1.27,0,2,0.7,2,1.98v3.2h-0.91v-0.51c0-0.23,0.03-0.4,0.03-0.4h-0.02c-0.29,0.58-0.91,1.03-1.66,1.03c-0.88,0-1.69-0.55-1.69-1.5
			C101.81,270.75,103.78,270.57,104.83,270.57z M103.73,273.07c0.85,0,1.36-0.86,1.36-1.61v-0.19h-0.25c-0.72,0-2.06,0.06-2.06,0.99
			C102.78,272.66,103.1,273.07,103.73,273.07z"/>
		<path d="M108.46,268.66h0.97v2.06h2.56v-2.06h0.97v5.06h-0.97v-2.17h-2.56v2.17h-0.97V268.66z"/>
		<path d="M115.43,268.66h0.93v3.02c0,0.27-0.02,0.63-0.03,0.68h0.02c0.04-0.09,0.28-0.44,0.45-0.68l2.18-3.02h0.94v5.06h-0.94
			v-3.02c0-0.24,0.03-0.59,0.03-0.67h-0.02c-0.03,0.09-0.28,0.43-0.44,0.67l-2.19,3.02h-0.93V268.66z"/>
		<path d="M122.34,272.46c0.23,0.24,0.71,0.6,1.32,0.6c0.58,0,1.05-0.28,1.05-0.83c0-0.49-0.33-0.77-1.04-0.77h-0.62v-0.7h0.53
			c0.57,0,0.96-0.22,0.96-0.73c0-0.47-0.34-0.73-0.9-0.73c-0.44,0-0.84,0.15-1.23,0.44l-0.36-0.65c0.39-0.29,0.96-0.55,1.76-0.55
			c0.96,0,1.71,0.47,1.71,1.37c0,0.63-0.34,0.98-0.74,1.15v0.02c0.51,0.16,0.91,0.54,0.91,1.19c0,1.04-0.9,1.57-1.94,1.57
			c-0.78,0-1.44-0.34-1.86-0.74L122.34,272.46z"/>
		<path d="M130.43,270.57h0.26v-0.1c0-0.83-0.48-1.11-1.11-1.11c-0.5,0-1.01,0.2-1.42,0.49l-0.39-0.71c0.41-0.34,1.18-0.6,1.89-0.6
			c1.27,0,2,0.7,2,1.98v3.2h-0.91v-0.51c0-0.23,0.03-0.4,0.03-0.4h-0.02c-0.29,0.58-0.91,1.03-1.66,1.03c-0.88,0-1.69-0.55-1.69-1.5
			C127.41,270.75,129.38,270.57,130.43,270.57z M129.33,273.07c0.85,0,1.36-0.86,1.36-1.61v-0.19h-0.25c-0.72,0-2.06,0.06-2.06,0.99
			C128.38,272.66,128.7,273.07,129.33,273.07z"/>
		<path d="M134.06,268.66h0.97v4.22h2.41v-4.22h0.98v4.22h0.71v2.04h-0.89v-1.2h-4.18V268.66z"/>
		<path d="M141.13,268.66h0.93v3.02c0,0.27-0.02,0.63-0.03,0.68h0.02c0.04-0.09,0.28-0.44,0.45-0.68l2.18-3.02h0.94v5.06h-0.94
			v-3.02c0-0.24,0.03-0.59,0.03-0.67h-0.02c-0.03,0.09-0.28,0.43-0.44,0.67l-2.19,3.02h-0.93V268.66z"/>
		<path d="M148.08,268.66h0.93v3.02c0,0.27-0.02,0.63-0.03,0.68H149c0.04-0.09,0.28-0.44,0.45-0.68l2.18-3.02h0.94v5.06h-0.94v-3.02
			c0-0.24,0.03-0.59,0.03-0.67h-0.02c-0.03,0.09-0.28,0.43-0.44,0.67l-2.19,3.02h-0.93V268.66z"/>
		<path d="M159.72,269.49h-1.76v-0.83h4.49v0.83h-1.77v4.23h-0.96V269.49z"/>
		<path d="M164.37,268.66h0.9v0.45c0,0.21-0.03,0.38-0.03,0.38h0.02c0.32-0.61,0.96-0.95,1.7-0.95c1.37,0,2.22,1.08,2.22,2.65
			c0,1.61-0.96,2.65-2.29,2.65c-0.64,0-1.22-0.32-1.57-0.86h-0.02c0,0,0.04,0.18,0.04,0.44v2.3h-0.97V268.66z M166.74,273
			c0.8,0,1.46-0.65,1.46-1.8c0-1.1-0.59-1.81-1.43-1.81c-0.76,0-1.46,0.54-1.46,1.82C165.31,272.11,165.81,273,166.74,273z"/>
		<path d="M171.53,274.99c0.4,0,0.73-0.29,0.92-0.75l0.25-0.58l-2.12-5h1.09l1.27,3.31c0.1,0.25,0.19,0.61,0.19,0.61h0.02
			c0,0,0.08-0.34,0.17-0.6l1.23-3.32h1.05l-2.38,5.97c-0.3,0.79-0.93,1.19-1.64,1.19c-0.56,0-0.97-0.31-0.97-0.31l0.34-0.74
			C170.95,274.77,171.23,274.99,171.53,274.99z"/>
		<path d="M177.15,272.92c0.71-0.97,0.79-2.55,0.79-3.33v-0.93h3.42v4.26h0.72v2h-0.89v-1.2h-3.75v1.2h-0.91v-2H177.15z
			 M180.39,272.92v-3.47h-1.52v0.27c0,0.76-0.08,2.2-0.72,3.2H180.39z"/>
		<path d="M186.67,270.57h0.26v-0.1c0-0.83-0.48-1.11-1.11-1.11c-0.5,0-1.01,0.2-1.42,0.49l-0.39-0.71c0.41-0.34,1.18-0.6,1.89-0.6
			c1.27,0,2,0.7,2,1.98v3.2h-0.91v-0.51c0-0.23,0.03-0.4,0.03-0.4H187c-0.29,0.58-0.91,1.03-1.66,1.03c-0.88,0-1.69-0.55-1.69-1.5
			C183.65,270.75,185.62,270.57,186.67,270.57z M185.57,273.07c0.85,0,1.36-0.86,1.36-1.61v-0.19h-0.25c-0.72,0-2.06,0.06-2.06,0.99
			C184.62,272.66,184.94,273.07,185.57,273.07z"/>
		<path d="M190.25,272.67h1.04v1.05h-1.04V272.67z"/>
	</g>
	<g>
		<g>
			<g>
				<path class="st68" d="M100.18,114.67c0.01,0-0.03,0-0.05-0.01c-0.01,0-0.03-0.01-0.04-0.02c0,0,0,0,0,0l-1.2-0.69
					c-0.01,0-0.01-0.01-0.02-0.01c-0.02-0.02-0.04-0.03-0.05-0.06c-0.01-0.02-0.02-0.05-0.02-0.07c0-0.01,0-0.01,0-0.02V90.95
					L72.66,75.86v21.24c0,0.01,0,0.02,0,0.02c0,0.02-0.01,0.05-0.02,0.07c-0.01,0.02-0.03,0.04-0.05,0.06c0,0-0.01,0.01-0.02,0.01
					l-1.2,0.69c0,0,0,0,0,0c-0.01,0.01-0.03,0.01-0.04,0.02l0,0l0,0c-0.02,0-0.03,0.01-0.05,0.01h0c-0.02,0-0.03,0-0.05-0.01l0,0
					l0,0c-0.01,0-0.03-0.01-0.04-0.02c0,0,0,0,0,0l-1.2-0.69c-0.01,0-0.01-0.01-0.02-0.01c-0.02-0.02-0.04-0.04-0.05-0.06
					c0,0,0,0,0,0l0,0c-0.01-0.02-0.02-0.04-0.02-0.07c0-0.01,0-0.02,0-0.02V65.82c0,0,0,0,0,0c0-0.02,0-0.03,0.01-0.05
					c0-0.01,0.01-0.02,0.02-0.04c0.01-0.02,0.02-0.03,0.03-0.04h0v0c0.01-0.01,0.02-0.02,0.03-0.03c0,0,0,0,0,0l24.08-13.9
					c0.01,0,0.01-0.01,0.02-0.01c0.02-0.01,0.05-0.02,0.07-0.02l0,0l0,0c0.02,0,0.05,0.01,0.07,0.02c0.01,0,0.01,0.01,0.02,0.01
					l30.1,17.38c0,0,0,0,0,0c0.01,0.01,0.03,0.02,0.04,0.03c0.01,0.01,0.02,0.02,0.03,0.04c0.01,0.01,0.01,0.03,0.02,0.04
					c0,0.02,0.01,0.03,0.01,0.05c0,0,0,0,0,0v31.28c0,0.01,0,0.01,0,0.02c0,0.03-0.01,0.05-0.02,0.07
					c-0.01,0.02-0.03,0.04-0.05,0.06c-0.01,0-0.01,0.01-0.02,0.01l-1.2,0.69c0,0,0,0,0,0c-0.01,0.01-0.03,0.02-0.05,0.02
					c-0.01,0-0.03,0.01-0.04,0.01c0,0-0.03,0-0.04-0.01h0l0,0c-0.02,0-0.03-0.01-0.04-0.02l0,0c0,0,0,0,0,0l-1.2-0.69
					c-0.01,0-0.01-0.01-0.02-0.01c-0.02-0.02-0.04-0.03-0.05-0.06l0,0l0,0c-0.01-0.02-0.02-0.04-0.02-0.07c0-0.01,0-0.02,0-0.02
					V81.01l-6.3,7.52c-0.01,0.01-0.01,0.02-0.02,0.02l0,0l0,0c-0.01,0.01-0.02,0.02-0.03,0.02l-6.02,3.47
					c-0.02,0.01-0.03,0.02-0.05,0.02c-0.02,0-0.04,0.01-0.05,0.01l-7.64-0.29v22.02c0,0.01,0,0.01,0,0.02
					c0,0.03-0.01,0.05-0.02,0.07c-0.01,0.02-0.03,0.04-0.05,0.06c-0.01,0-0.01,0.01-0.02,0.01l-1.2,0.69c0,0,0,0,0,0
					c-0.01,0.01-0.02,0.01-0.04,0.02C100.22,114.67,100.2,114.67,100.18,114.67z M99.16,113.69l0.85,0.49V83.3L70.26,66.13v30.88
					l0.84,0.49V74.86c0-0.02,0-0.04,0.01-0.05c0.01-0.02,0.02-0.04,0.03-0.05c0.02-0.02,0.04-0.04,0.06-0.05
					c0.02-0.01,0.04-0.02,0.07-0.02c0.03,0,0.05,0,0.07,0.01c0.02,0,0.03,0.01,0.04,0.02l27.69,15.99c0.01,0,0.01,0.01,0.02,0.01
					c0.02,0.02,0.04,0.03,0.05,0.06s0.02,0.04,0.02,0.07c0,0.01,0,0.01,0,0.02V113.69z M100.36,83.3v30.88l0.85-0.49v-22.1
					c0,0,0,0,0,0c0-0.02,0-0.05,0.01-0.07c0.01-0.02,0.02-0.04,0.03-0.05c0,0,0,0,0,0v0c0,0,0,0,0,0c0,0,0,0,0,0c0,0,0,0,0,0l0,0
					c0.02-0.02,0.05-0.04,0.09-0.05l0,0c0,0,0,0,0,0c0,0,0,0,0,0c0,0,0,0,0,0c0.01,0,0.03-0.01,0.04-0.01h0c0,0,0,0,0,0l0,0
					c0,0,0,0,0.01,0l7.65,0.3v-6.79c0,0,0,0,0,0c0-0.01,0-0.01,0-0.02c0-0.03,0.01-0.05,0.02-0.07c0.01-0.02,0.03-0.04,0.05-0.06
					c0.01,0,0.01-0.01,0.02-0.01l6-3.46c0.02-0.01,0.03-0.02,0.05-0.02c0.02-0.01,0.04-0.01,0.06,0c0.03,0,0.05,0.01,0.08,0.02
					c0.02,0.01,0.04,0.03,0.05,0.05c0.01,0.02,0.02,0.04,0.03,0.06c0,0.01,0,0.03,0,0.04v6.49l6.31-7.52
					c0.01-0.01,0.01-0.02,0.02-0.03l1.19-1.42c0,0,0,0,0,0l0,0c0,0,0,0,0,0l0,0l0,0c0.02-0.02,0.04-0.03,0.06-0.05l0,0c0,0,0,0,0,0
					c0.02-0.01,0.04-0.02,0.07-0.02l0,0l0,0c0.01,0,0.02,0,0.04,0c0,0,0,0,0,0l0,0c0,0,0,0,0,0v0c0,0,0,0,0,0l0,0
					c0.01,0,0.02,0,0.03,0.01l0,0c0,0,0,0,0,0l0,0c0,0,0,0,0,0l0,0c0,0,0,0,0,0v0c0,0,0,0,0,0c0,0,0,0,0,0c0,0,0,0,0,0c0,0,0,0,0,0
					l0,0c0,0,0,0,0,0l0,0c0,0,0,0,0,0l0,0c0,0,0,0,0,0l0,0c0,0,0,0,0,0l0,0c0,0,0,0,0.01,0l0,0c0,0,0,0,0,0l0,0c0,0,0,0,0,0l0,0
					c0,0,0,0,0,0l0,0c0,0,0,0,0,0l0,0c0,0,0,0,0,0l0,0c0,0,0,0,0,0c0.01,0.01,0.03,0.02,0.04,0.03c0.02,0.02,0.03,0.03,0.04,0.05
					c0.01,0.02,0.02,0.05,0.02,0.07v0c0,0,0,0,0,0c0,0,0,0,0,0.01v21.89l0.84-0.49V69.61L100.36,83.3z M122.04,100.48l0.85,0.49
					v-21.4l-0.85,1.01V100.48z M71.46,75.17V97.5l0.85-0.49V75.66L71.46,75.17z M109.4,85.22v6.31l5.47-3.16L109.4,85.22z
					 M109.58,84.91l5.43,3.14v-6.27L109.58,84.91z M77.7,69.97l22.48,12.98l5.64-3.26L94.11,60.5L77.7,69.97z M94.72,60.8
					l11.41,18.71l10.5-6.06L94.72,60.8z M94.34,60.17l22.65,13.08l6.85-3.95l-29.5-17.03V60.17z M70.51,65.82l6.84,3.95l16.64-9.6
					v-7.9L70.51,65.82z"/>
			</g>
			<g>
				<path class="st69" d="M96.86,123.87c-22.56,0-40.91-18.35-40.91-40.91c0-22.56,18.35-40.91,40.91-40.91s40.91,18.35,40.91,40.91
					C137.78,105.51,119.42,123.87,96.86,123.87z M96.86,43.23c-21.9,0-39.72,17.82-39.72,39.72s17.82,39.72,39.72,39.72
					c21.9,0,39.72-17.82,39.72-39.72S118.77,43.23,96.86,43.23z"/>
			</g>
		</g>
		<g>
			<g>
				<path class="st68" d="M137.65,196.19L137.65,196.19L137.65,196.19c-0.02,0-0.03,0-0.05-0.01l0,0l0,0
					c-0.01,0-0.03-0.01-0.04-0.02c0,0,0,0,0,0l-1.5-0.86c-0.01,0-0.01-0.01-0.02-0.01c-0.02-0.01-0.04-0.03-0.05-0.05c0,0,0,0,0,0
					l0,0c-0.01-0.02-0.02-0.05-0.02-0.07c0-0.01,0-0.01,0-0.02v-6.85l-19.21-11.09v4.9c0,0.01,0,0.01,0,0.02
					c0,0.03-0.01,0.05-0.02,0.08c-0.01,0.02-0.03,0.04-0.05,0.05c-0.01,0-0.01,0.01-0.02,0.01l-1.5,0.87c0,0,0,0,0,0
					c-0.02,0.01-0.03,0.02-0.05,0.02c0,0,0,0,0,0l0,0c-0.01,0-0.03,0-0.04,0l0,0l0,0c-0.02,0-0.03,0-0.04-0.01h0l0,0
					c-0.02,0-0.03-0.01-0.05-0.02c0,0,0,0,0,0l-1.5-0.87c-0.01,0-0.01-0.01-0.02-0.01c0,0,0,0,0,0l0,0
					c-0.02-0.02-0.04-0.03-0.05-0.05c0,0,0,0,0,0l0,0c-0.01-0.02-0.02-0.04-0.02-0.07c0-0.01,0-0.02,0-0.02v-34.76c0,0,0,0,0,0
					c0-0.02,0-0.03,0.01-0.05c0-0.01,0.01-0.03,0.02-0.04c0.01-0.01,0.02-0.02,0.03-0.04c0.01-0.01,0.02-0.02,0.04-0.03c0,0,0,0,0,0
					l24.08-13.9c0.01,0,0.01-0.01,0.02-0.01c0.02-0.01,0.05-0.02,0.07-0.02l0,0l0,0c0.02,0,0.05,0.01,0.07,0.02
					c0.01,0,0.01,0.01,0.02,0.01l24.08,13.9c0,0,0,0,0,0c0.02,0.01,0.03,0.02,0.04,0.03c0,0,0,0,0,0c0,0,0,0,0,0
					c0.01,0.01,0.02,0.02,0.02,0.03c0.01,0.01,0.01,0.02,0.02,0.04c0,0.02,0.01,0.03,0.01,0.05c0,0,0,0,0,0l0,0c0,0,0,0,0,0v34.76
					c0,0.01,0,0.02,0,0.02c0,0.03-0.01,0.05-0.02,0.07l0,0c0,0,0,0,0,0c-0.01,0.02-0.03,0.04-0.05,0.05l0,0c0,0,0,0,0,0
					c-0.01,0-0.01,0.01-0.02,0.01l-1.5,0.87c0,0,0,0,0,0c-0.02,0.01-0.03,0.02-0.05,0.02h0l0,0c-0.01,0-0.03,0.01-0.04,0.01l0,0l0,0
					c-0.01,0-0.03,0-0.04-0.01l0,0l0,0c-0.02,0-0.03-0.01-0.05-0.02c0,0,0,0,0,0l-1.5-0.87c-0.01,0-0.02-0.01-0.02-0.01
					c-0.02-0.01-0.03-0.03-0.05-0.05c-0.01-0.02-0.02-0.05-0.02-0.08c0-0.01,0-0.01,0-0.02v-4.9l-19.21,11.09v6.85
					c0,0.01,0,0.01,0,0.02c0,0.03-0.01,0.05-0.02,0.07c-0.01,0.02-0.03,0.04-0.05,0.06c-0.01,0-0.01,0.01-0.02,0.01l-1.5,0.87
					c0,0,0,0,0,0c-0.01,0.01-0.03,0.01-0.04,0.02C137.68,196.19,137.66,196.19,137.65,196.19z M137.83,161.34v34.36l1.15-0.66v-6.85
					c0-0.01,0-0.02,0-0.02c0-0.03,0.01-0.05,0.02-0.07c0.01-0.02,0.03-0.04,0.05-0.05c0.01,0,0.01-0.01,0.02-0.01l21.07-12.16
					c0.02-0.01,0.03-0.02,0.05-0.02l0,0c0,0,0,0,0,0c0.02,0,0.04-0.01,0.06,0c0.03,0,0.05,0.01,0.07,0.02
					c0.02,0.01,0.04,0.03,0.06,0.05c0.01,0.02,0.02,0.04,0.03,0.06c0,0.02,0.01,0.03,0.01,0.05v6.64l1.15-0.66v-34.35L137.83,161.34
					z M136.32,195.04l1.14,0.66v-34.35l-8.61-4.97v1.42c0,0.02,0,0.04-0.01,0.05c-0.01,0.02-0.01,0.04-0.03,0.05
					c-0.02,0.02-0.03,0.04-0.06,0.05c-0.02,0.01-0.05,0.02-0.07,0.02c-0.02,0-0.05,0-0.07-0.01c-0.01,0-0.03-0.01-0.04-0.02
					l-6.14-3.54c0,0,0,0,0,0c-0.01-0.01-0.03-0.02-0.04-0.03c0,0,0,0,0,0l0,0c-0.01-0.01-0.02-0.02-0.03-0.04c0,0,0,0,0,0l0,0
					c-0.01-0.01-0.01-0.03-0.02-0.04c0-0.01-0.01-0.03-0.01-0.04v0l0,0c0,0,0,0,0,0v-1.63l-8.62-4.97V182l1.15,0.66v-6.64
					c0-0.02,0-0.03,0.01-0.05c0.01-0.02,0.02-0.04,0.03-0.06l0,0l0,0c0.02-0.02,0.03-0.04,0.06-0.05c0.02-0.01,0.05-0.02,0.07-0.02
					c0.02,0,0.04,0,0.06,0c0.02,0,0.03,0.01,0.05,0.02l21.07,12.16c0.01,0,0.01,0.01,0.02,0.01c0,0,0,0,0,0l0,0
					c0.02,0.02,0.04,0.03,0.05,0.06c0.01,0.02,0.02,0.05,0.02,0.07c0,0.01,0,0.01,0,0.02V195.04z M158.9,182l1.15,0.66v-6.33
					l-1.15,0.66V182z M115.25,176.33v6.33l1.15-0.66v-5.01L115.25,176.33z M128.86,155.86l8.79,5.07l22.05-12.72l-22.05-12.73
					l-22.04,12.73l7.1,4.1c0,0,0,0,0,0c0.01,0.01,0.02,0.02,0.04,0.03c0.01,0.01,0.02,0.02,0.03,0.04c0.01,0.01,0.01,0.03,0.02,0.04
					c0,0,0,0,0,0l0,0c0,0.01,0.01,0.03,0.01,0.04c0,0,0,0,0,0v1.73c0,0,0,0,0,0l5.7,3.29v-1.42c0,0,0,0,0,0c0-0.02,0-0.03,0.01-0.05
					c0-0.01,0.01-0.03,0.02-0.04c0.01-0.01,0.02-0.03,0.03-0.04c0.01-0.01,0.02-0.02,0.03-0.03c0,0,0,0,0,0l0.09-0.05
					c0.01,0,0.01-0.01,0.02-0.01c0.02-0.01,0.05-0.02,0.07-0.02c0,0,0,0,0,0c0.02,0,0.05,0.01,0.07,0.02
					C128.85,155.85,128.85,155.85,128.86,155.86z M114.1,147.34l1.15,0.66l22.22-12.83v-1.32L114.1,147.34z M137.83,135.17
					L160.05,148l1.15-0.66l-23.37-13.49V135.17z M139.16,186.63c-0.01,0-0.01,0-0.02,0l0,0l0,0c-0.02,0-0.05-0.01-0.07-0.02
					c-0.02-0.01-0.04-0.03-0.06-0.05c-0.01-0.02-0.02-0.04-0.03-0.06c0-0.02-0.01-0.03-0.01-0.05v-1.73c0,0,0,0,0-0.01v-20.85
					c0,0,0,0,0-0.01c0-0.01,0-0.01,0-0.02c0-0.02,0.01-0.05,0.02-0.07c0.01-0.02,0.03-0.04,0.05-0.06c0.01,0,0.01-0.01,0.02-0.01
					l21.07-12.16c0.02-0.01,0.03-0.02,0.05-0.02l0,0l0,0c0.02,0,0.03-0.01,0.06,0c0.03,0,0.05,0.01,0.08,0.02
					c0.02,0.01,0.04,0.03,0.05,0.05c0.01,0.02,0.02,0.04,0.03,0.06c0,0.02,0.01,0.03,0.01,0.05v22.59c0,0,0,0,0,0
					c0,0.02,0,0.03-0.01,0.05c0,0.01-0.01,0.02-0.02,0.04c-0.01,0.01-0.02,0.03-0.03,0.04c-0.01,0.01-0.02,0.02-0.04,0.03
					c0,0,0,0,0,0l-21.07,12.16c-0.01,0.01-0.03,0.01-0.04,0.02C139.19,186.63,139.17,186.63,139.16,186.63z M139.33,184.81v1.32
					l20.54-11.86l-1.15-0.66l-1.4,0.81c-0.01,0.01-0.02,0.02-0.03,0.02L139.33,184.81z M139.33,164.16v20.24l17.53-10.12
					L139.33,164.16z M139.51,163.85l17.71,10.22l1.15-0.66l-17.71-10.22L139.51,163.85z M158.9,173.31l1.15,0.66v-21.98l-1.15,0.66
					v19.02c0,0,0,0,0,0.01V173.31z M141.01,162.98l17.53,10.12v-1.32l-16.38-9.46L141.01,162.98z M142.52,162.11l16.03,9.25v-18.5
					L142.52,162.11z M136.14,186.63c-0.02,0-0.03,0-0.05-0.01c-0.02,0-0.03-0.01-0.04-0.02l-21.07-12.16c0,0,0,0,0,0
					c-0.02-0.01-0.03-0.02-0.04-0.03v0l0,0c-0.01-0.01-0.02-0.02-0.02-0.03c-0.01-0.01-0.01-0.02-0.02-0.04
					c0-0.02-0.01-0.04-0.01-0.05c0,0,0,0,0,0v-22.59c0-0.02,0-0.03,0.01-0.05c0.01-0.02,0.02-0.04,0.03-0.06
					c0.02-0.02,0.03-0.03,0.05-0.05c0.02-0.01,0.05-0.02,0.08-0.02c0.02,0,0.04,0,0.06,0h0l0,0c0.02,0,0.03,0.01,0.05,0.02
					l21.07,12.16c0.01,0,0.01,0.01,0.02,0.01c0.02,0.02,0.04,0.03,0.05,0.06c0.01,0.02,0.02,0.05,0.02,0.07c0,0.01,0,0.01,0,0.02
					c0,0,0,0,0,0.01v20.85c0,0,0,0,0,0.01v1.73c0,0.02,0,0.03-0.01,0.05c-0.01,0.02-0.02,0.04-0.03,0.06
					c-0.02,0.02-0.03,0.04-0.05,0.05c-0.02,0.01-0.05,0.02-0.07,0.02C136.16,186.63,136.15,186.63,136.14,186.63z M115.43,174.28
					l20.54,11.86v-1.32L118,174.45c-0.01,0-0.02-0.01-0.03-0.02l-1.4-0.81L115.43,174.28z M118.44,174.28l17.53,10.12v-20.24
					L118.44,174.28z M116.93,173.41l1.15,0.66l17.71-10.22l-1.15-0.66L116.93,173.41z M115.25,151.99v21.98l1.15-0.66v-1.63
					c0,0,0,0,0-0.01v-19.02L115.25,151.99z M116.75,171.78v1.32l17.53-10.12l-1.15-0.66L116.75,171.78z M116.75,152.86v18.5
					l16.03-9.25L116.75,152.86z"/>
			</g>
			<g>
				<path class="st69" d="M135.84,204.52c-22.56,0-40.91-18.35-40.91-40.91c0-22.56,18.35-40.91,40.91-40.91
					s40.91,18.35,40.91,40.91C176.76,186.17,158.4,204.52,135.84,204.52z M135.84,123.88c-21.9,0-39.72,17.82-39.72,39.72
					c0,21.9,17.82,39.72,39.72,39.72s39.72-17.82,39.72-39.72C175.56,141.7,157.75,123.88,135.84,123.88z"/>
			</g>
		</g>
		<g>
			<g>
				<path class="st68" d="M220.67,112.93c-0.02,0-0.03,0-0.05-0.01h0l0,0c-0.01,0-0.02-0.01-0.04-0.02c0,0,0,0,0,0l-0.87-0.5
					c-0.01,0-0.01-0.01-0.02-0.01c-0.02-0.02-0.04-0.03-0.05-0.05c0,0,0,0,0,0s0,0,0,0c-0.01-0.02-0.02-0.05-0.02-0.07
					c0-0.01,0-0.01,0-0.02v-11.32l-2.54-1.47l-0.13,0.07c-0.01,0.01-0.03,0.01-0.04,0.02c0,0,0,0,0,0
					c-0.02,0.01-0.04,0.01-0.06,0.01c-0.02,0-0.03-0.01-0.05-0.01l0,0c0,0,0,0,0,0c0,0,0,0,0,0v0c0,0,0,0,0,0l0,0c0,0,0,0,0,0l0,0
					c-0.01,0-0.02-0.01-0.02-0.01c0,0,0,0,0,0l0,0c-0.02-0.01-0.04-0.03-0.05-0.05c-0.01-0.02-0.02-0.03-0.03-0.05c0,0,0,0,0,0
					s0,0,0,0c0,0,0,0,0,0c0,0,0,0,0,0l0,0c0,0,0-0.01,0-0.01c0-0.01-0.01-0.03-0.01-0.04l0-0.16l-9.51-5.49
					c-0.01-0.01-0.03-0.02-0.04-0.03c-0.01-0.01-0.02-0.02-0.03-0.03l-1.41-2.17v0.57c0,0.01,0,0.01,0,0.02
					c0,0.03-0.01,0.05-0.02,0.07c-0.01,0.02-0.03,0.04-0.05,0.05c-0.01,0-0.01,0.01-0.02,0.01l-0.87,0.5c0,0,0,0,0,0
					c-0.02,0.01-0.03,0.02-0.05,0.02h0l0,0c-0.01,0-0.04,0.01-0.04,0.01c-0.02,0-0.03,0-0.05-0.01c-0.02,0-0.03-0.01-0.05-0.02
					c0,0,0,0,0,0l-0.87-0.5c-0.01,0-0.01-0.01-0.02-0.01c-0.02-0.01-0.04-0.03-0.05-0.05c-0.01-0.02-0.02-0.05-0.02-0.07
					c0-0.01,0-0.01,0-0.02v-3.84l-7.33-11.34v20.64c0,0.01,0,0.01,0,0.02c0,0.03-0.01,0.05-0.02,0.07
					c-0.01,0.02-0.03,0.04-0.05,0.06c-0.01,0-0.01,0.01-0.02,0.01l-0.88,0.5c0,0,0,0,0,0c-0.01,0.01-0.03,0.01-0.05,0.02
					c-0.01,0-0.03,0.01-0.05,0.01c0,0-0.03,0-0.04-0.01c-0.02,0-0.03-0.01-0.05-0.02c0,0,0,0,0,0l-0.87-0.5
					c-0.01,0-0.01-0.01-0.02-0.01c-0.02-0.02-0.04-0.03-0.05-0.05c-0.01-0.02-0.02-0.05-0.02-0.07c0-0.01,0-0.01,0-0.02V73.61
					l-4.29-6.63l-5.86-3.38l-0.13,0.07c-0.01,0.01-0.03,0.01-0.04,0.02l0,0l0,0c0,0-0.01,0-0.01,0c-0.02,0-0.04,0.01-0.06,0
					c-0.02,0-0.04-0.01-0.05-0.01l0,0c0,0,0,0,0,0c-0.01,0-0.02-0.01-0.02-0.01c-0.02-0.01-0.04-0.03-0.05-0.05
					c-0.01-0.02-0.02-0.03-0.03-0.05c0,0,0-0.01,0-0.01l0,0c0,0,0,0,0,0c0-0.01,0-0.03,0-0.04l0-0.15l-2.98-1.72
					c-0.01,0-0.01-0.01-0.02-0.01c-0.02-0.02-0.04-0.03-0.05-0.06c-0.01-0.02-0.02-0.05-0.02-0.07c0-0.01,0-0.01,0-0.02v-7.61
					c0,0,0,0,0,0c0-0.02,0-0.03,0.01-0.05c0-0.01,0.01-0.03,0.02-0.04c0.01-0.01,0.02-0.02,0.03-0.04c0.01-0.01,0.03-0.02,0.04-0.03
					c0,0,0,0,0,0l0.87-0.5c0.01,0,0.01-0.01,0.02-0.01c0.02-0.01,0.07-0.01,0.07-0.02c0.03,0,0.05,0.01,0.07,0.02
					c0.01,0,0.01,0.01,0.02,0.01l3.39,1.96l3.15-1.82v-3.92c0,0,0,0,0,0c0-0.01,0-0.03,0.01-0.04c0-0.02,0.01-0.03,0.02-0.05
					c0.01-0.01,0.02-0.02,0.03-0.03c0.01-0.01,0.02-0.02,0.04-0.03c0,0,0,0,0,0l0,0c0,0,0,0,0,0l0.87-0.5
					c0.01,0,0.01-0.01,0.02-0.01c0.02-0.01,0.05-0.02,0.07-0.02c0,0,0,0,0,0c0.02,0,0.05,0.01,0.07,0.02c0.01,0,0.01,0.01,0.02,0.01
					l3.39,1.96l3.66-2.11c0,0,0,0,0,0l0,0c0,0,0,0,0.01,0l0.3-0.12l0.25-0.04l0.13,0l0.41,0.06l0.42,0.15l0.41,0.24l0.4,0.32
					l0.38,0.38l0.46,0.6l0.37,0.66l0.28,0.69l0.16,0.69l0.04,0.49c0,0,0,0,0,0c0,0,0,0.01,0,0.02l-0.04,0.45l-0.11,0.41l-0.19,0.35
					l-0.17,0.19l-0.2,0.15l0,0c-0.01,0.01-0.02,0.02-0.03,0.02l-0.37,0.22l1.71,0.99c0.01,0,0.02,0.01,0.02,0.02l0,0v0c0,0,0,0,0,0
					l0,0c0.01,0,0.01,0.01,0.02,0.02c0.01,0.01,0.02,0.02,0.02,0.03l17.26,26.69l24.06,13.89c0,0,0,0,0,0
					c0.01,0.01,0.03,0.02,0.04,0.03c0,0,0,0,0,0v0c0.01,0.01,0.02,0.02,0.03,0.03c0.01,0.01,0.02,0.03,0.02,0.05
					c0,0.01,0.01,0.03,0.01,0.04c0,0,0,0,0,0v7.61c0,0.01,0,0.01,0,0.02c0,0.03-0.01,0.05-0.02,0.08c-0.01,0.02-0.03,0.04-0.05,0.05
					c-0.01,0-0.01,0.01-0.02,0.01l-0.87,0.5c0,0,0,0,0,0l0,0c0,0,0,0,0,0c-0.01,0.01-0.03,0.01-0.04,0.02
					c-0.02,0-0.03,0.01-0.05,0.01c0,0-0.03,0-0.05-0.01v0l0,0c-0.01,0-0.03-0.01-0.04-0.02c0,0,0,0,0,0l-0.65-0.37l-5.9,3.4v0.75
					c0,0.01,0,0.02,0,0.02v0l0,0c0,0.02-0.01,0.05-0.02,0.07l0,0l0,0c-0.01,0.02-0.03,0.04-0.05,0.06c-0.01,0-0.01,0.01-0.02,0.01
					l-0.87,0.5c0,0,0,0,0,0c-0.01,0.01-0.03,0.01-0.05,0.02c-0.02,0-0.04,0-0.04,0.01c-0.02,0-0.03,0-0.05-0.01
					c-0.02,0-0.03-0.01-0.05-0.02c0,0,0,0,0,0l-1.23-0.71l-0.13,0.07c-0.01,0.01-0.03,0.01-0.04,0.02c0,0-0.01,0-0.01,0
					c-0.02,0-0.04,0.01-0.06,0c-0.01,0-0.03,0-0.04-0.01l0,0c0,0,0,0,0,0c0,0,0,0,0,0l0,0c-0.01,0-0.03-0.01-0.04-0.02
					c-0.02-0.01-0.04-0.03-0.05-0.05c-0.01-0.02-0.02-0.03-0.03-0.05v0l0,0c0,0,0-0.01,0-0.01c0-0.01-0.01-0.03-0.01-0.04
					l-0.01-0.16l-1.46-0.84l-0.35,0.2c0,0,0,0,0,0c-0.02,0.01-0.03,0.02-0.05,0.02h0l0,0c-0.01,0-0.03,0.01-0.04,0.01h0
					c-0.02,0-0.03,0-0.05-0.01c-0.02,0-0.03-0.01-0.05-0.02c0,0,0,0,0,0l-0.87-0.5c-0.01,0-0.01-0.01-0.02-0.01
					c-0.02-0.02-0.04-0.03-0.05-0.05l0,0v0c-0.01-0.02-0.02-0.05-0.02-0.07c0-0.01,0-0.01,0-0.02v-0.4l-4.32-2.49l-0.13,0.07
					c-0.01,0.01-0.02,0.01-0.03,0.02c-0.01,0-0.01,0-0.02,0c0,0,0,0,0,0l0,0c-0.02,0-0.04,0.01-0.06,0c-0.02,0-0.03,0-0.05-0.01l0,0
					c0,0,0,0,0,0l0,0c-0.01,0-0.02-0.01-0.03-0.01c-0.02-0.01-0.04-0.03-0.05-0.05c-0.01-0.01-0.02-0.03-0.02-0.04l0,0v0
					c0,0,0,0,0,0c0,0,0,0,0,0c0,0,0,0,0,0l0,0c0,0,0-0.01,0-0.01c0-0.01-0.01-0.03-0.01-0.04l0-0.16l-2.62-1.51v10.09
					c0,0.01,0,0.02,0,0.02l0,0c0,0,0,0,0,0c0,0.02-0.01,0.05-0.02,0.07c-0.01,0.02-0.03,0.04-0.05,0.06c-0.01,0-0.01,0.01-0.02,0.01
					l-0.87,0.5c0,0,0,0,0,0c-0.01,0.01-0.03,0.01-0.04,0.02l0,0l0,0C220.7,112.92,220.69,112.92,220.67,112.93z M220.85,97.06v15.38
					l0.52-0.3v-10.3c0,0,0,0,0-0.01v-5.67L220.85,97.06z M219.98,112.14l0.52,0.3V97.11l-0.52-0.3v4c0,0,0,0,0,0.01V112.14z
					 M229.34,106.12l4.23,2.44v-7.2L209.56,87.5c-0.01,0-0.02-0.01-0.02-0.02v0l0,0c-0.01-0.01-0.01-0.01-0.02-0.02
					c-0.01-0.01-0.02-0.02-0.02-0.03l-17.26-26.69l-11.38-6.57v7.2l2.96,1.71c0.01,0,0.02,0.01,0.03,0.01
					c0.01,0,0.01,0.01,0.02,0.01l0.19,0.11c0.01,0,0.01,0.01,0.02,0.01l5.98,3.45c0.01,0.01,0.03,0.02,0.04,0.03
					c0.01,0.01,0.02,0.02,0.03,0.03l4.01,6.2v-4.36c0-0.02,0-0.03,0.01-0.05c0-0.02,0.01-0.03,0.02-0.05l0.88-1.52c0,0,0,0,0,0l0,0
					v0l0,0c0,0,0,0,0,0v0c0,0,0,0,0,0l0,0c0,0,0,0,0,0c0,0,0,0,0,0l0,0v0l0,0c0,0,0,0,0,0v0c0,0,0,0,0,0l0,0c0,0,0,0,0,0l0,0
					c0,0,0,0,0,0c0,0,0,0,0,0s0,0,0,0l0,0c0.03-0.05,0.08-0.07,0.14-0.08l0,0c0,0,0,0,0,0l0,0h0c0.01,0,0.04,0,0.06,0.01l0,0l0,0
					l0,0c0,0,0,0,0,0l0,0l0,0c0,0,0,0,0,0l0,0l0,0c0,0,0,0,0,0c0,0,0,0,0,0l0,0h0l0,0c0,0,0,0,0,0l0,0c0.01,0,0.02,0.01,0.04,0.02
					l0.88,0.51c0.01,0,0.01,0.01,0.02,0.01c0.01,0.01,0.02,0.02,0.03,0.03l0,0c0,0,0,0,0,0l0,0v0c0,0,0,0,0,0v0l0,0c0,0,0,0,0,0l0,0
					c0,0,0,0,0,0l0,0c0,0,0,0,0,0c0,0,0,0,0,0v0v0l0,0c0,0,0,0,0,0v0c0,0,0,0,0,0c0,0,0,0,0,0l0,0c0,0,0,0,0,0l0,0c0,0,0,0,0,0l0,0
					c0,0,0,0,0,0c0,0,0,0,0,0c0,0,0,0,0,0v0c0,0,0,0,0,0v0v0l0,0c0,0,0,0,0,0c0,0,0,0,0,0c0,0,0,0,0,0l0,0c0,0,0,0,0,0l0,0
					c0,0,0,0,0,0h0c0,0,0,0,0,0c0,0,0,0,0,0c0,0,0,0,0,0c0,0,0,0,0,0c0,0,0,0,0,0c0,0,0,0,0,0c0,0,0,0,0,0c0,0,0,0,0,0c0,0,0,0,0,0
					c0,0,0,0,0,0c0,0,0,0,0,0s0,0,0,0v0c0.01,0.02,0.02,0.05,0.02,0.07c0,0,0,0,0,0l0,0c0,0,0,0,0,0l0,0c0,0,0,0,0,0l0,0
					c0,0,0,0,0,0c0,0,0,0,0,0s0,0,0,0l0,0c0,0,0,0,0,0l0,0c0,0,0,0,0,0v0c0,0,0,0,0,0l0,0c0,0,0,0,0,0l0,0c0,0,0,0,0,0l0,0
					c0,0,0,0,0,0c0,0,0,0,0,0s0,0,0,0l0,0c0,0,0,0,0,0l0,0c0,0,0,0,0,0v0c0,0,0,0,0,0l0,0c0,0,0,0,0,0l0,0c0,0,0,0,0,0s0,0,0,0v0
					c0,0,0,0,0,0s0,0,0,0l0,0v0v8.65l9.41,14.56c0.01,0.01,0.01,0.02,0.02,0.02l1.71,2.64l12.24,7.07v-4c0-0.02,0-0.03,0.01-0.05
					c0-0.02,0.01-0.03,0.02-0.05l0.88-1.52l0,0c0.05-0.08,0.16-0.11,0.25-0.07l0.88,0.51c0.01,0,0.01,0.01,0.02,0.01
					c0.02,0.02,0.04,0.04,0.05,0.06c0.01,0.02,0.02,0.04,0.02,0.07c0,0.01,0,0.02,0,0.03v6.24l2.87,1.66c0.01,0,0.02,0.01,0.02,0.01
					l4.7,2.72C229.33,106.12,229.34,106.12,229.34,106.12z M233.93,101.36v7.2l0.52-0.3v-0.75c0,0,0,0,0-0.01v0c0,0,0,0,0,0v-3.35
					c0,0,0,0,0-0.01v-2.71c0,0,0,0,0-0.01v-0.37L233.93,101.36z M234.81,105.02v2.01l0.11-0.25l0.07-0.36l0.01-0.27l-0.03-0.45
					L234.81,105.02z M229.43,106.68l0.52,0.3v-0.1l-0.52-0.3V106.68z M234.81,104.11l0.29,0.65l0.16,0.53l0.1,0.68l0,0.17
					l-0.04,0.46l-0.1,0.36l5.38-3.1c0.01,0,0.01-0.01,0.02-0.01l0.64-0.37l0,0c0,0,0,0,0,0c0,0,0.01,0,0.01-0.01l0.21-0.17
					l0.17-0.25l0.11-0.32l0.05-0.39l0-0.14l-0.03-0.45l-0.15-0.65l-0.26-0.65l-0.08-0.16c0,0,0,0,0,0l-0.37-0.6l-0.44-0.53
					l-0.48-0.42l-0.16-0.11l-5.02,2.9V104.11z M241.06,104.01l0.2,0.12v-0.23L241.06,104.01z M241.62,103.66v0.46l0.52-0.3v-1.21
					l-0.08,0.35l-0.1,0.26l-0.22,0.33L241.62,103.66z M241.62,100.17l0.29,0.65l0.16,0.53l0.07,0.42v-5.16l-0.52,0.3V100.17z
					 M234.81,100.76v0.37l4.84-2.8l-0.03-0.88l-5.18,2.99l0.28,0.16c0,0,0,0,0,0c0.01,0.01,0.03,0.02,0.04,0.03
					c0.01,0.01,0.02,0.02,0.03,0.04c0.01,0.01,0.01,0.03,0.02,0.04v0l0,0C234.81,100.72,234.81,100.74,234.81,100.76
					C234.81,100.75,234.81,100.75,234.81,100.76z M210.01,87.35l23.75,13.71l0.52-0.3l-14.48-8.36c-0.01,0-0.02-0.01-0.03-0.02
					l-9.23-5.33L210.01,87.35z M227.9,96.66l6.18,3.57l4.26-2.46l-6.18-3.57L227.9,96.66z M240.01,98.33l0.46,0.34l0.39,0.38
					l0.41,0.53v-2.65l-24.01-13.86c-0.01-0.01-0.02-0.01-0.03-0.02l0,0v0c0,0-0.01-0.01-0.01-0.01c-0.01-0.01-0.02-0.02-0.03-0.03
					l-17.26-26.69l-11.38-6.57v3.41l0.38-0.22l0,0l0,0c0,0,0.01,0,0.01-0.01l0.21-0.09l0.26-0.06l0.26-0.01l0.42,0.07l0.11,0.04
					l1.05-0.61c0.01-0.01,0.03-0.02,0.05-0.02l0,0c0,0,0,0,0,0c0.02-0.01,0.04-0.01,0.06-0.01c0.03,0,0.05,0.01,0.07,0.02
					c0.02,0.01,0.04,0.03,0.06,0.05c0.01,0.02,0.02,0.04,0.03,0.06c0,0.01,0.01,0.03,0.01,0.04l0.03,1.19l6.36,3.67l1.01-0.58
					c0.01-0.01,0.03-0.01,0.04-0.02c0.02-0.01,0.04-0.01,0.06-0.01c0.03,0,0.05,0.01,0.07,0.02c0.02,0.01,0.04,0.03,0.06,0.05
					c0.01,0.02,0.02,0.04,0.03,0.06l0,0l0,0c0,0.02,0.01,0.03,0.01,0.05l0.03,1.19l0.11,0.06c0.01,0,0.02,0.01,0.02,0.01
					c0.01,0.01,0.01,0.01,0.02,0.02c0.01,0.01,0.02,0.02,0.02,0.03l5.53,8.55l0.63-0.36c0.01-0.01,0.03-0.01,0.04-0.02
					c0.02-0.01,0.05-0.01,0.08,0c0.03,0,0.05,0.01,0.08,0.03c0.02,0.01,0.03,0.02,0.04,0.04c0.01,0.02,0.02,0.04,0.03,0.06
					c0.01,0.03,0.01,0.05,0,0.08l0,0l0,0c0,0.03-0.01,0.05-0.03,0.07c-0.01,0.01-0.02,0.02-0.03,0.04l-0.56,0.5l5.6,8.67l0.63-0.36
					c0.01-0.01,0.03-0.01,0.04-0.02c0.02-0.01,0.05-0.01,0.07-0.01c0.03,0,0.06,0.01,0.08,0.03c0.02,0.01,0.03,0.02,0.04,0.04
					c0.01,0.02,0.02,0.04,0.03,0.06c0.01,0.02,0.01,0.05,0,0.07c0,0.03-0.01,0.05-0.03,0.08c-0.01,0.01-0.02,0.02-0.03,0.03
					l-0.56,0.5l5.03,7.78l0.55-0.32c0.01-0.01,0.03-0.02,0.05-0.02c0.02-0.01,0.04-0.01,0.06-0.01c0.03,0,0.05,0.01,0.08,0.02
					c0.02,0.01,0.04,0.03,0.06,0.05c0.01,0.02,0.02,0.03,0.03,0.05c0,0.02,0.01,0.03,0.01,0.05l0.03,1.19l6.36,3.67l1.01-0.58
					c0.01-0.01,0.03-0.01,0.04-0.02c0.02-0.01,0.05-0.01,0.07-0.01c0.02,0,0.05,0.01,0.07,0.02c0,0,0,0,0,0v0
					c0.02,0.01,0.04,0.03,0.06,0.05l0,0c0,0,0,0,0,0c0.01,0.02,0.02,0.04,0.03,0.06c0,0.01,0.01,0.03,0.01,0.04l0.03,1.19l6.37,3.67
					l1.01-0.58c0.01-0.01,0.03-0.01,0.04-0.02c0.02-0.01,0.04-0.01,0.07-0.01c0.03,0,0.05,0.01,0.07,0.02
					c0.02,0.01,0.04,0.03,0.06,0.05c0.01,0.02,0.02,0.04,0.03,0.06c0,0.02,0.01,0.03,0.01,0.05l0.03,1.19l6.36,3.67l1.01-0.58
					c0.01-0.01,0.03-0.01,0.04-0.02l0,0c0,0,0,0,0,0c0.02-0.01,0.04-0.01,0.06-0.01c0.03,0,0.05,0.01,0.07,0.02
					c0.02,0.01,0.04,0.03,0.06,0.05c0.01,0.02,0.02,0.04,0.03,0.06c0,0.02,0.01,0.03,0.01,0.05L240.01,98.33z M195.36,69.14v28.58
					l0.52-0.3V76.28c0,0,0,0,0-0.01v-8.04L195.36,69.14z M194.48,97.42l0.52,0.3V69.19l-0.52-0.3v4.66c0,0,0,0,0,0.01V97.42z
					 M220.04,96.44l0.57,0.33l0.7-1.21l-0.57-0.33L220.04,96.44z M217.69,82.9l23.75,13.71l0.52-0.3L218.22,82.6L217.69,82.9z
					 M226.76,96l0.78,0.45l4.43-2.56l-0.03-0.88L226.76,96z M220.22,92.23l6.18,3.57l4.26-2.46l-6.18-3.57L220.22,92.23z
					 M204.81,90.13v2.13l0.52-0.3v-1.02L204.81,90.13z M203.93,91.96l0.52,0.3v-2.68l-0.52-0.8V91.96z M219.08,91.57l0.78,0.45
					l4.43-2.56l-0.03-0.88l-0.83,0.48c-0.01,0-0.01,0.01-0.02,0.01L219.08,91.57z M212.54,87.8l6.18,3.57l4.26-2.46l-6.18-3.57
					L212.54,87.8z M211.41,87.14l0.78,0.45l4.43-2.56l-0.02-0.88L211.41,87.14z M192.61,60.68l17.09,26.43l0.57-0.33l-4.91-7.59
					c-0.01-0.01-0.01-0.02-0.02-0.03c0,0,0-0.01-0.01-0.01l-5.86-9.07c0,0,0-0.01-0.01-0.01l-5.61-8.67
					c-0.01-0.01-0.02-0.02-0.02-0.03c0-0.01-0.01-0.01-0.01-0.02l-0.65-1.01L192.61,60.68z M210.65,86.71l0.4,0.23l4.76-2.75
					l-5.01-7.75l-4.94,2.85L210.65,86.71z M200.3,56.24l17.09,26.43l0.57-0.33l-17.09-26.43L200.3,56.24z M199.98,70.2l5.58,8.64
					l4.94-2.85l-5.58-8.64L199.98,70.2z M194.25,61.34l5.43,8.4l4.94-2.86l-5.43-8.4L194.25,61.34z M194.55,68.52l0.57,0.33
					l0.7-1.21l-0.57-0.33L194.55,68.52z M193.52,60.22l0.42,0.65l4.92-2.84l-0.03-0.88L193.52,60.22z M181.03,53.87l11.33,6.54
					l0.52-0.3l-7.92-4.57c-0.01,0-0.02-0.01-0.02-0.01l-3.38-1.95L181.03,53.87z M187.12,56.37l6.18,3.57l4.26-2.46l-6.18-3.57
					L187.12,56.37z M185.98,55.71l0.78,0.45l4.43-2.56l-0.03-0.88l-0.84,0.49c-0.01,0.01-0.03,0.02-0.04,0.02L185.98,55.71z
					 M188.72,49.43l11.33,6.54l0.52-0.3l-7.92-4.57c-0.01,0-0.01-0.01-0.02-0.01l-3.39-1.96L188.72,49.43z M185.4,55.37l0.23,0.13
					l4.12-2.38l-0.1-0.01l-0.3,0.02l-0.25,0.1L185.4,55.37z M193.09,50.93l5.86,3.38l0.72-0.44l0.18-0.22l0.13-0.3l0.08-0.49l0-0.14
					l-0.06-0.6l-0.17-0.64l-0.28-0.64l-0.37-0.61l-0.44-0.53l-0.48-0.43l-0.49-0.3l-0.47-0.15l-0.21-0.02l-0.29,0.03l-0.22,0.09
					L193.09,50.93z"/>
			</g>
			<g>
				<path class="st69" d="M208.09,123.87c-22.56,0-40.91-18.35-40.91-40.91c0-22.56,18.35-40.91,40.91-40.91S249,60.39,249,82.95
					C249,105.51,230.65,123.87,208.09,123.87z M208.09,43.23c-21.9,0-39.72,17.82-39.72,39.72s17.82,39.72,39.72,39.72
					s39.72-17.82,39.72-39.72S229.99,43.23,208.09,43.23z"/>
			</g>
		</g>
		<g>
			<g>
				<g>
					<polygon class="st0" points="168.07,82.95 160.02,80.77 160.02,82.26 137.53,82.26 137.53,83.65 160.02,83.65 160.02,85.14 
											"/>
				</g>
			</g>
		</g>
		<g>
			<g>
				<g>
					<polygon class="st0" points="165.33,136.21 172.57,132.06 171.51,131 184.61,115.42 183.62,114.43 170.53,130.02 
						169.47,128.97 					"/>
				</g>
			</g>
		</g>
	</g>
	<g>
		<path d="M38.39,11.04h6.86v8.71h-1.22V12.1h-4.42v7.65h-1.22V11.04z"/>
		<path d="M52.73,10.89c2.52,0,4.47,1.94,4.47,4.44c0,2.57-1.95,4.57-4.47,4.57s-4.48-2-4.48-4.57
			C48.24,12.83,50.21,10.89,52.73,10.89z M52.73,18.77c1.78,0,3.21-1.49,3.21-3.44c0-1.89-1.43-3.33-3.21-3.33
			c-1.79,0-3.22,1.44-3.22,3.33C49.5,17.28,50.94,18.77,52.73,18.77z"/>
		<path d="M59.69,18.69c1.21-1.7,1.37-3.96,1.37-5.86v-1.79h5.1v7.65h0.96v2.79h-1.1v-1.73h-6.07v1.73h-1.14v-2.79H59.69z
			 M64.94,18.69V12.1h-2.73v0.8c0,1.91-0.21,4.22-1.23,5.79H64.94z"/>
		<path d="M70.01,11.04h5.15v1.06h-3.93v2.43h1.91c1.53,0,2.65,0.95,2.65,2.63c0,1.56-1.07,2.59-2.59,2.59h-3.2V11.04z M73.01,18.69
			c0.98,0,1.56-0.58,1.56-1.53c0-0.96-0.62-1.57-1.58-1.57h-1.75v3.1H73.01z"/>
		<path d="M82.65,10.89c2.52,0,4.47,1.94,4.47,4.44c0,2.57-1.95,4.57-4.47,4.57s-4.48-2-4.48-4.57
			C78.17,12.83,80.13,10.89,82.65,10.89z M82.65,18.77c1.78,0,3.21-1.49,3.21-3.44c0-1.89-1.43-3.33-3.21-3.33
			c-1.79,0-3.22,1.44-3.22,3.33C79.43,17.28,80.86,18.77,82.65,18.77z"/>
		<path d="M90.11,11.04h3.2c1.59,0,2.73,1.07,2.73,2.73s-1.14,2.77-2.73,2.77h-1.97v3.22h-1.22V11.04z M93.11,15.47
			c1.04,0,1.69-0.65,1.69-1.7c0-1.04-0.65-1.67-1.68-1.67h-1.79v3.37H93.11z"/>
		<path d="M107.06,10.89c2.52,0,4.47,1.94,4.47,4.44c0,2.57-1.95,4.57-4.47,4.57s-4.48-2-4.48-4.57
			C102.58,12.83,104.54,10.89,107.06,10.89z M107.06,18.77c1.78,0,3.21-1.49,3.21-3.44c0-1.89-1.43-3.33-3.21-3.33
			c-1.79,0-3.22,1.44-3.22,3.33C103.84,17.28,105.27,18.77,107.06,18.77z"/>
		<path d="M114.52,11.04h5.15v1.06h-3.93v2.43h1.91c1.53,0,2.65,0.95,2.65,2.63c0,1.56-1.07,2.59-2.59,2.59h-3.2V11.04z
			 M117.52,18.69c0.98,0,1.56-0.58,1.56-1.53c0-0.96-0.62-1.57-1.58-1.57h-1.75v3.1H117.52z"/>
		<path d="M127.16,10.89c2.52,0,4.47,1.94,4.47,4.44c0,2.57-1.95,4.57-4.47,4.57s-4.48-2-4.48-4.57
			C122.68,12.83,124.64,10.89,127.16,10.89z M127.16,18.77c1.78,0,3.21-1.49,3.21-3.44c0-1.89-1.43-3.33-3.21-3.33
			c-1.79,0-3.22,1.44-3.22,3.33C123.94,17.28,125.37,18.77,127.16,18.77z"/>
		<path d="M134.62,11.04h3.2c1.59,0,2.73,1.07,2.73,2.73s-1.14,2.77-2.73,2.77h-1.97v3.22h-1.22V11.04z M137.61,15.47
			c1.04,0,1.69-0.65,1.69-1.7c0-1.04-0.65-1.67-1.68-1.67h-1.79v3.37H137.61z"/>
		<path d="M143.64,18.4c0.21,0.16,0.58,0.43,1,0.43c0.51,0,0.75-0.37,0.99-0.98l-3.44-6.83h1.35l2.12,4.38
			c0.27,0.54,0.49,1.15,0.49,1.15h0.02c0,0,0.19-0.61,0.37-1.14l1.62-4.39h1.28l-2.78,7.11c-0.35,0.88-0.9,1.75-1.99,1.75
			c-0.59,0-1.11-0.23-1.59-0.57L143.64,18.4z"/>
		<path d="M151.13,18.69c1.21-1.7,1.37-3.96,1.37-5.86v-1.79h5.1v7.65h0.96v2.79h-1.1v-1.73h-6.07v1.73h-1.14v-2.79H151.13z
			 M156.38,18.69V12.1h-2.73v0.8c0,1.91-0.21,4.22-1.23,5.79H156.38z"/>
		<path d="M165.27,10.89c2.52,0,4.47,1.94,4.47,4.44c0,2.57-1.95,4.57-4.47,4.57s-4.48-2-4.48-4.57
			C160.79,12.83,162.75,10.89,165.27,10.89z M165.27,18.77c1.78,0,3.21-1.49,3.21-3.44c0-1.89-1.43-3.33-3.21-3.33
			c-1.79,0-3.22,1.44-3.22,3.33C162.05,17.28,163.48,18.77,165.27,18.77z"/>
		<path d="M172.73,11.04h3.05c1.48,0,2.53,0.81,2.53,2.22c0,0.85-0.42,1.53-1.09,1.88v0.03c0.93,0.27,1.44,1.14,1.44,2.11
			c0,1.64-1.28,2.48-2.81,2.48h-3.12V11.04z M175.78,14.7c0.79,0,1.28-0.56,1.28-1.32c0-0.76-0.47-1.28-1.3-1.28h-1.81v2.6H175.78z
			 M175.91,18.69c0.94,0,1.49-0.59,1.49-1.49c0-0.88-0.58-1.48-1.49-1.48h-1.96v2.97H175.91z"/>
		<path d="M183.71,11.04h1.3l3.12,8.71h-1.26L186,17.24h-3.28l-0.88,2.51h-1.25L183.71,11.04z M185.68,16.23l-0.96-2.75
			c-0.15-0.46-0.35-1.25-0.35-1.25h-0.03c0,0-0.18,0.79-0.33,1.25l-0.98,2.75H185.68z"/>
		<path d="M190.7,11.04h1.22v3.83h4.53v-3.83h1.21v8.71h-1.21v-3.83h-4.53v3.83h-1.22V11.04z"/>
		<path d="M201.2,11.04h1.22v5.65c0,0.49-0.07,1.27-0.07,1.27h0.02c0,0,0.43-0.81,0.74-1.28l3.86-5.64h1.2v8.71h-1.21V14.1
			c0-0.49,0.07-1.27,0.07-1.27h-0.03c0,0-0.42,0.79-0.73,1.27l-3.89,5.65h-1.2V11.04z"/>
		<path d="M212.8,16.5c0.17-0.28,0.26-0.41,0.26-0.41v-0.02c-1.12-0.41-1.65-1.35-1.65-2.51c0-1.15,0.57-1.94,1.37-2.3
			c0.37-0.16,0.79-0.23,1.63-0.23h2.69v8.71h-1.22v-3.47h-1.6l-2.05,3.47h-1.37L212.8,16.5z M215.87,15.24V12.1h-1.38
			c-0.61,0-0.9,0.07-1.14,0.2c-0.44,0.25-0.7,0.74-0.7,1.32c0,1.01,0.59,1.63,1.54,1.63H215.87z"/>
	</g>
	<g>
		<circle class="st0" cx="23.17" cy="15.65" r="10.5"/>
		<g>
			<path class="st1" d="M18.67,20.62c0.04-4.52,6.29-5.19,6.32-8.17c0.01-1.24-0.94-2.11-2.29-2.11c-1.06,0-2.04,0.7-2.59,1.62
				l-1.31-0.88c0.73-1.33,2.18-2.41,4.05-2.41c2.32,0,3.98,1.46,3.96,3.65c-0.04,4.18-6.11,4.83-6.21,7.72h6.34l-0.01,1.55h-8.19
				C18.7,21.25,18.67,20.93,18.67,20.62z"/>
		</g>
	</g>
</g>
</svg>
